<svg width="273" height="179" viewBox="0 0 273 179" fill="none" xmlns="http://www.w3.org/2000/svg">
<path opacity="0.1" d="M2.94971 97.4901C7.26898 114.314 16.4138 128.857 30.8666 135.905C60.9143 150.556 128.638 142.999 179.19 134.327C205.346 129.84 228.32 117.467 245.018 100.032L2.94971 97.4901Z" fill="#2EA5FC"/>
<path opacity="0.1" d="M268.05 18.3025H240.313C238.993 18.3025 237.913 17.3192 237.913 16.1177C237.913 14.9162 238.991 13.9329 240.313 13.9329H245.112C243.792 13.9329 242.712 12.9496 242.712 11.7481C242.712 10.5466 243.79 9.56567 245.112 9.56567H241.688C240.368 9.56567 239.288 8.58239 239.288 7.38087C239.288 6.17935 240.366 5.19607 241.688 5.19607H256.165C252.951 3.83387 249.206 2.86737 244.872 2.36134C205.396 -2.26008 191.301 0.795289 186.322 3.93939C180.133 7.8987 173.248 10.6485 166.033 12.0431C141.678 16.6213 96.1284 22.1301 54.8434 10.2779C34.3245 4.39026 19.0751 14.355 9.93262 30.9772H272.866C272.523 26.1423 271.496 21.6768 269.609 17.7701C269.164 18.1176 268.615 18.3052 268.05 18.3025V18.3025Z" fill="#2EA5FC"/>
<path opacity="0.1" d="M0.59581 62.375C-0.468452 72.1596 -0.105527 82.0468 1.67323 91.7271L245.203 99.8428C251.913 92.8363 257.608 84.9252 262.123 76.34L0.59581 62.375ZM96.9083 83.3141H92.1091C93.4265 83.3141 94.5087 84.2974 94.5087 85.4989C94.5087 86.7004 93.4289 87.6813 92.1091 87.6813H64.3842C63.0668 87.6813 61.9846 86.7004 61.9846 85.4989C61.9846 84.2974 63.0644 83.3141 64.3842 83.3141H69.1834C67.866 83.3141 66.7838 82.3308 66.7838 81.1293C66.7838 79.9278 67.8636 78.9445 69.1834 78.9445H65.7544C64.437 78.9445 63.3548 77.9636 63.3548 76.7621C63.3548 75.5605 64.4346 74.5773 65.7544 74.5773H93.4913C94.8111 74.5773 95.8909 75.5605 95.8909 76.7621C95.8909 77.9636 94.8135 78.9445 93.4913 78.9445H96.9083C98.2281 78.9445 99.3079 79.9278 99.3079 81.1293C99.3079 82.3308 98.2353 83.3141 96.9083 83.3141Z" fill="#2EA5FC"/>
<path opacity="0.1" d="M272.878 31.1282L7.0027 37.0207C3.76325 44.5968 1.62041 53.1609 0.631775 62.0392H268.218C269.96 56.8443 271.252 51.5093 272.081 46.0933C272.878 40.8747 273.197 35.8288 272.878 31.1282ZM54.6154 50.4365H49.8163C51.1336 50.4365 52.2158 51.4198 52.2158 52.6213C52.2158 53.8228 51.136 54.8061 49.8163 54.8061H22.0817C20.7644 54.8061 19.6822 53.8228 19.6822 52.6213C19.6822 51.4198 20.762 50.4365 22.0817 50.4365H26.8809C25.5636 50.4365 24.4813 49.4556 24.4813 48.2541C24.4813 47.0526 25.5612 46.0693 26.8809 46.0693H23.4519C22.1345 46.0693 21.0523 45.086 21.0523 43.8845C21.0523 42.683 22.1321 41.6997 23.4519 41.6997H51.1888C52.5086 41.6997 53.5884 42.683 53.5884 43.8845C53.5884 45.086 52.511 46.0693 51.1888 46.0693H54.6154C55.9328 46.0693 57.015 47.0526 57.015 48.2541C57.015 49.4556 55.9328 50.4365 54.6154 50.4365Z" fill="#2EA5FC"/>
<path opacity="0.1" d="M175.003 168.999C183.288 168.999 190.003 167.656 190.003 165.999C190.003 164.342 183.288 162.999 175.003 162.999C166.719 162.999 160.003 164.342 160.003 165.999C160.003 167.656 166.719 168.999 175.003 168.999Z" fill="#353546"/>
<path opacity="0.1" d="M210.003 178.999C224.915 178.999 237.003 178.104 237.003 176.999C237.003 175.894 224.915 174.999 210.003 174.999C195.092 174.999 183.003 175.894 183.003 176.999C183.003 178.104 195.092 178.999 210.003 178.999Z" fill="#353546"/>
<path opacity="0.1" d="M101.003 176.999C115.915 176.999 128.003 175.432 128.003 173.499C128.003 171.566 115.915 169.999 101.003 169.999C86.0915 169.999 74.0032 171.566 74.0032 173.499C74.0032 175.432 86.0915 176.999 101.003 176.999Z" fill="#353546"/>
<path opacity="0.1" d="M142.503 159.999C153.825 159.999 163.003 158.432 163.003 156.499C163.003 154.566 153.825 152.999 142.503 152.999C131.181 152.999 122.003 154.566 122.003 156.499C122.003 158.432 131.181 159.999 142.503 159.999Z" fill="#353546"/>
<path d="M157.909 76.1605C157.472 73.2581 154.797 66.4851 154.797 66.4851C154.75 66.2855 154.698 66.0859 154.639 65.8863C152.742 59.4587 150.115 58.8997 150.115 58.8997L140.707 56.9036C140.786 56.9521 140.855 57.0152 140.909 57.0892C140.86 57.0937 140.81 57.1011 140.762 57.1112C140.331 56.6099 140.046 56.0028 139.937 55.3546C139.919 55.2587 139.903 55.1549 139.891 55.0571C140.567 54.4079 141.094 53.6237 141.437 52.7572C141.78 51.8906 141.931 50.9618 141.88 50.033C141.829 49.1042 141.577 48.1969 141.141 47.372C140.705 46.547 140.095 45.8235 139.352 45.25C139.253 45.1741 139.15 45.1003 139.05 45.0304C139.494 44.5653 139.508 43.9186 139.176 43.2718C138.435 41.7547 136.823 40.7946 135.167 40.3255C133.901 39.9682 132.534 39.8524 131.274 40.2436C130.56 40.4672 129.908 40.8425 129.237 41.1758C127.988 41.7907 126.605 42.2777 125.671 43.2898C125.453 43.5253 125.25 43.8267 125.315 44.1381C125.363 44.3697 125.55 44.5493 125.669 44.7549C125.939 45.2161 125.872 45.7969 125.687 46.3C125.503 46.803 125.234 47.2701 125.106 47.7851C124.979 48.3001 125.027 48.907 125.42 49.2762C125.609 49.4196 125.805 49.5528 126.007 49.6755C126.222 49.8561 126.411 50.065 126.568 50.2963C126.941 50.7887 127.312 51.2831 127.682 51.7794C128.204 52.4373 128.671 53.1363 129.077 53.8694C129.355 54.4084 129.569 54.9833 129.94 55.4663C130.049 55.6073 130.173 55.7359 130.311 55.8496L130.201 55.8077C130.362 55.9692 130.555 56.0966 130.768 56.1821C130.981 56.2676 131.209 56.3093 131.438 56.3047C131.459 56.3047 131.477 56.3047 131.495 56.3047C131.58 56.303 131.661 56.2702 131.722 56.2129C131.722 56.2808 131.722 56.3486 131.722 56.4125C131.744 57.1251 131.74 57.8837 131.69 58.5963L131.603 58.5524C131.473 58.4891 131.329 58.4634 131.185 58.4782C131.042 58.4931 130.906 58.5479 130.793 58.6362L122.132 65.4871C122.132 65.4871 120.248 68.0262 120.512 72.4097L118.993 78.9831C118.993 78.9831 117.095 84.5603 118.555 88.5427C120.015 92.525 120.862 94.8026 120.862 94.8026C120.862 94.8026 121.445 99.3279 122.322 99.6972C123.199 100.067 123.577 100.266 123.577 100.266L123.752 101.348C123.752 101.348 123.81 101.454 123.914 101.632C124.551 102.725 126.915 106.586 128.288 106.173C128.46 107.221 128.535 108.283 128.51 109.345L129.869 118.337C129.869 118.337 130.817 120.783 130.758 122.064C130.699 123.346 131.864 125.172 131.864 125.172C131.156 126.449 130.949 127.937 131.281 129.354C131.835 131.75 132.536 142.784 132.536 142.784L133.549 145.459L133.52 148.595C133.437 149.107 133.221 149.588 132.892 149.992C132.236 150.695 132.285 151.508 130.703 152.468C129.122 153.428 128.119 153.791 128.119 155.063C128.118 155.24 128.101 155.417 128.071 155.592C127.925 156.526 127.642 157.033 130.55 157.304C133.966 157.624 136.244 155.428 136.244 155.428C136.244 155.428 136.746 154.53 139.111 154.166C139.111 154.166 139.921 154.124 139.964 153.42C139.98 153.176 139.976 152.711 139.964 152.198C139.925 151.222 139.83 150.082 139.705 150.026C139.547 149.956 139.271 148.974 139.176 148.619H139.834C139.834 148.619 140.442 144.094 139.834 141.163C139.227 138.233 139.775 136.155 139.775 136.155L139.658 128.416C139.658 128.416 138.848 127.562 139.484 126.052C140.12 124.543 139.484 117.09 139.484 117.09C139.484 117.09 139.719 114.415 140.389 113.788C141.059 113.161 140.421 109.87 140.389 109.698L141.584 113.648C141.584 113.648 142.108 121.501 143.22 122.923L143.54 126.48C143.54 126.48 145.816 129.753 145.379 131.516C144.941 133.279 145.846 139.654 145.846 139.654V146.172C145.846 146.172 144.824 148.789 146.251 149.729L146.859 149.705C146.656 149.891 146.501 150.17 146.264 150.412C145.99 150.689 145.834 151.745 145.747 152.653C145.674 153.422 145.65 154.083 145.65 154.083C145.65 154.083 146.258 155.041 147.402 155.107C148.546 155.172 152.316 157.999 152.316 157.999C152.316 157.999 156.04 157.999 157.004 157.799L157.061 157.785C157.37 157.69 157.631 157.48 157.788 157.201C157.981 156.876 158.043 156.492 157.962 156.125C157.843 155.564 157.391 154.949 156.391 154.426C153.902 153.132 153.531 151.921 153.531 151.921L151.897 149.503H152.13C152.13 149.503 151.986 146.942 153.764 144.068L153.649 131.406C153.649 131.406 154.378 127.053 153.124 124.689C153.124 124.689 153.021 122.186 153.859 121.417C154.698 120.649 152.744 112.882 152.744 112.882C152.744 112.882 152.339 108.712 151.863 104.907C153.833 106.75 155.876 100.116 156.221 98.9367H156.271L156.249 98.8509C156.263 98.795 156.271 98.767 156.271 98.767C156.271 98.767 155.834 97.234 156.154 97.5454C156.474 97.8568 157.263 96.691 157.263 96.691C157.263 96.691 157.146 90.3452 158.519 87.1474C159.892 83.9495 157.909 76.1605 157.909 76.1605ZM152.037 80.1987L152.047 80.1808C152.25 84.0553 152.009 92.3234 152.009 92.3234C152.009 92.3234 151.737 93.3834 151.448 94.631L151.245 86.7761L151.043 79.3763L152.037 80.1987ZM126.904 77.5279C126.904 77.5279 127.897 89.7623 126.904 91.5269C126.623 92.03 126.386 92.9243 126.19 93.9443C125.862 93.0959 125.167 91.1038 125.416 90.0478C125.738 88.6824 124.774 85.0953 124.774 85.0115C124.774 84.9276 124.687 83.0153 125.382 81.5541C126.076 80.0929 125.621 79.4602 125.621 79.4602C125.621 79.4602 126.204 77.0648 126.904 77.5279Z" fill="url(#paint0_linear)"/>
<path d="M128.858 104.797C128.058 108.369 124.875 102.968 124.149 101.671C124.056 101.502 124.003 101.403 124.003 101.403L124.348 99.7604L126.172 98.999C126.461 99.1523 126.734 99.3333 126.989 99.5396C127.988 100.337 129.475 102.029 128.858 104.797Z" fill="#FFC9B8"/>
<path d="M156.003 98.9098C156.003 98.9098 156.003 98.9364 155.98 98.9894C155.98 99.0121 155.962 99.0424 155.952 99.0746C155.594 100.184 153.471 106.431 151.421 104.697C149.178 102.803 150.268 98.4251 150.268 98.4251H150.283L155 97.999L155.935 98.8474L156.003 98.9098Z" fill="#FFC9B8"/>
<path d="M153.586 131.471L153.701 144.281C151.932 147.189 152.077 149.771 152.077 149.771L146.248 149.999C144.826 149.049 145.838 146.404 145.838 146.404V139.808C145.838 139.808 144.938 133.364 145.373 131.579C145.807 129.794 143.547 126.496 143.547 126.496L143.227 122.899C142.124 121.461 141.601 113.521 141.601 113.521L140.419 109.512C140.452 109.684 141.066 113.031 140.419 113.647C139.771 114.264 139.519 116.984 139.519 116.984C139.519 116.984 140.156 124.524 139.519 126.047C138.882 127.57 139.691 128.436 139.691 128.436L139.808 136.262C139.808 136.262 139.257 138.362 139.865 141.325C140.474 144.287 139.865 148.864 139.865 148.864H133.612L133.64 145.67L132.628 142.966C132.628 142.966 131.931 131.803 131.38 129.385C131.05 127.953 131.255 126.45 131.958 125.156C131.958 125.156 130.8 123.316 130.857 122.021C130.914 120.725 129.963 118.255 129.963 118.255L128.615 109.164C128.652 107.414 128.426 105.669 127.946 103.985C127.163 101.395 126.003 97.999 126.003 97.999L127.313 98.1149L133.921 98.6985C133.921 98.6985 149.989 97.6269 150.708 98.5175C150.86 98.8087 150.963 99.1226 151.012 99.4467C151.733 102.661 152.686 112.732 152.686 112.732C152.686 112.732 154.629 120.587 153.795 121.364C152.961 122.141 153.063 124.67 153.063 124.67C154.314 127.059 153.586 131.471 153.586 131.471Z" fill="#444053"/>
<path d="M139.993 153.06C139.948 153.77 139.14 153.812 139.14 153.812C136.772 154.176 136.268 155.078 136.268 155.078C136.268 155.078 133.996 157.289 130.568 156.967C127.655 156.692 127.938 156.184 128.089 155.244C128.119 155.069 128.134 154.892 128.137 154.714C128.137 153.426 129.145 153.06 130.723 152.085C132.302 151.11 132.258 150.303 132.915 149.596C133.572 148.888 133.64 147.515 133.64 147.515C134.384 146.247 136.27 147.717 136.27 147.717C136.359 148.166 139.163 148.103 139.163 148.103C139.163 148.103 139.534 149.563 139.727 149.648C139.853 149.705 139.948 150.849 139.985 151.832C140.005 152.348 140.01 152.815 139.993 153.06Z" fill="#B07473"/>
<path opacity="0.1" d="M139.993 153.184C139.947 153.871 139.14 153.913 139.14 153.913C136.772 154.265 136.268 155.139 136.268 155.139C136.268 155.139 133.996 157.279 130.568 156.968C127.655 156.702 127.938 156.21 128.089 155.299C129.391 155.605 131.878 156.032 133.33 155.284C135.349 154.246 136.797 153.521 136.797 153.521L139.987 151.999C140.005 152.495 140.009 152.947 139.993 153.184Z" fill="black"/>
<path d="M156.8 157.183C156.649 157.468 156.396 157.682 156.093 157.78L156.039 157.794C155.102 157.999 151.479 157.999 151.479 157.999C151.479 157.999 147.815 155.107 146.707 155.041C145.599 154.976 145.003 153.996 145.003 153.996C145.003 153.996 145.025 153.324 145.096 152.541C145.182 151.615 145.332 150.538 145.599 150.256C146.089 149.733 146.202 149.026 147.304 149.473C147.304 149.473 148.877 146.64 150.732 148.829L152.651 151.801C152.651 151.801 153.012 153.031 155.443 154.365C156.415 154.898 156.848 155.525 156.971 156.097C157.048 156.468 156.987 156.855 156.8 157.183Z" fill="#B07473"/>
<path opacity="0.1" d="M156.8 157.252C156.583 157.423 156.344 157.607 156.093 157.798L156.039 157.811C155.102 157.999 151.479 157.999 151.479 157.999C151.479 157.999 147.815 155.35 146.707 155.29C145.599 155.23 145.003 154.332 145.003 154.332C145.003 154.332 145.025 153.716 145.096 152.999C146.224 153.314 147.932 153.872 148.389 154.473C149.092 155.387 151.226 156.664 151.226 156.664C151.226 156.664 155.204 156.305 156.971 156.257C157.048 156.597 156.987 156.951 156.8 157.252Z" fill="black"/>
<path d="M142.003 58.5519L136.572 63.999C136.572 63.999 129.989 63.539 131.138 61.695C131.723 60.7552 131.814 58.7888 131.762 57.079C131.714 55.4304 131.535 54.0267 131.535 54.0267C131.535 54.0267 140.767 49.6674 140.068 53.7325C139.917 54.4985 139.909 55.2836 140.043 56.0524C140.436 58.1057 142.003 58.5519 142.003 58.5519Z" fill="#FECEC0"/>
<path opacity="0.1" d="M139.967 53.7423C139.826 54.5126 139.818 55.3021 139.944 56.0751C139.354 56.6856 138.651 57.1701 137.876 57.5004C137.101 57.8307 136.269 58.0002 135.429 57.999C134.263 57.999 133.001 57.0202 132.058 56.4544C132.013 54.7945 132.003 54.0381 132.003 54.0381C132.003 54.0381 140.628 49.6543 139.967 53.7423Z" fill="black"/>
<path d="M142.003 50.4967C142.004 51.9694 141.504 53.3987 140.586 54.5503C139.668 55.702 138.387 56.5078 136.951 56.8358C135.515 57.1638 134.011 56.9945 132.684 56.3556C131.357 55.7168 130.286 54.6462 129.647 53.3194C129.008 51.9925 128.839 50.488 129.166 49.0522C129.494 47.6165 130.3 46.3346 131.451 45.4165C132.603 44.4985 134.032 43.9987 135.505 43.999C136.977 43.9994 138.406 44.4998 139.558 45.4184C140.32 46.027 140.936 46.7995 141.359 47.6787C141.783 48.5578 142.003 49.521 142.003 50.4967V50.4967Z" fill="#FFD6C9"/>
<path opacity="0.1" d="M151.003 100.228C149.334 103.849 138.599 103.924 138.599 103.924V99.9751L137.949 99.9358C138.23 101.067 137.556 103.825 137.556 103.825C129.072 104.917 127.003 100.508 127.003 100.508L127.298 98.999L133.908 99.5357C133.908 99.5357 149.98 98.5503 150.7 99.3693C150.852 99.6382 150.955 99.9282 151.003 100.228V100.228Z" fill="black"/>
<path d="M138.496 102.919V98.7787L137.852 98.7395C138.131 99.9157 137.462 102.817 137.462 102.817C131.134 103.678 128.407 101.274 127.446 100.031C127.273 99.8173 127.125 99.5859 127.003 99.3413L129.572 85.4031L130.181 64.8897L131.102 61.2905L131.315 59.5634V59.5438H131.338L131.992 59.8143L135.908 61.4473L140.356 58.2068L140.421 58.1617L140.642 57.999L141.01 58.2833L141.925 58.991L144.857 77.2597C144.857 77.2597 149.937 91.3253 150.888 97.0026C150.927 97.23 150.957 97.4417 150.981 97.6397C151.609 102.823 138.496 102.919 138.496 102.919Z" fill="#353546"/>
<path d="M136.503 61.999C136.779 61.999 137.003 61.7752 137.003 61.499C137.003 61.2229 136.779 60.999 136.503 60.999C136.227 60.999 136.003 61.2229 136.003 61.499C136.003 61.7752 136.227 61.999 136.503 61.999Z" fill="#67647E"/>
<path d="M136.503 64.999C136.779 64.999 137.003 64.7752 137.003 64.499C137.003 64.2229 136.779 63.999 136.503 63.999C136.227 63.999 136.003 64.2229 136.003 64.499C136.003 64.7752 136.227 64.999 136.503 64.999Z" fill="#67647E"/>
<path d="M137.503 76.999C137.779 76.999 138.003 76.7752 138.003 76.499C138.003 76.2229 137.779 75.999 137.503 75.999C137.227 75.999 137.003 76.2229 137.003 76.499C137.003 76.7752 137.227 76.999 137.503 76.999Z" fill="#67647E"/>
<path d="M138.503 87.999C138.779 87.999 139.003 87.7752 139.003 87.499C139.003 87.2229 138.779 86.999 138.503 86.999C138.227 86.999 138.003 87.2229 138.003 87.499C138.003 87.7752 138.227 87.999 138.503 87.999Z" fill="#67647E"/>
<path d="M138.503 93.999C138.779 93.999 139.003 93.7752 139.003 93.499C139.003 93.2229 138.779 92.999 138.503 92.999C138.227 92.999 138.003 93.2229 138.003 93.499C138.003 93.7752 138.227 93.999 138.503 93.999Z" fill="#67647E"/>
<path opacity="0.1" d="M131.427 87.8049C131.427 87.8049 131.018 93.3077 130.266 94.9082C129.514 96.5087 129.179 100.999 129.179 100.999L127.432 100.797C127.265 100.576 127.121 100.338 127.003 100.086L129.492 85.7173L130.083 64.5711L130.977 60.8588L131.183 59.0784L131.207 59.0683C131.304 59.021 131.411 58.9974 131.519 58.9991C131.627 59.0009 131.733 59.028 131.829 59.0784L131.912 59.1229C131.887 59.1957 131.863 59.2704 131.841 59.3472C131.16 61.5358 130.906 65.5694 130.906 65.5694C130.906 65.5694 131.89 72.9476 131.993 76.379C132.095 79.8104 131.427 87.8049 131.427 87.8049Z" fill="black"/>
<path opacity="0.1" d="M127.003 99.6123C126.985 99.661 126.964 99.7081 126.939 99.7533C126.291 100.995 124.649 101.783 124.15 101.999C124.056 101.809 124.003 101.698 124.003 101.698L124.35 99.8537L126.182 98.999C126.473 99.1731 126.748 99.3784 127.003 99.6123V99.6123Z" fill="black"/>
<path d="M123.073 71.999L121.449 72.9692L119.97 79.5626C119.97 79.5626 118.118 85.1555 119.541 89.1511C120.964 93.1467 121.791 95.4339 121.791 95.4339C121.791 95.4339 122.361 99.972 123.216 100.343C124.072 100.714 124.44 100.914 124.44 100.914L124.611 101.999C124.611 101.999 126.93 101.21 127.749 99.8207C128.568 98.4311 127.145 94.9801 127.145 94.9801C127.145 94.9801 125.921 92.0394 126.235 90.6699C126.549 89.3004 125.607 85.7041 125.607 85.6275C125.607 85.5509 125.523 83.6287 126.211 82.1584C126.9 80.688 126.441 80.0607 126.441 80.0607L126.012 75.8655L123.073 71.999Z" fill="#67647E"/>
<path opacity="0.1" d="M151.003 98.2343C151.003 98.2343 146.529 99.8155 145.108 98.4305C143.686 97.0454 143.833 90.5459 143.833 90.5459C143.833 90.5459 142.472 78.5532 141.611 76.5835C140.751 74.6138 141.192 60.3984 141.192 60.3984C141.192 60.3984 140.615 58.5601 140.11 58.0795C140.078 58.0486 140.042 58.0215 140.003 57.999L140.177 58.0343L140.784 58.156L141.726 58.8642L144.747 77.1465C144.747 77.1465 149.982 91.2227 150.961 96.9042L151.003 98.2343Z" fill="black"/>
<path opacity="0.1" d="M156.003 98.8312H155.949C155.347 98.8824 150.026 99.3029 150.003 98.5792C150.002 98.4955 150.009 98.4118 150.023 98.3287L154.954 97.999L155.932 98.6554C155.949 98.6978 155.963 98.7345 155.976 98.7638L156.003 98.8312Z" fill="black"/>
<path d="M150.802 64.999L153.921 66.6294C153.921 66.6294 156.521 73.3714 156.937 76.2616C156.937 76.2616 158.863 84.0051 157.537 87.1898C156.211 90.3745 156.321 96.6958 156.321 96.6958C156.321 96.6958 155.557 97.8575 155.245 97.5471C154.933 97.2366 155.359 98.7649 155.359 98.7649C155.359 98.7649 150.026 99.4739 150.004 98.4244C149.982 97.3748 151.228 92.3594 151.228 92.3594C151.228 92.3594 151.567 80.4278 151.086 78.557C150.604 76.6863 150.802 64.999 150.802 64.999Z" fill="#67647E"/>
<path opacity="0.1" d="M141.795 77.999C141.795 77.999 139.87 82.3005 139.25 82.5846C138.63 82.8686 139.375 83.999 139.375 83.999C139.375 83.999 142.88 79.5275 141.795 77.999Z" fill="black"/>
<path opacity="0.1" d="M141.003 63.0008C141.025 62.9354 138.71 64.6558 138.09 64.916C137.47 65.1761 140.353 64.9 141.003 63.0008Z" fill="black"/>
<path opacity="0.1" d="M135.003 77.999C135.003 77.999 131.594 80.0636 132.044 80.8811C132.494 81.6986 135.003 77.999 135.003 77.999Z" fill="black"/>
<path opacity="0.1" d="M141.003 107.999C141.003 107.999 143.742 109.604 148.003 109.999L141.003 107.999Z" fill="black"/>
<path opacity="0.1" d="M134.003 111.999C134.003 111.999 136.623 115.897 137.819 115.997C139.015 116.097 134.003 111.999 134.003 111.999Z" fill="black"/>
<path opacity="0.1" d="M138.003 124.999C137.892 125.056 136.593 127.91 135.269 127.997C133.945 128.084 138.003 124.999 138.003 124.999Z" fill="black"/>
<path opacity="0.1" d="M150.003 131.062C150.003 131.062 152.457 130.636 153.003 131.999C153.003 131.995 152.838 131.568 150.003 131.062Z" fill="black"/>
<path opacity="0.1" d="M148.003 141.284C148.003 141.284 151.244 140.478 151.933 141.576C152.622 142.675 148.003 141.284 148.003 141.284Z" fill="black"/>
<path opacity="0.1" d="M139.478 142.999C139.478 143.021 135.877 143.49 136.007 143.801C136.136 144.113 139.848 144.069 139.98 143.578C140.004 143.518 140.009 143.455 139.997 143.393C139.984 143.331 139.954 143.271 139.907 143.217C139.86 143.163 139.798 143.116 139.725 143.079C139.651 143.041 139.567 143.014 139.478 142.999Z" fill="black"/>
<path opacity="0.1" d="M147.003 145.176C147.003 145.176 152.315 144.562 151.989 145.621C151.663 146.68 147.003 145.176 147.003 145.176Z" fill="black"/>
<path opacity="0.1" d="M120.003 81.999C120.033 82.1031 123.53 82.6657 124.003 83.999C124.003 83.999 120.567 82.1031 120.024 82.1031" fill="black"/>
<path opacity="0.1" d="M125.003 90.999C125.003 90.999 121.785 91.997 122.015 93.4996C122.245 95.0023 121.688 92.804 125.003 90.999Z" fill="black"/>
<path opacity="0.1" d="M123.003 97.999C123.003 97.999 124.402 96.8074 125.735 97.0258C127.068 97.2441 123.003 97.999 123.003 97.999Z" fill="black"/>
<path opacity="0.1" d="M138.996 45.4991C138.904 45.5981 138.802 45.6834 138.69 45.7532C137.937 46.2424 137.73 46.9962 137.372 47.8654C137.038 48.6612 136.671 49.5032 135.998 49.9546C135.129 50.5383 133.986 50.3241 133.083 50.8323C132.683 51.0647 132.354 51.4255 132.139 51.8683C131.924 52.311 131.833 52.8153 131.877 53.3162C131.935 53.7027 132.02 54.0833 132.134 54.4542C132.339 55.2573 132.432 56.0909 132.409 56.9255C132.411 56.95 132.411 56.9746 132.409 56.999C131.636 56.5691 130.954 55.9631 130.406 55.2202C129.857 54.4774 129.455 53.6143 129.225 52.6871C128.996 51.7599 128.943 50.7892 129.072 49.838C129.201 48.8868 129.507 47.9764 129.972 47.1659C130.437 46.3553 131.05 45.6627 131.77 45.133C132.491 44.6034 133.303 44.2484 134.155 44.0912C135.006 43.9341 135.878 43.9782 136.713 44.2207C137.549 44.4633 138.329 44.8988 139.003 45.4991H138.996Z" fill="black"/>
<path d="M138.773 43.4142C138.051 41.8314 136.481 40.828 134.867 40.3389C133.635 39.9673 132.296 39.8455 131.074 40.2549C130.377 40.4858 129.744 40.8846 129.091 41.2268C127.872 41.8692 126.534 42.3772 125.617 43.4331C125.402 43.6787 125.215 43.9936 125.27 44.319C125.316 44.5604 125.497 44.7388 125.613 44.9613C125.877 45.4442 125.814 46.0508 125.631 46.5756C125.448 47.1004 125.189 47.5875 125.065 48.127C124.94 48.6665 124.988 49.2983 125.37 49.6825C125.541 49.8525 125.76 49.9596 125.945 50.1023C126.154 50.2909 126.337 50.5084 126.49 50.7489L127.575 52.2981C128.085 52.9847 128.539 53.7142 128.934 54.4792C129.203 55.0418 129.412 55.6422 129.774 56.1439C130.136 56.6456 130.698 57.0486 131.297 56.9941C131.344 56.9953 131.39 56.9851 131.432 56.9643C131.474 56.9435 131.51 56.9127 131.539 56.8744C131.561 56.8253 131.571 56.7712 131.569 56.717C131.595 55.8856 131.498 55.055 131.281 54.2546C131.16 53.8838 131.069 53.5033 131.008 53.1168C130.962 52.6162 131.059 52.1126 131.289 51.6702C131.518 51.2279 131.868 50.8669 132.294 50.6334C133.259 50.1254 134.479 50.3395 135.404 49.7581C136.123 49.3046 136.515 48.4628 136.869 47.6588C137.257 46.7898 137.472 46.0361 138.276 45.547C139.08 45.0579 139.173 44.2476 138.773 43.4142Z" fill="#585268"/>
<path opacity="0.1" d="M136.003 150.999C136.003 150.999 137.28 152.199 136.948 152.883C136.616 153.567 136.003 150.999 136.003 150.999Z" fill="black"/>
<path opacity="0.1" d="M150.003 153.999C150.003 153.999 150.232 152.043 151.15 152.025C152.068 152.007 152.113 151.919 152.815 152.219C153.516 152.52 154.174 152.984 153.963 153.053C153.753 153.122 152.757 151.936 151.734 152.542C151.095 152.93 150.512 153.421 150.003 153.999V153.999Z" fill="black"/>
<path opacity="0.1" d="M133.414 62.999L136.003 61.073C136.003 61.073 132.216 58.6974 131.765 59.0312C131.314 59.3649 131.003 62.3688 131.003 62.3688L133.414 62.999Z" fill="black"/>
<path d="M133.414 62.999L136.003 61.0538C136.003 61.0538 132.216 58.7002 131.765 59.0309C131.314 59.3615 131.003 62.5011 131.003 62.5011L133.414 62.999Z" fill="#E1E7EF"/>
<path d="M133.414 62.999L136.003 61.0538C136.003 61.0538 132.216 58.7002 131.765 59.0309C131.314 59.3615 131.003 62.5011 131.003 62.5011L133.414 62.999Z" fill="#353546"/>
<path d="M131.908 59.1186L131.824 59.0772C131.698 59.0143 131.557 58.9885 131.417 59.0029C131.277 59.0172 131.145 59.0711 131.035 59.1581L122.605 65.8794C122.605 65.8794 120.773 68.3711 121.028 72.6698L125.999 79.5924C125.999 79.5924 126.567 77.2487 127.248 77.6945C127.248 77.6945 128.213 89.699 127.248 91.4292C126.282 93.1593 125.857 99.636 125.857 99.636L129.122 99.999C129.122 99.999 129.463 95.6155 130.23 94.053C130.997 92.4905 131.414 87.1186 131.414 87.1186C131.414 87.1186 132.105 79.3142 131.99 75.9644C131.876 72.6146 130.883 65.4118 130.883 65.4118C130.883 65.4118 131.161 61.19 131.908 59.1186Z" fill="#67647E"/>
<path opacity="0.1" d="M140.493 61.999L137.003 60.7903C137.003 60.7903 141.447 56.2362 142.003 58.7621L140.493 61.999Z" fill="black"/>
<path d="M140.493 61.999L137.003 60.4881C137.003 60.4881 141.447 54.7955 142.003 57.9529L140.493 61.999Z" fill="#E1E7EF"/>
<path d="M140.493 61.999L137.003 60.4881C137.003 60.4881 141.447 54.7955 142.003 57.9529L140.493 61.999Z" fill="#353546"/>
<path d="M140.003 57.0026L149.854 59.0104C149.854 59.0104 152.564 59.5786 154.521 65.9995C156.479 72.4204 151.841 80.2869 151.841 80.2869L150.817 79.4657L151.33 98.2164C151.33 98.2164 146.784 99.8347 145.339 98.4172C143.894 96.9997 144.046 90.3419 144.046 90.3419C144.046 90.3419 142.66 78.0703 141.786 76.0524C140.912 74.0346 141.361 59.4902 141.361 59.4902C141.361 59.4902 140.556 56.8901 140.003 57.0026Z" fill="#67647E"/>
<path opacity="0.1" d="M149.124 69.0833C148.995 69.2039 148.843 74.8837 149.408 79.2069C149.753 81.8396 150.286 84.4437 151.003 86.999L150.166 69.6802C150.166 69.6802 149.519 68.7135 149.124 69.0833Z" fill="black"/>
<path opacity="0.1" d="M148.003 63.999C148.26 64.1573 149.385 66.7741 148.87 67.8462C148.355 68.9183 148.003 63.999 148.003 63.999Z" fill="black"/>
<path opacity="0.1" d="M138.773 44.1177C138.312 43.2281 137.593 42.4912 136.707 41.999C137.366 42.4611 137.898 43.0756 138.256 43.7878C138.662 44.5828 138.542 45.3777 137.752 45.813C136.963 46.2483 136.717 46.9896 136.332 47.8124C135.972 48.5657 135.577 49.3627 134.85 49.7999C133.916 50.3524 132.684 50.1477 131.71 50.6287C131.28 50.8505 130.926 51.1927 130.695 51.6117C130.464 52.0307 130.365 52.5077 130.411 52.9819C130.474 53.3471 130.567 53.7067 130.689 54.0571C130.91 54.8173 131.01 55.6063 130.986 56.3964C130.987 56.4479 130.976 56.4991 130.953 56.5454C130.925 56.5819 130.889 56.6113 130.846 56.631C130.804 56.6507 130.758 56.6602 130.712 56.6587C130.468 56.677 130.224 56.6324 130.003 56.5295C130.163 56.6846 130.353 56.8061 130.563 56.8864C130.772 56.9667 130.996 57.0042 131.221 56.9966C131.258 57.0018 131.295 56.9986 131.33 56.9874C131.365 56.9761 131.397 56.957 131.424 56.9316C131.45 56.9062 131.47 56.8751 131.482 56.8409C131.494 56.8066 131.498 56.7701 131.493 56.7342C131.519 55.9443 131.42 55.1551 131.199 54.395C131.075 54.0443 130.982 53.6839 130.921 53.3177C130.874 52.8438 130.973 52.367 131.204 51.9482C131.435 51.5294 131.789 51.1876 132.22 50.9666C133.194 50.4856 134.426 50.6883 135.359 50.1378C136.086 49.7085 136.482 48.9115 136.839 48.1503C137.231 47.3275 137.448 46.614 138.26 46.1509C139.072 45.6878 139.179 44.9067 138.773 44.1177Z" fill="black"/>
<path d="M195.989 68.6194C193.233 68.5654 190.801 66.622 189.423 64.2471C189.062 63.6821 188.835 63.0419 188.759 62.3756C188.769 62.2242 188.794 62.0743 188.835 61.9282C188.919 61.7053 188.986 61.4763 189.035 61.2431C189.046 61.1502 189.046 61.0564 189.035 60.9635C189.035 60.9635 189.035 60.9635 189.035 60.9475C189.101 60.4422 188.803 59.9488 188.435 59.6033C188.067 59.2577 187.605 59.0041 187.221 58.6605C186.037 57.6219 185.677 55.9561 185.655 54.3702V54.2863C185.669 53.6072 185.723 52.9261 185.717 52.247C185.727 51.8615 185.71 51.4758 185.667 51.0925C185.553 50.1318 185.187 49.1531 184.431 48.5399C182.459 46.942 179.143 48.6058 177.101 47.0958C176.605 46.7263 176.203 46.181 175.601 46.0372C175.147 45.9273 174.675 46.0751 174.231 46.2229C172.727 46.7183 171.049 47.3694 170.461 48.8195C170.125 49.6524 170.219 50.6031 169.911 51.446C169.711 52.0113 169.329 52.4966 169.051 53.0319C168.823 53.4349 168.712 53.8936 168.731 54.3562C168.707 54.5957 168.74 54.8376 168.829 55.0613C168.934 55.3309 169.102 55.5714 169.319 55.7623C169.241 55.9291 169.143 56.086 169.027 56.2297C168.643 56.6991 168.053 57.0287 167.653 57.496C166.913 58.3529 166.941 59.5174 167.305 60.5241C167.669 61.5307 168.327 62.4475 168.781 63.4282C168.981 63.8537 169.133 64.329 168.931 64.7525C168.789 65.0461 168.495 65.2698 168.267 65.5235C167.934 65.8969 167.724 66.3644 167.667 66.8617C163.165 67.8883 163.161 71.5016 163.161 71.5016L160.729 77.6095C160.729 77.6095 160.339 78.6382 159.881 79.9964L157.003 79.481L159.003 82.8246C158.625 84.1868 158.357 85.4492 158.445 86.0843C158.445 86.0843 157.551 90.2788 159.141 91.0118L162.649 92.5878C162.801 92.6809 162.965 92.754 163.135 92.8055L163.277 92.8694C163.328 92.8941 163.384 92.907 163.441 92.907C163.498 92.907 163.554 92.8941 163.605 92.8694H163.615H163.653C163.721 92.874 163.79 92.8637 163.853 92.8394C163.931 92.7974 163.993 92.7307 164.029 92.6497C164.028 92.6431 164.028 92.6363 164.029 92.6297L165.079 92.3261L165.969 93.3787C166.369 93.6603 166.769 93.904 167.147 94.1237L165.769 107.79C165.769 107.79 165.547 125.966 164.875 130.108C164.627 131.642 164.625 132.689 164.719 133.4L164.693 133.444C164.859 134.612 165.293 134.842 165.293 134.842V134.826C165.301 134.832 165.31 134.838 165.319 134.842C165.522 134.311 165.762 133.796 166.039 133.3C166.039 133.398 166.039 133.5 166.039 133.6C166.025 135.142 165.977 137.301 165.817 138.705C165.545 141.102 166.513 149.001 166.513 149.001L166.847 156.192C166.902 157.413 166.618 158.625 166.027 159.695C165.227 161.131 164.205 163.153 164.131 164.05C164.127 164.098 164.127 164.147 164.131 164.195V164.195L162.415 166.257C162.415 166.257 161.745 167.291 163.259 167.709C164.073 167.934 165.477 167.709 166.605 167.443C167.098 167.33 167.537 167.053 167.852 166.659C168.167 166.264 168.339 165.774 168.339 165.27C168.624 164.279 169.106 163.356 169.755 162.555L170.037 164.211L171.925 164.679L172.167 160.141C172.265 159.886 172.309 159.614 172.297 159.342V159.342C172.669 156.114 171.421 156.404 171.421 156.404C171.455 156.432 171.476 156.472 171.481 156.515L171.421 156.406C170.655 154.896 171.021 152.411 171.021 152.411C171.021 152.411 172.021 145.22 172.363 143.321C172.609 141.979 172.507 137.584 172.425 135.132C172.425 135.03 172.425 134.932 172.415 134.834C175.343 134.796 178.931 134.698 181.449 134.455V134.75L180.985 151.738C180.953 152.821 180.733 153.89 180.333 154.898C180.333 154.918 180.319 154.936 180.311 154.955C179.759 156.378 179.448 157.883 179.389 159.408L179.173 164.801V164.95C178.797 165.094 178.203 165.512 178.187 166.722C178.161 168.496 181.291 167.904 181.291 167.904C184.419 167.904 184.445 164.653 184.445 164.653C184.445 164.653 184.543 161.671 184.693 159.675C184.843 157.68 184.221 158.119 184.221 158.119L184.173 163.796C184.173 163.81 184.173 163.824 184.173 163.84V158.864L184.221 158.143V158.123V157.97L184.615 152.115C184.615 152.115 187.497 142.36 187.943 140.489C188.261 139.158 188.129 135.152 188.025 132.937C188.025 132.835 188.025 132.737 188.009 132.643C188.903 132.563 189.693 132.555 190.009 132.555H190.155C190.155 132.555 190.007 116.888 189.633 110.984C189.259 105.079 188.665 99.6764 187.175 98.0506C186.275 97.0679 185.021 94.0339 184.175 91.7868C185.954 92.5548 187.8 93.1566 189.689 93.5844C194.407 94.5711 193.761 90.4805 193.761 90.4805L193.283 82.7447H193.315C193.298 80.7184 193.124 78.6964 192.795 76.6967C192.545 75.1627 192.163 73.5768 191.579 72.3025C192.091 72.1028 192.597 71.8891 193.093 71.6694C194.375 71.1041 195.819 70.3032 196.003 68.923H195.941C195.966 68.8233 195.982 68.7218 195.989 68.6194V68.6194ZM166.743 79.8046C166.753 80.6036 166.723 81.9897 166.675 83.5217L165.177 81.5244L166.679 79.0916L166.743 79.8046ZM187.439 86.8833L184.943 86.0843C185.386 85.3947 185.903 84.7557 186.485 84.1788L186.701 83.9791L186.623 83.9951L186.743 83.8852L186.815 83.8693L186.701 83.9791L186.837 83.9512C186.987 84.5773 187.278 85.1613 187.687 85.6589C188.583 86.6356 187.441 86.8833 187.441 86.8833H187.439Z" fill="url(#paint1_linear)"/>
<path d="M172.003 158.999L171.774 164.999L170.311 164.494L170.003 161.999L172.003 158.999Z" fill="#A27772"/>
<path opacity="0.1" d="M172.003 158.999L171.774 164.999L170.311 164.494L170.003 161.999L172.003 158.999Z" fill="black"/>
<path d="M179.003 165.41L181.886 165.999L184.024 164.134V158.879L184.073 158.161V158.139V157.987L184.471 152.146C184.471 152.146 187.356 142.423 187.805 140.556C188.121 139.233 187.989 135.238 187.884 133.031C187.841 132.126 187.805 131.521 187.805 131.521L181.44 129.999L181.306 134.831L180.841 151.763C180.809 152.842 180.588 153.908 180.189 154.913L180.167 154.971C179.613 156.389 179.301 157.888 179.243 159.406L179.028 164.79V164.938L179.003 165.41Z" fill="#FFD6C9"/>
<path opacity="0.1" d="M179.003 165.489L181.874 165.999L184.003 164.386V163.999C183.996 164.085 183.965 164.167 183.912 164.24C183.858 164.313 183.785 164.373 183.698 164.415L183.668 164.431C182.679 164.879 181.558 165.069 180.445 164.977L179.325 164.896C179.223 164.904 179.122 164.925 179.027 164.958V165.087L179.003 165.489Z" fill="black"/>
<path d="M184.058 164.306L184.091 164.289C184.192 164.237 184.275 164.16 184.334 164.068C184.392 163.975 184.423 163.87 184.424 163.762L184.474 158.041C184.474 158.041 185.139 157.597 184.978 159.608C184.817 161.62 184.713 164.626 184.713 164.626C184.713 164.626 184.687 167.904 181.332 167.904C181.332 167.904 177.977 168.5 178.003 166.711C178.029 164.922 179.388 164.849 179.388 164.849L180.593 164.947C181.79 165.054 182.996 164.832 184.058 164.306Z" fill="#B07473"/>
<path d="M164.003 164.25C164.082 165.523 168.166 164.788 168.166 164.788L170.915 159.895C170.915 159.895 173.21 158.278 172.061 156.859C172 156.782 171.944 156.701 171.894 156.617C171.894 156.617 171.894 156.617 171.883 156.605C171.859 156.569 171.837 156.531 171.815 156.491C170.991 154.992 171.397 152.534 171.397 152.534C171.397 152.534 172.463 145.386 172.837 143.502C173.101 142.17 172.992 137.803 172.905 135.361C172.87 134.345 172.837 133.664 172.837 133.664L166.056 131.999C166.056 131.999 166.056 132.775 166.056 133.854C166.041 135.387 165.989 137.531 165.817 138.927C165.525 141.299 166.564 149.156 166.564 149.156L166.924 156.305C166.986 157.516 166.685 158.72 166.052 159.785C165.202 161.212 164.09 163.223 164.014 164.112C164.007 164.158 164.003 164.204 164.003 164.25V164.25Z" fill="#FFD6C9"/>
<path opacity="0.1" d="M164.005 164.284C164.08 165.499 167.978 164.797 167.978 164.797L170.602 160.127C170.602 160.127 172.792 158.584 171.696 157.23C171.637 157.156 171.584 157.079 171.536 156.999C171.5 157.707 170.654 159.479 170.654 159.479C170.654 159.479 168.488 163.452 167.8 164.362C167.111 165.272 164.119 164.193 164.007 164.154C164.003 164.198 164.002 164.241 164.005 164.284V164.284Z" fill="black"/>
<path d="M171.161 156.006C171.161 156.006 172.274 155.703 171.941 159.098C171.954 159.483 171.879 159.866 171.725 160.207C171.57 160.547 171.341 160.834 171.061 161.038C170.264 161.624 169.035 162.885 168.414 165.338C168.414 165.867 168.262 166.381 167.981 166.796C167.701 167.211 167.309 167.502 166.869 167.623C165.864 167.898 164.612 168.14 163.887 167.903C162.537 167.462 163.135 166.375 163.135 166.375L164.684 164.223C164.684 164.223 167.384 165.467 167.98 164.456C168.576 163.444 170.459 159.04 170.459 159.04C170.459 159.04 171.491 156.292 171.161 156.006Z" fill="#B07473"/>
<path opacity="0.1" d="M181.146 130.999L181.003 135.999C182.807 135.831 184.099 135.597 184.32 135.267C184.797 134.557 186.53 134.258 188.003 134.136C187.958 133.2 187.919 132.574 187.919 132.574L181.146 130.999Z" fill="black"/>
<path opacity="0.1" d="M166.003 134.644C166.181 134.354 166.443 134.103 166.767 133.91C167.503 133.586 167.422 135.994 167.422 135.994C167.422 135.994 169.873 136.012 173.003 135.98C172.968 135.08 172.934 134.474 172.934 134.474L166.003 132.999C166.003 132.999 166.017 133.683 166.003 134.644Z" fill="black"/>
<path d="M165.648 134.999C165.648 134.999 166.381 133.017 167.042 132.664C167.703 132.312 167.627 134.993 167.627 134.993C167.627 134.993 183.715 135.14 184.519 133.901C185.323 132.662 190.003 132.736 190.003 132.736C190.003 132.736 189.858 117.3 189.492 111.477C189.125 105.654 188.542 100.337 187.079 98.7354C186.134 97.6989 184.788 94.3454 183.956 92.1098C183.504 90.8889 183.203 89.999 183.203 89.999L167.848 90.8711L167.723 92.1098L166.092 108.346C166.092 108.346 165.873 126.257 165.214 130.334C164.556 134.41 165.648 134.999 165.648 134.999Z" fill="#444053"/>
<g opacity="0.1">
<path opacity="0.1" d="M183.28 133.948C184.081 132.699 188.795 132.771 188.795 132.771C188.795 132.771 188.649 117.19 188.281 111.312C187.912 105.434 187.326 100.066 185.855 98.4495C184.9 97.3991 183.551 94.0179 182.714 91.7612C182.331 90.7248 182.057 89.9265 181.981 89.6985L183.182 89.6304C183.182 89.6304 183.484 90.5287 183.941 91.7612C184.778 94.0179 186.129 97.4031 187.08 98.4495C188.551 100.066 189.14 105.432 189.506 111.312C189.872 117.192 190.022 132.771 190.022 132.771C190.022 132.771 185.316 132.699 184.505 133.948C183.815 135.014 171.91 135.064 168.455 135.054C172.889 135.044 182.656 134.912 183.28 133.948Z" fill="black"/>
<path opacity="0.1" d="M165.704 132.699C166.003 132.533 166.151 132.993 166.225 133.552C165.958 134.036 165.725 134.539 165.53 135.056C165.53 135.056 165.104 134.826 164.93 133.656C165.174 133.237 165.444 132.843 165.704 132.699Z" fill="black"/>
</g>
<path d="M170.206 52.1492C169.094 53.5658 170.218 55.5797 169.025 56.9574C168.632 57.4127 168.026 57.7357 167.616 58.1833C166.856 59.0122 166.885 60.1389 167.258 61.1118C167.631 62.0847 168.299 62.972 168.774 63.9216C168.982 64.3322 169.136 64.7933 168.928 65.202C168.782 65.4861 168.48 65.702 168.245 65.9472C167.479 66.747 167.458 67.858 167.87 68.7998C168.282 69.7416 169.069 70.5511 169.846 71.3489C170.152 71.6622 170.539 72.0086 171.049 71.9988C171.317 71.9798 171.576 71.9004 171.804 71.7673C173.571 70.9241 174.921 69.4766 175.574 67.7263C176.227 65.976 176.132 64.0576 175.31 62.3707C174.665 60.925 173.589 59.5395 173.578 58.012C173.578 56.7998 174.244 55.642 174.363 54.4356C174.507 52.9684 173.578 50.6392 171.684 49.999C171.809 50.9408 170.77 51.4214 170.206 52.1492Z" fill="#585268"/>
<path opacity="0.1" d="M170.206 52.1492C169.094 53.5658 170.218 55.5797 169.025 56.9574C168.632 57.4127 168.026 57.7357 167.616 58.1833C166.856 59.0122 166.885 60.1389 167.258 61.1118C167.631 62.0847 168.299 62.972 168.774 63.9216C168.982 64.3322 169.136 64.7933 168.928 65.202C168.782 65.4861 168.48 65.702 168.245 65.9472C167.479 66.747 167.458 67.858 167.87 68.7998C168.282 69.7416 169.069 70.5511 169.846 71.3489C170.152 71.6622 170.539 72.0086 171.049 71.9988C171.317 71.9798 171.576 71.9004 171.804 71.7673C173.571 70.9241 174.921 69.4766 175.574 67.7263C176.227 65.976 176.132 64.0576 175.31 62.3707C174.665 60.925 173.589 59.5395 173.578 58.012C173.578 56.7998 174.244 55.642 174.363 54.4356C174.507 52.9684 173.578 50.6392 171.684 49.999C171.809 50.9408 170.77 51.4214 170.206 52.1492Z" fill="black"/>
<path opacity="0.1" d="M182.003 104.999C179.814 105.11 177.754 106.025 175.837 107.059C173.921 108.094 172.065 109.265 170.003 109.999" fill="black"/>
<path opacity="0.1" d="M181.003 109.999C178.896 110.198 176.932 111.144 175.473 112.663C174.955 113.206 174.509 113.814 173.969 114.335C173.142 115.134 172.12 115.708 171.003 115.999" fill="black"/>
<path opacity="0.1" d="M181.003 113.999C179.312 114.433 177.781 115.286 176.577 116.466C176.252 116.79 175.956 117.136 175.631 117.461C173.876 119.201 171.397 120.125 169.003 120.999" fill="black"/>
<path d="M181.538 60.1094C181.586 61.9341 181.733 63.7544 181.981 65.5608C182.182 66.8424 182.463 67.996 182.868 68.5065C184.05 70.0018 177.105 71.999 177.105 71.999L173.003 68.624C173.003 68.624 176.254 65.4454 174.739 62.3459C173.225 59.2464 181.538 60.1094 181.538 60.1094Z" fill="#FFCABB"/>
<path opacity="0.1" d="M168.003 91.999H184.003C183.558 90.8422 183.262 89.999 183.262 89.999L168.127 90.8253L168.003 91.999Z" fill="black"/>
<path d="M166.221 90.999H183.846C183.351 89.2466 183.846 87.626 184.552 86.3791C185.046 85.5053 185.668 84.7081 186.397 84.0132L186.518 83.9033L192.672 82.5565L193.003 82.4845C193.003 82.4845 193.054 71.4243 189.092 69.9056C185.13 68.3869 182.755 66.3347 182.755 66.3347L177.311 67.9973L173.3 65.999C172.013 67.3678 168.597 66.8303 168.597 66.8303C163.003 67.4657 163.003 71.6261 163.003 71.6261C163.003 71.6261 166.27 79.1614 166.518 79.1614C166.767 79.1614 166.221 90.999 166.221 90.999Z" fill="#353546"/>
<path opacity="0.1" d="M173.003 83.999C173.003 83.999 169.273 83.2714 168.003 81.999Z" fill="black"/>
<path opacity="0.1" d="M190.554 79.999L186.003 83.2335C186.036 83.491 186.086 83.7466 186.153 83.999L186.286 83.8938L193.003 82.6038L190.554 79.999Z" fill="black"/>
<path opacity="0.1" d="M179.003 89.8183C179.003 89.8183 180.014 90.3283 181.564 90.999H184.221C183.671 89.238 184.221 87.6095 185.003 86.3565L180.319 84.999C181.914 86.3263 179.003 89.8183 179.003 89.8183Z" fill="black"/>
<path d="M165.504 70.999L163.005 72.286L160.556 78.1992C160.556 78.1992 158.006 84.6829 158.255 86.4002C158.255 86.4002 157.356 90.4539 158.955 91.1685L163.12 92.9675C163.193 92.9985 163.275 93.0069 163.354 92.9915C163.433 92.9762 163.505 92.9378 163.56 92.8818C163.615 92.8257 163.65 92.7548 163.661 92.6787C163.672 92.6027 163.657 92.5254 163.62 92.4574C163.026 91.3846 162.373 89.7062 163.416 88.7833L162.215 86.4002L166.554 79.6283L168.003 77.2919L165.504 70.999Z" fill="#353546"/>
<path opacity="0.1" d="M171.037 82.8333C171.264 83.7725 172.028 85.2248 174.559 85.7661L177.335 88.0815L180.288 89.4446L181.493 89.999L182.003 86.2444L180.844 85.5922L179.492 84.8399C179.492 84.8399 176.442 79.2156 171.614 81.5788C171.389 81.6871 171.209 81.8715 171.104 82.1005C170.999 82.3294 170.975 82.5885 171.037 82.8333Z" fill="black"/>
<path d="M171.033 82.6205C171.259 83.4585 172.022 84.7493 174.554 85.2311L177.332 87.2922L180.29 88.5055L181.493 88.999L182.003 85.6569L180.843 85.0763L179.501 84.4125C179.501 84.4125 176.447 79.4061 171.616 81.5194C171.394 81.6142 171.215 81.7755 171.108 81.9761C171.002 82.1766 170.975 82.4042 171.033 82.6205V82.6205Z" fill="#FFD6C9"/>
<path opacity="0.1" d="M176.503 64.999C180.093 64.999 183.003 62.0889 183.003 58.499C183.003 54.9092 180.093 51.999 176.503 51.999C172.913 51.999 170.003 54.9092 170.003 58.499C170.003 62.0889 172.913 64.999 176.503 64.999Z" fill="black"/>
<path d="M176.503 64.999C180.093 64.999 183.003 62.0889 183.003 58.499C183.003 54.9092 180.093 51.999 176.503 51.999C172.913 51.999 170.003 54.9092 170.003 58.499C170.003 62.0889 172.913 64.999 176.503 64.999Z" fill="#FFD6C9"/>
<path opacity="0.1" d="M180.834 71.999L179.003 68.5671C179.003 68.5671 181.682 67.5223 181.877 66.3121C182.071 65.1018 184.443 67.7306 183.931 68.6025C183.418 69.4744 180.834 71.999 180.834 71.999Z" fill="black"/>
<path d="M180.834 71.999L179.003 67.9951C179.003 67.9951 181.682 66.7761 181.877 65.3641C182.071 63.9521 184.443 67.0212 183.931 68.0363C183.418 69.0514 180.834 71.999 180.834 71.999Z" fill="#353546"/>
<path d="M164.548 81.3648L175.003 95.4152C175.003 95.4152 171.149 97.5118 165.841 93.7587L163.548 91.0271L157.003 79.999L164.548 81.3648Z" fill="#F6F8FB"/>
<path d="M163.229 88.7331L164.105 88.7064C164.105 88.7064 169.455 82.8858 170.769 85.831C172.083 88.7763 167.436 91.5285 167.436 91.5285L166.023 92.3829L164.182 92.999L163.003 91.2265L163.229 88.7331Z" fill="#FFD6C9"/>
<path opacity="0.1" d="M163.901 91.7592C163.987 92.0939 164.069 92.4634 163.925 92.7734C163.89 92.8564 163.831 92.9249 163.755 92.9685C163.693 92.9936 163.627 93.0034 163.561 92.9972C163.068 92.953 162.61 92.7139 162.278 92.3279C161.952 91.9433 161.673 91.517 161.447 91.0592C161.194 90.5931 160.932 90.0778 161.021 89.5482C161.122 88.9713 161.605 88.5709 162.078 88.2466C163.02 87.5896 163.051 88.3554 163.257 89.2012C163.463 90.047 163.685 90.9052 163.901 91.7592Z" fill="black"/>
<path d="M163.902 91.7593C163.985 92.0939 164.069 92.4635 163.925 92.7735C163.891 92.8564 163.831 92.925 163.756 92.9685C163.694 92.9935 163.627 93.0034 163.561 92.9973C163.069 92.9541 162.61 92.7148 162.279 92.328C161.952 91.9439 161.672 91.5176 161.446 91.0592C161.193 90.5932 160.93 90.0779 161.022 89.5482C161.121 88.9713 161.606 88.5709 162.077 88.2466C163.02 87.5896 163.049 88.3554 163.258 89.2012C163.466 90.0471 163.684 90.9052 163.902 91.7593Z" fill="#353546"/>
<path opacity="0.1" d="M180.003 88.4958L181.407 88.999L182.003 85.591L180.649 84.999C181.584 85.8476 180.766 87.4164 180.003 88.4958Z" fill="black"/>
<path opacity="0.1" d="M185.003 84.9722C185.003 84.9722 180.792 85.2528 179.003 83.999Z" fill="black"/>
<g opacity="0.1">
<path opacity="0.1" d="M184.205 87.1357C184.695 86.2602 185.311 85.4614 186.033 84.7648C186.206 84.6563 186.386 84.5587 186.571 84.4727L192.244 83.3083L192.573 83.2363C192.573 83.2363 192.623 72.1625 188.701 70.642C186.501 69.806 184.439 68.6454 182.584 67.1988L183.014 67.0668C183.014 67.0668 185.366 69.1235 189.29 70.642C193.213 72.1605 193.161 83.2363 193.161 83.2363H192.573L186.767 84.3467C186.767 84.3467 186.517 84.5888 186.441 84.6588C185.713 85.3876 185.089 86.2129 184.585 87.1116C183.817 88.5371 183.643 90.2078 184.099 91.7612H183.499C183.014 90.0066 183.515 88.3841 184.205 87.1357Z" fill="black"/>
<path opacity="0.1" d="M168.711 67.5889C168.805 67.5749 168.895 67.5609 168.993 67.5509C169.391 67.6073 169.793 67.6401 170.194 67.6489C169.699 67.6626 169.204 67.6425 168.711 67.5889V67.5889Z" fill="black"/>
<path opacity="0.1" d="M177.033 68.7313L173.441 66.9147C173.513 66.8563 173.58 66.7927 173.642 66.7246L177.389 68.6193L177.033 68.7313Z" fill="black"/>
</g>
<path d="M191.101 79.999L193.487 82.9057L193.974 90.7992C193.974 90.7992 194.606 94.8171 189.981 93.8483C185.356 92.8794 180.003 89.8857 180.003 89.8857C180.003 89.8857 182.588 86.4471 181.172 85.1401L187.796 87.2716C187.796 87.2716 188.915 87.0284 188.039 86.0615C187.162 85.0946 187.007 83.3486 187.007 83.3486L191.101 79.999Z" fill="#353546"/>
<path opacity="0.1" d="M192.003 87.999L193.003 89.999C192.746 89.8614 192.516 89.6012 192.339 89.2477C192.163 88.8943 192.046 88.4617 192.003 87.999V87.999Z" fill="black"/>
<path opacity="0.1" d="M190.003 87.999L192.003 90.7437L191.004 90.999L190.003 87.999Z" fill="black"/>
<path opacity="0.1" d="M169.108 55.8652C168.881 55.302 169.055 54.6452 169.328 54.1146C169.601 53.5839 169.977 53.0817 170.182 52.5104C170.485 51.6605 170.392 50.6988 170.724 49.8672C171.308 48.3932 172.968 47.7344 174.455 47.2241C174.895 47.0757 175.363 46.9272 175.812 47.037C176.415 47.1814 176.806 47.7344 177.298 48.1065C179.317 49.6314 182.602 47.952 184.555 49.5663C185.302 50.1763 185.665 51.1746 185.777 52.1444C185.89 53.1142 185.777 54.0983 185.765 55.0763C185.733 56.7882 186.05 58.6608 187.315 59.7953C187.696 60.1369 188.146 60.3931 188.52 60.7469C188.893 61.1006 189.186 61.5947 189.122 62.1071C189.072 62.3423 189.005 62.5735 188.921 62.7984C188.67 63.6909 189.045 64.6282 189.503 65.4415C190.868 67.8346 193.275 69.8068 196.003 69.8617C195.821 71.2564 194.397 72.0657 193.123 72.637C191.517 73.3669 189.806 74.0826 188.038 73.9911C186.269 73.8996 184.424 72.7529 184.115 70.9881C184.009 70.3781 184.023 69.6441 183.513 69.3269C183.2 69.1338 182.794 69.1826 182.457 69.0382C181.969 68.8349 181.728 68.2798 181.568 67.7695C181.239 66.7165 181.062 65.6207 181.044 64.5164C181.022 63.207 181.192 61.7777 180.46 60.7001C179.781 59.7018 178.577 59.1955 177.794 58.2786C177.071 57.4287 176.286 56.404 175.102 56.2454C173.464 56.0115 170.075 58.2664 169.108 55.8652Z" fill="black"/>
<path d="M169.108 55.5374C168.881 54.995 169.055 54.3626 169.328 53.8516C169.602 53.3405 169.977 52.8569 170.182 52.3067C170.485 51.4882 170.393 50.562 170.724 49.7612C171.308 48.3397 172.969 47.7053 174.457 47.2158C174.896 47.0728 175.364 46.9299 175.814 47.0356C176.416 47.1746 176.808 47.7072 177.3 48.0655C179.32 49.5341 182.605 47.9167 184.558 49.4714C185.305 50.0588 185.669 51.0202 185.781 51.9562C185.894 52.8921 185.781 53.8359 185.769 54.7777C185.737 56.4264 186.054 58.2297 187.319 59.3223C187.701 59.6513 188.15 59.898 188.524 60.2387C188.897 60.5794 189.19 61.0552 189.126 61.5486C189.077 61.7752 189.01 61.9977 188.925 62.2143C188.674 63.0739 189.05 63.9766 189.508 64.7598C190.877 67.0566 193.275 68.9617 196.003 69.0146C195.821 70.3578 194.397 71.1371 193.122 71.6893C191.516 72.3903 189.805 73.0795 188.036 72.9914C186.267 72.9033 184.422 71.7989 184.113 70.0994C184.006 69.512 184.02 68.8051 183.51 68.4996C183.197 68.3136 182.791 68.3606 182.454 68.2216C181.966 68.0258 181.725 67.4913 181.565 66.9998C181.235 65.9858 181.059 64.9304 181.04 63.8669C181.018 62.6059 181.189 61.2294 180.456 60.1917C179.778 59.2303 178.573 58.7427 177.79 57.8597C177.067 57.0412 176.282 56.0543 175.097 55.9016C173.465 55.6784 170.075 57.8538 169.108 55.5374Z" fill="#585268"/>
<path opacity="0.1" d="M173.283 71.999L177.003 68.9647C177.003 68.9647 174.456 67.5776 174.152 66.3948C173.848 65.212 171.811 66.9563 172.018 68.0172C172.225 69.0782 173.283 71.999 173.283 71.999Z" fill="black"/>
<path d="M173.274 70.999L177.003 67.9657C177.003 67.9657 174.45 66.5781 174.157 65.395C173.865 64.2118 171.81 65.9566 172.018 67.0179C172.226 68.0793 173.274 70.999 173.274 70.999Z" fill="#353546"/>
<path opacity="0.1" d="M177.503 70.999C177.779 70.999 178.003 70.7752 178.003 70.499C178.003 70.2229 177.779 69.999 177.503 69.999C177.227 69.999 177.003 70.2229 177.003 70.499C177.003 70.7752 177.227 70.999 177.503 70.999Z" fill="black"/>
<path opacity="0.1" d="M177.503 72.999C177.779 72.999 178.003 72.7752 178.003 72.499C178.003 72.2229 177.779 71.999 177.503 71.999C177.227 71.999 177.003 72.2229 177.003 72.499C177.003 72.7752 177.227 72.999 177.503 72.999Z" fill="black"/>
<g opacity="0.1">
<path opacity="0.1" d="M170.465 51.3333C170.751 50.5471 170.689 49.6648 170.957 48.8725C170.833 49.0477 170.73 49.2371 170.651 49.4367C170.319 50.263 170.413 51.2093 170.108 52.0376L170.088 52.0856C170.237 51.8469 170.363 51.5951 170.465 51.3333V51.3333Z" fill="black"/>
<path opacity="0.1" d="M193.335 71.1381C191.734 71.8544 190.028 72.5586 188.265 72.4686C186.501 72.3785 184.662 71.2501 184.353 69.5156C184.247 68.9153 184.261 68.1911 183.753 67.879C183.441 67.6889 183.036 67.7369 182.7 67.5949C182.213 67.3948 181.973 66.8486 181.813 66.3465C181.485 65.3103 181.309 64.2321 181.291 63.1454C181.269 61.8589 181.441 60.4525 180.71 59.3901C180.031 58.4078 178.83 57.9116 178.05 57.0073C177.329 56.173 176.546 55.1626 175.365 55.0066C173.746 54.7865 170.361 57.0073 169.404 54.6425C169.25 54.1956 169.272 53.7071 169.466 53.276C169.396 53.394 169.328 53.5121 169.266 53.6321C168.993 54.1643 168.821 54.8025 169.047 55.3567C170.01 57.7175 173.389 55.4988 175.009 55.7208C176.19 55.8809 176.973 56.8912 177.693 57.7215C178.474 58.6258 179.675 59.122 180.352 60.1063C181.084 61.1667 180.912 62.5732 180.934 63.8596C180.952 64.9463 181.128 66.0246 181.457 67.0607C181.617 67.5649 181.857 68.1051 182.344 68.3091C182.68 68.4512 183.084 68.4052 183.396 68.5932C183.913 68.9053 183.899 69.6356 183.997 70.2298C184.309 71.9644 186.147 73.0928 187.909 73.1828C189.67 73.2728 191.368 72.5706 192.979 71.8524C194.14 71.3362 195.433 70.6219 195.782 69.4515C195.225 70.2118 194.24 70.736 193.335 71.1381Z" fill="black"/>
</g>
<path d="M228.78 82.5584C224.497 80.1126 222.879 79.5101 222.871 79.5101L222.782 79.4479C222.315 79.092 221.944 78.627 221.703 78.0944C221.698 77.9974 221.698 77.9003 221.703 77.8033C221.702 77.8126 221.702 77.822 221.703 77.8314C221.77 76.5361 222.699 75.3574 223.579 74.3292L225.831 71.7006C226.086 71.4405 226.284 71.1299 226.411 70.789C226.457 70.6057 226.477 70.4173 226.472 70.2287C226.472 70.1524 226.472 70.0761 226.472 69.9998C226.46 69.3471 226.442 68.6925 226.417 68.0399C226.397 67.4696 226.249 66.7507 225.675 66.6342C225.375 66.5739 224.979 66.6804 224.821 66.4334C224.767 66.3285 224.754 66.208 224.783 66.094C224.781 66.1033 224.781 66.1128 224.783 66.1221V66.09C224.894 65.6494 224.965 65.1998 224.995 64.7466C225.007 64.5159 224.976 64.2849 224.902 64.0658C224.57 63.12 223.423 62.7304 222.409 62.5517C221.396 62.373 220.259 62.2204 219.623 61.4332C219.453 61.1705 219.268 60.9178 219.069 60.6761C218.776 60.4177 218.418 60.2422 218.033 60.1681C216.775 59.8605 215.449 59.9748 214.264 60.4934C213.774 60.7103 213.282 61.0035 212.744 60.9713C212.206 60.9392 211.708 60.5536 211.158 60.4613C210.268 60.3107 209.416 60.9593 208.977 61.7284C208.717 62.1844 208.578 62.6985 208.572 63.2224V63.3108C208.559 63.8745 208.767 64.4214 209.151 64.8369C209.535 65.2385 210.106 65.5036 210.266 66.0237C210.33 66.2346 210.314 66.4635 210.373 66.6784C210.379 66.705 210.387 66.7312 210.397 66.7567L210.369 66.7948C209.45 67.9611 208.952 69.399 208.953 70.8793C208.963 72.3171 209.433 73.7145 210.296 74.8696C211.158 76.0247 212.369 76.8777 213.752 77.3052C213.752 77.3715 213.752 77.4378 213.752 77.5061C213.752 78.3093 213.519 79.1467 212.821 79.7551L206.753 82.1608C206.753 82.1608 203.095 81.7291 201.776 87.0345C201.565 87.9152 201.489 88.8222 201.549 89.7254C201.598 90.5286 201.487 91.9343 200.538 93.7556C199.039 96.6714 199.38 103.364 202.448 104.027C205.343 104.654 206.476 104.393 206.595 104.362V104.479C206.547 105.736 206.088 116.568 204.418 117.877C203.957 118.24 204.042 118.479 204.418 118.65C204.418 118.65 204.418 118.72 204.408 118.851C204.358 119.654 204.101 122.666 202.992 124.377C201.695 126.365 201.831 137.832 201.831 137.832L200.946 144.591C200.946 144.591 201.491 148.766 200.946 149.495C200.459 150.143 199.811 165.588 199.676 168.937H199.619C199.351 168.954 199.092 169.037 198.863 169.177C198.634 169.317 198.444 169.51 198.308 169.74C197.592 170.895 195.083 173.03 195.083 173.03C194.539 173.797 192.526 174.532 191.461 174.877C191.321 174.923 191.186 174.982 191.057 175.054C190.658 175.269 190.338 175.604 190.142 176.01C190.072 176.13 190.027 176.263 190.011 176.401C189.994 176.539 190.006 176.679 190.045 176.813C190.316 177.474 195.975 177.939 197.408 177.275C198.533 176.755 202.992 176.07 204.843 175.801C205.179 175.759 205.492 175.607 205.732 175.369C205.971 175.131 206.124 174.821 206.167 174.487C206.184 174.372 206.178 174.255 206.149 174.142C206.12 174.029 206.068 173.923 205.997 173.831C205.642 173.395 205.462 172.204 205.39 171.421C205.54 171.36 205.68 171.278 205.806 171.176C205.652 168.769 205.996 166.356 206.818 164.085C208.182 160.507 208.59 153.88 208.25 149.573C208.25 149.573 212.408 131.813 215.682 130.157C215.732 130.221 217.321 132.243 217.523 138.506C217.725 144.868 220.044 149.043 220.044 149.043C220.044 149.043 219.02 159.844 220.044 163.887L218.707 170.262C218.608 170.18 218.545 170.116 218.545 170.116C218.545 170.116 218.585 170.293 218.64 170.576L218.612 170.712L218.67 170.724C218.822 171.528 219.047 172.911 218.954 173.736C218.901 174.2 218.769 174.837 218.68 175.461C218.539 176.443 218.5 177.395 219.02 177.604C219.874 177.945 224.888 178.407 225.738 177.315C225.929 177.092 226.053 176.821 226.097 176.532C226.14 176.242 226.101 175.947 225.984 175.678C225.923 175.528 225.84 175.387 225.738 175.261C225.738 175.261 224.406 173.102 224.783 171.58C224.817 171.431 224.821 171.277 224.793 171.127C224.766 170.976 224.708 170.833 224.623 170.706C224.681 169.959 224.985 166.501 225.77 163.565C226.624 160.377 228.422 153.384 227.099 148.788C227.049 148.607 226.993 148.43 226.929 148.258C226.166 145.748 225.91 143.113 226.179 140.504C225.687 138.278 225.687 135.972 226.179 133.745C226.998 130.034 227.571 126.389 227.571 126.389C227.571 126.389 228.022 121.486 227.627 118.479C227.627 118.415 227.609 118.351 227.601 118.279L227.815 118.23C227.815 118.23 226.656 113.128 226.247 109.881C226.15 109.114 226.025 108.144 225.887 107.108C226.264 107.046 226.636 106.954 226.998 106.832C230.678 105.573 231.838 94.1814 231.838 94.1814V90.5668C231.838 90.5668 233.076 85.0103 228.78 82.5584ZM201.353 170.562C201.24 170.505 201.173 170.467 201.173 170.467L201.353 170.562Z" fill="url(#paint2_linear)"/>
<path d="M226.196 148.015C227.766 152.52 225.933 159.831 225.081 163.103C224.229 166.375 223.968 170.286 223.968 170.286C220.63 170.808 218.208 170.155 218.208 170.155L219.583 163.431C218.6 159.448 219.583 148.805 219.583 148.805C219.583 148.805 217.358 144.692 217.161 138.424C216.962 132.256 215.443 130.261 215.395 130.2C212.254 131.832 208.262 149.329 208.262 149.329C208.588 153.572 208.194 160.101 206.886 163.623C206.092 165.862 205.758 168.237 205.905 170.607C205.447 171.004 204.81 171.06 204.114 170.949C202.244 170.647 200.003 169.041 200.003 169.041C200.003 169.041 200.722 149.983 201.247 149.26C201.773 148.537 201.247 144.428 201.247 144.428L202.097 137.769C202.097 137.769 201.966 126.473 203.21 124.516C204.285 122.824 204.532 119.851 204.579 119.07C204.579 118.947 204.579 118.872 204.579 118.872L206.474 116.609C206.474 116.609 224.802 115.237 226.18 116.609C226.516 116.944 226.725 117.711 226.848 118.673C227.227 121.635 226.793 126.465 226.793 126.465C226.793 126.465 226.243 130.057 225.457 133.712C224.986 135.907 224.986 138.177 225.457 140.372C225.204 142.943 225.455 145.539 226.196 148.015V148.015Z" fill="#65617D"/>
<path d="M225.608 176.382C224.707 177.368 219.414 176.95 218.511 176.643C217.962 176.462 218.003 175.596 218.152 174.712C218.246 174.151 218.384 173.577 218.441 173.159C218.584 172.085 218.003 169.904 218.003 169.904C218.003 169.904 219.19 170.95 219.477 169.904C219.604 169.447 220.047 169.213 220.507 169.095C221.124 168.94 221.788 168.974 222.377 169.191C223.312 169.528 224.872 170.246 224.593 171.215C224.197 172.586 225.601 174.532 225.601 174.532C225.71 174.645 225.798 174.771 225.864 174.906C225.989 175.148 226.031 175.413 225.986 175.674C225.94 175.934 225.81 176.179 225.608 176.382V176.382Z" fill="#A27772"/>
<path opacity="0.1" d="M225.601 176.459C224.695 177.321 219.37 176.956 218.462 176.688C217.909 176.529 217.951 175.772 218.101 174.999C218.673 175.193 219.643 175.353 221.267 175.245C221.645 175.219 222.026 175.211 222.406 175.22C223.559 175.257 224.715 175.24 225.865 175.169C225.99 175.381 226.031 175.613 225.985 175.841C225.938 176.069 225.805 176.283 225.601 176.459V176.459Z" fill="black"/>
<path opacity="0.1" d="M208.422 149.36C208.769 153.597 208.35 160.117 206.957 163.634C206.111 165.869 205.755 168.241 205.911 170.608C205.424 171.004 204.745 171.06 204.003 170.949C204.427 168.199 206.217 156.352 207.364 146.991C208.672 136.332 214.784 128.999 214.784 128.999L216.003 130.254C212.675 131.887 208.422 149.36 208.422 149.36Z" fill="black"/>
<path d="M223.003 80.1272L222.227 84.1912L218.412 90.999L213.708 88.865C213.708 88.865 207.307 81.7524 211.332 80.7369C211.813 80.6269 212.268 80.4123 212.667 80.1066C213.456 79.4742 213.704 78.5555 213.708 77.6554C213.678 76.6482 213.458 75.6577 213.06 74.7427L221.289 71.999C220.953 73.1473 220.757 74.3366 220.707 75.5378C220.643 77.919 221.483 79.0911 222.159 79.6575C222.409 79.8707 222.696 80.0302 223.003 80.1272V80.1272Z" fill="#FFCABB"/>
<path opacity="0.1" d="M222.003 71.999C221.635 73.1484 221.421 74.3389 221.366 75.5413C221.202 75.7314 221.027 75.9125 220.842 76.0836C219.911 76.9461 218.758 77.5481 217.504 77.8258C216.25 78.1035 214.942 78.0465 213.719 77.6609C213.684 76.6523 213.441 75.6608 213.003 74.7454L222.003 71.999Z" fill="black"/>
<path d="M223.003 70.997C223.004 72.3815 222.593 73.7351 221.824 74.8865C221.056 76.0379 219.962 76.9354 218.683 77.4656C217.404 77.9957 215.997 78.1346 214.639 77.8648C213.281 77.5949 212.033 76.9284 211.054 75.9495C210.075 74.9706 209.408 73.7234 209.138 72.3655C208.868 71.0075 209.006 69.6 209.536 68.3208C210.066 67.0416 210.963 65.9482 212.114 65.179C213.265 64.4097 214.619 63.9991 216.003 63.9991C216.924 63.9947 217.836 64.1727 218.687 64.5227C219.538 64.8728 220.311 65.3881 220.962 66.0387C221.613 66.6894 222.128 67.4626 222.479 68.3136C222.829 69.1647 223.007 70.0767 223.003 70.997V70.997Z" fill="#FFD6C9"/>
<path opacity="0.1" d="M223.003 80.4603L222.227 84.3998L218.412 90.999L213.708 88.9304C213.708 88.9304 207.307 82.0357 211.332 81.0513C211.813 80.9447 212.268 80.7367 212.667 80.4403C211.941 82.4929 214.936 86.764 214.936 86.764C215.285 87.2931 216.084 86.9636 216.084 86.9636C218.014 86.6621 221.566 80.9495 222.146 79.999C222.399 80.2094 222.691 80.3662 223.003 80.4603Z" fill="black"/>
<path opacity="0.1" d="M227.003 118.637C225.855 118.897 219.504 120.293 217.096 119.943C214.446 119.553 209.294 119.303 209.294 119.303C209.294 119.303 206.014 119.479 205.003 119.02C205.003 118.899 205.003 118.824 205.003 118.824L206.875 116.599C206.875 116.599 224.975 115.249 226.335 116.599C226.675 116.936 226.881 117.69 227.003 118.637Z" fill="black"/>
<path d="M214.762 86.9362C214.762 86.9362 211.311 82.1187 212.612 80.2319L206.782 82.6406C206.782 82.6406 203.274 82.211 202.009 87.4962C201.807 88.3745 201.734 89.2781 201.792 90.1779C201.84 90.9808 201.733 92.3859 200.832 94.1925C199.394 97.097 199.72 103.765 202.663 104.43C205.607 105.094 206.651 104.759 206.651 104.759C206.651 104.759 206.253 116.839 204.559 118.226C202.864 119.613 208.895 119.281 208.895 119.281C208.895 119.281 214.107 119.546 216.79 119.942C219.473 120.337 226.993 118.555 226.993 118.555C226.993 118.555 225.881 113.472 225.488 110.239C225.094 107.005 224.177 100.116 224.177 100.116L230.848 90.9949C230.848 90.9949 232.025 85.4829 227.904 83.04C223.783 80.5972 222.234 79.999 222.234 79.999C222.234 79.999 218.093 86.8037 215.935 87.1329C215.939 87.1329 215.12 87.4661 214.762 86.9362Z" fill="#353546"/>
<path opacity="0.1" d="M207.363 88.999C207.363 88.999 207.285 91.0134 207.764 91.8054C208.243 92.5974 210.003 96.999 210.003 96.999H206.003C206.003 96.999 208.163 95.2295 208.004 94.3744C207.846 93.5193 207.363 88.999 207.363 88.999Z" fill="black"/>
<path d="M217.15 104.999C217.15 104.999 210.118 103.265 209.464 101.789C208.809 100.313 207.003 97.0066 207.003 97.0066L207.745 95.999L211.164 98.7055C211.164 98.7055 215.229 101.98 217.15 102.302C219.07 102.625 217.15 104.999 217.15 104.999Z" fill="#FFBFAB"/>
<path d="M223.003 96.042V99.907H222.377C219.276 99.9064 216.227 100.688 213.516 102.179L212.339 102.824L212.024 102.999L210.003 98.4866L211.893 96.8091H211.991C212.452 96.8542 214.451 97.019 215.3 96.7365C216.104 96.4658 217.103 95.6084 219.472 96.2068C220.639 96.503 221.638 97.7979 222.769 97.3938L223.003 96.042Z" fill="#FFD6C9"/>
<path opacity="0.1" d="M229.659 89.3678L231.003 90.8141V94.3183C231.003 94.3183 229.859 105.372 226.227 106.594C222.594 107.815 216.104 105.886 216.104 105.886C216.104 105.886 214.428 101.645 215.212 101.391C215.996 101.137 222.14 99.5853 222.14 99.5853C222.14 99.5853 222.054 93.1007 223.398 91.1717C223.398 91.1717 222.524 85.1307 225.553 85.0017C228.582 84.8728 229.659 89.3678 229.659 89.3678Z" fill="black"/>
<path d="M229.741 89.3678L231.003 90.8141V94.3183C231.003 94.3183 229.931 105.372 226.523 106.594C223.116 107.815 217.034 105.886 217.034 105.886C217.034 105.886 215.463 101.645 216.2 101.391C216.937 101.137 222.694 99.5853 222.694 99.5853C222.694 99.5853 222.612 93.1007 223.874 91.1717C223.874 91.1717 223.053 85.1307 225.892 85.0017C228.732 84.8728 229.741 89.3678 229.741 89.3678Z" fill="#353546"/>
<path opacity="0.1" d="M221.153 73.9265C221.209 73.4776 221.158 73.0211 221.004 72.5979C220.819 72.1834 220.387 71.8705 219.966 71.9762C219.407 72.113 219.17 72.8715 218.618 73.0539C218.154 73.2073 217.649 72.8653 217.424 72.4155C217.2 71.9658 217.198 71.4373 217.198 70.9316C217.198 70.3637 217.198 69.7937 217.198 69.2238C217.198 68.602 217.178 67.9346 216.812 67.4476C216.357 66.8424 215.285 66.5771 214.569 66.602C214.092 66.6076 213.636 66.7991 213.288 67.1388C212.906 67.4787 212.463 67.7274 211.942 67.6383C211.725 67.6045 211.521 67.507 211.355 67.3573C211.189 67.2076 211.067 67.0118 211.003 66.7927V66.7719C211.558 66.0031 212.26 65.3627 213.065 64.8912C213.869 64.4197 214.759 64.1274 215.677 64.0327C216.596 63.9381 217.523 64.0432 218.401 64.3414C219.279 64.6397 220.087 65.1245 220.776 65.7652C221.464 66.406 222.018 67.1887 222.401 68.0639C222.784 68.939 222.989 69.8876 223.003 70.8495C223.016 71.8114 222.838 72.7658 222.479 73.6522C222.12 74.5386 221.589 75.3377 220.918 75.999C221.033 75.3132 221.112 74.6213 221.153 73.9265V73.9265Z" fill="black"/>
<path d="M211.645 67.7019C211.429 67.6669 211.228 67.5683 211.063 67.4174C210.898 67.2666 210.777 67.0696 210.713 66.849C210.66 66.628 210.674 66.3924 210.613 66.1734C210.461 65.6333 209.918 65.3539 209.554 64.9431C208.825 64.1237 208.872 62.7766 209.388 61.7903C209.806 60.9959 210.613 60.3307 211.46 60.4808C211.983 60.5768 212.444 60.9709 212.968 61.0084C213.491 61.0459 213.952 60.7394 214.411 60.5142C215.536 59.9733 216.801 59.8542 217.998 60.1764C218.365 60.2546 218.706 60.4369 218.983 60.704C219.171 60.9547 219.346 61.2157 219.508 61.4859C220.111 62.2991 221.192 62.4597 222.155 62.6432C223.117 62.8267 224.206 63.2312 224.517 64.2113C224.728 64.8618 224.517 65.5666 224.403 66.2422C224.365 66.3801 224.374 66.5277 224.429 66.6593C224.58 66.922 224.956 66.8115 225.24 66.8678C225.785 66.9908 225.925 67.7352 225.947 68.3274C225.969 69.003 225.986 69.6793 225.998 70.3563C226.014 70.6081 225.994 70.8611 225.941 71.107C225.823 71.4594 225.635 71.7813 225.392 72.0516L223.253 74.7728C222.304 75.978 221.298 77.3834 221.481 78.9431C221.032 79.1517 220.497 78.745 220.351 78.2467C220.205 77.7483 220.322 77.2041 220.422 76.7016C220.596 75.8182 220.711 74.9227 220.765 74.0221C220.82 73.5712 220.77 73.1126 220.617 72.6876C220.434 72.2705 220.007 71.9557 219.589 72.062C219.034 72.1996 218.802 72.9628 218.254 73.1463C217.795 73.3006 217.295 72.9565 217.073 72.5041C216.85 72.0516 216.848 71.5219 216.848 71.0131V69.2929C216.848 68.6673 216.829 67.9959 216.466 67.5059C216.016 66.897 214.954 66.6301 214.246 66.6551C213.775 66.6612 213.323 66.8539 212.98 67.1952C212.6 67.5392 212.16 67.7915 211.645 67.7019Z" fill="#7C5C5C"/>
<path opacity="0.1" d="M213.003 87.999L214.708 96.999C214.708 96.999 216.052 96.9884 213.003 87.999Z" fill="black"/>
<path opacity="0.1" d="M220.003 86.999C220.003 86.999 217.147 91.4052 218.261 95.9631L218.793 95.999C218.793 95.999 217.844 93.8897 220.003 86.999Z" fill="black"/>
<path opacity="0.1" d="M222.003 112.139C222.003 112.139 224.8 111.487 225.003 112.999C225.01 112.999 224.483 111.963 222.003 112.139Z" fill="black"/>
<path opacity="0.1" d="M212.408 96.999C212.408 96.999 211.664 102.067 213.003 104.1C213.003 104.1 210.288 105.187 206.456 104.971L206.003 96.999H212.408Z" fill="black"/>
<path opacity="0.1" d="M213.003 102.83L212.599 102.999L210.003 98.625L212.431 96.999H212.555C212.517 97.2158 211.84 100.976 213.003 102.83Z" fill="black"/>
<path d="M212.483 96.999C212.483 96.999 211.832 101.434 213.003 103.212C213.003 103.212 210.63 104.165 207.28 103.974L205.003 96.999H212.483Z" fill="#353546"/>
<path d="M205.994 174.123C205.957 174.429 205.817 174.714 205.594 174.934C205.372 175.154 205.081 175.296 204.766 175.337C203.049 175.585 198.914 176.218 197.87 176.701C196.542 177.314 191.296 176.887 191.042 176.272C191.005 176.149 190.995 176.019 191.01 175.891C191.026 175.763 191.067 175.64 191.132 175.527C191.312 175.154 191.609 174.845 191.98 174.644C192.103 174.578 192.231 174.523 192.365 174.481C193.353 174.162 195.219 173.484 195.723 172.772C195.723 172.772 198.051 170.8 198.714 169.734C198.839 169.525 199.015 169.348 199.227 169.22C199.439 169.092 199.68 169.017 199.929 169C200.483 168.976 201.1 169.246 201.354 170.422C201.354 170.422 204.385 172.098 205.198 170.628C205.198 170.628 205.325 172.886 205.829 173.505C205.898 173.592 205.948 173.691 205.976 173.797C206.005 173.904 206.011 174.014 205.994 174.123V174.123Z" fill="#A27772"/>
<path opacity="0.1" d="M205.993 173.707C205.957 174.057 205.816 174.383 205.594 174.635C205.371 174.887 205.08 175.049 204.765 175.097C203.049 175.381 198.914 176.106 197.87 176.658C196.542 177.359 191.296 176.871 191.042 176.167C191.005 176.026 190.995 175.877 191.01 175.731C191.026 175.585 191.067 175.443 191.132 175.315C191.312 174.887 191.609 174.534 191.98 174.304C192.836 174.944 194.735 175.549 198.912 174.826C202.897 174.135 204.871 173.46 205.832 172.999C205.9 173.099 205.95 173.213 205.977 173.335C206.005 173.456 206.011 173.583 205.993 173.707V173.707Z" fill="black"/>
<g opacity="0.1">
<path opacity="0.1" d="M224.432 66.4185V66.3865C224.526 65.8943 224.668 65.3861 224.632 64.892C224.59 65.2958 224.523 65.6967 224.432 66.0924C224.407 66.1997 224.407 66.3112 224.432 66.4185V66.4185Z" fill="black"/>
<path opacity="0.1" d="M220.59 72.5766C220.695 72.8137 220.75 73.0697 220.752 73.3288C220.782 72.9715 220.726 72.6122 220.59 72.2805C220.406 71.8804 219.972 71.5782 219.547 71.6803C218.983 71.8123 218.746 72.5446 218.188 72.7206C217.723 72.8687 217.215 72.5386 216.987 72.1044C216.759 71.6703 216.759 71.1601 216.759 70.6719C216.759 70.1217 216.759 69.5736 216.759 69.0234C216.759 68.4232 216.739 67.7789 216.37 67.3088C215.91 66.7226 214.833 66.4685 214.112 66.4905C213.633 66.4966 213.173 66.6822 212.823 67.0107C212.437 67.3388 211.992 67.5789 211.466 67.4928C211.247 67.4595 211.043 67.3652 210.876 67.2208C210.709 67.0764 210.586 66.8877 210.521 66.6766C210.467 66.4645 210.481 66.2364 210.419 66.0263C210.265 65.5102 209.712 65.2401 209.342 64.8479C208.995 64.463 208.798 63.9657 208.787 63.4474C208.76 63.7515 208.795 64.0579 208.891 64.3479C208.986 64.6379 209.14 64.9054 209.342 65.134C209.712 65.5342 210.265 65.7963 210.419 66.3124C210.481 66.5125 210.467 66.7506 210.521 66.9627C210.586 67.1738 210.709 67.3625 210.876 67.5069C211.043 67.6513 211.247 67.7456 211.466 67.7789C211.992 67.865 212.437 67.6249 212.823 67.2968C213.173 66.9683 213.633 66.7827 214.112 66.7766C214.833 66.7546 215.914 67.0087 216.37 67.5949C216.739 68.065 216.757 68.7113 216.759 69.3095C216.759 69.8597 216.759 70.4078 216.759 70.958C216.759 71.4462 216.759 71.9584 216.987 72.3885C217.215 72.8187 217.717 73.1548 218.188 73.0067C218.74 72.8307 218.989 72.0984 219.547 71.9664C219.972 71.8743 220.406 72.1905 220.59 72.5766Z" fill="black"/>
<path opacity="0.1" d="M226.001 70.7659C225.88 71.1037 225.689 71.4119 225.44 71.6702L223.266 74.2811C222.352 75.3795 221.385 76.6519 221.465 78.0544C221.531 76.768 222.428 75.5976 223.266 74.5772L225.44 71.9663C225.689 71.708 225.88 71.3998 226.001 71.062C226.055 70.8254 226.075 70.5821 226.059 70.3398C226.056 70.4836 226.036 70.6265 226.001 70.7659V70.7659Z" fill="black"/>
<path opacity="0.1" d="M220.332 77.6143C220.296 77.4999 220.274 77.3817 220.266 77.2621C220.248 77.4804 220.27 77.7002 220.332 77.9104C220.48 78.3865 221.022 78.7807 221.481 78.5766C221.468 78.481 221.46 78.3849 221.457 78.2885C221 78.4706 220.472 78.0824 220.332 77.6143Z" fill="black"/>
</g>
<path opacity="0.1" d="M220.003 169.999C220.003 169.999 221.773 173.569 224.003 171.17Z" fill="black"/>
<path opacity="0.1" d="M226.003 139.999C226.003 139.999 224.067 141.142 224.006 141.796C223.945 142.45 225.006 141.314 225.006 141.314L226.003 139.999Z" fill="black"/>
<path opacity="0.1" d="M226.003 147.999C225.616 148.23 225.134 148.365 224.631 148.383C223.797 148.41 223.868 149.189 224.412 148.955C224.957 148.722 226.003 147.999 226.003 147.999Z" fill="black"/>
<path opacity="0.1" d="M227.003 147.999C227.003 147.999 225.9 151.605 225.003 150.91Z" fill="black"/>
<path d="M86.2029 175.546C86.2029 175.546 90.7909 176.802 92.9996 175.131C95.2082 173.459 96.166 173.997 96.166 173.997C96.166 173.997 101.433 173.706 101.866 172.463C102.3 171.221 99.8464 166.708 99.8464 166.708C99.6717 166.307 99.4167 165.798 99.3023 165.798L99.3264 163.894L100.089 155.927C101.85 151.42 100.121 145.596 100.121 145.596L99.8063 144.151C99.6291 143.339 99.7346 142.491 100.105 141.746L103.304 135.333C103.475 134.909 103.676 134.498 103.906 134.103C104.107 133.736 104.374 133.283 104.709 132.74C104.808 132.583 104.91 132.421 105.023 132.251C105.41 131.65 105.88 130.968 106.448 130.182C107.864 128.224 108.609 125.773 108.994 123.97L109.165 124.535H109.175H109.203L109.249 124.545H109.314H109.326L109.408 124.559H109.438L110.422 137.057C110.482 141.931 112.275 144.628 112.275 144.628L112.028 155.388C112.366 157.98 111.627 161.435 111.287 162.814L110.512 164.559C110.207 164.711 109.944 164.935 109.745 165.212C109.546 165.488 109.417 165.809 109.37 166.146C109.217 167.435 107.858 170.213 107.858 170.213C107.332 170.878 106.189 172.676 106.189 172.676C106.189 172.676 105.651 174.411 105.984 175.061C106.318 175.71 109.105 175.644 109.105 175.644C112.287 176.347 114.727 174.642 114.572 173.468C114.418 172.293 115.068 171.994 115.068 171.994C116.333 171.594 116.211 170.738 116.211 170.738C116.483 168.973 116.145 167.167 115.253 165.619L115.052 166.082C114.998 165.156 115.127 164.227 115.434 163.351L115.317 163.431L115.281 163.453H115.269C115.47 161.695 117.319 158.443 117.319 158.443C120.716 152.494 119.481 144.434 119.481 144.434L118.955 141.921L118.925 140.973C118.853 138.71 119.025 136.445 119.437 134.219C119.62 133.233 119.809 132.042 119.953 130.73C120.258 127.956 121.242 125.094 121.696 123.882L121.831 123.857H121.847C122.031 123.825 122.218 123.793 122.407 123.757H122.443C122.443 123.757 122.551 123.172 122.644 122.176C122.698 121.541 122.742 120.735 122.742 119.809C122.756 117.013 122.328 114.233 121.475 111.57L121.578 111.424C121.578 111.424 121.821 111.095 122.264 110.526C123.08 109.492 124.349 107.921 125.913 106.149C128.714 102.96 127.89 99.7358 127.89 99.7358C127.89 99.7358 125.862 92.3186 124.959 87.8654C124.443 85.3282 123.475 83.6027 122.734 82.5846C122.901 81.8826 122.995 81.1654 123.015 80.4442C123.076 79.1255 123.029 77.7506 122.435 76.5662C121.841 75.3818 120.576 74.4458 119.255 74.6042C119.067 74.6492 118.872 74.6492 118.684 74.6042C118.53 74.5342 118.399 74.4207 118.309 74.2775C117.536 73.2133 117.486 71.7824 117.727 70.4917C117.967 69.201 118.461 67.9665 118.682 66.6718C118.903 65.3772 118.803 63.9402 117.978 62.9141C117.008 61.7116 115.317 61.3729 114.056 60.4691C113.171 59.8338 112.506 58.9219 111.572 58.3587C110.639 57.7956 109.765 58.01 108.751 58.2225C107.047 58.5812 105.426 58.7455 103.814 59.477C102.181 60.215 100.717 61.2782 99.5111 62.6015C99.083 63.028 98.7552 63.5441 98.5513 64.1126C98.1498 65.4373 98.9348 66.8482 98.7702 68.219C98.6537 69.191 98.0795 70.0368 97.6237 70.9045C97.1679 71.7723 96.8206 72.8025 97.178 73.7103C97.7402 75.1292 99.5733 75.4299 100.907 76.1854C101.085 76.2724 101.237 76.4044 101.348 76.5682C101.678 77.1414 101.005 77.7366 100.581 78.2456C100.339 78.5426 100.167 78.8908 100.079 79.2637C99.5274 79.4898 99.0397 79.8479 98.6591 80.3064C98.2785 80.7649 98.0167 81.3099 97.8968 81.8931C97.445 83.9113 98.1397 86.4585 98.7521 88.142C98.0835 91.8917 98.9529 93.3708 99.5934 93.9379C100.242 94.4923 100.643 95.2808 100.71 96.1304V96.2006C100.752 96.882 100.824 97.5614 100.921 98.2388C100.899 98.0804 100.876 97.9121 100.864 97.8379C100.34 98.8059 99.3424 101.279 98.7802 105.44C98.6633 106.331 98.4936 107.215 98.2722 108.087C97.8701 109.631 97.7262 111.23 97.8466 112.821L97.947 114.17C97.8482 114.172 97.7517 114.14 97.6739 114.079L98.3787 115.368V117.542C98.3778 118.523 98.1968 119.495 97.8446 120.41C97.7944 120.543 97.7402 120.675 97.6819 120.811C97.5008 121.177 97.4191 121.584 97.445 121.992C95.9291 124.31 92.4534 137.305 92.4534 137.305C90.568 141.566 92.608 144.32 92.608 144.32C92.608 144.32 93.5959 156.182 93.7806 156.795C93.9654 157.408 94.375 164.639 94.375 164.639C94.375 164.83 94.375 165.028 94.375 165.215C94.2654 165.167 94.1499 165.134 94.0316 165.116C92.3791 165.024 91.9314 167.629 91.9314 167.629L88.5501 170.852C88.5501 170.852 87.0061 170.592 84.7351 172.293C82.4642 173.995 86.2029 175.546 86.2029 175.546ZM119.965 106.987L119.955 106.951L119.863 107.005L119.825 107.027L119.807 107.039L118.249 101.55C117.832 100.078 117.792 98.5251 118.134 97.0343L119.339 91.7675V90.5009L123.168 100.686C123.413 102.059 121.138 105.383 119.965 106.987Z" fill="url(#paint3_linear)"/>
<path d="M121.003 122.999C121.003 122.999 119.497 126.808 119.114 130.462C118.975 131.78 118.795 132.972 118.619 133.96C118.228 136.191 118.067 138.46 118.138 140.726L118.167 141.676L118.656 144.191C118.656 144.191 119.83 152.271 116.589 158.224C116.589 158.224 114.668 161.788 114.609 163.476L113.308 163.999L110.68 163.232C110.68 163.232 111.949 158.5 111.536 155.183L111.773 144.405C111.773 144.405 110.065 141.708 110.007 136.828L109.003 123.434L121.003 122.999Z" fill="#FFD6C9"/>
<path d="M109.003 121.999C109.003 121.999 108.68 127.059 106.189 130.547C103.699 134.035 103.17 135.548 103.17 135.548L100.103 141.779C99.748 142.501 99.6464 143.323 99.8148 144.11L100.117 145.513C100.117 145.513 101.776 151.169 100.087 155.545L99.2874 163.999H94.6089C94.6089 163.999 94.2167 156.974 94.0461 156.379C93.8755 155.784 92.9206 144.264 92.9206 144.264C92.9206 144.264 90.9598 141.584 92.7716 137.448C92.7716 137.448 96.8599 121.969 97.954 122.237C99.0482 122.505 109.003 121.999 109.003 121.999Z" fill="#FFD6C9"/>
<g opacity="0.1">
<path opacity="0.1" d="M99.4044 145.416L99.0982 143.991C98.9215 143.189 99.0246 142.35 99.3904 141.614L102.521 135.282C102.521 135.282 103.064 133.742 105.604 130.204C108.044 126.803 108.447 121.93 108.475 121.555L108.961 121.531C108.961 121.531 108.631 126.669 106.088 130.21C103.546 133.752 103.006 135.288 103.006 135.288L99.8749 141.614C99.5123 142.347 99.4086 143.182 99.5806 143.981L99.8889 145.406C99.8889 145.406 101.582 151.148 99.8589 155.591L99.0421 164.174H98.5577L99.3744 155.591C101.098 151.148 99.4044 145.416 99.4044 145.416Z" fill="black"/>
</g>
<path opacity="0.1" d="M114.117 163.482C114.176 161.795 116.104 158.23 116.104 158.23C119.367 152.271 118.179 144.198 118.179 144.198L117.677 141.68L117.647 140.73C117.576 138.464 117.738 136.196 118.13 133.964C118.305 132.976 118.486 131.784 118.625 130.467C118.996 126.948 120.412 123.288 120.516 123.019L121.003 122.999C121.003 122.999 119.491 126.808 119.106 130.462C118.967 131.78 118.786 132.972 118.61 133.96C118.217 136.191 118.055 138.46 118.126 140.726L118.156 141.676L118.647 144.191C118.647 144.191 119.825 152.271 116.571 158.224C116.571 158.224 114.643 161.788 114.584 163.476L113.278 163.999L113.003 163.92L114.117 163.482Z" fill="black"/>
<path d="M112.91 162.905C113.253 163.071 113.624 163.129 113.99 163.074C114.356 163.019 114.704 162.852 115.003 162.588C114.585 164.085 114.525 165.697 114.832 167.234C115.35 169.769 110.003 165.193 110.003 165.193L111.145 161.999C111.145 161.999 111.588 163.01 112.91 162.905Z" fill="#D39999"/>
<path opacity="0.1" d="M113.304 163.054C113.598 163.127 113.902 163.123 114.194 163.043C114.487 162.963 114.763 162.808 115.003 162.588C114.585 164.085 114.525 165.697 114.832 167.234C115.35 169.769 110.003 165.193 110.003 165.193L111.145 161.999C111.145 161.999 111.476 162.777 112.448 162.898C112.743 162.94 113.025 162.989 113.304 163.054Z" fill="black"/>
<path d="M100.003 111.999H102.003V99.3002L100.502 98.999L100.003 111.999Z" fill="#FDC2CC"/>
<path opacity="0.05" d="M100.003 111.999H102.003V99.3002L100.502 98.999L100.003 111.999Z" fill="black"/>
<path d="M111.713 164.233C111.713 164.233 113.164 164.143 113.815 165.448L114.615 166.069L115.007 165.151C115.858 166.652 116.177 168.396 115.913 170.1C115.913 170.1 116.03 170.928 114.817 171.315C114.817 171.315 114.195 171.611 114.342 172.737C114.489 173.863 112.152 175.522 109.101 174.839C109.101 174.839 106.434 174.9 106.108 174.276C105.783 173.653 106.316 171.995 106.316 171.995C106.316 171.995 107.412 170.257 107.914 169.616C107.914 169.616 109.218 166.929 109.367 165.693C109.516 164.457 110.942 163.551 111.713 164.233Z" fill="#7E5659"/>
<path d="M99.2613 165.173L99.2864 163.111C99.2864 163.111 96.4627 163.965 94.1763 162.999C94.1763 162.999 94.3686 165.072 94.0509 165.356C93.7332 165.639 95.1084 168.308 95.1084 168.308L96.6446 169.999L99.2864 168.989L100.003 166.617C100.003 166.617 99.4494 165.173 99.2613 165.173Z" fill="#D39999"/>
<path opacity="0.1" d="M99.2613 165.173L99.2864 163.111C99.2864 163.111 96.4627 163.965 94.1763 162.999C94.1763 162.999 94.3686 165.072 94.0509 165.356C93.7332 165.639 95.1084 168.308 95.1084 168.308L96.6446 169.999L99.2864 168.989L100.003 166.617C100.003 166.617 99.4494 165.173 99.2613 165.173Z" fill="black"/>
<path d="M94.08 165.001C94.08 165.001 95.5553 165.156 95.3683 166.865C95.1813 168.574 95.4464 166.865 95.4464 166.865C95.4464 166.865 97.0142 167.441 97.573 168.244C98.1319 169.047 99.1408 167.526 99.2168 167.09C99.2928 166.654 99.9216 166.473 99.9216 166.473C99.9216 166.473 102.387 170.62 101.952 171.76C101.516 172.901 96.2231 173.164 96.2231 173.164C96.2231 173.164 95.2594 172.672 93.0403 174.205C90.8212 175.739 86.2125 174.578 86.2125 174.578C86.2125 174.578 82.4565 173.156 84.7393 171.596C87.0221 170.037 88.5713 170.273 88.5713 170.273L91.9698 167.303C91.9698 167.303 92.4198 164.916 94.08 165.001Z" fill="#7E5659"/>
<path d="M110.983 59.3541C111.881 59.9013 112.52 60.7902 113.372 61.4085C114.583 62.2876 116.209 62.6155 117.141 63.7889C117.927 64.7885 118.03 66.1851 117.817 67.4454C117.605 68.7057 117.129 69.9087 116.899 71.1651C116.669 72.4214 116.716 73.8141 117.459 74.8492C117.546 74.9884 117.671 75.099 117.819 75.1673C118 75.2106 118.188 75.2106 118.368 75.1673C119.638 75.0132 120.857 75.9258 121.427 77.0775C121.997 78.2291 122.043 79.5685 121.984 80.8525C121.935 81.9054 121.817 82.98 121.356 83.9282C120.57 85.5401 118.934 86.5357 117.32 87.2982C116.271 87.7938 115.195 88.2304 114.097 88.606C113.342 88.8628 112.546 89.0939 111.761 88.9596C110.419 88.7265 109.467 87.4997 108.193 87.0197C107.149 86.6246 105.991 86.7669 104.88 86.8656C103.932 86.9486 102.849 86.9466 102.196 86.2513C101.358 85.3584 101.736 83.9183 102.164 82.7686C101.71 82.7397 101.273 82.5853 100.901 82.3224C100.529 82.0596 100.237 81.6985 100.056 81.2791C99.8752 80.8596 99.8135 80.3982 99.8775 79.9457C99.9414 79.4933 100.129 79.0674 100.418 78.7151C100.823 78.2193 101.47 77.6405 101.154 77.0814C101.048 76.922 100.901 76.7938 100.729 76.71C99.4491 75.9752 97.6854 75.6809 97.1467 74.302C96.8007 73.4151 97.1349 72.4116 97.5734 71.5681C98.0118 70.7246 98.5565 69.8988 98.6764 68.9546C98.8337 67.6192 98.0866 66.2463 98.466 64.9583C98.6622 64.4052 98.977 63.9021 99.3882 63.4847C100.544 62.1993 101.949 61.1647 103.517 60.4445C105.069 59.7314 106.624 59.5714 108.264 59.2237C109.247 59.0143 110.061 58.7931 110.983 59.3541Z" fill="#865A61"/>
<path d="M102.003 80.0014C102.003 80.0014 98.741 79.8014 98.1237 83.0639C97.5064 86.3263 99.4624 90.999 99.4624 90.999L102.003 80.0014Z" fill="#FFD6C9"/>
<path d="M100.003 89.5543L101.476 90.6981L108.349 90.999L112.639 88.1095L117.003 80.7642C114.336 80.0966 113.257 78.2892 112.855 76.5993C112.599 75.4556 112.57 74.2743 112.769 73.1199C112.769 73.1199 105.773 69.5668 106.632 75.1127C106.75 75.7933 106.772 76.4867 106.697 77.1732C106.291 80.4214 103.077 79.8096 103.077 79.8096L101.844 81.6749L100.432 86.2582L100.003 89.5543Z" fill="#FFCCBC"/>
<path opacity="0.1" d="M106.073 74.7161C106.185 75.3113 106.206 75.9176 106.135 76.518C107.076 76.9048 108.113 77.0627 109.142 76.9758C110.172 76.889 111.159 76.5605 112.003 76.0231C111.759 75.023 111.732 73.9899 111.922 72.9804C111.922 72.9804 105.254 69.8733 106.073 74.7161Z" fill="black"/>
<path d="M109.003 76.999C112.317 76.999 115.003 74.3127 115.003 70.999C115.003 67.6853 112.317 64.999 109.003 64.999C105.69 64.999 103.003 67.6853 103.003 70.999C103.003 74.3127 105.69 76.999 109.003 76.999Z" fill="#FFD6C9"/>
<path d="M104.297 87.8908C104.444 87.8908 104.59 87.9132 104.735 87.9275C105.532 88.009 108.862 88.1923 110.759 85.8757C112.882 83.2839 115.707 80.083 115.823 79.9526L118.698 80.8409C118.698 80.8409 116.423 80.0137 114.912 84.3414C114.581 85.2491 114.546 86.2423 114.813 87.172C115.08 88.1017 115.634 88.9179 116.393 89.4984C116.951 89.9122 117.595 90.1909 118.274 90.3134C118.275 90.3149 118.275 90.3167 118.275 90.3185C118.275 90.3203 118.275 90.322 118.274 90.3236V92.2226L117.098 97.5201C116.764 99.0171 116.802 100.576 117.21 102.054L119.003 108.535C118.732 108.727 107.605 116.465 100.172 111.121C100.2 110.888 101.118 103.282 100.481 99.5597C100.317 98.6079 100.206 97.6473 100.148 96.6827C100.148 96.6583 100.148 96.6358 100.148 96.6114C100.082 95.7597 99.6906 94.969 99.058 94.4109C98.3884 93.7996 97.4817 92.1696 98.3785 87.8623C98.605 86.7955 98.9389 85.7556 99.3748 84.7591L101.868 78.999L104.165 79.0459V79.0622C103.966 79.3148 101.302 82.7175 101.013 84.9099C100.73 86.9943 100.381 87.6341 104.297 87.8908Z" fill="#353546"/>
<path d="M121.001 82.093C121.001 82.093 123.217 84.0394 124.087 88.4574C124.957 92.8755 126.896 100.214 126.896 100.214C126.896 100.214 127.682 103.416 124.996 106.578C122.311 109.74 120.525 112.214 120.525 112.214L118.757 114.883C118.456 115.338 118.003 115.666 117.484 115.805C116.679 116.022 115.441 116.179 114.368 115.578C113.978 115.354 113.682 114.991 113.537 114.557C113.392 114.124 113.408 113.651 113.583 113.229L113.976 112.297C113.976 112.297 110.335 114.648 110.019 113.349C109.703 112.051 114.253 110.755 114.253 110.755C114.253 110.755 118.011 110.107 118.771 108.283C118.771 108.283 122.806 102.972 122.49 101.148L118.592 90.446C118.592 90.446 113.718 89.7858 115.38 84.1762C117.042 78.5666 121.001 82.093 121.001 82.093Z" fill="#FFD6C9"/>
<path d="M97.0376 122.361C97.0376 122.361 106.2 124.219 108.36 123.97L108.592 124.756C108.592 124.756 112.07 125.545 119.932 124.28C120.446 124.198 120.979 124.106 121.531 124.003L121.715 123.97C121.715 123.97 121.823 123.38 121.907 122.373C122.095 120.087 122.162 115.66 120.575 111.129L119.253 106.999C119.253 106.999 111.081 111.967 105.671 111.51C105.187 111.469 104.708 111.43 104.225 111.414C103.115 111.371 101.395 111.414 100.277 110.505L97.9313 110.915V117.682C97.9304 118.672 97.7509 119.653 97.4016 120.577C97.351 120.712 97.2985 120.846 97.2398 120.987C97.0246 121.41 96.9535 121.893 97.0376 122.361Z" fill="#65617D"/>
<path opacity="0.1" d="M109.003 122.315V124.721C109.003 124.721 112.912 125.759 121.816 123.824C121.816 123.824 121.92 123.149 122.003 121.999C119.271 122.519 111.737 123.77 109.003 122.315Z" fill="black"/>
<path opacity="0.1" d="M97.0378 122.702C97.0378 122.702 106.526 124.484 108.762 124.246L109.003 124.999V122.979C107.923 123.4 100.21 121.654 97.4146 120.999C97.3623 121.129 97.3078 121.257 97.2471 121.392C97.0261 121.795 96.9525 122.256 97.0378 122.702V122.702Z" fill="black"/>
<path d="M119.003 120.179L119.898 123.999C120.574 123.926 121.276 123.843 122.003 123.752C121.724 122.635 121.114 120.086 121.282 119.663L120.156 118.999L119.003 120.179Z" fill="#65617D"/>
<path opacity="0.1" d="M119.003 120.179L119.898 123.999C120.574 123.925 121.276 123.842 122.003 123.752C121.724 122.636 121.114 120.087 121.282 119.664L120.156 118.999L119.003 120.179Z" fill="black"/>
<g opacity="0.05">
<path opacity="0.05" d="M105.37 111.708C104.893 111.668 104.417 111.63 103.939 111.614C102.87 111.574 101.238 111.614 100.125 110.796L100.513 110.728C101.626 111.61 103.316 111.572 104.423 111.614C104.901 111.63 105.376 111.668 105.854 111.708C106.01 111.722 106.171 111.73 106.333 111.734C106.012 111.743 105.69 111.734 105.37 111.708V111.708Z" fill="black"/>
<path opacity="0.05" d="M119.491 124.17C119.999 124.09 120.527 124.001 121.074 123.902L121.258 123.868C121.258 123.868 121.364 123.292 121.446 122.31C121.635 120.079 121.701 115.759 120.127 111.338L118.894 107.537C119.156 107.389 119.294 107.302 119.294 107.302L120.604 111.332C122.175 115.753 122.109 120.073 121.923 122.304C121.839 123.286 121.733 123.862 121.733 123.862L121.551 123.896C121.005 123.995 120.477 124.084 119.967 124.164C116.33 124.74 113.643 124.881 111.81 124.864C114.384 124.825 116.951 124.593 119.491 124.17V124.17Z" fill="black"/>
<path opacity="0.05" d="M108.03 123.868V123.89H107.77C107.869 123.883 107.956 123.876 108.03 123.868Z" fill="black"/>
</g>
<path d="M120.503 120.999C120.779 120.999 121.003 120.551 121.003 119.999C121.003 119.447 120.779 118.999 120.503 118.999C120.227 118.999 120.003 119.447 120.003 119.999C120.003 120.551 120.227 120.999 120.503 120.999Z" fill="#D39999"/>
<path d="M98.8393 105.751C99.324 101.507 100.179 98.9864 100.631 97.999C100.648 98.1336 100.694 98.5703 100.715 98.7049C100.806 99.3258 100.725 100.108 100.754 100.897L100.304 110.493L100.906 113.494C101.472 115.871 99.3767 113.993 99.3767 113.993C98.9429 115.119 98.1474 114.995 98.1474 114.995L98.0385 113.273C97.9354 111.65 98.0588 110.019 98.4038 108.444C98.5943 107.557 98.7397 106.658 98.8393 105.751V105.751Z" fill="#FFC7B6"/>
<path d="M122.003 110.754C121.546 111.268 121.295 111.562 121.295 111.562L119.397 113.985C119.075 114.399 118.589 114.696 118.031 114.822C117.167 115.02 115.839 115.164 114.688 114.616C114.269 114.413 113.951 114.083 113.795 113.69C113.639 113.296 113.657 112.867 113.844 112.484L114.266 111.635C114.266 111.635 110.36 113.771 110.02 112.593C109.681 111.416 114.563 110.237 114.563 110.237C114.563 110.237 118.596 109.648 119.412 107.99C119.412 107.99 119.764 107.599 120.256 106.999" fill="#FFD6C9"/>
<path d="M119.003 115.009C119.003 115.009 114.899 114.571 113.599 111.999L113.003 114.124C113.003 114.124 117.312 117.384 118.295 116.961L119.003 115.009Z" fill="#65617D"/>
<path opacity="0.1" d="M119.003 115.015C119.003 115.015 114.9 114.577 113.597 111.999L113.003 114.12C113.003 114.12 117.313 117.385 118.295 116.961L119.003 115.015Z" fill="black"/>
<path d="M98.8448 113.999C98.8448 113.999 97.3061 114.719 97.0032 114.319L97.6953 115.999L99.0032 114.676L98.8448 113.999Z" fill="#65617D"/>
<path opacity="0.1" d="M98.8448 113.999C98.8448 113.999 97.3061 114.719 97.0032 114.319L97.6953 115.999L99.0032 114.676L98.8448 113.999Z" fill="black"/>
<path opacity="0.1" d="M109.003 122.928V119.999L108.003 122.999L109.003 122.928Z" fill="black"/>
<path opacity="0.1" d="M114.676 67.9826C114.311 68.5248 113.677 68.8001 113.053 68.8856C112.428 68.9711 111.796 68.8981 111.166 68.8856C110.178 68.8689 109.127 69.0295 108.319 69.6426C107.804 70.0326 107.416 70.581 107.013 71.1023C105.793 72.6768 104.098 74.1511 102.173 73.9864C102.006 73.9864 101.84 73.951 101.686 73.8822C101.531 73.8135 101.391 73.7127 101.275 73.586C101.118 73.329 101.038 73.0282 101.045 72.7227C100.963 71.4247 101.002 70.1213 101.162 68.8314C101.239 68.0331 101.427 67.2511 101.719 66.5104C102.063 65.7679 102.515 65.0868 103.058 64.4918C103.716 63.6868 104.508 63.0166 105.396 62.5148C106.292 62.0128 107.331 61.8712 108.319 62.1165C109.471 62.4481 110.368 63.399 111.466 63.8891C112.721 64.4459 116.051 65.9327 114.676 67.9826Z" fill="black"/>
<path d="M114.676 67.4859C114.311 67.9829 113.677 68.2353 113.053 68.3136C112.428 68.392 111.796 68.3251 111.166 68.3136C110.178 68.2964 109.127 68.4436 108.319 69.0056C107.804 69.3631 107.416 69.8658 107.013 70.3437C105.793 71.787 104.098 73.1385 102.173 72.9875C102.006 72.9879 101.84 72.9556 101.685 72.8926C101.531 72.8295 101.391 72.7369 101.275 72.6204C101.117 72.385 101.038 72.1092 101.045 71.829C100.963 70.6392 101.002 69.4444 101.162 68.262C101.239 67.5303 101.427 66.8135 101.719 66.1344C102.063 65.4541 102.515 64.8303 103.058 64.2859C103.715 63.5469 104.508 62.9319 105.396 62.4718C106.292 62.0116 107.331 61.8819 108.319 62.1067C109.471 62.4107 110.368 63.2824 111.466 63.7316C112.721 64.2439 116.051 65.603 114.676 67.4859Z" fill="#865A61"/>
<g opacity="0.05">
<path opacity="0.05" d="M115.953 83.8525C114.258 89.4284 119.2 90.0826 119.2 90.0826L123.172 100.72C123.494 102.533 119.381 107.813 119.381 107.813C119.094 108.489 118.38 109.003 117.599 109.383C118.055 109.105 118.422 108.703 118.656 108.223C118.656 108.223 122.768 102.945 122.445 101.132L118.474 90.4927C118.474 90.4927 113.533 89.8385 115.227 84.2626C115.793 82.4 116.628 81.5517 117.473 81.2476C116.89 81.7157 116.356 82.526 115.953 83.8525Z" fill="black"/>
</g>
<g opacity="0.1">
<path opacity="0.1" d="M116.037 88.9182C116.27 89.2052 116.539 89.4602 116.838 89.6764C117.399 90.0835 118.045 90.3572 118.728 90.4767C118.728 90.4767 118.728 90.4767 118.728 90.4867V90.6868C118.11 90.556 117.527 90.2977 117.014 89.9285C116.634 89.6496 116.303 89.308 116.037 88.9182V88.9182Z" fill="black"/>
<path opacity="0.1" d="M100.68 96.8949C100.68 96.9169 100.68 96.9409 100.68 96.9649C100.742 97.9156 100.857 98.862 101.024 99.7999C101.624 103.249 100.838 110.097 100.726 111.044C100.662 111.002 100.598 110.962 100.525 110.916C100.556 110.688 101.478 103.219 100.838 99.5658C100.674 98.6312 100.562 97.688 100.503 96.7409C100.503 96.7169 100.503 96.6929 100.503 96.6708C100.464 96.1218 100.278 95.5934 99.965 95.1403C100.38 95.6367 100.63 96.25 100.68 96.8949V96.8949Z" fill="black"/>
<path opacity="0.1" d="M104.365 79.633L102.407 79.595C102.406 79.5941 102.404 79.5936 102.402 79.5936C102.4 79.5936 102.399 79.5941 102.397 79.595L99.8949 85.2489C99.4573 86.2275 99.1219 87.2486 98.894 88.296C98.1653 91.7171 98.6238 93.4217 99.1803 94.264C98.5537 93.5257 97.9071 91.8432 98.7138 88.0619C98.9373 87.0139 99.2694 85.992 99.7047 85.0128L102.225 79.3589L104.533 79.4049V79.4189C104.515 79.4429 104.453 79.5189 104.365 79.633Z" fill="black"/>
<path opacity="0.1" d="M119.118 81.1675L119.152 81.1775L119.118 81.1675Z" fill="black"/>
<path opacity="0.1" d="M118.4 81.1355L116.438 80.5453H116.428C116.312 80.6734 113.475 83.8164 111.343 86.3613C109.438 88.6361 106.096 88.458 105.292 88.378C105.146 88.362 104.997 88.35 104.851 88.34C102.663 88.1999 101.803 87.9398 101.514 87.3877C101.925 87.7878 102.828 87.9879 104.669 88.0999C104.817 88.0999 104.963 88.1219 105.11 88.1359C105.91 88.2159 109.255 88.394 111.161 86.1212C113.293 83.5744 116.132 80.4313 116.248 80.3032L119.102 81.1675C118.872 81.1103 118.634 81.0995 118.4 81.1355V81.1355Z" fill="black"/>
</g>
<path opacity="0.1" d="M95.0032 167.644C95.0032 167.644 92.4896 168.775 92.0032 166.999Z" fill="black"/>
<path opacity="0.1" d="M80.5032 159.999C83.5408 159.999 86.0032 159.551 86.0032 158.999C86.0032 158.447 83.5408 157.999 80.5032 157.999C77.4657 157.999 75.0032 158.447 75.0032 158.999C75.0032 159.551 77.4657 159.999 80.5032 159.999Z" fill="#353546"/>
<path opacity="0.1" d="M59.5032 172.999C62.5408 172.999 65.0032 172.551 65.0032 171.999C65.0032 171.447 62.5408 170.999 59.5032 170.999C56.4657 170.999 54.0032 171.447 54.0032 171.999C54.0032 172.551 56.4657 172.999 59.5032 172.999Z" fill="#353546"/>
<path d="M54.0032 161.999C58.4215 161.999 62.0032 161.327 62.0032 160.499C62.0032 159.671 58.4215 158.999 54.0032 158.999C49.585 158.999 46.0032 159.671 46.0032 160.499C46.0032 161.327 49.585 161.999 54.0032 161.999Z" fill="#57D355"/>
<path d="M50.7739 158.744C50.4164 158.443 50.156 158.035 50.0273 157.576C49.932 157.111 50.1226 156.555 50.5483 156.385C51.0266 156.195 51.5379 156.539 51.9248 156.887C52.3117 157.234 52.757 157.632 53.2644 157.56C53.0034 157.314 52.8082 157.001 52.6978 156.654C52.5874 156.306 52.5656 155.934 52.6345 155.575C52.6554 155.426 52.716 155.286 52.8094 155.171C53.0739 154.876 53.556 155.003 53.8749 155.235C54.8839 155.975 55.1678 157.402 55.1717 158.687C55.2747 158.223 55.1891 157.742 55.1911 157.273C55.193 156.804 55.3194 156.262 55.7044 156.016C55.9421 155.879 56.2103 155.809 56.482 155.814C56.937 155.797 57.4425 155.844 57.7536 156.189C58.1424 156.618 58.0394 157.339 57.703 157.806C57.3667 158.273 56.8573 158.574 56.3887 158.902C56.0113 159.134 55.6896 159.453 55.4477 159.833C55.4194 159.886 55.396 159.942 55.3777 159.999H52.5373C51.8972 159.666 51.304 159.244 50.7739 158.744V158.744Z" fill="#57D355"/>
<path opacity="0.1" d="M248.503 167.999C251.541 167.999 254.003 167.551 254.003 166.999C254.003 166.447 251.541 165.999 248.503 165.999C245.466 165.999 243.003 166.447 243.003 166.999C243.003 167.551 245.466 167.999 248.503 167.999Z" fill="#353546"/>
<path d="M245.003 162.715C245.003 162.715 247.959 162.617 248.852 161.935C249.745 161.253 253.397 160.441 253.619 161.534C253.84 162.628 258.062 166.969 254.723 166.998C251.384 167.027 246.97 166.44 246.081 165.857C245.192 165.274 245.003 162.715 245.003 162.715Z" fill="#D38884"/>
<path opacity="0.2" d="M254.784 166.647C251.446 166.674 247.028 166.126 246.139 165.581C245.461 165.168 245.192 163.684 245.101 162.999H245.003C245.003 162.999 245.196 165.39 246.079 165.933C246.963 166.475 251.386 167.025 254.724 166.998C255.687 166.998 256.022 166.647 256.002 166.137C255.87 166.454 255.502 166.647 254.784 166.647Z" fill="black"/>
<defs>
<linearGradient id="paint0_linear" x1="138.504" y1="157.999" x2="138.504" y2="40.0081" gradientUnits="userSpaceOnUse">
<stop stop-color="#808080" stop-opacity="0.25"/>
<stop offset="0.54" stop-color="#808080" stop-opacity="0.12"/>
<stop offset="1" stop-color="#808080" stop-opacity="0.1"/>
</linearGradient>
<linearGradient id="paint1_linear" x1="27589.2" y1="95441.5" x2="27589.2" y2="20922.6" gradientUnits="userSpaceOnUse">
<stop stop-color="#808080" stop-opacity="0.25"/>
<stop offset="0.54" stop-color="#808080" stop-opacity="0.12"/>
<stop offset="1" stop-color="#808080" stop-opacity="0.1"/>
</linearGradient>
<linearGradient id="paint2_linear" x1="36984.1" y1="97682.6" x2="36984.1" y2="28349.3" gradientUnits="userSpaceOnUse">
<stop stop-color="#808080" stop-opacity="0.25"/>
<stop offset="0.54" stop-color="#808080" stop-opacity="0.12"/>
<stop offset="1" stop-color="#808080" stop-opacity="0.1"/>
</linearGradient>
<linearGradient id="paint3_linear" x1="-20957" y1="96662.2" x2="-20957" y2="27183.8" gradientUnits="userSpaceOnUse">
<stop stop-color="#808080" stop-opacity="0.25"/>
<stop offset="0.54" stop-color="#808080" stop-opacity="0.12"/>
<stop offset="1" stop-color="#808080" stop-opacity="0.1"/>
</linearGradient>
</defs>
</svg>
