<svg width="14" height="14" viewBox="0 0 14 14" fill="none" xmlns="http://www.w3.org/2000/svg">
<path d="M11.5202 0.897983C13.4617 1.42067 11.8487 3.25871 11.45 4.39157C11.1972 5.11001 11.0627 5.84787 10.5647 6.43932C10.0861 7.00768 9.404 7.44265 8.82383 7.90284C8.99325 7.97302 9.16267 8.0432 9.33209 8.11337C9.23823 7.39845 9.06049 6.63983 9.20082 5.93201C9.29982 5.43269 9.55439 4.92076 9.71891 4.4392C9.91019 3.87929 10.0548 3.30263 10.2478 2.74445C10.3238 2.5248 11.2326 0.632014 11.5789 0.791266C11.9247 0.950284 12.2276 0.437199 11.8794 0.277096C10.8957 -0.175332 9.98831 1.70391 9.73441 2.40882C9.37148 3.41645 8.93636 4.50615 8.65055 5.52916C8.41585 6.36919 8.62382 7.25419 8.73662 8.11337C8.77156 8.3795 9.0318 8.49292 9.24489 8.3239C10.1064 7.64057 11.0562 7.0834 11.5222 6.05795C11.9812 5.04788 12.2567 4.0429 12.7967 3.05862C13.5609 1.66537 13.183 0.728836 11.6785 0.323784C11.308 0.224047 11.1499 0.79831 11.5202 0.897983Z" fill="white"/>
<path d="M10.4525 2.23827C11.0681 2.29145 11.594 2.55614 12.0729 2.94518C12.3678 3.18476 12.7916 2.76593 12.494 2.52412C11.8798 2.02521 11.2434 1.71112 10.4525 1.6428C10.0708 1.60982 10.073 2.20548 10.4525 2.23827Z" fill="white"/>
<path d="M2.09386 8.40986C4.40958 8.41408 6.7253 8.41829 9.04103 8.42251C9.42421 8.42321 9.42479 7.82774 9.04103 7.82704C6.72531 7.82282 4.40958 7.81861 2.09386 7.81439C1.71068 7.8137 1.7101 8.40916 2.09386 8.40986Z" fill="white"/>
<path d="M2.0718 7.24501C3.53474 7.24501 4.99769 7.24501 6.46063 7.24501C6.84379 7.24501 6.84442 6.64954 6.46063 6.64954C4.99769 6.64954 3.53474 6.64954 2.0718 6.64954C1.68864 6.64954 1.68801 7.24501 2.0718 7.24501Z" fill="white"/>
<path d="M2.09391 5.93575C3.23338 5.94452 4.37284 5.95329 5.51231 5.96205C5.89557 5.965 5.89595 5.36953 5.51231 5.36658C4.37284 5.35782 3.23338 5.34905 2.09391 5.34028C1.71065 5.33733 1.71027 5.9328 2.09391 5.93575Z" fill="white"/>
<path d="M10.7986 6.50625C10.7907 7.59693 10.8883 8.7454 10.7745 9.83112C10.668 10.8468 10.3487 11.1564 9.37867 11.1459C8.76448 11.1392 8.15029 11.1325 7.53609 11.1258C6.30771 11.1124 5.07932 11.0991 3.85093 11.0857C3.33099 11.08 2.78669 11.1252 2.27158 11.0685C1.76695 11.1311 1.30278 11.0039 0.879065 10.6871C0.843078 10.396 0.827901 10.1041 0.833533 9.81152C0.804754 8.67792 0.829019 7.54074 0.826765 6.40663C0.825896 5.96946 0.598978 4.66922 0.8226 4.31132C1.16012 3.77112 2.07318 3.88676 2.58144 3.88351C5.04335 3.86778 7.50526 3.85205 9.96716 3.83632C10.3502 3.83387 10.351 3.2384 9.96716 3.24085C8.03281 3.25321 6.09845 3.26557 4.1641 3.27793C3.29161 3.2835 2.39717 3.23657 1.52634 3.29478C1.19738 3.31677 0.834586 3.31016 0.563655 3.53576C-0.207997 4.17829 0.230605 6.05908 0.232337 6.93046C0.234072 7.80349 0.233043 8.67658 0.237543 9.5496C0.240123 10.0504 0.166234 10.743 0.442603 11.1998C0.950899 12.04 2.52297 11.6667 3.32448 11.6754C5.16706 11.6955 7.00964 11.7155 8.85222 11.7356C9.55396 11.7432 10.9051 12.0405 11.3017 11.2034C11.5347 10.7115 11.3696 9.87316 11.3734 9.35614C11.3803 8.40618 11.3872 7.45621 11.3941 6.50625C11.3969 6.12299 10.8014 6.1226 10.7986 6.50625Z" fill="white"/>
<path d="M0.616203 9.85322C4.03464 9.85041 7.45308 9.84761 10.8715 9.8448C11.2547 9.84448 11.2553 9.24901 10.8715 9.24933C7.45308 9.25214 4.03464 9.25494 0.616203 9.25775C0.233061 9.25807 0.232399 9.85354 0.616203 9.85322Z" fill="white"/>
<path d="M5.73284 10.7517C6.116 10.7517 6.11663 10.1562 5.73284 10.1562C5.34969 10.1562 5.34905 10.7517 5.73284 10.7517Z" fill="white"/>
<path d="M3.24072 13.6824C4.88781 13.6991 6.53421 13.6828 8.18065 13.6337C8.56297 13.6222 8.5646 13.0267 8.18065 13.0382C6.53421 13.0874 4.88781 13.1036 3.24072 13.0869C2.85743 13.083 2.85713 13.6785 3.24072 13.6824Z" fill="white"/>
<path d="M6.19576 11.7544C6.41902 11.8974 6.51084 12.2395 6.66447 12.4498C6.85775 12.7143 7.16949 12.9412 7.29364 13.2471C7.43586 13.5975 8.01212 13.4443 7.86783 13.0888C7.70054 12.6765 7.36029 12.4222 7.11607 12.0618C6.91276 11.7618 6.81554 11.4447 6.49631 11.2403C6.17266 11.033 5.8737 11.5482 6.19576 11.7544Z" fill="white"/>
<path d="M4.72762 11.4791C4.62768 11.7694 4.3946 11.9945 4.21286 12.2355C4.01771 12.4943 3.83896 12.7634 3.67186 13.0411C3.47375 13.3702 3.98843 13.6699 4.18603 13.3416C4.38184 13.0163 4.59383 12.7026 4.82972 12.4049C5.02188 12.1624 5.19974 11.9339 5.30182 11.6374C5.42686 11.2743 4.85186 11.1184 4.72762 11.4791Z" fill="white"/>
</svg>
