<svg width="111" height="90" viewBox="0 0 111 90" fill="none" xmlns="http://www.w3.org/2000/svg">
<g clip-path="url(#clip0)">
<path d="M82.0868 89.5393C96.1481 89.5393 107.547 88.575 107.547 87.3855C107.547 86.196 96.1481 85.2317 82.0868 85.2317C68.0256 85.2317 56.6267 86.196 56.6267 87.3855C56.6267 88.575 68.0256 89.5393 82.0868 89.5393Z" fill="#E3E3E3"/>
<path d="M107.414 63.2926C107.414 73.8469 101.2 77.5321 93.5361 77.5321C85.8718 77.5321 79.6586 73.8469 79.6586 63.2926C79.6586 52.7383 93.5361 39.3116 93.5361 39.3116C93.5361 39.3116 107.414 52.7383 107.414 63.2926Z" fill="#38B80E"/>
<path d="M93.0306 75.9176L93.1727 67.0845L99.0876 56.1569L93.195 65.699L93.2588 61.7272L97.3354 53.8211L93.2758 60.6762L93.3907 53.5329L97.7559 47.2388L93.4088 52.4097L93.4805 39.3116L93.0293 56.6512L93.0663 55.9359L88.6282 49.0755L92.9952 57.309L92.5817 65.2868L92.5694 65.075L87.4529 57.8556L92.5539 65.8231L92.5022 66.8207L92.4929 66.8357L92.4972 66.9176L91.448 87.1579H92.8497L93.018 76.7034L98.1064 68.7554L93.0306 75.9176Z" fill="white"/>
<path d="M102.534 83.3345C101.694 86.2401 99.6907 86.7604 97.5806 86.1505C97.5317 86.1364 97.4831 86.1218 97.4347 86.1066C97.3375 86.0762 97.242 86.0435 97.1483 86.0093C95.2833 85.3228 94.1121 83.8285 94.893 81.1263C95.7012 78.3297 100.26 75.8237 100.601 75.6394L100.602 75.639C100.615 75.6319 100.622 75.6284 100.622 75.6284C100.622 75.6284 103.374 80.4289 102.534 83.3345Z" fill="#2E9B0A"/>
<path d="M97.5699 85.6658L99.537 84.0979L97.5038 85.8813L97.4346 86.1066C97.3375 86.0762 97.242 86.0435 97.1483 86.0093L98.139 83.1458L98.1444 83.1229L98.1481 83.1194L98.2417 82.849L97.4713 80.2495L98.3056 82.6443L98.292 82.7036L99.0406 80.54L98.4934 77.9259L99.1667 80.1588L100.601 75.6394L100.606 75.624L100.602 75.639L99.5443 79.2241L101.153 78.1465L99.45 79.5321L98.85 81.4894L100.513 79.9251L98.7617 81.7775L98.428 82.8656L100.81 80.7077L98.3117 83.2454L97.5699 85.6658Z" fill="white"/>
<path d="M30.1392 35.1492C33.6658 35.1492 36.5247 32.2622 36.5247 28.7008C36.5247 25.1395 33.6658 22.2524 30.1392 22.2524C26.6126 22.2524 23.7537 25.1395 23.7537 28.7008C23.7537 32.2622 26.6126 35.1492 30.1392 35.1492Z" fill="#F2F2F2"/>
<path d="M31.4603 33.2221C34.9869 33.2221 37.8458 30.335 37.8458 26.7737C37.8458 23.2124 34.9869 20.3253 31.4603 20.3253C27.9337 20.3253 25.0748 23.2124 25.0748 26.7737C25.0748 30.335 27.9337 33.2221 31.4603 33.2221Z" stroke="#3F3D56" stroke-width="2" stroke-miterlimit="10"/>
<path d="M22.5793 16.6193L17.4383 7.92332C18.0551 7.13261 18.366 6.1423 18.3129 5.13715C18.2599 4.132 17.8466 3.18065 17.1502 2.46056C16.4537 1.74047 15.5216 1.30083 14.5278 1.22364C13.534 1.14645 12.5463 1.43699 11.7489 2.04106C10.9516 2.64513 10.3991 3.52148 10.1945 4.50662C9.98995 5.49176 10.1472 6.51842 10.637 7.39509C11.1268 8.27175 11.9157 8.93855 12.8565 9.27108C13.7973 9.60362 14.8258 9.5792 15.7501 9.20236L22.5793 16.6193Z" fill="#3F3D56"/>
<path d="M14.2121 7.28035C15.266 7.28035 16.1204 6.41755 16.1204 5.35325C16.1204 4.28894 15.266 3.42615 14.2121 3.42615C13.1582 3.42615 12.3038 4.28894 12.3038 5.35325C12.3038 6.41755 13.1582 7.28035 14.2121 7.28035Z" fill="#ACDF9B"/>
<path d="M39.0685 15.6151L46.1802 8.47388C47.0892 8.88695 48.1159 8.952 49.0689 8.65689C50.0218 8.36178 50.8359 7.72667 51.3593 6.87003C51.8827 6.0134 52.0797 4.99373 51.9134 4.00126C51.7472 3.00879 51.229 2.11128 50.4557 1.47617C49.6824 0.841055 48.7068 0.511709 47.7107 0.549567C46.7146 0.587425 45.7662 0.989901 45.0424 1.68192C44.3186 2.37393 43.8687 3.30823 43.7768 4.31051C43.6849 5.3128 43.9572 6.31463 44.5428 7.12911L39.0685 15.6151Z" fill="#3F3D56"/>
<path d="M47.8692 6.61811C48.9231 6.61811 49.7775 5.75532 49.7775 4.69102C49.7775 3.62671 48.9231 2.76392 47.8692 2.76392C46.8153 2.76392 45.9609 3.62671 45.9609 4.69102C45.9609 5.75532 46.8153 6.61811 47.8692 6.61811Z" fill="#ACDF9B"/>
<path d="M44.0225 31.5289L52.6045 36.7697C52.4275 37.7603 52.6134 38.7821 53.1275 39.6444C53.6416 40.5068 54.4488 41.1508 55.3985 41.4565C56.3482 41.7621 57.3756 41.7084 58.289 41.3053C59.2023 40.9023 59.9394 40.1775 60.3625 39.2662C60.7857 38.3548 60.8661 37.3191 60.5887 36.3523C60.3114 35.3855 59.6952 34.5535 58.8552 34.0117C58.0152 33.4699 57.0087 33.2551 56.0234 33.4075C55.0381 33.5599 54.1414 34.0691 53.5005 34.84L44.0225 31.5289Z" fill="#3F3D56"/>
<path d="M56.6479 39.4366C57.7018 39.4366 58.5562 38.5738 58.5562 37.5095C58.5562 36.4452 57.7018 35.5824 56.6479 35.5824C55.594 35.5824 54.7396 36.4452 54.7396 37.5095C54.7396 38.5738 55.594 39.4366 56.6479 39.4366Z" fill="#ACDF9B"/>
<path d="M29.9303 40.233L26.9709 49.9099C25.9763 49.9762 25.0395 50.4055 24.3353 51.1178C23.6311 51.8302 23.2075 52.7769 23.1436 53.7815C23.0798 54.786 23.3799 55.7796 23.9881 56.5771C24.5963 57.3746 25.471 57.9214 26.4491 58.1156C27.4271 58.3097 28.4417 58.1379 29.3036 57.6323C30.1654 57.1266 30.8157 56.3216 31.1331 55.3675C31.4505 54.4133 31.4133 53.3751 31.0285 52.4465C30.6437 51.518 29.9376 50.7625 29.0418 50.321L29.9303 40.233Z" fill="#3F3D56"/>
<path d="M27.2383 55.978C28.2922 55.978 29.1466 55.1152 29.1466 54.0509C29.1466 52.9866 28.2922 52.1238 27.2383 52.1238C26.1844 52.1238 25.33 52.9866 25.33 54.0509C25.33 55.1152 26.1844 55.978 27.2383 55.978Z" fill="#ACDF9B"/>
<path d="M18.1578 28.5306L8.14396 27.9719C7.83972 27.0133 7.20057 26.1993 6.34575 25.6816C5.49092 25.1639 4.47879 24.9779 3.49817 25.1583C2.51755 25.3388 1.6354 25.8733 1.01629 26.6621C0.397183 27.451 0.0833901 28.4403 0.13345 29.4457C0.18351 30.451 0.594006 31.4035 1.28836 32.1257C1.98271 32.8479 2.9135 33.2903 3.9071 33.3705C4.9007 33.4506 5.88925 33.163 6.68833 32.5614C7.48742 31.9597 8.04247 31.085 8.24996 30.1005L18.1578 28.5306Z" fill="#3F3D56"/>
<path d="M4.22997 31.1628C5.28391 31.1628 6.13829 30.3 6.13829 29.2357C6.13829 28.1714 5.28391 27.3086 4.22997 27.3086C3.17604 27.3086 2.32166 28.1714 2.32166 29.2357C2.32166 30.3 3.17604 31.1628 4.22997 31.1628Z" fill="#ACDF9B"/>
<path d="M108.152 9.05627C109.239 9.05627 110.119 8.16699 110.119 7.07C110.119 5.97302 109.239 5.08374 108.152 5.08374C107.066 5.08374 106.186 5.97302 106.186 7.07C106.186 8.16699 107.066 9.05627 108.152 9.05627Z" fill="#F2F2F2"/>
<path d="M107.353 8.38317C108.439 8.38317 109.32 7.49389 109.32 6.39691C109.32 5.29993 108.439 4.41064 107.353 4.41064C106.266 4.41064 105.386 5.29993 105.386 6.39691C105.386 7.49389 106.266 8.38317 107.353 8.38317Z" stroke="#3F3D56" stroke-width="2" stroke-miterlimit="10"/>
<path d="M95.7278 7.51624H91.2845V12.0033H95.7278V7.51624Z" fill="#6C63FF"/>
<path d="M96.6164 6.61877H92.1731V11.1058H96.6164V6.61877Z" stroke="#3F3D56" stroke-width="2" stroke-miterlimit="10"/>
<path d="M81.0871 79.5107C81.0871 79.5107 80.6872 82.0684 80.0207 82.4722C79.3542 82.876 83.4864 83.8183 83.4864 83.8183L84.1529 79.78L81.0871 79.5107Z" fill="#FBBEBE"/>
<path d="M86.0191 50.3002L87.4854 52.0501L86.8189 58.1076L86.2857 70.088C86.2857 70.088 87.3521 80.4531 86.2857 80.7223C85.2193 80.9916 80.4206 80.8569 80.5539 80.1839C80.6872 79.5108 80.8205 78.9724 81.0871 78.0301C81.3537 77.0878 80.8205 73.7225 80.8205 73.7225L81.487 69.9534L79.0876 53.6655L86.0191 50.3002Z" fill="#2F2E41"/>
<path d="M81.2204 82.0684C81.2204 82.0684 79.7541 81.7992 79.6208 82.0684C79.4875 82.3376 76.9548 85.1644 76.5549 85.1644C76.155 85.1644 73.2224 87.8567 76.2883 87.9913C79.3542 88.1259 84.4195 85.7029 84.4195 85.7029C84.4195 85.7029 83.6741 82.2775 83.7136 82.4422C83.7531 82.6068 81.2204 82.7414 81.2204 82.0684Z" fill="#2F2E41"/>
<path d="M79.6208 75.8763C79.6208 75.8763 83.3532 80.0493 83.4865 80.4531C83.6198 80.8569 85.6193 80.4531 85.6193 80.4531L86.4191 77.7609L85.7526 76.8186L82.0202 73.7225L79.6208 75.8763Z" fill="#FBBEBE"/>
<path d="M84.9527 78.9724L83.0199 80.8096C83.0199 80.8096 85.4859 84.626 85.4859 85.0299C85.4859 85.4337 85.6192 88.799 86.9522 88.2606C88.2852 87.7221 88.4185 82.3377 88.4185 82.3377C88.4185 82.3377 88.2852 76.8186 87.4854 76.4148C86.6856 76.0109 84.9327 76.1385 84.9327 76.1385C84.9327 76.1385 86.0191 78.8378 84.9527 78.9724Z" fill="#2F2E41"/>
<path d="M73.8889 38.3197C73.8889 38.3197 73.2224 40.4735 73.0891 41.0119C72.9558 41.5504 72.156 43.0311 72.156 45.3195C72.156 47.6079 72.4226 50.3001 72.156 50.5693C71.8894 50.8385 67.6239 65.915 69.49 67.5303C71.3562 69.1457 77.488 74.5301 77.8879 75.2032C78.2878 75.8762 78.4211 77.4916 79.2209 77.2223C80.0207 76.9531 83.0866 74.2609 83.2199 73.7224C83.3532 73.184 81.487 72.2417 81.487 72.2417C81.487 72.2417 77.7546 66.7227 76.8215 66.8573C75.8884 66.9919 76.0217 66.1842 76.155 65.7804C76.2883 65.3765 76.5549 65.1073 76.155 65.1073C75.7551 65.1073 76.0217 64.0304 76.155 63.492C76.2883 62.9535 79.3542 55.6845 79.3542 55.6845L87.4854 52.05C87.4854 52.05 87.0855 42.2234 84.153 39.5312L83.4865 37.9159C83.4865 37.9159 76.0217 37.3774 73.8889 38.3197Z" fill="#2F2E41"/>
<path d="M77.2214 17.0511C77.2214 17.0511 77.8879 21.7625 76.2883 22.0318C74.6887 22.301 73.3557 22.1664 73.3557 22.301C73.3557 22.4356 77.3547 26.6085 77.3547 26.6085L81.0871 26.3393L84.4195 22.7048C84.4195 22.7048 81.3537 22.1664 81.3537 20.2818C81.3537 18.3973 81.2204 17.0511 81.2204 17.0511H77.2214Z" fill="#FBBEBE"/>
<path opacity="0.1" d="M77.2214 17.0511C77.2214 17.0511 77.8879 21.7625 76.2883 22.0318C74.6887 22.301 73.3557 22.1664 73.3557 22.301C73.3557 22.4356 77.3547 26.6085 77.3547 26.6085L81.0871 26.3393L84.4195 22.7048C84.4195 22.7048 81.3537 22.1664 81.3537 20.2818C81.3537 18.3973 81.2204 17.0511 81.2204 17.0511H77.2214Z" fill="black"/>
<path d="M79.2875 19.003C81.5697 19.003 83.4198 17.1347 83.4198 14.8301C83.4198 12.5254 81.5697 10.6571 79.2875 10.6571C77.0053 10.6571 75.1552 12.5254 75.1552 14.8301C75.1552 17.1347 77.0053 19.003 79.2875 19.003Z" fill="#FBBEBE"/>
<path d="M75.6218 21.6279C75.6218 21.6279 70.4231 22.301 70.0232 24.0509C69.6233 25.8009 72.6892 36.7044 73.0891 37.6467C73.489 38.589 73.3557 39.262 73.3557 39.262C73.9588 38.8065 74.6516 38.4867 75.3874 38.3242C76.1232 38.1616 76.8849 38.1601 77.6213 38.3197C80.154 38.8582 83.753 38.589 83.753 38.589C83.753 38.589 84.9527 33.6083 85.2193 33.0699C85.4859 32.5314 86.5523 29.57 86.5523 28.7623C86.5523 27.9547 88.1519 24.5894 88.1519 24.5894C88.1519 24.5894 87.3521 22.1664 84.4195 22.301C84.4195 22.301 83.1404 21.7228 82.7802 22.1465C82.42 22.5702 80.4206 24.4548 77.8879 23.6471C75.3552 22.8394 75.6218 21.6279 75.6218 21.6279Z" fill="#3F3D56"/>
<path d="M71.4895 23.9163H70.0232L69.2234 34.5505C69.2234 34.5505 72.156 35.3582 72.5559 34.8198C72.9558 34.2813 71.4895 23.9163 71.4895 23.9163Z" fill="#3F3D56"/>
<path d="M69.6233 33.4737L69.2234 34.5506C69.2234 34.5506 68.9569 38.0505 70.5564 37.9159C72.156 37.7813 73.0891 35.7621 73.0891 35.7621C73.0891 35.7621 72.156 33.2045 71.0896 33.4737C70.0232 33.7429 69.6233 33.4737 69.6233 33.4737Z" fill="#3F3D56"/>
<path d="M85.6193 23.9163L88.152 24.5893C88.152 24.5893 90.0181 31.4545 90.1514 31.5891C90.2847 31.7237 90.418 32.5314 90.418 32.5314C90.418 32.5314 90.418 32.666 90.6846 33.0698C90.9512 33.4737 91.3511 33.2044 91.0845 33.7429C90.8179 34.2813 90.418 34.0121 90.6846 34.5505C90.9512 35.089 90.8179 36.5697 90.8179 36.5697C90.8179 36.5697 90.1514 34.0121 87.7521 34.6852L86.1525 27.4162L85.6193 23.9163Z" fill="#3F3D56"/>
<path d="M74.5807 11.3917C73.7404 12.8827 73.5512 14.6486 73.4352 16.3601C73.3855 17.0942 73.3481 17.8475 73.5637 18.5503C73.791 19.2914 74.2968 20.0443 74.0374 20.7746C73.7866 21.4808 72.9476 21.7635 72.4791 22.3458C72.0821 22.8394 71.9823 23.5156 72.0168 24.1505C72.0512 24.7854 72.2037 25.4087 72.2484 26.043C72.3407 27.4362 71.9149 28.8141 71.0542 29.907C73.062 29.8288 75.2086 28.9297 76.0553 27.0896C76.3084 26.5395 76.4315 25.9375 76.66 25.3765C76.9183 24.7419 77.3083 24.1675 77.553 23.5273C77.9222 22.5615 77.9422 21.5009 77.9575 20.4657C77.9667 19.846 77.9733 19.2098 77.7609 18.6283C77.2934 17.3484 75.8397 16.5213 75.6953 15.1649C75.6704 15.0214 75.6915 14.8737 75.7553 14.7432C75.8231 14.6478 75.9054 14.5638 75.9991 14.4942C76.9068 13.6851 76.7572 11.9722 77.8377 11.4206C78.3226 11.1731 78.9072 11.2602 79.4279 11.4169C80.0061 11.5909 80.583 11.8603 80.9591 12.3367C81.7167 13.2959 81.4177 14.6815 81.1833 15.8853C80.8436 17.6315 80.7232 19.414 80.8248 21.1906C80.8314 21.4748 80.8729 21.757 80.9483 22.0309C81.0875 22.4752 81.3842 22.8485 81.6082 23.2559C82.0647 24.0934 82.2128 25.0671 82.0263 26.0044C81.861 26.8201 81.4503 27.6888 81.8118 28.437C81.971 28.726 82.1927 28.9749 82.4604 29.1653C83.6418 30.1003 85.1413 30.6797 86.0197 31.9087C86.1709 30.9048 85.8824 29.8945 85.6693 28.9021C85.4563 27.9097 85.3267 26.8292 85.7645 25.915C85.9565 25.5139 86.2501 25.165 86.4071 24.7487C86.7697 23.7872 86.3375 22.7326 86.0751 21.7385C85.8875 20.9578 85.752 20.1652 85.6697 19.3662L85.399 17.2095C85.1752 15.4266 84.9411 13.6073 84.1658 11.9896C82.7047 8.94098 79.3984 7.80875 76.4381 9.49802C75.6623 9.95009 75.0209 10.6041 74.5807 11.3917Z" fill="#FF6584"/>
<path d="M70.9563 34.1467C70.9563 34.1467 70.1565 36.5697 71.0896 36.5697C72.0227 36.5697 73.7556 35.089 73.8889 33.8775C74.0222 32.666 76.4216 28.0892 74.6887 28.493C72.9558 28.8969 72.156 32.2622 72.156 32.2622L70.9563 34.1467Z" fill="#FBBEBE"/>
<path d="M84.4195 23.9163L80.0206 38.3197L86.0191 39.6658L90.418 25.6662L84.4195 23.9163Z" fill="#E4E2FF"/>
<path d="M90.0181 34.2814L90.8509 35.6868C90.8509 35.6868 91.2178 38.3198 89.3516 38.3198C87.4854 38.3198 84.8194 35.7621 84.8194 35.7621C84.8194 35.7621 83.4865 35.2237 82.6867 35.3583C81.8869 35.4929 77.488 35.3583 79.3542 33.0699C81.2204 30.7815 84.4195 33.0699 84.4195 33.0699L87.752 34.6853L89.4849 33.743L90.0181 34.2814Z" fill="#FBBEBE"/>
<path d="M88.8851 32.4642L87.5521 34.6179C87.5521 34.6179 90.6179 35.0218 90.8845 35.6948C91.1511 36.3679 89.6849 32.1949 89.6849 32.1949L88.8851 32.4642Z" fill="#3F3D56"/>
</g>
<defs>
<clipPath id="clip0">
<rect width="110" height="89" fill="white" transform="translate(0.119324 0.539307)"/>
</clipPath>
</defs>
</svg>
