<svg width="16" height="14" viewBox="0 0 16 14" fill="none" xmlns="http://www.w3.org/2000/svg">
<path d="M12.2906 13.5332C12.0912 13.5332 11.8723 13.4677 11.6356 13.3372L6.27506 9.37943C6.21502 9.33526 6.1783 9.26629 6.17433 9.19186C6.17085 9.11742 6.20063 9.04547 6.2562 8.99536L12.6057 3.28148C12.7075 3.18968 12.8643 3.19762 12.9561 3.29984C13.0479 3.40156 13.0394 3.55836 12.9377 3.65016L6.81444 9.16109L11.9026 12.9204C12.0371 12.9923 12.2643 13.0836 12.4261 13.0087C12.5908 12.9333 12.6722 12.6926 12.7119 12.5041L14.8828 2.27367C14.9672 1.93575 14.9265 1.66382 14.7762 1.53878C14.6615 1.44351 14.4908 1.43656 14.3062 1.51992L1.54566 6.44135C1.15415 6.59865 1.03109 6.76042 1.03307 6.81401C1.03456 6.84924 1.11892 6.9465 1.3705 7.02341L4.53385 8.01087L8.00684 5.8196C8.12295 5.74715 8.27578 5.78139 8.34873 5.89701C8.42167 6.01263 8.38743 6.16596 8.27132 6.2389L4.70157 8.49121C4.64004 8.52991 4.56412 8.53983 4.49515 8.5185L1.22412 7.49729C0.643547 7.31965 0.544305 7.00604 0.537358 6.83485C0.527433 6.60014 0.662899 6.26073 1.36454 5.97988L14.1147 1.06341C14.4606 0.905612 14.8317 0.939355 15.0942 1.15818C15.3984 1.41175 15.4977 1.85933 15.3667 2.38581L13.1977 12.6068C13.1064 13.0425 12.9169 13.3298 12.6335 13.4598C12.5268 13.5089 12.4127 13.5332 12.2906 13.5332Z" fill="white"/>
<path d="M12.2906 13.5332C12.0912 13.5332 11.8723 13.4677 11.6356 13.3372L8.30109 10.8765C8.19093 10.7951 8.16711 10.6393 8.24899 10.5296C8.33037 10.4195 8.48618 10.3957 8.59584 10.4775L11.9026 12.9204C12.0371 12.9923 12.2643 13.0836 12.4261 13.0087C12.5908 12.9333 12.6722 12.6926 12.7119 12.5041L14.8828 2.27367C14.9672 1.93575 14.9265 1.66382 14.7762 1.53878C14.6615 1.44351 14.4908 1.43656 14.3062 1.51992L1.54566 6.44135C1.15415 6.59865 1.03109 6.76042 1.03307 6.81401C1.03456 6.84924 1.11892 6.9465 1.3705 7.02341L4.64252 8.04461C4.72092 8.06893 4.78196 8.13096 4.80627 8.20936L5.93118 11.9116C5.96145 11.9945 5.98477 12.0768 6.00512 12.1483C6.021 12.2049 6.04085 12.2753 6.05424 12.2962C6.05226 12.2937 6.09196 12.3056 6.19765 12.3061C6.41946 12.3061 6.50381 12.2232 6.67252 12.059L7.49623 11.2581C7.59448 11.1618 7.75129 11.1648 7.84706 11.263C7.94233 11.3613 7.94035 11.5186 7.84209 11.6139L7.03228 12.4004C6.8328 12.5954 6.62141 12.8018 6.19765 12.8018C5.71136 12.8018 5.61311 12.5864 5.52727 12.2828C5.5099 12.2212 5.49005 12.1503 5.46028 12.0684L4.3696 8.4793L1.22412 7.49729C0.643547 7.31965 0.544305 7.00604 0.537358 6.83485C0.527433 6.60014 0.662899 6.26073 1.36454 5.97988L14.1147 1.06341C14.4606 0.905612 14.8317 0.939355 15.0942 1.15818C15.3984 1.41175 15.4977 1.85933 15.3667 2.38581L13.1977 12.6068C13.1064 13.0425 12.9169 13.3298 12.6335 13.4598C12.5268 13.5089 12.4127 13.5332 12.2906 13.5332Z" fill="white"/>
<path d="M9.22058 5.51294C9.22058 5.6494 9.10893 5.76104 8.97247 5.76104C8.83601 5.76104 8.72437 5.6494 8.72437 5.51294C8.72437 5.37648 8.83601 5.26483 8.97247 5.26483C9.10893 5.26483 9.22058 5.37648 9.22058 5.51294Z" fill="white"/>
</svg>
