<svg width="152" height="129" viewBox="0 0 152 129" fill="none" xmlns="http://www.w3.org/2000/svg">
<path d="M131.7 119.04C132.07 119.04 132.37 118.635 132.37 118.135C132.37 117.635 132.07 117.23 131.7 117.23C131.33 117.23 131.03 117.635 131.03 118.135C131.03 118.635 131.33 119.04 131.7 119.04Z" fill="#3F3D56"/>
<path d="M131.797 122.383C134.973 122.383 137.549 121.871 137.549 121.239C137.549 120.607 134.973 120.095 131.797 120.095C128.62 120.095 126.044 120.607 126.044 121.239C126.044 121.871 128.62 122.383 131.797 122.383Z" fill="#7FCD63"/>
<path d="M131.7 121.659C132.07 121.659 132.37 121.254 132.37 120.754C132.37 120.254 132.07 119.849 131.7 119.849C131.33 119.849 131.03 120.254 131.03 120.754C131.03 121.254 131.33 121.659 131.7 121.659Z" fill="#3F3D56"/>
<path d="M131.7 120.551C132.07 120.551 132.37 120.146 132.37 119.646C132.37 119.146 132.07 118.741 131.7 118.741C131.33 118.741 131.03 119.146 131.03 119.646C131.03 120.146 131.33 120.551 131.7 120.551Z" fill="#3F3D56"/>
<path d="M131.7 118.336C132.07 118.336 132.37 117.931 132.37 117.431C132.37 116.931 132.07 116.526 131.7 116.526C131.33 116.526 131.03 116.931 131.03 117.431C131.03 117.931 131.33 118.336 131.7 118.336Z" fill="#3F3D56"/>
<path d="M131.7 117.23C132.07 117.23 132.37 116.825 132.37 116.325C132.37 115.825 132.07 115.42 131.7 115.42C131.33 115.42 131.03 115.825 131.03 116.325C131.03 116.825 131.33 117.23 131.7 117.23Z" fill="#3F3D56"/>
<path d="M134.331 106.646C134.423 106.526 134.506 106.4 134.58 106.268L132.822 105.969L134.723 105.982C134.907 105.572 135.007 105.128 135.018 104.676C135.028 104.224 134.949 103.775 134.785 103.356L132.231 104.726L134.586 102.936C134.369 102.534 134.074 102.184 133.719 101.906C133.364 101.629 132.957 101.431 132.524 101.325C132.091 101.219 131.641 101.207 131.203 101.29C130.766 101.373 130.349 101.549 129.981 101.807C129.613 102.065 129.3 102.399 129.063 102.789C128.827 103.178 128.671 103.614 128.606 104.069C128.541 104.525 128.568 104.989 128.686 105.432C128.804 105.876 129.009 106.289 129.29 106.646C129.147 106.833 129.024 107.036 128.924 107.25L131.208 108.478L128.772 107.633C128.601 108.156 128.559 108.714 128.65 109.257C128.74 109.801 128.96 110.313 129.29 110.746C128.916 111.235 128.684 111.824 128.619 112.443C128.553 113.063 128.658 113.689 128.921 114.25C129.184 114.811 129.595 115.284 130.106 115.615C130.617 115.945 131.208 116.121 131.811 116.121C132.414 116.121 133.005 115.945 133.516 115.615C134.027 115.284 134.437 114.811 134.7 114.25C134.963 113.689 135.068 113.063 135.003 112.443C134.938 111.824 134.705 111.235 134.331 110.746C134.776 110.161 135.017 109.44 135.017 108.696C135.017 107.953 134.776 107.231 134.331 106.646Z" fill="#7FCD63"/>
<path opacity="0.1" d="M128.575 108.635C128.574 109.379 128.816 110.102 129.262 110.686C128.888 111.175 128.656 111.763 128.59 112.383C128.525 113.003 128.63 113.629 128.893 114.189C129.156 114.75 129.567 115.223 130.078 115.554C130.589 115.885 131.18 116.061 131.783 116.061C132.386 116.061 132.977 115.885 133.488 115.554C133.999 115.223 134.409 114.75 134.672 114.189C134.935 113.629 135.04 113.003 134.975 112.383C134.91 111.763 134.677 111.175 134.303 110.686C134.734 110.122 128.575 108.263 128.575 108.635Z" fill="black"/>
<path opacity="0.1" d="M73.6204 107.36C113.815 107.36 146.4 105.676 146.4 103.599C146.4 101.522 113.815 99.8376 73.6204 99.8376C33.4255 99.8376 0.841125 101.522 0.841125 103.599C0.841125 105.676 33.4255 107.36 73.6204 107.36Z" fill="#6C63FF"/>
<g opacity="0.2">
<path opacity="0.2" d="M131.546 91.5764C131.485 91.6958 131.414 91.8093 131.333 91.9156C130.627 91.4004 129.907 90.8969 129.172 90.4053C129.187 90.3728 129.202 90.3404 129.22 90.3079C129.389 89.969 129.643 89.6828 129.954 89.479C130.358 89.2224 130.811 89.1649 131.189 89.3699C131.567 89.5749 131.774 89.9982 131.795 90.4849C131.808 90.8653 131.722 91.2422 131.546 91.5764Z" fill="#3F3D56"/>
<path opacity="0.2" d="M132.536 89.6618C132.982 88.793 132.822 87.8036 132.18 87.4521C131.538 87.1005 130.656 87.5199 130.211 88.3887C129.766 89.2576 129.925 90.2469 130.567 90.5985C131.21 90.95 132.091 90.5307 132.536 89.6618Z" fill="#3F3D56"/>
<path opacity="0.2" d="M133.523 87.7371C133.968 86.8683 133.808 85.879 133.166 85.5274C132.524 85.1758 131.643 85.5952 131.197 86.464C130.752 87.3329 130.912 88.3222 131.554 88.6738C132.196 89.0253 133.077 88.606 133.523 87.7371Z" fill="#3F3D56"/>
<path opacity="0.2" d="M134.508 85.815C134.954 84.9462 134.794 83.9568 134.152 83.6053C133.51 83.2537 132.628 83.6731 132.183 84.5419C131.738 85.4108 131.897 86.4001 132.539 86.7517C133.181 87.1032 134.063 86.6839 134.508 85.815Z" fill="#3F3D56"/>
<path opacity="0.2" d="M135.495 83.8902C135.94 83.0214 135.78 82.032 135.138 81.6805C134.496 81.3289 133.614 81.7483 133.169 82.6171C132.724 83.486 132.883 84.4753 133.526 84.8269C134.168 85.1784 135.049 84.7591 135.495 83.8902Z" fill="#3F3D56"/>
<path opacity="0.2" d="M136.715 67.6912C136.664 67.3953 136.632 67.0962 136.619 66.7959L139.943 67.9493L136.623 66.1661C136.671 65.2794 136.894 64.4121 137.278 63.6175C137.662 62.8229 138.198 62.1177 138.855 61.5451L142.072 66.3505L139.575 61.0038C140.308 60.5306 141.129 60.2184 141.984 60.0869C142.84 59.9553 143.712 60.007 144.547 60.2389C145.383 60.4708 146.163 60.8778 146.84 61.4347C147.516 61.9917 148.075 62.6865 148.48 63.476C148.886 64.2656 149.13 65.133 149.198 66.0242C149.265 66.9155 149.154 67.8115 148.872 68.6566C148.59 69.5018 148.143 70.2779 147.558 70.9367C146.974 71.5955 146.264 72.123 145.474 72.4862C145.556 72.9473 145.588 73.4161 145.571 73.8845L140.512 73.8432L145.495 74.6913C145.384 75.3931 145.164 76.0716 144.842 76.7002C144.184 77.9931 143.124 79.0189 141.832 79.6117C142.044 80.8153 141.923 82.0561 141.485 83.1923C141.046 84.3285 140.307 85.3142 139.352 86.0367C138.397 86.7592 137.264 87.1893 136.084 87.2778C134.903 87.3663 133.723 87.1097 132.677 86.5372C131.631 85.9648 130.762 85.0997 130.169 84.0408C129.576 82.9819 129.284 81.772 129.325 80.5495C129.367 79.327 129.74 78.1411 130.403 77.1276C131.066 76.114 131.991 75.3137 133.073 74.8181C132.819 73.3802 133.04 71.8958 133.701 70.6033C134.361 69.3108 135.423 68.2852 136.715 67.6912Z" fill="#6C63FF"/>
<path opacity="0.1" d="M144.842 76.7045C144.184 77.9958 143.123 79.02 141.832 79.6117C142.044 80.8152 141.924 82.0561 141.485 83.1923C141.047 84.3285 140.307 85.3142 139.352 86.0367C138.397 86.7591 137.265 87.1892 136.084 87.2777C134.904 87.3663 133.723 87.1096 132.677 86.5372C131.631 85.9648 130.762 85.0997 130.169 84.0408C129.577 82.9819 129.284 81.772 129.326 80.5495C129.367 79.3269 129.74 78.1411 130.403 77.1275C131.066 76.114 131.991 75.3137 133.073 74.8181C132.822 73.4287 145.173 76.057 144.842 76.7045Z" fill="black"/>
</g>
<g opacity="0.2">
<path opacity="0.2" d="M127.594 53.135C127.519 53.3393 127.426 53.5367 127.319 53.725C126.082 53.0426 124.827 52.3789 123.554 51.7338C123.573 51.6793 123.591 51.6232 123.611 51.5672C123.819 50.9905 124.172 50.4815 124.633 50.0922C125.232 49.5966 125.953 49.4093 126.595 49.6615C127.237 49.9138 127.655 50.5465 127.785 51.3282C127.878 51.9374 127.812 52.561 127.594 53.135Z" fill="#3F3D56"/>
<path opacity="0.2" d="M129.11 50.7569C129.665 49.2758 129.227 47.7203 128.133 47.2824C127.039 46.8446 125.702 47.6903 125.147 49.1714C124.592 50.6524 125.03 52.208 126.124 52.6458C127.219 53.0836 128.555 52.2379 129.11 50.7569Z" fill="#3F3D56"/>
<path opacity="0.2" d="M130.025 46.5525C130.573 45.0642 130.126 43.5069 129.026 43.0742C127.926 42.6416 126.59 43.4973 126.042 44.9857C125.494 46.474 125.941 48.0313 127.041 48.464C128.141 48.8966 129.476 48.0408 130.025 46.5525Z" fill="#3F3D56"/>
<path opacity="0.2" d="M131.237 43.2594C131.785 41.7711 131.338 40.2138 130.238 39.7811C129.139 39.3485 127.803 40.2042 127.255 41.6926C126.706 43.1809 127.153 44.7382 128.253 45.1709C129.353 45.6035 130.689 44.7478 131.237 43.2594Z" fill="#3F3D56"/>
<path opacity="0.2" d="M132.451 39.9645C132.999 38.4762 132.552 36.9189 131.452 36.4862C130.352 36.0535 129.016 36.9093 128.468 38.3977C127.92 39.886 128.367 41.4433 129.467 41.8759C130.567 42.3086 131.902 41.4528 132.451 39.9645Z" fill="#3F3D56"/>
<path opacity="0.2" d="M131.299 13.7083C131.158 13.2432 131.049 12.7686 130.972 12.2879L136.537 13.459L130.862 11.2761C130.767 9.84026 130.957 8.39951 131.421 7.04231C131.884 5.68512 132.611 4.4401 133.556 3.38369L139.65 10.4428L134.607 2.36745C135.695 1.45876 136.953 0.791033 138.301 0.405749C139.65 0.0204644 141.061 -0.0741549 142.446 0.127768C143.832 0.32969 145.162 0.823843 146.355 1.57954C147.548 2.33524 148.578 3.33634 149.381 4.52068C150.184 5.70503 150.742 7.04733 151.022 8.46422C151.302 9.88112 151.297 11.3424 151.008 12.7572C150.718 14.172 150.15 15.5103 149.34 16.6888C148.529 17.8673 147.492 18.861 146.294 19.6081C146.514 20.332 146.657 21.0782 146.722 21.8338L138.588 22.8087L146.756 23.1465C146.693 24.9004 146.208 26.6104 145.344 28.1214C144.48 29.6325 143.265 30.8968 141.809 31.8C142.38 33.6895 142.425 35.7069 141.938 37.6215C141.452 39.5362 140.455 41.2708 139.06 42.6271C137.665 43.9834 135.929 44.9067 134.05 45.2913C132.171 45.676 130.226 45.5066 128.436 44.8024C126.646 44.0983 125.084 42.8878 123.928 41.3094C122.772 39.7309 122.07 37.8483 121.9 35.8765C121.731 33.9048 122.102 31.9236 122.97 30.1594C123.839 28.3952 125.17 26.9193 126.812 25.9002C126.13 23.6423 126.201 21.2129 127.015 19.002C127.828 16.7911 129.337 14.9268 131.299 13.7083Z" fill="#6C63FF"/>
<path opacity="0.1" d="M146.092 26.505C145.282 28.7169 143.773 30.5815 141.81 31.7971C142.381 33.6866 142.426 35.704 141.94 37.6186C141.454 39.5333 140.456 41.2679 139.061 42.6242C137.666 43.9805 135.93 44.9038 134.051 45.2885C132.173 45.6731 130.227 45.5037 128.437 44.7996C126.647 44.0954 125.085 42.8849 123.93 41.3065C122.774 39.7281 122.071 37.8454 121.902 35.8737C121.732 33.9019 122.103 31.9207 122.972 30.1565C123.84 28.3924 125.172 26.9164 126.814 25.8973C126.147 23.7173 146.498 25.3973 146.092 26.505Z" fill="black"/>
</g>
<g opacity="0.2">
<path opacity="0.2" d="M29.626 76.2474C29.6864 76.4998 29.767 76.7465 29.8672 76.9849C31.4255 76.3664 33.001 75.7764 34.5936 75.215C34.5793 75.1486 34.565 75.0778 34.5493 75.0099C34.3859 74.2948 34.0411 73.6376 33.5504 73.1058C32.9139 72.4288 32.0891 72.0984 31.2957 72.299C30.5022 72.4996 29.9171 73.184 29.6546 74.0852C29.4588 74.7904 29.4489 75.5369 29.626 76.2474Z" fill="#3F3D56"/>
<path opacity="0.2" d="M31.9187 74.8812C33.2785 74.5381 34.0285 72.7684 33.5939 70.9285C33.1593 69.0887 31.7046 67.8753 30.3448 68.2184C28.9851 68.5616 28.235 70.3312 28.6696 72.1711C29.1043 74.011 30.5589 75.2244 31.9187 74.8812Z" fill="#3F3D56"/>
<path opacity="0.2" d="M30.956 70.8085C32.3158 70.4654 33.0658 68.6957 32.6312 66.8558C32.1966 65.0159 30.7419 63.8026 29.3821 64.1457C28.0223 64.4888 27.2723 66.2585 27.7069 68.0984C28.1415 69.9383 29.5962 71.1516 30.956 70.8085Z" fill="#3F3D56"/>
<path opacity="0.2" d="M29.9936 66.7384C31.3534 66.3953 32.1034 64.6256 31.6688 62.7857C31.2342 60.9458 29.7796 59.7325 28.4198 60.0756C27.06 60.4187 26.31 62.1884 26.7446 64.0283C27.1792 65.8682 28.6338 67.0815 29.9936 66.7384Z" fill="#3F3D56"/>
<path opacity="0.2" d="M29.0341 62.6682C30.3939 62.3251 31.1439 60.5554 30.7093 58.7155C30.2747 56.8757 28.82 55.6623 27.4602 56.0054C26.1004 56.3486 25.3504 58.1182 25.785 59.9581C26.2196 61.798 27.6743 63.0113 29.0341 62.6682Z" fill="#3F3D56"/>
<path opacity="0.2" d="M30.879 29.1553C31.1114 28.6293 31.3079 28.0872 31.4669 27.5328L24.7398 28.0668L31.748 26.3558C32.0627 24.6773 32.0428 22.9501 31.6895 21.2799C31.3361 19.6096 30.6568 18.0314 29.6931 16.6419L21.4947 24.0416L28.5986 15.282C27.447 14.0335 26.0588 13.0439 24.5206 12.375C22.9823 11.7061 21.3272 11.3721 19.6585 11.3941C17.9898 11.416 16.3434 11.7934 14.8221 12.5026C13.3009 13.2118 11.9375 14.2375 10.817 15.5158C9.6966 16.7941 8.84323 18.2975 8.31024 19.932C7.77724 21.5665 7.57607 23.2971 7.71928 25.0156C7.86249 26.7341 8.34702 28.4036 9.14258 29.9198C9.93815 31.436 11.0277 32.7664 12.3431 33.8279C11.9813 34.6489 11.7062 35.5079 11.5225 36.3899L20.9838 38.7808L11.2971 37.9327C11.122 40.0122 11.4514 42.1039 12.2555 44.0187C13.0596 45.9335 14.3129 47.6108 15.9021 48.8989C14.9578 51.0416 14.616 53.4158 14.9157 55.75C15.2154 58.0841 16.1446 60.2839 17.597 62.0979C19.0494 63.9119 20.9664 65.2669 23.1287 66.0079C25.2911 66.7488 27.6116 66.8459 29.8248 66.288C32.0381 65.73 34.0548 64.5396 35.6442 62.8529C37.2337 61.1661 38.3319 59.0511 38.8131 56.7496C39.2944 54.4482 39.1393 52.0532 38.3656 49.8386C37.5919 47.6239 36.2308 45.679 34.438 44.2262C35.566 41.6656 35.8283 38.7873 35.1828 36.054C34.5373 33.3206 33.0215 30.8909 30.879 29.1553Z" fill="#6C63FF"/>
<path opacity="0.1" d="M11.5982 42.0036C12.24 44.7389 13.7566 47.1701 15.9021 48.9034C14.9584 51.0463 14.6172 53.4205 14.9175 55.7545C15.2178 58.0885 16.1475 60.288 17.6003 62.1016C19.0531 63.9152 20.9704 65.2696 23.1329 66.01C25.2954 66.7504 27.6158 66.847 29.8288 66.2886C32.0419 65.7301 34.0583 64.5393 35.6474 62.8523C37.2365 61.1653 38.3342 59.0501 38.815 56.7486C39.2959 54.4471 39.1404 52.0523 38.3663 49.8378C37.5923 47.6234 36.231 45.6788 34.438 44.2263C35.5297 41.7543 11.2756 40.6363 11.5982 42.0036Z" fill="black"/>
</g>
<path d="M137.575 13.7083H18.4566C18.1749 13.709 17.905 13.8254 17.7062 14.0317C17.5074 14.238 17.3959 14.5174 17.3963 14.8086V90.1561C17.3953 90.4472 17.45 90.7357 17.5572 91.005C17.6643 91.2743 17.8218 91.519 18.0207 91.7253C18.2196 91.9315 18.4559 92.0951 18.716 92.2068C18.9762 92.3184 19.2551 92.3759 19.5369 92.3759H136.499C136.781 92.3759 137.06 92.3184 137.32 92.2068C137.58 92.0951 137.816 91.9315 138.015 91.7253C138.214 91.519 138.371 91.2743 138.479 91.005C138.586 90.7357 138.64 90.4472 138.639 90.1561V14.8071C138.639 14.6627 138.612 14.5197 138.558 14.3862C138.505 14.2528 138.426 14.1316 138.328 14.0296C138.229 13.9275 138.111 13.8466 137.982 13.7915C137.853 13.7363 137.715 13.7081 137.575 13.7083Z" fill="url(#paint0_linear)"/>
<path d="M138.154 18.3855V89.7123C138.154 90.2941 137.931 90.8521 137.533 91.2637C137.135 91.6752 136.595 91.9066 136.032 91.907H20.0206C19.4577 91.9066 18.9179 91.6752 18.52 91.2637C18.1221 90.8521 17.8986 90.2941 17.8986 89.7123V18.3855H138.154Z" fill="white"/>
<path d="M138.64 24.8089V28.505H18.7628V24.8089C18.7626 24.6423 18.7896 24.4772 18.8422 24.3232C18.8948 24.1693 18.972 24.0293 19.0694 23.9114C19.1668 23.7935 19.2824 23.7 19.4097 23.6362C19.537 23.5724 19.6734 23.5396 19.8112 23.5396H137.598C137.875 23.5418 138.14 23.6766 138.335 23.9145C138.531 24.1523 138.64 24.4739 138.64 24.8089Z" fill="#EDEDF4"/>
<path opacity="0.8" d="M22.9534 43.6826C23.2705 43.6826 23.5275 43.4169 23.5275 43.0892C23.5275 42.7615 23.2705 42.4958 22.9534 42.4958C22.6363 42.4958 22.3793 42.7615 22.3793 43.0892C22.3793 43.4169 22.6363 43.6826 22.9534 43.6826Z" fill="#FA5959"/>
<path opacity="0.8" d="M24.531 43.6826C24.848 43.6826 25.1051 43.4169 25.1051 43.0892C25.1051 42.7615 24.848 42.4958 24.531 42.4958C24.2139 42.4958 23.9568 42.7615 23.9568 43.0892C23.9568 43.4169 24.2139 43.6826 24.531 43.6826Z" fill="#FED253"/>
<path opacity="0.8" d="M26.1085 43.6826C26.4256 43.6826 26.6826 43.4169 26.6826 43.0892C26.6826 42.7615 26.4256 42.4958 26.1085 42.4958C25.7914 42.4958 25.5344 42.7615 25.5344 43.0892C25.5344 43.4169 25.7914 43.6826 26.1085 43.6826Z" fill="#8CCF4D"/>
<path d="M99.0069 24.3507V23.7573H98.1466V24.3507H99.0069Z" fill="url(#paint1_linear)"/>
<path d="M66.4608 52.8999H52.9818V54.3825H66.4608V52.8999Z" fill="#EDEDF4"/>
<path d="M128.689 43.0225H52.9818V44.5051H128.689V43.0225Z" fill="#EDEDF4"/>
<path d="M128.689 47.3206H52.9818V48.8031H128.689V47.3206Z" fill="#EDEDF4"/>
<path d="M128.689 51.6184H52.9818V53.101H128.689V51.6184Z" fill="#EDEDF4"/>
<path d="M110.478 49.3796H45.5547V50.6511H110.478V49.3796Z" fill="#EDEDF4"/>
<path d="M98.0386 56.4094H57.9529V88.4364H98.0386V56.4094Z" fill="#EDEDF4"/>
<path d="M10.2384 109.838C11.9547 109.838 13.3461 109.561 13.3461 109.219C13.3461 108.878 11.9547 108.601 10.2384 108.601C8.52201 108.601 7.13065 108.878 7.13065 109.219C7.13065 109.561 8.52201 109.838 10.2384 109.838Z" fill="#7FCD63"/>
<path d="M10.1847 109.447C10.3852 109.447 10.5477 109.228 10.5477 108.958C10.5477 108.688 10.3852 108.469 10.1847 108.469C9.98432 108.469 9.82184 108.688 9.82184 108.958C9.82184 109.228 9.98432 109.447 10.1847 109.447Z" fill="#3F3D56"/>
<path d="M10.1847 108.847C10.3852 108.847 10.5477 108.628 10.5477 108.359C10.5477 108.089 10.3852 107.87 10.1847 107.87C9.98432 107.87 9.82184 108.089 9.82184 108.359C9.82184 108.628 9.98432 108.847 10.1847 108.847Z" fill="#3F3D56"/>
<path d="M10.1847 108.25C10.3852 108.25 10.5477 108.031 10.5477 107.762C10.5477 107.492 10.3852 107.273 10.1847 107.273C9.98432 107.273 9.82184 107.492 9.82184 107.762C9.82184 108.031 9.98432 108.25 10.1847 108.25Z" fill="#3F3D56"/>
<path d="M10.1847 107.651C10.3852 107.651 10.5477 107.432 10.5477 107.162C10.5477 106.892 10.3852 106.673 10.1847 106.673C9.98432 106.673 9.82184 106.892 9.82184 107.162C9.82184 107.432 9.98432 107.651 10.1847 107.651Z" fill="#3F3D56"/>
<path d="M10.1847 107.053C10.3852 107.053 10.5477 106.835 10.5477 106.565C10.5477 106.295 10.3852 106.076 10.1847 106.076C9.98432 106.076 9.82184 106.295 9.82184 106.565C9.82184 106.835 9.98432 107.053 10.1847 107.053Z" fill="#3F3D56"/>
<path d="M10.1847 106.454C10.3852 106.454 10.5477 106.235 10.5477 105.965C10.5477 105.695 10.3852 105.476 10.1847 105.476C9.98432 105.476 9.82184 105.695 9.82184 105.965C9.82184 106.235 9.98432 106.454 10.1847 106.454Z" fill="#3F3D56"/>
<path d="M10.1847 105.854C10.3852 105.854 10.5477 105.635 10.5477 105.366C10.5477 105.096 10.3852 104.877 10.1847 104.877C9.98432 104.877 9.82184 105.096 9.82184 105.366C9.82184 105.635 9.98432 105.854 10.1847 105.854Z" fill="#3F3D56"/>
<path d="M11.6004 100.972C11.6508 100.908 11.6961 100.84 11.7359 100.769L10.7852 100.605H11.8074C11.9059 100.383 11.9596 100.143 11.9653 99.8995C11.971 99.6556 11.9286 99.4131 11.8407 99.1867L10.4606 99.9263L11.7384 98.9596C11.6187 98.7478 11.4582 98.5636 11.2669 98.4185C11.0755 98.2735 10.8573 98.1706 10.6259 98.1163C10.3945 98.0619 10.1547 98.0573 9.92146 98.1027C9.68823 98.1481 9.46651 98.2425 9.27005 98.3801C9.07358 98.5177 8.90657 98.6956 8.77935 98.9027C8.65213 99.1097 8.56742 99.3416 8.53048 99.5839C8.49354 99.8262 8.50516 100.074 8.5646 100.311C8.62405 100.549 8.73006 100.771 8.87607 100.964C8.79894 101.066 8.73294 101.176 8.67928 101.292L9.91367 101.955L8.5975 101.501C8.50478 101.783 8.48169 102.085 8.53034 102.378C8.57898 102.672 8.69782 102.949 8.87607 103.183C8.67511 103.447 8.55013 103.765 8.5154 104.099C8.48068 104.433 8.53761 104.771 8.6797 105.073C8.82179 105.375 9.0433 105.63 9.31891 105.808C9.59451 105.986 9.9131 106.081 10.2382 106.081C10.5634 106.081 10.882 105.986 11.1576 105.808C11.4332 105.63 11.6547 105.375 11.7968 105.073C11.9389 104.771 11.9958 104.433 11.9611 104.099C11.9264 103.765 11.8014 103.447 11.6004 103.183C11.8406 102.867 11.9712 102.477 11.9712 102.075C11.9712 101.673 11.8406 101.283 11.6004 100.967V100.972Z" fill="#7FCD63"/>
<path opacity="0.1" d="M8.51569 102.069C8.51474 102.471 8.64532 102.862 8.88626 103.178C8.68531 103.442 8.56032 103.759 8.5256 104.094C8.49088 104.428 8.54782 104.765 8.6899 105.067C8.83199 105.37 9.0535 105.625 9.32911 105.803C9.60471 105.981 9.9233 106.076 10.2484 106.076C10.5736 106.076 10.8922 105.981 11.1678 105.803C11.4434 105.625 11.6649 105.37 11.807 105.067C11.9491 104.765 12.006 104.428 11.9713 104.094C11.9366 103.759 11.8116 103.442 11.6106 103.178C11.8381 102.872 8.51569 101.868 8.51569 102.069Z" fill="black"/>
<path d="M40.6457 66.3164H33.99C33.8893 66.3166 33.7918 66.3527 33.7138 66.4185C33.6358 66.4843 33.5822 66.5759 33.5618 66.6778L31.7609 75.8608C31.7581 75.8857 31.7581 75.911 31.7609 75.936L31.5897 75.9552L31.437 75.9714C31.4278 75.9696 31.4187 75.9671 31.4099 75.964C31.3864 75.9469 31.3667 75.925 31.3519 75.8996C31.3372 75.8742 31.3278 75.8459 31.3242 75.8165C31.2369 75.4895 31.1734 75.1562 31.1344 74.8194C31.1123 74.4501 31.1123 74.0797 31.1344 73.7103C31.143 73.4153 31.1344 73.1277 31.1344 72.8371C31.1818 72.5103 31.2099 72.1807 31.2186 71.8504C31.2356 71.4981 31.202 71.1452 31.1187 70.8032C31.0661 70.6175 30.9993 70.4365 30.9189 70.2619C30.8562 69.7663 30.7877 69.2692 30.7177 68.7751C30.6649 68.4079 30.6121 68.0376 30.5422 67.6748C30.5579 67.6143 30.5707 67.5539 30.5807 67.4919C30.6192 67.1917 30.5815 66.8862 30.4711 66.6056C30.3608 66.325 30.1817 66.079 29.9514 65.8916C29.8086 65.7717 29.6507 65.6724 29.4819 65.5966C29.3419 65.5373 29.199 65.4856 29.0538 65.4417L26.7577 64.7043C26.5451 64.3842 26.3296 64.0612 26.1383 63.7308C25.952 63.4332 25.7892 63.1205 25.6517 62.7957C26.3971 62.246 26.9107 61.4223 27.0872 60.4937C27.2636 59.565 27.0896 58.6018 26.6007 57.8015C26.5622 57.7396 26.5222 57.6776 26.4808 57.6186C26.4975 57.3333 26.4652 57.0472 26.3852 56.7735C26.3675 56.672 26.3383 56.573 26.2982 56.4785C26.2362 56.3506 26.1569 56.2324 26.0627 56.1275C26.0442 56.1054 26.0228 56.0847 26.0028 56.0626C25.8148 55.8491 25.6041 55.6581 25.3749 55.4932C24.6128 54.9224 23.5911 54.2292 22.6564 53.9962C22.1944 53.8875 21.7151 53.885 21.2521 53.9888L21.1808 53.9682L21.0452 53.9401C21.0795 53.9549 21.1123 53.9741 21.1465 53.9903C20.6563 53.877 20.1469 53.8866 19.661 54.0183C19.0559 54.2041 18.8447 54.6997 18.5893 55.241C18.1746 56.1121 17.5457 56.8552 16.7655 57.3959C16.2632 57.744 15.6681 58.0449 15.4269 58.6157C15.2015 59.1482 15.3542 59.7573 15.407 60.337C15.4711 61.1234 15.3442 61.9139 15.038 62.6369C14.7317 63.3599 14.2557 63.9924 13.6531 64.4771C12.9667 65.0229 12.0506 65.4801 11.9036 66.3592C11.7994 66.986 12.1419 67.5848 12.4002 68.163C12.9467 69.3813 13.1337 70.8695 12.4915 72.0392C12.3103 72.371 12.0634 72.6749 11.9664 73.0421C11.7951 73.6955 12.159 74.4065 12.7041 74.787C13.2493 75.1675 13.9328 75.2693 14.5921 75.2664C14.7049 75.2664 14.819 75.2664 14.9346 75.2501C14.8775 75.8209 14.8062 76.3917 14.7163 76.9581C14.5836 77.7944 14.4137 78.6336 14.4651 79.4788C14.4922 79.936 14.5935 80.4095 14.8804 80.762C15.3313 81.3181 16.1162 81.4316 16.8197 81.4036C17.9328 81.3594 19.0274 81.0599 20.1348 80.9936C20.114 81.0398 20.1033 81.0901 20.1034 81.1411C20.1034 81.3402 20.2218 81.5599 20.1676 81.7576C20.1446 81.8267 20.1109 81.8915 20.0677 81.9493C19.7823 82.383 19.4441 82.8667 19.5425 83.3815C19.5911 83.6322 19.7423 83.883 19.6724 84.1293C19.6282 84.2444 19.5665 84.3514 19.4897 84.4464C19.0987 85.0482 19.1801 85.8402 19.2785 86.5585L19.4098 86.5969C19.3727 86.6795 19.3356 86.7635 19.3014 86.8476C19.1414 87.2204 19.049 87.6203 19.0288 88.0276C19.0397 88.4847 19.1147 88.9378 19.2514 89.3727C19.4455 90.1102 19.6467 90.8477 19.9022 91.5601C20.1191 92.1722 20.3745 92.7666 20.6271 93.3624C20.707 93.5453 20.7855 93.7297 20.864 93.9141C21.3511 95.0547 21.8391 96.1963 22.3281 97.3389C22.3896 97.47 22.4374 97.6074 22.4708 97.7489C22.4965 97.8699 22.5022 97.9923 22.5208 98.1147C22.5978 98.5896 22.8975 98.9894 23.1173 99.4156C23.8579 100.854 23.6738 102.588 23.4726 104.203C23.5826 104.317 23.7058 104.416 23.8394 104.498C23.818 104.661 23.7966 104.824 23.7637 104.981C23.5682 105.902 23.3356 106.817 23.2001 107.753C23.1318 108.209 23.0984 108.669 23.1002 109.13C23.1002 109.572 23.2529 110.022 23.2529 110.457C23.357 110.9 23.5154 111.321 23.6267 111.759C23.6724 112.439 23.7495 113.119 23.8479 113.798C23.8803 114.413 23.9136 115.029 23.9478 115.646C23.9778 116.192 24.0021 116.765 23.7652 117.255C23.7652 117.271 23.748 117.288 23.7395 117.304C23.5325 117.289 23.3253 117.329 23.1374 117.42C22.9495 117.511 22.7869 117.649 22.6649 117.823C22.4152 118.198 22.2714 118.638 22.2496 119.093C22.2194 119.285 22.2406 119.482 22.311 119.662C22.3795 119.81 22.4994 119.908 22.5779 120.044C22.6548 120.202 22.7032 120.373 22.7206 120.549C22.8804 121.569 23.0417 122.593 23.1273 123.624C23.153 123.938 23.1772 124.27 23.3556 124.527C23.534 124.783 23.9264 124.909 24.1505 124.692C23.9243 123.51 23.8124 122.309 23.8165 121.105C23.8913 121.094 23.9672 121.094 24.042 121.105C24.0863 121.313 24.1476 121.519 24.2047 121.724C24.2429 121.875 24.2905 122.023 24.3474 122.167C24.3246 122.369 24.3474 122.673 24.3388 122.82C24.3274 123.472 24.3274 124.123 24.3388 124.774C24.3474 125.146 24.3602 125.518 24.3774 125.889C24.3758 125.931 24.3836 125.971 24.4002 126.009C24.4056 126.016 24.4126 126.022 24.4205 126.025C24.4285 126.029 24.4372 126.03 24.4459 126.03C24.5657 126.03 24.687 126.03 24.8069 126.03C24.8199 125.882 24.8251 125.735 24.8226 125.587C24.8226 125.248 24.8226 124.91 24.8226 124.572C24.8226 124.283 24.8226 123.994 24.8226 123.705C24.9068 124.223 25.0267 124.737 25.148 125.246L25.4048 126.335L25.4305 126.444L25.6489 127.366C25.6557 127.399 25.6662 127.431 25.6803 127.462C25.708 127.506 25.7445 127.545 25.7873 127.574C26.2389 127.913 26.7687 128.124 27.3238 128.186C27.879 128.247 28.4401 128.157 28.9511 127.925C28.9904 127.908 29.0267 127.885 29.0581 127.855C29.1153 127.776 29.1413 127.678 29.1309 127.58C29.1173 127.286 29.1731 126.993 29.2935 126.726C29.3593 126.627 29.413 126.521 29.4534 126.409C29.4779 126.227 29.4438 126.042 29.3563 125.882L29.1209 125.314C29.2323 125.31 29.3434 125.298 29.4534 125.279C29.6203 125.131 29.499 124.826 29.6375 124.652C29.6951 124.598 29.7566 124.549 29.8216 124.504C29.9956 124.347 29.9785 124.062 29.9 123.836C29.646 123.109 28.9668 122.646 28.3303 122.236L28.2475 122.183C27.7281 119.675 26.8119 117.205 27.0559 114.661C27.1087 114.118 27.2143 113.581 27.3 113.038C27.7281 110.369 27.701 107.63 28.1947 104.973C28.4496 104.958 28.6978 104.883 28.9197 104.752C29.3378 104.484 29.5419 103.964 29.5975 103.461C29.6532 102.958 29.5861 102.451 29.5975 101.944C29.6103 101.217 29.7787 100.503 29.9471 99.7932C30.1441 98.9658 29.8044 98.0882 30.0099 97.2637C30.088 97.01 30.15 96.7513 30.1954 96.4893C30.2383 96.1191 30.1669 95.7283 30.2939 95.3772C30.351 95.2164 30.4495 95.0734 30.5151 94.9156C30.8005 94.2489 30.4866 93.4406 30.7734 92.771C30.866 92.6157 30.9348 92.4465 30.9775 92.2695C30.9873 92.1317 30.9703 91.9933 30.9275 91.8624C30.8547 91.5556 30.7848 91.2459 30.7377 90.9347C30.7165 90.8275 30.7074 90.7181 30.7106 90.6087C30.7246 90.4928 30.7499 90.3786 30.7862 90.268C31.0031 89.4922 31.0303 88.6736 31.0545 87.8639C31.0674 87.4346 31.0788 86.9789 30.9033 86.5925C30.851 86.4755 30.7838 86.3664 30.7035 86.268L30.7249 86.2562C30.615 85.7945 30.5279 85.2576 30.6878 84.8107C30.7548 84.6204 30.8704 84.4376 30.849 84.2355C30.8276 84.0334 30.6935 83.8948 30.6392 83.7148C30.5465 83.4198 30.6878 83.1013 30.7705 82.7974C30.9132 82.2782 30.8804 81.7266 30.8476 81.1868C30.8492 81.0706 30.8237 80.9558 30.7734 80.852C30.7363 80.7885 30.6806 80.7399 30.645 80.675C30.6093 80.5962 30.5916 80.51 30.5933 80.423C30.595 80.3361 30.6161 80.2507 30.6549 80.1735C30.7342 80.0211 30.7987 79.861 30.8476 79.6956C30.8554 79.6443 30.8554 79.592 30.8476 79.5407C30.9532 79.4935 31.0474 79.4227 31.1487 79.3667C31.5768 79.1307 32.0834 79.1661 32.5658 79.1528C33.0481 79.1396 33.5847 79.0407 33.8729 78.644C33.9014 78.5942 33.9404 78.5518 33.9871 78.5201C34.0025 78.512 34.0188 78.5061 34.0356 78.5024C34.2111 78.5275 34.321 78.526 34.2968 78.4788C34.3767 78.4419 34.4138 78.3519 34.4609 78.2767C34.4729 78.2571 34.4863 78.2384 34.5008 78.2207C34.6798 78.1104 34.8668 78.0147 35.0602 77.9345C35.0256 77.9301 34.9907 77.9301 34.9561 77.9345C35.2535 77.8349 35.5655 77.7899 35.8779 77.8018C36.1762 77.8018 36.6899 77.8446 36.9225 77.6056C37.3506 77.3239 37.4777 76.759 37.676 76.2782C37.742 76.1224 37.8158 75.9702 37.8972 75.8224L39.006 75.7103C39.0992 75.7007 39.1869 75.6606 39.2565 75.5959C39.326 75.5311 39.3738 75.4452 39.3927 75.3504L41.0567 66.8562C41.0691 66.7922 41.068 66.7261 41.0533 66.6626C41.0386 66.5991 41.0108 66.5396 40.9717 66.4883C40.9326 66.437 40.8833 66.395 40.827 66.3653C40.7707 66.3357 40.7088 66.319 40.6457 66.3164ZM19.6467 77.9685C19.4003 78.0786 19.1346 78.1354 18.8661 78.1354C18.5976 78.1354 18.332 78.0786 18.0855 77.9685C18.0113 77.9345 17.93 77.8401 17.9899 77.7841C18.0499 77.728 18.0984 77.7752 18.1469 77.7516C18.2396 77.7044 18.1726 77.5628 18.1212 77.4714C17.9785 77.2059 18.077 76.8696 18.2182 76.6012C18.3595 76.3327 18.5408 76.0672 18.5465 75.7619C18.5378 75.6638 18.5378 75.5651 18.5465 75.4669C18.5917 75.3277 18.6635 75.1994 18.7577 75.0894C18.7834 75.051 18.8048 75.0097 18.8276 74.9684C18.8661 75.0304 18.9047 75.0908 18.9446 75.1513C19.073 75.3548 19.201 75.5599 19.3285 75.7664C19.4303 75.9054 19.4948 76.0697 19.5154 76.2428C19.5011 76.3451 19.5065 76.4493 19.5311 76.5496C19.5882 76.6794 19.7652 76.787 19.6995 76.9124C19.6671 76.9798 19.6502 77.054 19.6502 77.1292C19.6502 77.2044 19.6671 77.2787 19.6995 77.346C19.7666 77.4655 19.8665 77.5643 19.9336 77.6823C19.9526 77.7178 19.9688 77.7548 19.9821 77.7929C19.8736 77.8519 19.7609 77.9168 19.6467 77.9685ZM33.4891 76.377C33.4049 76.3976 33.3207 76.4183 33.2365 76.4419C33.2251 76.3888 33.2208 76.3593 33.2208 76.3593L32.7755 76.4965C32.606 76.5043 32.4373 76.4683 32.2846 76.3917L34.1227 76.2059C33.9129 76.2678 33.7017 76.3254 33.4891 76.377Z" fill="url(#paint2_linear)"/>
<path d="M19.9635 55.6275C19.5545 56.4929 18.933 57.2324 18.1612 57.7721C17.6632 58.1187 17.0752 58.4166 16.8369 58.9845C16.6143 59.514 16.7655 60.1217 16.8169 60.6969C16.88 61.4743 16.7557 62.2556 16.4551 62.9712C16.1545 63.6867 15.6871 64.3141 15.0945 64.7972C14.4166 65.3415 13.5105 65.7958 13.3649 66.6704C13.2621 67.2929 13.6018 67.8902 13.8572 68.464C14.3966 69.6764 14.5822 71.1572 13.9471 72.3195C13.7673 72.6499 13.519 72.9522 13.4277 73.318C13.2579 73.9685 13.6175 74.675 14.1569 75.0525C14.6963 75.4301 15.3727 75.5334 16.0235 75.5304C16.4958 75.5304 17.0081 75.4567 17.3449 75.113C17.5704 74.8829 17.6817 74.5629 17.7873 74.2546L18.6079 71.8519C18.7506 71.4183 18.9132 70.9669 19.2243 70.6425C19.8851 69.9463 20.9611 70.02 21.9043 70.0318C23.2927 70.0491 24.6739 69.8242 25.99 69.3666C26.7606 69.0967 27.5968 68.6395 27.7766 67.8209C27.9564 67.0023 27.4227 66.2574 26.9561 65.5937C26.6069 65.1021 26.2768 64.5932 25.9657 64.0672C25.6617 63.5598 25.372 63.0244 25.2879 62.4344C25.1451 61.4535 25.5947 60.5007 25.9386 59.5759C26.2825 58.6512 26.5237 57.5567 26.0228 56.7116C25.8064 56.3825 25.5307 56.0996 25.2108 55.8783C24.4573 55.3104 23.447 54.6216 22.5237 54.39C22.0287 54.27 21.5127 54.277 21.021 54.4107C20.4231 54.6024 20.2133 55.0951 19.9635 55.6275Z" fill="#3F3D56"/>
<path d="M30.0955 67.0923C30.2807 67.7433 30.412 68.4094 30.488 69.0835C30.7163 70.7059 30.9461 72.349 30.9033 73.9935C30.8826 74.3605 30.8826 74.7284 30.9033 75.0953C30.943 75.4306 31.0064 75.7623 31.0931 76.088C31.0962 76.1173 31.1053 76.1457 31.1198 76.1711C31.1343 76.1965 31.1539 76.2185 31.1772 76.2355C31.2315 76.2635 31.2957 76.2355 31.3556 76.2281C31.5597 76.203 31.711 76.4066 31.8679 76.5437C32.0222 76.6726 32.2109 76.7498 32.4087 76.7651C32.6066 76.7804 32.8042 76.733 32.9753 76.6293C32.9226 76.871 32.9392 77.1233 33.0231 77.3554C33.107 77.5875 33.2546 77.7893 33.4477 77.9361C33.6449 78.0783 33.8695 78.175 34.1062 78.2195C34.3428 78.2641 34.586 78.2554 34.8191 78.1942C34.5822 78.1558 34.3553 78.3269 34.2254 78.5349C34.1798 78.6086 34.1427 78.6986 34.0642 78.7355C33.9857 78.7724 33.8501 78.7252 33.7574 78.7753C33.7114 78.8076 33.6729 78.8499 33.6446 78.8992C33.3592 79.2945 32.8298 79.3918 32.3531 79.4051C31.8765 79.4184 31.3713 79.3845 30.9518 79.619C30.8476 79.6765 30.7506 79.7503 30.6421 79.7975C30.311 79.9449 29.9157 79.7975 29.6589 79.5452C29.4139 79.2733 29.24 78.9413 29.1537 78.5806C28.7256 77.1529 28.8112 75.6234 28.8983 74.1322C29.0367 71.762 29.3278 69.3342 30.0955 67.0923Z" fill="#454B69"/>
<path opacity="0.1" d="M30.0955 67.0923C30.2807 67.7433 30.412 68.4094 30.488 69.0835C30.7163 70.7059 30.9461 72.349 30.9033 73.9935C30.8826 74.3605 30.8826 74.7284 30.9033 75.0953C30.943 75.4306 31.0064 75.7623 31.0931 76.088C31.0962 76.1173 31.1053 76.1457 31.1198 76.1711C31.1343 76.1965 31.1539 76.2185 31.1772 76.2355C31.2315 76.2635 31.2957 76.2355 31.3556 76.2281C31.5597 76.203 31.711 76.4066 31.8679 76.5437C32.0222 76.6726 32.2109 76.7498 32.4087 76.7651C32.6066 76.7804 32.8042 76.733 32.9753 76.6293C32.9226 76.871 32.9392 77.1233 33.0231 77.3554C33.107 77.5875 33.2546 77.7893 33.4477 77.9361C33.6449 78.0783 33.8695 78.175 34.1062 78.2195C34.3428 78.2641 34.586 78.2554 34.8191 78.1942C34.5822 78.1558 34.3553 78.3269 34.2254 78.5349C34.1798 78.6086 34.1427 78.6986 34.0642 78.7355C33.9857 78.7724 33.8501 78.7252 33.7574 78.7753C33.7114 78.8076 33.6729 78.8499 33.6446 78.8992C33.3592 79.2945 32.8298 79.3918 32.3531 79.4051C31.8765 79.4184 31.3713 79.3845 30.9518 79.619C30.8476 79.6765 30.7506 79.7503 30.6421 79.7975C30.311 79.9449 29.9157 79.7975 29.6589 79.5452C29.4139 79.2733 29.24 78.9413 29.1537 78.5806C28.7256 77.1529 28.8112 75.6234 28.8983 74.1322C29.0367 71.762 29.3278 69.3342 30.0955 67.0923Z" fill="black"/>
<path d="M23.1258 110.534C23.2457 111.048 23.4427 111.542 23.554 112.059C23.6351 112.504 23.6828 112.954 23.6967 113.407L23.8194 115.696C23.8494 116.239 23.8736 116.81 23.6396 117.296C23.4783 117.634 23.1986 117.917 23.1187 118.284C22.9931 118.86 23.3913 119.404 23.7652 119.851L25.6003 122.049C26.1712 122.737 26.8033 123.462 27.6553 123.696C27.7819 123.741 27.9183 123.746 28.0477 123.711C28.2846 123.63 28.4002 123.333 28.366 123.077C28.3122 122.823 28.2001 122.587 28.0392 122.388C27.5583 121.69 27.0402 121.004 26.732 120.211C26.3353 119.202 26.2939 118.085 26.3181 116.997C26.4152 112.557 27.4955 108.169 27.3727 103.722C26.4352 103.649 25.4605 103.488 24.5186 103.497C23.681 103.506 23.7809 104.382 23.6353 105.082C23.4412 106 23.2072 106.91 23.0773 107.84C23.0096 108.294 22.9767 108.752 22.9789 109.211C22.9789 109.658 23.1258 110.104 23.1258 110.534Z" fill="#FBBEBE"/>
<path opacity="0.05" d="M23.1258 110.534C23.2457 111.048 23.4427 111.542 23.554 112.059C23.6351 112.504 23.6828 112.954 23.6967 113.407L23.8194 115.696C23.8494 116.239 23.8736 116.81 23.6396 117.296C23.4783 117.634 23.1986 117.917 23.1187 118.284C22.9931 118.86 23.3913 119.404 23.7652 119.851L25.6003 122.049C26.1712 122.737 26.8033 123.462 27.6553 123.696C27.7819 123.741 27.9183 123.746 28.0477 123.711C28.2846 123.63 28.4002 123.333 28.366 123.077C28.3122 122.823 28.2001 122.587 28.0392 122.388C27.5583 121.69 27.0402 121.004 26.732 120.211C26.3353 119.202 26.2939 118.085 26.3181 116.997C26.4152 112.557 27.4955 108.169 27.3727 103.722C26.4352 103.649 25.4605 103.488 24.5186 103.497C23.681 103.506 23.7809 104.382 23.6353 105.082C23.4412 106 23.2072 106.91 23.0773 107.84C23.0096 108.294 22.9767 108.752 22.9789 109.211C22.9789 109.658 23.1258 110.104 23.1258 110.534Z" fill="black"/>
<path d="M23.3704 117.639C22.9422 117.548 22.497 117.787 22.2287 118.147C21.9812 118.52 21.8389 118.957 21.8177 119.409C21.7864 119.6 21.8076 119.797 21.8791 119.976C21.9462 120.116 22.0646 120.222 22.1417 120.356C22.2187 120.513 22.2671 120.683 22.2844 120.858C22.4442 121.874 22.604 122.892 22.6868 123.917C22.7125 124.229 22.7368 124.56 22.9137 124.815C23.0907 125.07 23.4845 125.194 23.7 124.98C23.4767 123.81 23.3654 122.62 23.3675 121.427C23.8684 121.356 24.3051 121.763 24.6319 122.165C24.9664 122.571 25.273 123.001 25.5495 123.452C25.782 123.879 26.0513 124.283 26.3543 124.66C26.6828 125.02 27.0913 125.292 27.5443 125.452C27.9974 125.612 28.4814 125.656 28.9544 125.579C29.1199 125.432 28.9986 125.128 29.1356 124.955C29.1927 124.901 29.2538 124.852 29.3183 124.808C29.491 124.651 29.4724 124.365 29.3953 124.144C29.1456 123.42 28.4735 122.964 27.8441 122.551C26.7025 121.814 25.5466 121.076 24.3978 120.362C23.9598 120.082 23.6263 119.657 23.4517 119.156C23.4103 119.027 23.2305 117.591 23.3704 117.639Z" fill="#3F3D56"/>
<path opacity="0.05" d="M23.5104 116.779C23.0823 116.687 22.637 116.926 22.3687 117.286C22.1212 117.66 21.9789 118.097 21.9577 118.549C21.9264 118.74 21.9476 118.936 22.0191 119.115C22.0862 119.255 22.2046 119.361 22.2817 119.496C22.3587 119.652 22.4071 119.822 22.4244 119.997C22.5842 121.013 22.744 122.031 22.8268 123.056C22.8525 123.369 22.8768 123.699 23.0537 123.954C23.2307 124.21 23.6245 124.334 23.84 124.12C23.6167 122.949 23.5054 121.759 23.5075 120.567C24.0084 120.496 24.4451 120.903 24.7719 121.304C25.1064 121.711 25.413 122.141 25.6895 122.592C25.922 123.019 26.1914 123.423 26.4943 123.8C26.8228 124.16 27.2313 124.432 27.6843 124.592C28.1374 124.752 28.6214 124.795 29.0944 124.718C29.2599 124.571 29.1386 124.267 29.2756 124.095C29.3327 124.041 29.3938 123.991 29.4583 123.947C29.631 123.791 29.6124 123.505 29.5354 123.283C29.2856 122.559 28.6135 122.103 27.9842 121.69C26.8425 120.953 25.6866 120.215 24.5378 119.502C24.0998 119.221 23.7664 118.796 23.5917 118.295C23.5503 118.167 23.3705 116.73 23.5104 116.779Z" fill="black"/>
<path d="M23.4955 109.245C23.2657 112.211 23.9093 115.164 24.4816 118.08C24.5353 118.313 24.5645 118.551 24.5686 118.791C24.5446 119.089 24.4969 119.385 24.4259 119.676C24.209 120.879 24.4858 122.112 24.7613 123.302C24.9525 124.127 25.2222 125.058 25.9657 125.418C26.4894 125.673 27.1073 125.565 27.6781 125.446C27.8657 125.425 28.0441 125.351 28.1933 125.232C28.3988 125.033 28.4059 124.704 28.3888 124.415C28.1919 121.14 26.5879 118 26.9004 114.734C26.9518 114.195 27.0559 113.661 27.1416 113.124C27.584 110.348 27.5269 107.491 28.0977 104.743C28.126 104.647 28.126 104.544 28.0977 104.448C28.0494 104.354 27.9728 104.278 27.8794 104.233C27.3599 103.911 26.8048 103.627 26.2054 103.54C25.7374 103.472 25.1494 103.525 24.7556 103.824C24.3617 104.124 24.316 104.816 24.1947 105.31C23.8547 106.599 23.6208 107.915 23.4955 109.245Z" fill="#FBBEBE"/>
<path d="M25.3268 100.562C25.3244 100.602 25.3318 100.643 25.3482 100.68C25.3535 100.687 25.3604 100.693 25.3684 100.696C25.3763 100.7 25.3851 100.702 25.3938 100.702C25.5137 100.702 25.6322 100.702 25.752 100.702C25.7663 100.554 25.7663 100.407 25.7677 100.259V99.2503C25.7677 98.4509 25.7677 97.6485 25.7335 96.8535C25.734 96.824 25.7296 96.7946 25.7206 96.7665C25.7124 96.749 25.6981 96.7354 25.6807 96.7282C25.5965 96.6869 25.3953 96.5585 25.3239 96.706C25.2526 96.8535 25.284 97.3181 25.2797 97.5114C25.2683 98.1593 25.2683 98.8073 25.2797 99.4553C25.2959 99.824 25.3116 100.193 25.3268 100.562Z" fill="#3F3D56"/>
<path d="M30.5108 90.8078C30.5078 90.9167 30.5169 91.0256 30.538 91.1323C30.5893 91.4421 30.6535 91.7489 30.7263 92.0542C30.7677 92.1849 30.7842 92.3226 30.7748 92.4598C30.7323 92.6354 30.6645 92.8035 30.5736 92.9583C30.2882 93.6176 30.595 94.4333 30.3182 95.0911C30.2525 95.2489 30.1555 95.3861 30.0984 95.5513C29.9743 95.9008 30.0442 96.2887 30.0028 96.6575C29.9578 96.918 29.8963 97.1752 29.8187 97.4274C29.6175 98.2475 29.95 99.1206 29.7559 99.9437C29.5904 100.649 29.422 101.36 29.4106 102.084C29.4006 102.587 29.4677 103.091 29.4106 103.593C29.3535 104.094 29.1523 104.609 28.7399 104.876C28.4145 105.087 28.0107 105.11 27.6254 105.118C26.8847 105.131 26.1398 105.109 25.3992 105.05C24.6585 104.991 23.8637 104.866 23.3428 104.321C23.5411 102.715 23.7224 100.991 22.9903 99.5587C22.7734 99.1354 22.4766 98.7371 22.4009 98.2652C22.381 98.1442 22.3753 98.0218 22.351 97.9023C22.3172 97.7614 22.2694 97.6245 22.2083 97.4938C21.7259 96.3561 21.2431 95.2199 20.7598 94.0852C20.6828 93.9023 20.6057 93.7194 20.5258 93.5365C20.2761 92.9465 20.0249 92.3565 19.8123 91.7459C19.5597 91.032 19.3599 90.3005 19.1687 89.5689C19.0333 89.1358 18.9593 88.6847 18.9489 88.2296C18.9697 87.8271 19.0611 87.4318 19.2186 87.063C19.3042 86.8476 19.4041 86.6367 19.504 86.4302C22.3738 85.7305 25.3273 85.4691 28.2704 85.6544C28.741 85.6633 29.2078 85.7433 29.656 85.8918C29.9598 86.0028 30.2333 86.1874 30.4538 86.4302C30.5553 86.5431 30.6386 86.6721 30.7006 86.8122C30.8733 87.2016 30.8619 87.65 30.8505 88.0777C30.8248 88.8816 30.7991 89.7002 30.585 90.4686C30.5491 90.5787 30.5242 90.6924 30.5108 90.8078Z" fill="#3F3D56"/>
<path d="M28.6739 124.183C28.2387 124.523 27.7279 124.745 27.1883 124.829C26.7117 124.901 26.1894 124.85 25.8112 124.534C25.3831 124.182 25.2304 123.583 25.1077 123.028L24.9436 122.291C24.8836 122.025 24.8251 121.76 24.778 121.491C24.6555 120.782 24.6195 120.06 24.671 119.342C24.28 119.5 24.046 119.979 24.0203 120.412C23.9946 120.844 24.1245 121.267 24.2429 121.683C24.2896 121.884 24.3611 122.078 24.4555 122.26C24.5255 122.381 24.6168 122.488 24.6767 122.615C24.7515 122.803 24.7944 123.002 24.8037 123.205C24.8925 123.871 25.0207 124.532 25.1876 125.182L25.4416 126.264L25.4673 126.373L25.6828 127.291C25.6894 127.323 25.6999 127.355 25.7142 127.385C25.741 127.43 25.7771 127.468 25.8198 127.497C26.2653 127.835 26.7892 128.045 27.3384 128.106C27.8876 128.168 28.4428 128.078 28.9479 127.847C28.9871 127.83 29.0232 127.807 29.0549 127.777C29.1099 127.699 29.1348 127.601 29.1248 127.505C29.1125 127.212 29.1683 126.92 29.2875 126.654C29.3521 126.555 29.4048 126.449 29.4445 126.338C29.468 126.157 29.4344 125.974 29.3489 125.814L28.8209 124.537C28.7897 124.412 28.7401 124.293 28.6739 124.183Z" fill="#3F3D56"/>
<path d="M27.26 71.1143C27.2401 71.3954 27.1865 71.6729 27.1002 71.9403C27.036 72.1343 26.9233 72.3073 26.7734 72.4417C26.5279 72.0995 26.0898 71.9816 25.7573 71.7293C25.4838 71.4892 25.2458 71.2089 25.0509 70.8975C24.6228 70.3075 24.1348 69.7839 23.6781 69.2264C23.6082 69.1408 23.5354 69.0567 23.4741 68.9712C23.2406 68.6771 23.0293 68.365 22.8419 68.0376C22.4609 67.3591 22.1997 66.5788 21.626 66.0656C21.3135 65.7853 20.9211 65.6009 20.6442 65.2838C20.8131 64.985 20.9231 64.6547 20.9682 64.3118C21.0338 63.9829 21.098 63.6525 21.1323 63.3177C21.1423 63.2292 21.148 63.1407 21.1508 63.0522C21.1508 63.0139 21.1508 62.977 21.1508 62.9387C21.1508 62.6658 20.981 62.2012 21.2507 62.0449C21.4976 61.8974 21.9029 61.8974 22.194 61.9062H22.2468C22.9227 61.914 23.5817 62.1251 24.1433 62.5139C24.2712 62.5947 24.3826 62.7004 24.4716 62.8251C24.6017 63.0707 24.6518 63.3531 24.6143 63.6304C24.6143 63.6953 24.6143 63.7602 24.6043 63.8236V63.918C24.5943 64.2337 24.6243 64.5714 24.8383 64.7912C25.0524 65.011 25.432 65.039 25.7445 65.1393C25.7959 65.157 25.8444 65.1747 25.8943 65.1953C26.2366 65.355 26.5287 65.6104 26.7377 65.9328C26.9726 66.3034 27.1386 66.7161 27.2272 67.1496C27.3143 67.5374 27.3692 67.9322 27.3913 68.3296C27.4221 69.26 27.3782 70.1914 27.26 71.1143Z" fill="#FBBEBE"/>
<path opacity="0.1" d="M24.6086 63.8163V63.9107C24.2276 64.0582 23.2986 63.6511 22.869 63.6511C22.0128 63.6511 21.7531 63.8237 21.1366 63.3104C21.1494 63.185 21.158 63.0582 21.1609 62.9313C21.1609 62.6585 20.991 62.1939 21.2607 62.0375C21.5305 61.8812 21.96 61.89 22.2511 61.8989C22.927 61.9066 23.586 62.1178 24.1477 62.5066C24.2755 62.5874 24.3869 62.6931 24.4759 62.8178C24.6571 63.101 24.6286 63.4741 24.6086 63.8163Z" fill="black"/>
<path d="M26.9703 60.1423C26.9705 60.6901 26.8531 61.231 26.6268 61.7263C26.4005 62.2215 26.0708 62.6588 25.6614 63.0066C25.252 63.3544 24.7731 63.6041 24.2592 63.7378C23.7453 63.8714 23.2091 63.8857 22.6892 63.7795C21.8744 63.6127 21.1408 63.159 20.6133 62.4958C20.0859 61.8326 19.7972 61.0008 19.7966 60.1423C19.787 59.6491 19.8728 59.1588 20.0489 58.7002C20.2249 58.2416 20.4877 57.824 20.8219 57.4717C21.156 57.1193 21.5548 56.8394 21.9949 56.6484C22.435 56.4573 22.9075 56.3589 23.3849 56.3589C23.8622 56.3589 24.3347 56.4573 24.7748 56.6484C25.2149 56.8394 25.6137 57.1193 25.9479 57.4717C26.282 57.824 26.5448 58.2416 26.7209 58.7002C26.8969 59.1588 26.9827 59.6491 26.9732 60.1423H26.9703Z" fill="#FBBEBE"/>
<path d="M20.9339 64.5244C20.8213 64.4268 20.6833 64.3657 20.5372 64.3489C20.432 64.3594 20.3319 64.4005 20.2484 64.4673C20.1648 64.5341 20.1012 64.6239 20.0648 64.7265C19.9778 64.9256 19.9507 65.1453 19.875 65.3504C19.7724 65.626 19.5862 65.8599 19.3442 66.017C19.1744 66.1262 18.9732 66.2029 18.8576 66.371C18.6749 66.638 18.7862 67.0111 18.9403 67.2973C19.5111 68.3637 20.5529 69.0672 21.5504 69.7177L22.6749 70.4551C23.1265 70.7644 23.5943 71.0475 24.0763 71.3032C24.8569 71.7015 25.7017 71.9566 26.478 72.3637C26.8347 72.5496 27.1915 72.7723 27.5811 72.8357C27.6642 72.5611 27.7164 72.2775 27.7366 71.9906C27.9293 70.2206 28.1191 68.4109 27.7366 66.6734C27.6861 66.3369 27.5491 66.0205 27.3399 65.7574C27.1927 65.6119 27.0241 65.4915 26.8405 65.4005C26.3848 65.147 25.916 64.9195 25.4362 64.7191C25.2113 64.6066 24.964 64.5501 24.7142 64.5539C24.7358 64.7477 24.7919 64.9357 24.8797 65.1085C25.4819 66.4959 26.0851 67.8838 26.6892 69.2722C26.8218 69.5253 26.8969 69.8062 26.9089 70.0938C26.8961 70.5023 26.6235 70.9006 26.7391 71.2929C25.6865 69.7107 24.479 68.2448 23.1358 66.9182C23.0769 66.8672 23.0284 66.8045 22.9931 66.7339C22.9607 66.6225 22.9538 66.5048 22.9732 66.3902C22.986 66.1719 22.9418 65.8799 22.7648 65.7338C22.6421 65.6321 22.4608 65.6026 22.3253 65.5141C21.8529 65.2043 21.3977 64.8548 20.9339 64.5244Z" fill="#6C63FF"/>
<path opacity="0.1" d="M30.5237 86.7591C29.6168 87.2304 28.6291 87.5126 27.6168 87.5895C26.6074 87.664 25.5944 87.6699 24.5843 87.6072L22.2839 87.5172C21.2393 87.4745 20.2133 87.3874 19.2172 87.063C19.3028 86.8476 19.4027 86.6367 19.5026 86.4302C22.3724 85.7305 25.3259 85.4691 28.2689 85.6544C28.7396 85.6633 29.2064 85.7433 29.6546 85.8918C29.9583 86.0028 30.2319 86.1874 30.4523 86.4302C30.4752 86.5423 30.5008 86.6529 30.5237 86.7591Z" fill="black"/>
<path d="M30.3624 75.1689C29.9657 76.5568 30.2383 78.076 30.4852 79.4993C30.5545 79.5479 30.6074 79.6176 30.6366 79.6988C30.6658 79.78 30.6697 79.8685 30.6478 79.9521C30.5985 80.1162 30.5345 80.2752 30.4566 80.4271C30.4179 80.5034 30.3968 80.588 30.3948 80.6742C30.3928 80.7604 30.4101 80.8459 30.4452 80.9241C30.4809 80.989 30.5365 81.0392 30.5736 81.1026C30.6232 81.2056 30.6481 81.3194 30.6464 81.4344C30.6778 81.9713 30.7092 82.52 30.5694 83.0377C30.488 83.3327 30.3496 83.6513 30.4409 83.9492C30.4951 84.1292 30.6293 84.2811 30.6478 84.4684C30.6664 84.6557 30.5551 84.8504 30.488 85.0392C30.3296 85.4817 30.4152 86.0171 30.5251 86.4773C29.6183 86.9486 28.6305 87.2308 27.6182 87.3077C26.6089 87.3829 25.5958 87.3888 24.5858 87.3254L22.2854 87.2354C21.2322 87.1941 20.199 87.1056 19.1958 86.7752C19.0988 86.0599 19.0174 85.2722 19.4056 84.6749C19.4805 84.5791 19.5411 84.4722 19.5854 84.3578C19.6539 84.1129 19.504 83.8637 19.457 83.6203C19.3585 83.1085 19.691 82.6262 19.975 82.197C20.0187 82.1395 20.0525 82.0746 20.0749 82.0052C20.1277 81.8076 20.0121 81.5908 20.0106 81.3917C20.0095 81.3343 20.0222 81.2775 20.0477 81.2265C20.0891 81.1424 20.169 81.079 20.2119 81.0023C20.2574 80.8948 20.2713 80.7757 20.2518 80.6601C20.1985 79.9177 20.112 79.1802 19.9921 78.4477C19.9807 78.3828 19.9693 78.3149 19.9536 78.2486C19.9332 78.1454 19.8981 78.046 19.8494 77.9536C19.7823 77.8341 19.6839 77.7382 19.6182 77.6188C19.5858 77.5517 19.5689 77.4777 19.5689 77.4027C19.5689 77.3277 19.5858 77.2537 19.6182 77.1866C19.6824 77.0627 19.5069 76.955 19.4512 76.8267C19.4273 76.7269 19.422 76.6233 19.4355 76.5214C19.4152 76.349 19.3512 76.1851 19.25 76.0465C19.1245 75.8414 18.9989 75.6379 18.8704 75.4358C18.2996 74.5204 17.7045 73.6207 17.0852 72.7367C16.7912 72.3134 16.4901 71.8916 16.1862 71.4756C15.9393 71.1393 15.6853 70.7986 15.5611 70.396C15.5391 70.326 15.522 70.2545 15.5097 70.1821C15.4408 69.7954 15.4944 69.3961 15.6624 69.0434C15.8288 68.7508 16.0198 68.4739 16.2333 68.216C16.4353 67.8996 16.6545 67.5953 16.8897 67.3045C17.0084 67.1597 17.1541 67.041 17.3181 66.9556C17.4822 66.8702 17.6611 66.8198 17.8444 66.8074C18.057 66.8074 18.3053 66.8694 18.4523 66.7115C18.5065 66.6555 18.5351 66.5803 18.595 66.5257C18.7506 66.3782 19.006 66.477 19.193 66.5862L22.7862 68.685L23.3685 69.0272C23.4741 69.0921 23.5825 69.157 23.6881 69.2234C24.1867 69.5242 24.6644 69.8603 25.118 70.2293C25.783 70.7809 26.5208 71.2883 27.1002 71.9343C27.1559 71.9948 27.2087 72.0553 27.26 72.1187C27.3647 71.3635 27.4693 70.6074 27.574 69.8502C27.6127 69.6324 27.6265 69.4106 27.6154 69.1895C27.5882 68.9721 27.5365 68.7587 27.4613 68.5538C27.4384 68.48 27.4142 68.4063 27.3913 68.3325C27.2615 67.9313 27.1316 67.5316 27.0032 67.1304C26.8134 66.5405 26.6107 65.9313 26.1826 65.4977C26.0787 65.4062 25.9831 65.305 25.8972 65.1953C25.8566 65.1404 25.829 65.0765 25.8166 65.0086C25.8043 64.9408 25.8074 64.8708 25.8259 64.8044L28.8526 65.7809C28.9953 65.8281 29.138 65.8738 29.2807 65.9283C29.4483 66.004 29.6048 66.1032 29.7459 66.2233C29.9736 66.4106 30.1505 66.6556 30.2593 66.9345C30.3681 67.2134 30.4051 67.5167 30.3667 67.8148C30.3367 68.011 30.2711 68.1968 30.2311 68.39C30.1612 68.7396 30.0528 69.1423 30.1997 69.4667C30.3467 69.7912 30.4852 70.0774 30.6179 70.3827C30.7327 70.6153 30.8282 70.8576 30.9033 71.1069C30.986 71.4475 31.0192 71.7989 31.0017 72.1497C30.9838 72.9323 30.853 73.7078 30.6136 74.4506C30.5237 74.6851 30.4338 74.924 30.3624 75.1689Z" fill="#454B69"/>
<path d="M24.1861 76.9272L31.3627 76.2295L32.6171 76.0835L31.464 76.5053L24.1861 76.9272Z" fill="#3F3D56"/>
<path d="M24.0249 77.287V76.728L31.6325 76.3401L32.0035 76.669L24.0249 77.287Z" fill="#3F3D56"/>
<path d="M24.0491 76.2237C24.209 76.1795 24.3802 76.1883 24.5415 76.1485C24.7513 76.0969 24.9396 75.9641 25.1537 75.9361C25.2857 75.9253 25.4185 75.9352 25.5475 75.9656L26.5322 76.1426C26.6078 76.1574 26.6963 76.181 26.7234 76.2562C26.7306 76.2901 26.7289 76.3254 26.7183 76.3583C26.7078 76.3913 26.6888 76.4207 26.6635 76.4435C26.4865 76.6367 26.204 76.6647 25.95 76.681L25.2636 76.7237C25.1299 76.7215 24.9976 76.7529 24.8783 76.8152C24.8208 76.8492 24.7765 76.9028 24.7531 76.9669C24.7296 77.0309 24.7285 77.1014 24.7498 77.1662C24.7866 77.2306 24.8413 77.282 24.9068 77.3137C25.1803 77.4695 25.4948 77.531 25.8044 77.4892C26.0546 77.4401 26.3001 77.368 26.5379 77.2739C27.1418 77.0736 27.7791 77.0038 28.4102 77.0689C28.5743 77.0851 28.7655 77.1338 28.824 77.2931C28.8396 77.3491 28.8417 77.4081 28.8302 77.4651C28.8188 77.5222 28.7942 77.5755 28.7584 77.6205C28.5129 77.973 28.0249 77.9848 27.6168 78.0807C27.2266 78.1727 26.8655 78.3661 26.5679 78.6426C26.6592 78.8359 26.5836 79.0659 26.4922 79.2577C26.389 79.4796 26.2657 79.6909 26.1241 79.889C26.0478 80.0119 25.9408 80.1113 25.8144 80.1766C25.7313 80.2063 25.6441 80.2222 25.5561 80.2238C24.7034 80.2758 23.8477 80.2263 23.006 80.0763C22.9151 80.0697 22.8289 80.0324 22.7605 79.9701C22.7171 79.9102 22.69 79.8394 22.682 79.7651C22.595 79.3226 22.5179 78.8801 22.4523 78.4273C22.3882 78.1466 22.4142 77.852 22.5265 77.5881C22.6321 77.383 22.7976 77.3167 22.966 77.178C23.3313 76.8786 23.5654 76.3565 24.0491 76.2237Z" fill="#FBBEBE"/>
<path d="M33.3178 66.9994L31.5368 76.1293C31.5223 76.198 31.5239 76.2693 31.5414 76.3373C31.5589 76.4053 31.5918 76.468 31.6374 76.5202C31.6831 76.5724 31.7401 76.6126 31.8037 76.6375C31.8674 76.6623 31.9359 76.6712 32.0035 76.6632L38.7206 75.9818C38.8132 75.9733 38.9006 75.9339 38.9696 75.8695C39.0386 75.8051 39.0854 75.7192 39.103 75.6249L40.7484 67.1749C40.762 67.1096 40.7611 67.0419 40.7458 66.977C40.7304 66.912 40.7011 66.8515 40.6599 66.8C40.6187 66.7485 40.5667 66.7073 40.5079 66.6795C40.4491 66.6517 40.385 66.638 40.3203 66.6395H33.7416C33.6414 66.6387 33.5441 66.6743 33.4666 66.7401C33.3892 66.8058 33.3365 66.8976 33.3178 66.9994Z" fill="#3F3D56"/>
<path d="M36.66 77.8682C37.0881 77.5894 37.2094 77.026 37.4049 76.5496C37.5617 76.2002 37.742 75.8626 37.9443 75.5392C38.1155 75.2442 38.2868 74.8917 38.1512 74.5805C38.0442 74.382 37.8674 74.2336 37.6575 74.1661C37.468 74.072 37.254 74.0446 37.0481 74.0879C36.8169 74.1528 36.6457 74.3504 36.4901 74.5377L35.9364 75.2015C35.6992 75.5195 35.414 75.7959 35.0916 76.0201C34.8888 76.1364 34.6745 76.2299 34.4523 76.2988C34.0556 76.4345 33.6532 76.554 33.2465 76.6543C33.0126 76.7015 32.7844 76.7746 32.5658 76.8726C32.5219 76.8894 32.4817 76.915 32.4474 76.9479C32.4131 76.9808 32.3854 77.0203 32.366 77.0643C32.3482 77.1749 32.3733 77.2883 32.4359 77.38C32.5786 77.6499 32.737 78.2 33.0296 78.2959C33.3082 78.3671 33.5923 78.413 33.8787 78.4331C34.1641 78.464 34.3795 78.346 34.6321 78.2354C34.9507 78.1103 35.2907 78.054 35.6311 78.0702C35.9222 78.0643 36.4302 78.1071 36.66 77.8682Z" fill="#FBBEBE"/>
<path d="M32.9825 76.6306C32.9825 76.6306 33.235 78.3873 34.8191 78.1941C34.8191 78.1941 33.9757 78.5407 34.0642 78.7354C34.1526 78.9301 32.1091 78.3563 32.1091 78.3563L32.0035 77.4404C32.0035 77.4404 31.9364 76.9345 32.0035 76.9212C32.0706 76.9079 32.9825 76.6306 32.9825 76.6306Z" fill="#454B69"/>
<path opacity="0.1" d="M32.9825 76.6306C32.9825 76.6306 33.235 78.3873 34.8191 78.1941C34.8191 78.1941 33.9757 78.5407 34.0642 78.7354C34.1526 78.9301 32.1091 78.3563 32.1091 78.3563L32.0035 77.4404C32.0035 77.4404 31.9364 76.9345 32.0035 76.9212C32.0706 76.9079 32.9825 76.6306 32.9825 76.6306Z" fill="black"/>
<path opacity="0.1" d="M25.6617 69.29C25.818 69.3712 25.9465 69.4999 26.0299 69.6588C26.163 69.877 26.2635 70.1146 26.3281 70.3638C26.4066 70.6588 26.4437 71.0054 26.6606 71.2237" fill="black"/>
<path opacity="0.1" d="M19.0017 74.1558C19.1177 74.583 19.0697 75.0401 18.8675 75.4316C18.2967 74.5161 17.7016 73.6164 17.0823 72.7324C16.7883 72.3091 16.4872 71.8873 16.1833 71.4714C15.9364 71.1351 15.6824 70.7944 15.5582 70.3917C15.5362 70.3218 15.5191 70.2503 15.5068 70.1778C15.659 69.9437 15.8874 69.7736 16.1504 69.6985C16.5671 70.9478 17.6231 71.843 18.3795 72.9109C18.6619 73.2809 18.8732 73.7035 19.0017 74.1558Z" fill="black"/>
<path opacity="0.1" d="M24.3217 80.5541L21.8216 80.6426C21.6089 80.6499 21.3464 80.6927 21.2793 80.9021C21.2593 80.9685 21.2622 81.0408 21.2422 81.1072C21.1723 81.3417 20.8683 81.3697 20.63 81.3682C20.4231 81.3682 20.2161 81.3771 20.0106 81.3933C20.0095 81.3359 20.0222 81.2791 20.0477 81.2281C20.0891 81.144 20.169 81.0806 20.2118 81.0039C20.2574 80.8964 20.2713 80.7774 20.2518 80.6617C20.1985 79.9193 20.112 79.1819 19.9921 78.4493C19.9807 78.3844 19.9692 78.3166 19.9536 78.2502C20.1472 78.1183 20.3738 78.0475 20.6057 78.0466C20.8112 78.0702 20.9996 78.1941 21.2051 78.1838C21.5618 78.1646 21.8087 77.7531 22.1655 77.7295C22.2417 77.7353 22.3182 77.7258 22.3909 77.7015C22.5037 77.6425 22.5222 77.4876 22.5807 77.3726C22.6664 77.2015 22.9061 77.1602 23.0873 77.2045C23.0824 77.5952 23.1067 77.9858 23.1601 78.3726C23.178 78.5421 23.2164 78.7086 23.2743 78.8682C23.3424 79.0298 23.4275 79.1832 23.5283 79.3254C23.7966 79.7384 24.0535 80.1381 24.3217 80.5541Z" fill="black"/>
<path d="M16.0135 69.5583C15.5697 69.6734 15.2543 70.1041 15.1244 70.5584C14.9946 71.0126 15.0174 71.4964 15.0302 71.9699C15.074 73.727 14.9579 75.4845 14.6835 77.2192C14.5522 78.0511 14.3838 78.8859 14.4337 79.7266C14.4609 80.1824 14.5622 80.6529 14.8447 81.0039C15.2914 81.5555 16.0677 81.6691 16.7641 81.6411C18.0142 81.5909 19.2415 81.2119 20.493 81.2207C20.7313 81.2207 21.0338 81.1927 21.1052 80.9582C21.1252 80.8933 21.1209 80.821 21.1423 80.7547C21.2079 80.5452 21.4705 80.501 21.6846 80.4936L24.1847 80.4066C23.9165 79.998 23.6596 79.5968 23.3913 79.1883C23.2909 79.0455 23.2053 78.8923 23.1359 78.731C23.0786 78.5707 23.0403 78.4038 23.0217 78.234C22.9687 77.8476 22.9449 77.4575 22.9503 77.0673C22.7691 77.0245 22.5222 77.0673 22.4423 77.234C22.3838 77.3505 22.3653 77.5039 22.254 77.5629C22.1811 77.5886 22.1037 77.5982 22.0271 77.5909C21.6717 77.616 21.4248 78.0334 21.0681 78.0467C20.8626 78.057 20.6728 77.9316 20.4687 77.9095C20.1448 77.8741 19.8551 78.0953 19.5583 78.231C19.3148 78.3412 19.052 78.398 18.7862 78.398C18.5205 78.398 18.2576 78.3412 18.0142 78.231C17.9414 78.1986 17.8601 78.1042 17.92 78.0481C17.9799 77.9921 18.027 78.0393 18.0756 78.0157C18.1669 77.9685 18.0998 77.8284 18.0499 77.7369C17.9072 77.4729 18.0071 77.1469 18.1455 76.8726C18.2839 76.5983 18.4651 76.3401 18.4694 76.0363C18.4606 75.9382 18.4606 75.8394 18.4694 75.7413C18.5144 75.6028 18.5857 75.4749 18.6792 75.3652C18.7992 75.1648 18.8773 74.9408 18.9088 74.7074C18.9403 74.474 18.9243 74.2364 18.8619 74.0097C18.7328 73.5579 18.5211 73.1358 18.2382 72.7664C17.4876 71.7044 16.4316 70.8076 16.0135 69.5583Z" fill="#454B69"/>
<path opacity="0.1" d="M22.7763 68.6807L23.3585 69.0228C23.18 69.1084 22.997 69.1838 22.8105 69.2485C21.4976 69.7043 21.9657 70.337 20.5815 70.3193C19.6382 70.309 18.5622 70.2338 17.9015 70.9299C17.5904 71.2574 17.4334 71.7058 17.285 72.1394C17.2165 72.337 17.1494 72.5347 17.0823 72.7294C16.7884 72.3061 16.4873 71.8842 16.1833 71.4683C15.9364 71.132 15.6824 70.7913 15.5583 70.3886C15.423 69.941 15.4593 69.4569 15.6596 69.0361C15.8259 68.7435 16.0169 68.4666 16.2304 68.2087C16.4324 67.8923 16.6516 67.588 16.8868 67.2972C17.0056 67.1523 17.1513 67.0337 17.3153 66.9483C17.4793 66.8629 17.6583 66.8125 17.8415 66.8001C18.0542 66.8001 18.3025 66.8621 18.4494 66.7042C18.5037 66.6482 18.5322 66.573 18.5921 66.5184C18.7477 66.3709 19.0031 66.4697 19.1901 66.5789L22.7763 68.6807Z" fill="black"/>
<path d="M26.2497 57.4075C26.2305 57.2308 26.1883 57.0577 26.1241 56.8927C26.0626 56.7656 25.9843 56.648 25.8915 56.5432C25.589 56.1908 25.2183 55.908 24.8033 55.7132C24.3884 55.5183 23.9384 55.4156 23.4827 55.4119C23.4033 55.4066 23.3238 55.4197 23.2501 55.4502C23.2317 55.4587 23.2144 55.4696 23.1987 55.4827C22.5408 55.024 21.7716 54.5741 21.0581 54.3957C20.5631 54.2756 20.0472 54.2827 19.5554 54.4163C18.9575 54.6021 18.7492 55.0948 18.4951 55.6331C18.0865 56.4989 17.465 57.2384 16.6928 57.7777C16.1962 58.1243 15.6068 58.4222 15.3685 58.9901C15.1459 59.5196 15.2971 60.1273 15.3499 60.7025C15.4118 61.4797 15.2869 62.2607 14.9864 62.976C14.6859 63.6913 14.2191 64.3189 13.6275 64.8029C12.9482 65.3471 12.042 65.8014 11.8979 66.676C11.7952 67.2985 12.1334 67.8958 12.3888 68.4696C12.9297 69.682 13.1152 71.1628 12.4801 72.3251C12.2989 72.6555 12.052 72.9578 11.9593 73.3236C11.7895 73.9741 12.1505 74.6806 12.6885 75.0581C13.2265 75.4357 13.9043 75.539 14.5551 75.536C15.0289 75.536 15.5412 75.4623 15.8765 75.1186C16.0849 74.8705 16.2366 74.5771 16.3203 74.2602C16.5943 73.4588 16.8688 72.6579 17.1437 71.8575C17.2864 71.4239 17.4491 70.9725 17.7602 70.6481C18.4195 69.9519 19.4969 70.0256 20.4388 70.0374C21.8244 70.0551 21.3564 69.4239 22.6678 68.9666C23.4384 68.6982 24.2761 68.241 24.4559 67.4209C24.6357 66.6008 24.102 65.8574 23.6354 65.1937C23.2853 64.7021 22.9551 64.1932 22.645 63.6672C22.341 63.1598 22.0513 62.6244 21.9671 62.0344C21.8244 61.0536 24.1291 60.5063 24.4745 59.5816C24.573 59.3206 24.6559 59.0536 24.7228 58.7821C24.8883 58.7689 25.041 58.7526 25.1509 58.7482C25.5918 58.7276 26.087 58.5491 26.2383 58.1214C26.2999 57.8882 26.3038 57.6427 26.2497 57.4075Z" fill="#3F3D56"/>
<g opacity="0.1">
<path opacity="0.1" d="M22.3752 55.1243C22.4494 55.0951 22.5287 55.0826 22.6078 55.0874H22.6407C22.1539 54.7702 21.6251 54.5278 21.0709 54.3676L20.9382 54.3396C21.424 54.5707 21.89 54.844 22.331 55.1567C22.3448 55.1446 22.3596 55.1337 22.3752 55.1243Z" fill="black"/>
<path opacity="0.1" d="M26.2497 57.3797C26.2305 57.203 26.1882 57.0298 26.1241 56.8649C26.0629 56.7376 25.9846 56.6199 25.8915 56.5153C25.4035 55.9474 24.7443 55.5664 24.0206 55.4342C24.4004 55.6251 24.7399 55.8918 25.0195 56.2189C25.1133 56.3224 25.1916 56.4397 25.2522 56.567C25.3175 56.732 25.3598 56.9058 25.3777 57.0832C25.4328 57.3181 25.4299 57.5636 25.3692 57.7971C25.2193 58.2248 24.7227 58.4033 24.2832 58.4224C24.1762 58.4224 24.022 58.4446 23.8551 58.4564C23.7885 58.7284 23.7055 58.9959 23.6068 59.2573C23.2614 60.1806 20.961 60.7322 21.1009 61.7101C21.1837 62.3001 21.4748 62.8355 21.7773 63.3428C22.0798 63.8502 22.4195 64.3753 22.7677 64.8694C23.2343 65.5331 23.7666 66.2957 23.5882 67.0966C23.4098 67.8975 22.5722 68.3739 21.8016 68.6423C20.4887 69.0996 20.9567 69.7308 19.5725 69.7131C18.6292 69.7013 17.5518 69.6276 16.8925 70.3238C16.5814 70.6512 16.4245 71.0996 16.276 71.5332L15.4526 73.9359C15.3686 74.2524 15.2175 74.5456 15.0102 74.7943C14.6735 75.138 14.1612 75.2088 13.6888 75.2102C13.4198 75.2133 13.151 75.1925 12.8854 75.1483C13.3877 75.43 13.9856 75.5111 14.5622 75.5082C15.0359 75.5082 15.5482 75.4344 15.8836 75.0908C16.092 74.8427 16.2437 74.5493 16.3274 74.2324C16.6014 73.432 16.8759 72.6311 17.1508 71.8297C17.2935 71.396 17.4562 70.9447 17.7673 70.6202C18.4266 69.924 19.504 69.9978 20.4459 70.0096C21.8315 70.0273 21.3635 69.396 22.6749 68.9388C23.4455 68.6703 24.2832 68.2131 24.463 67.393C24.6428 66.573 24.1091 65.8296 23.6425 65.1659C23.2923 64.6742 22.9622 64.1654 22.6521 63.6393C22.3481 63.1319 22.0584 62.5965 21.9742 62.0066C21.8315 61.0257 24.1362 60.4785 24.4816 59.5537C24.5801 59.2928 24.663 59.0258 24.7299 58.7543C24.8954 58.741 25.0481 58.7248 25.158 58.7204C25.5989 58.6997 26.0941 58.5213 26.2454 58.0935C26.3047 57.8597 26.3061 57.6142 26.2497 57.3797Z" fill="black"/>
</g>
<defs>
<linearGradient id="paint0_linear" x1="78.0157" y1="92.3759" x2="78.0157" y2="13.7068" gradientUnits="userSpaceOnUse">
<stop stop-color="#808080" stop-opacity="0.25"/>
<stop offset="0.54" stop-color="#808080" stop-opacity="0.12"/>
<stop offset="1" stop-color="#808080" stop-opacity="0.1"/>
</linearGradient>
<linearGradient id="paint1_linear" x1="-733.821" y1="371.111" x2="-729.373" y2="371.111" gradientUnits="userSpaceOnUse">
<stop stop-color="#808080" stop-opacity="0.25"/>
<stop offset="0.54" stop-color="#808080" stop-opacity="0.12"/>
<stop offset="1" stop-color="#808080" stop-opacity="0.1"/>
</linearGradient>
<linearGradient id="paint2_linear" x1="24577.3" y1="59268.2" x2="24577.3" y2="21854.4" gradientUnits="userSpaceOnUse">
<stop stop-color="#808080" stop-opacity="0.25"/>
<stop offset="0.54" stop-color="#808080" stop-opacity="0.12"/>
<stop offset="1" stop-color="#808080" stop-opacity="0.1"/>
</linearGradient>
</defs>
</svg>
