<svg width="12" height="14" viewBox="0 0 12 14" fill="none" xmlns="http://www.w3.org/2000/svg">
<path d="M11.1176 3.4906H1.93312C1.60856 3.4906 1.34515 3.75381 1.34515 4.07857V4.12756C1.34515 4.44173 1.59151 4.69809 1.90157 4.71475L3.20176 6.61466H9.84892L11.1491 4.71475C11.4592 4.69809 11.7055 4.44173 11.7055 4.12756V4.07857C11.7055 3.75381 11.4421 3.4906 11.1176 3.4906Z" fill="white"/>
<path d="M5.25586 13.6413C5.25586 13.8233 5.44411 13.9442 5.60954 13.8685L7.57794 12.9678H5.25586V13.6413Z" fill="white"/>
<path d="M7.7947 10.1064H5.25586V12.4779H7.7947V10.1064Z" fill="white"/>
<path d="M5.25587 9.61641H7.79471L9.51354 7.10461H3.53705L5.25587 9.61641Z" fill="white"/>
<path d="M3.12685 2.86403C3.10431 2.91871 3.06844 2.96536 3.02356 3.00064H3.59918C3.69835 2.81053 3.89748 2.68059 4.12619 2.68059C4.35491 2.68059 4.55404 2.81053 4.65321 3.00064H5.22883C5.18395 2.96536 5.14808 2.91871 5.12554 2.86403C5.12495 2.86286 5.12456 2.86168 5.12397 2.8605C5.07635 2.74605 5.09418 2.61493 5.17101 2.51752L5.17591 2.51125C5.22021 2.4552 5.2155 2.37504 5.16494 2.32447L5.07674 2.23628C5.02618 2.18591 4.94602 2.18101 4.88996 2.2253L4.88369 2.2302C4.78629 2.30703 4.65517 2.32487 4.54071 2.27724C4.53954 2.27665 4.53836 2.27626 4.53718 2.27567C4.42312 2.22864 4.34374 2.12319 4.32943 2.0007L4.32846 1.99286C4.32003 1.92191 4.26005 1.86841 4.18852 1.86841H4.06387C3.99253 1.86841 3.93236 1.92191 3.92393 1.99286L3.92295 2.0007C3.90865 2.12319 3.82927 2.22864 3.71521 2.27567C3.71403 2.27626 3.71285 2.27665 3.71168 2.27724C3.59722 2.32487 3.4661 2.30703 3.3687 2.2302L3.36242 2.2253C3.30637 2.18101 3.22621 2.18591 3.17565 2.23628L3.08745 2.32447C3.03708 2.37504 3.03218 2.4552 3.07648 2.51125L3.08138 2.51752C3.1582 2.61493 3.17604 2.74605 3.12841 2.8605C3.12783 2.86168 3.12743 2.86286 3.12685 2.86403Z" fill="white"/>
<path d="M6.0083 2.75916L6.02045 2.76053C6.17901 2.77915 6.31895 2.86832 6.40224 3.00061H7.25303C7.13583 2.84715 7.06645 2.65548 7.06645 2.44792C7.06645 1.94364 7.47685 1.53344 7.98113 1.53344C8.48541 1.53344 8.89561 1.94364 8.89561 2.44792C8.89561 2.65548 8.82623 2.84715 8.70923 3.00061H9.56002C9.64331 2.86832 9.78325 2.77915 9.9418 2.76053L9.95396 2.75916C10.0629 2.74622 10.1452 2.65371 10.1452 2.54396V2.35209C10.1452 2.24214 10.0629 2.14965 9.95396 2.13689L9.9418 2.13532C9.75326 2.11318 9.59098 1.99107 9.51866 1.81566C9.51788 1.8139 9.5171 1.81194 9.51631 1.81018C9.44301 1.63418 9.47045 1.43231 9.58844 1.28257L9.59608 1.27297C9.66409 1.18673 9.65684 1.06326 9.57922 0.985454L9.4434 0.84983C9.36579 0.772218 9.24232 0.764966 9.15608 0.832975L9.14648 0.840618C8.99674 0.958604 8.79488 0.986042 8.61888 0.912742C8.61711 0.911958 8.61515 0.911174 8.61339 0.91039C8.43798 0.83807 8.31588 0.675791 8.29373 0.48725L8.29216 0.475099C8.27942 0.366129 8.18692 0.283813 8.07697 0.283813H7.88509C7.77534 0.283813 7.68283 0.366129 7.6699 0.475099L7.66853 0.48725C7.64638 0.675791 7.52428 0.83807 7.34887 0.91039C7.34691 0.911174 7.34514 0.911958 7.34318 0.912742C7.16719 0.986042 6.96551 0.958604 6.81578 0.840618L6.80617 0.832975C6.71994 0.764966 6.59647 0.772218 6.51866 0.84983L6.38303 0.985454C6.30523 1.06326 6.29797 1.18673 6.36618 1.27297L6.37363 1.28257C6.49181 1.43231 6.51925 1.63418 6.44595 1.81018C6.44516 1.81194 6.44438 1.8139 6.44359 1.81566C6.37127 1.99107 6.20899 2.11318 6.02045 2.13532L6.0083 2.13689C5.89914 2.14963 5.81702 2.24214 5.81702 2.35209V2.54396C5.81702 2.65371 5.89914 2.74622 6.0083 2.75916Z" fill="white"/>
<path d="M1.59014 7.36353C1.72545 7.36353 1.83513 7.25383 1.83513 7.11854V6.50933C1.83513 6.37404 1.72545 6.26434 1.59014 6.26434C1.45483 6.26434 1.34515 6.37404 1.34515 6.50933V7.11854C1.34515 7.25383 1.45483 7.36353 1.59014 7.36353Z" fill="white"/>
<path d="M1.98528 11.7772H1.8351V8.09765C1.8351 7.96236 1.72542 7.85266 1.59011 7.85266C1.4548 7.85266 1.34513 7.96236 1.34513 8.09765V11.7772H1.19494C1.00634 11.7772 0.888471 11.9814 0.982781 12.1447L1.18036 12.4869L1.37795 12.8292C1.47224 12.9925 1.70798 12.9925 1.80227 12.8292L1.99987 12.4869L2.19746 12.1447C2.29173 11.9814 2.17387 11.7772 1.98528 11.7772Z" fill="white"/>
<path d="M11.065 7.36353C11.2003 7.36353 11.31 7.25383 11.31 7.11854V6.50933C11.31 6.37404 11.2003 6.26434 11.065 6.26434C10.9297 6.26434 10.82 6.37404 10.82 6.50933V7.11854C10.82 7.25383 10.9297 7.36353 11.065 7.36353Z" fill="white"/>
<path d="M11.4601 11.7772H11.3099V8.09765C11.3099 7.96236 11.2003 7.85266 11.065 7.85266C10.9297 7.85266 10.82 7.96236 10.82 8.09765V11.7772H10.6698C10.4812 11.7772 10.3633 11.9814 10.4576 12.1447L10.6552 12.4869L10.8528 12.8292C10.9471 12.9925 11.1828 12.9925 11.2771 12.8292L11.4747 12.4869L11.6723 12.1447C11.7666 11.9814 11.6487 11.7772 11.4601 11.7772Z" fill="white"/>
</svg>
