<?xml version="1.0" ?><!DOCTYPE svg  PUBLIC '-//W3C//DTD SVG 1.1//EN'  'http://www.w3.org/Graphics/SVG/1.1/DTD/svg11.dtd'><svg enable-background="new 0 0 512 512" height="512px" id="Layer_1" version="1.1" viewBox="0 0 512 512" width="512px" xml:space="preserve" xmlns="http://www.w3.org/2000/svg" xmlns:xlink="http://www.w3.org/1999/xlink"><g><path d="M92.597,249.136c0.711-1.623,0.377-3.385,0.501-5.058c0.64-8.419,2.306-16.625,4.521-24.752   c2.469-9.065,5.992-17.707,10.327-26.016c4.191-8.025,9.18-15.527,14.913-22.535c8.975-10.958,19.392-20.326,31.293-28.001   c8.473-5.463,17.481-9.886,26.977-13.364c9.213-3.377,18.694-5.54,28.355-6.96c3.562-0.528,7.2-0.64,10.814-0.857   c3.141-0.187,6.278-0.341,9.414-0.21c7.051,0.297,14.068,0.838,21.048,2.091c9.232,1.664,18.16,4.229,26.85,7.72   c11.853,4.771,22.761,11.18,32.78,19.114c5.057,4.006,9.878,8.283,14.279,12.99c4.538,4.85,8.756,9.982,12.597,15.411   c0.606,0.852,0.481,1.274-0.364,1.766c-6.753,3.881-13.493,7.761-20.204,11.708c-1.098,0.647-1.491-0.093-1.939-0.708   c-3.627-5.013-7.633-9.696-12.115-13.945c-6.966-6.603-14.605-12.29-23.011-16.971c-8.511-4.737-17.515-8.174-26.943-10.516   c-5.441-1.35-10.961-2.238-16.565-2.646c-3.666-0.267-7.323-0.687-10.995-0.532c-14.125,0.595-27.807,3.231-40.858,8.887   c-10.254,4.439-19.64,10.23-28.081,17.503c-9.719,8.368-17.797,18.136-24.103,29.309c-6.326,11.2-10.488,23.218-12.589,35.89   c-1.174,7.145-1.785,14.39-1.384,21.644c0.735,13.403,3.485,26.348,8.803,38.745c3.848,8.956,8.741,17.277,14.81,24.851   c8.797,10.988,19.276,20.121,31.578,27.084c8.99,5.086,18.489,8.882,28.534,11.267c5.25,1.243,10.56,2.116,15.944,2.522   c3.562,0.263,7.114,0.687,10.684,0.533c10.913-0.449,21.634-1.971,32.076-5.394c10.354-3.399,19.971-8.207,28.9-14.412   c3.813-2.661,7.367-5.64,10.851-8.724c6.899-6.102,12.688-13.137,17.759-20.774c4.649-6.998,8.4-14.465,11.271-22.38   c2.164-6.006,3.827-12.117,4.953-18.395c0.61-3.395,0.862-6.83,1.299-10.239c0.363-2.856,0.228-5.72,0.393-8.567   c0.197-3.53-0.184-7.111-0.499-10.654c-0.535-5.958-1.643-11.823-3.177-17.606c-1.315-4.972-2.998-9.806-5.004-14.529   c-0.43-1.01-0.3-1.499,0.686-2.057c6.666-3.796,13.301-7.644,19.921-11.524c0.938-0.546,1.25-0.385,1.687,0.58   c4.248,9.329,7.361,19.015,9.338,29.064c1.459,7.364,2.216,14.781,2.504,22.298c0.193,5.326,0.006,10.62-0.373,15.883   c-0.588,7.941-2.023,15.789-4.131,23.495c-2.668,9.799-6.313,19.209-11.112,28.146c-4.437,8.254-9.59,16.025-15.7,23.162   c-3.208,3.748-6.454,7.443-10.041,10.828c-6.977,6.576-14.491,12.449-22.687,17.467c-8.515,5.219-17.467,9.447-26.92,12.664   c-8.803,2.989-17.812,5.051-27.037,6.159c-2.253,0.272-4.493,0.679-6.742,1.021c-4.994,0-9.996,0-14.99,0   c-0.333-0.395-0.792-0.284-1.212-0.284c-4.331-0.029-8.642-0.394-12.893-1.079c-9.009-1.439-17.841-3.553-26.443-6.684   c-9.51-3.468-18.504-7.904-26.982-13.367c-11.901-7.672-22.318-17.043-31.292-28.004c-5.738-7.002-10.727-14.512-14.918-22.531   c-4.334-8.313-7.858-16.957-10.327-26.018c-2.214-8.131-3.88-16.33-4.521-24.757c-0.124-1.671,0.21-3.429-0.501-5.057   C92.597,258.266,92.597,253.7,92.597,249.136z"/><path d="M426.399,160.798c-3.802,2.161-7.618,4.296-11.404,6.48c-7.726,4.454-15.433,8.928-23.148,13.395   c-1.404,0.812-2.95,1.447-4.183,2.464c-2.748,2.272-5.604,2.146-8.756,1.045c-2.639-0.921-5.402-1.485-8.075-2.315   c-1.057-0.324-1.854-0.043-2.721,0.461c-12.069,6.977-24.147,13.934-36.216,20.912c-14.025,8.12-28.037,16.271-42.076,24.385   c-9.071,5.244-18.17,10.428-27.25,15.667c-9.356,5.404-18.713,10.808-28.022,16.289c-3.456,2.038-6.926,1.612-8.965-1.108   c-2.096-2.787-1.533-6.813,1.442-8.655c4.271-2.637,8.659-5.083,13.008-7.597c10.479-6.058,20.962-12.1,31.437-18.162   c8.325-4.819,16.62-9.681,24.954-14.489c10.153-5.857,20.34-11.657,30.493-17.52c11.792-6.813,23.56-13.677,35.361-20.473   c0.906-0.525,1.277-1.208,1.517-2.126c1.057-3.955,2.176-7.896,3.169-11.87c0.204-0.81,0.625-1.182,1.253-1.542   c8.854-5.093,17.7-10.194,26.553-15.298c4.993-2.876,9.978-5.765,15.232-8.795c-0.593,3.596-1.111,6.912-1.688,10.215   c-0.676,3.815-1.394,7.619-2.082,11.429c-0.174,0.918-0.082,1.59,1.082,1.891c6.368,1.621,12.728,3.32,19.084,4.988   C426.399,160.581,426.399,160.69,426.399,160.798z"/><path d="M145.468,257.177c-0.104-15.001,3.18-27.908,9.667-39.976c5.313-9.884,12.421-18.289,21.22-25.29   c10.035-7.981,21.319-13.24,33.828-15.916c6.898-1.48,13.91-2.153,20.946-1.711c17.865,1.124,33.876,7.183,47.798,18.527   c4.494,3.667,8.521,7.815,12.115,12.378c0.772,0.979,0.744,1.447-0.451,2.125c-7.528,4.251-15.007,8.584-22.464,12.954   c-0.938,0.547-1.357,0.52-2.125-0.301c-8.568-9.156-19.081-14.818-31.464-16.62c-10.088-1.47-19.926-0.1-29.245,4.237   c-14.594,6.791-24.247,17.931-29.121,33.232c-1.966,6.157-2.53,12.527-2.066,18.917c0.815,11.187,4.73,21.23,11.948,29.879   c9.075,10.904,20.642,17.416,34.768,19.097c14.288,1.699,27.239-1.938,38.602-10.712c11.031-8.518,17.653-19.784,19.988-33.561   c1.313-7.746,0.84-15.367-1.332-22.896c-0.219-0.761-0.253-1.144,0.605-1.63c7.739-4.416,15.438-8.91,23.131-13.41   c0.873-0.511,1.203-0.448,1.589,0.58c2.168,5.668,3.629,11.49,4.448,17.503c0.658,4.833,1.062,9.676,0.821,14.543   c-0.485,10.043-2.54,19.754-6.53,29.024c-3.342,7.755-7.742,14.849-13.22,21.254c-5.09,5.959-11.013,10.97-17.586,15.236   c-8.532,5.539-17.771,9.387-27.712,11.4c-6.131,1.251-12.366,1.929-18.657,1.682c-7.748-0.297-15.333-1.5-22.733-3.849   c-8.946-2.836-17.157-7.085-24.594-12.794c-8.856-6.788-16.065-15.02-21.611-24.746c-5.209-9.139-8.412-18.906-9.93-29.256   C145.563,263.382,145.296,259.66,145.468,257.177z"/><path d="M226.156,228.877c5.996-0.197,11.037,1.497,15.654,4.583c1.655,1.105,1.589,1.155-0.063,2.103   c-5.7,3.289-11.49,6.452-17.024,10.011c-5.422,3.488-6.521,10.173-2.95,15.503c3.328,4.966,9.873,6.216,15.229,3.016   c4.917-2.937,9.916-5.728,14.847-8.642c1.283-0.761,1.533-0.41,1.47,0.914c-0.305,6.803-2.692,12.705-7.417,17.654   c-5.52,5.758-12.346,8.527-20.213,8.277c-13.472-0.429-24.151-10.76-25.608-23.339c-0.596-5.207,0.053-10.167,2.234-14.83   c2.961-6.306,7.724-10.888,14.264-13.463C219.768,229.408,223.072,228.613,226.156,228.877z"/></g></svg>