<svg width="334" height="270" viewBox="0 0 334 270" fill="none" xmlns="http://www.w3.org/2000/svg">
<path d="M0 127.802C0.711 126.179 0.376999 124.417 0.500999 122.744C1.141 114.325 2.807 106.119 5.022 97.9918C7.491 88.9268 11.014 80.2848 15.349 71.9758C19.54 63.9508 24.529 56.4488 30.262 49.4408C39.237 38.4828 49.654 29.1148 61.555 21.4398C70.028 15.9768 79.036 11.5538 88.532 8.07581C97.745 4.69881 107.226 2.53581 116.887 1.11581C120.449 0.587805 124.087 0.47581 127.701 0.25881C130.842 0.0718105 133.979 -0.0821886 137.115 0.0488114C144.166 0.345811 151.183 0.886807 158.163 2.13981C167.395 3.80381 176.323 6.36881 185.013 9.85981C196.866 14.6308 207.774 21.0398 217.793 28.9738C222.85 32.9798 227.671 37.2568 232.072 41.9638C236.61 46.8138 240.828 51.9458 244.669 57.3748C245.275 58.2268 245.15 58.6488 244.305 59.1408C237.552 63.0218 230.812 66.9018 224.101 70.8488C223.003 71.4958 222.61 70.7558 222.162 70.1408C218.535 65.1278 214.529 60.4448 210.047 56.1958C203.081 49.5928 195.442 43.9058 187.036 39.2248C178.525 34.4878 169.521 31.0508 160.093 28.7088C154.652 27.3588 149.132 26.4708 143.528 26.0628C139.862 25.7958 136.205 25.3758 132.533 25.5308C118.408 26.1258 104.726 28.7618 91.675 34.4178C81.421 38.8568 72.035 44.6478 63.594 51.9208C53.875 60.2888 45.797 70.0568 39.491 81.2298C33.165 92.4298 29.003 104.448 26.902 117.12C25.728 124.265 25.117 131.51 25.518 138.764C26.253 152.167 29.003 165.112 34.321 177.509C38.169 186.465 43.062 194.786 49.131 202.36C57.928 213.348 68.407 222.481 80.709 229.444C89.699 234.53 99.198 238.326 109.243 240.711C114.493 241.954 119.803 242.827 125.187 243.233C128.749 243.496 132.301 243.92 135.871 243.766C146.784 243.317 157.505 241.795 167.947 238.372C178.301 234.973 187.918 230.165 196.847 223.96C200.66 221.299 204.214 218.32 207.698 215.236C214.597 209.134 220.386 202.099 225.457 194.462C230.106 187.464 233.857 179.997 236.728 172.082C238.892 166.076 240.555 159.965 241.681 153.687C242.291 150.292 242.543 146.857 242.98 143.448C243.343 140.592 243.208 137.728 243.373 134.881C243.57 131.351 243.189 127.77 242.874 124.227C242.339 118.269 241.231 112.404 239.697 106.621C238.382 101.649 236.699 96.8148 234.693 92.0918C234.263 91.0818 234.393 90.5928 235.379 90.0348C242.045 86.2388 248.68 82.3908 255.3 78.5108C256.238 77.9648 256.55 78.1258 256.987 79.0908C261.235 88.4198 264.348 98.1058 266.325 108.155C267.784 115.519 268.541 122.936 268.829 130.453C269.022 135.779 268.835 141.073 268.456 146.336C267.868 154.277 266.433 162.125 264.325 169.831C261.657 179.63 258.012 189.04 253.213 197.977C248.776 206.231 243.623 214.002 237.513 221.139C234.305 224.887 231.059 228.582 227.472 231.967C220.495 238.543 212.981 244.416 204.785 249.434C196.27 254.653 187.318 258.881 177.865 262.098C169.062 265.087 160.053 267.149 150.828 268.257C148.575 268.529 146.335 268.936 144.086 269.278C139.092 269.278 134.09 269.278 129.096 269.278C128.763 268.883 128.304 268.994 127.884 268.994C123.553 268.965 119.242 268.6 114.991 267.915C105.982 266.476 97.15 264.362 88.548 261.231C79.038 257.763 70.044 253.327 61.566 247.864C49.665 240.192 39.248 230.821 30.274 219.86C24.536 212.858 19.547 205.348 15.356 197.329C11.022 189.016 7.498 180.372 5.029 171.311C2.815 163.18 1.149 154.981 0.508003 146.554C0.384003 144.883 0.717996 143.125 0.00699615 141.497C-3.84543e-06 136.932 0 132.366 0 127.802Z" fill="url(#paint0_linear)"/>
<path d="M333.802 39.4638C330 41.6248 326.184 43.7598 322.398 45.9438C314.672 50.3978 306.965 54.8718 299.25 59.3388C297.846 60.1508 296.3 60.7858 295.067 61.8028C292.319 64.0748 289.463 63.9488 286.311 62.8478C283.672 61.9268 280.909 61.3628 278.236 60.5328C277.179 60.2088 276.382 60.4898 275.515 60.9938C263.446 67.9708 251.368 74.9278 239.299 81.9058C225.274 90.0258 211.262 98.1768 197.223 106.291C188.152 111.535 179.053 116.719 169.973 121.958C160.617 127.362 151.26 132.766 141.951 138.247C138.495 140.285 135.025 139.859 132.986 137.139C130.89 134.352 131.453 130.326 134.428 128.484C138.699 125.847 143.087 123.401 147.436 120.887C157.915 114.829 168.398 108.787 178.873 102.725C187.198 97.9058 195.493 93.0438 203.827 88.2358C213.98 82.3788 224.167 76.5788 234.32 70.7158C246.112 63.9028 257.88 57.0388 269.681 50.2428C270.587 49.7178 270.958 49.0348 271.198 48.1168C272.255 44.1618 273.374 40.2208 274.367 36.2468C274.571 35.4368 274.992 35.0648 275.62 34.7048C284.474 29.6118 293.32 24.5108 302.173 19.4068C307.166 16.5308 312.151 13.6418 317.405 10.6118C316.812 14.2078 316.294 17.5238 315.717 20.8268C315.041 24.6418 314.323 28.4458 313.635 32.2558C313.461 33.1738 313.553 33.8458 314.717 34.1468C321.085 35.7678 327.445 37.4668 333.801 39.1348C333.802 39.2468 333.802 39.3558 333.802 39.4638Z" fill="url(#paint1_linear)"/>
<path d="M52.871 135.843C52.767 120.842 56.051 107.935 62.538 95.8668C67.851 85.9828 74.959 77.5778 83.758 70.5768C93.793 62.5958 105.077 57.3368 117.586 54.6608C124.484 53.1808 131.496 52.5078 138.532 52.9498C156.397 54.0738 172.408 60.1328 186.33 71.4768C190.824 75.1438 194.851 79.2918 198.445 83.8548C199.217 84.8338 199.189 85.3018 197.994 85.9798C190.466 90.2308 182.987 94.5638 175.53 98.9338C174.592 99.4808 174.173 99.4538 173.405 98.6328C164.837 89.4768 154.324 83.8148 141.941 82.0128C131.853 80.5428 122.015 81.9128 112.696 86.2498C98.102 93.0408 88.449 104.181 83.575 119.482C81.609 125.639 81.045 132.009 81.509 138.399C82.324 149.586 86.239 159.629 93.457 168.278C102.532 179.182 114.099 185.694 128.225 187.375C142.513 189.074 155.464 185.437 166.827 176.663C177.858 168.145 184.48 156.879 186.815 143.102C188.128 135.356 187.655 127.735 185.483 120.206C185.264 119.445 185.23 119.062 186.088 118.576C193.827 114.16 201.526 109.666 209.219 105.166C210.092 104.655 210.422 104.718 210.808 105.746C212.976 111.414 214.437 117.236 215.256 123.249C215.914 128.082 216.318 132.925 216.077 137.792C215.592 147.835 213.537 157.546 209.547 166.816C206.205 174.571 201.805 181.665 196.327 188.07C191.237 194.029 185.314 199.04 178.741 203.306C170.209 208.845 160.97 212.693 151.029 214.706C144.898 215.957 138.663 216.635 132.372 216.388C124.624 216.091 117.039 214.888 109.639 212.539C100.693 209.703 92.482 205.454 85.045 199.745C76.189 192.957 68.98 184.725 63.434 174.999C58.225 165.86 55.022 156.093 53.504 145.743C52.966 142.048 52.699 138.326 52.871 135.843Z" fill="url(#paint2_linear)"/>
<path d="M133.559 107.543C139.555 107.346 144.596 109.04 149.213 112.126C150.868 113.231 150.802 113.281 149.15 114.229C143.45 117.518 137.66 120.681 132.126 124.24C126.704 127.728 125.605 134.413 129.176 139.743C132.504 144.709 139.049 145.959 144.405 142.759C149.322 139.822 154.321 137.031 159.252 134.117C160.535 133.356 160.785 133.707 160.722 135.031C160.417 141.834 158.03 147.736 153.305 152.685C147.785 158.443 140.959 161.212 133.092 160.962C119.62 160.533 108.941 150.202 107.484 137.623C106.888 132.416 107.537 127.456 109.718 122.793C112.679 116.487 117.442 111.905 123.982 109.33C127.171 108.074 130.475 107.279 133.559 107.543Z" fill="url(#paint3_linear)"/>
<defs>
<linearGradient id="paint0_linear" x1="134.453" y1="0" x2="134.453" y2="269.278" gradientUnits="userSpaceOnUse">
<stop stop-color="#A698FD"/>
<stop offset="1" stop-color="#0D79F1"/>
</linearGradient>
<linearGradient id="paint1_linear" x1="232.767" y1="10.6118" x2="232.767" y2="139.523" gradientUnits="userSpaceOnUse">
<stop stop-color="#A698FD"/>
<stop offset="1" stop-color="#0D79F1"/>
</linearGradient>
<linearGradient id="paint2_linear" x1="134.483" y1="52.8159" x2="134.483" y2="216.438" gradientUnits="userSpaceOnUse">
<stop stop-color="#A698FD"/>
<stop offset="1" stop-color="#0D79F1"/>
</linearGradient>
<linearGradient id="paint3_linear" x1="134.002" y1="107.492" x2="134.002" y2="160.977" gradientUnits="userSpaceOnUse">
<stop stop-color="#A698FD"/>
<stop offset="1" stop-color="#0D79F1"/>
</linearGradient>
</defs>
</svg>
