<svg width="17" height="17" viewBox="0 0 17 17" fill="none" xmlns="http://www.w3.org/2000/svg">
<path d="M4.05331 9.57722C3.99807 9.51458 3.91638 9.48096 3.83318 9.48879C3.74993 9.4958 3.67494 9.54181 3.631 9.61286L1.60229 12.8905C1.54202 12.9878 1.55141 13.1129 1.62554 13.2002L2.93886 14.7462L2.21991 15.3498C2.1034 15.4475 1.92877 15.4326 1.83056 15.3166L1.07948 14.4283C0.982909 14.3141 0.993816 14.1457 1.10437 14.045L1.23662 13.9243C1.34429 13.8261 1.352 13.6592 1.25376 13.5516C1.15552 13.4439 0.988558 13.4361 0.880965 13.5344L0.748792 13.655C0.427533 13.9477 0.395747 14.4371 0.676453 14.769L1.42758 15.6573C1.58632 15.8451 1.81381 15.9419 2.04271 15.9419C2.18606 15.9419 2.32976 15.9033 2.45769 15.826L3.40257 16.3202C3.53385 16.3909 3.67736 16.4259 3.8204 16.4259C3.99301 16.4259 4.16499 16.3748 4.31396 16.2741L4.74791 15.9807C4.81904 15.9325 4.86236 15.8528 4.86392 15.7669C4.86547 15.6811 4.8252 15.5998 4.75582 15.5491L4.27001 15.1938C4.15237 15.1076 3.98728 15.1335 3.90123 15.251C3.81522 15.3687 3.84081 15.5338 3.95849 15.6199L4.14146 15.7536L4.01825 15.837C3.90894 15.9109 3.76882 15.9182 3.64994 15.8541L2.90466 15.4642L3.45057 15.0059L7.05036 13.5036C7.12885 13.4708 7.18674 13.4022 7.20587 13.3194C7.22495 13.2364 7.20291 13.1494 7.14662 13.0856L4.05331 9.57722ZM3.38812 14.4599L2.15213 13.0049L3.89262 10.193L6.50722 13.1582L3.38812 14.4599Z" fill="white"/>
<path d="M6.24322 11.0505C6.30578 11.0505 6.36861 11.0284 6.41894 10.9834L6.79579 10.6468C6.90451 10.5496 6.9139 10.3828 6.81682 10.2742C6.71967 10.1655 6.55283 10.1561 6.44422 10.2532L6.06738 10.5898C5.95865 10.6869 5.94927 10.8538 6.04634 10.9624C6.09846 11.0208 6.17068 11.0505 6.24322 11.0505Z" fill="white"/>
<path d="M7.80008 11.8603L7.30574 11.9649C7.16317 11.9951 7.07202 12.1351 7.10217 12.2777C7.12846 12.4019 7.23804 12.487 7.36009 12.487C7.37816 12.487 7.39659 12.4851 7.41497 12.4812L7.90931 12.3766C8.05188 12.3464 8.143 12.2063 8.11284 12.0638C8.08273 11.9211 7.94269 11.8299 7.80008 11.8603Z" fill="white"/>
<path d="M4.94351 9.77487C4.97826 9.79029 5.01456 9.79758 5.05024 9.79758C5.15145 9.79758 5.24802 9.73899 5.29164 9.64051L5.49635 9.17851C5.55541 9.04521 5.49526 8.88935 5.362 8.83033C5.22869 8.77124 5.07288 8.83142 5.01382 8.96469L4.80911 9.42669C4.7501 9.55995 4.81024 9.71581 4.94351 9.77487Z" fill="white"/>
<path d="M16.2367 7.39966C16.0064 7.02196 15.717 6.68695 15.3767 6.40398C15.2645 6.31065 15.0983 6.32608 15.0051 6.43823C14.9119 6.55026 14.9272 6.71659 15.0393 6.80981C15.3074 7.03271 15.5386 7.29312 15.7286 7.58439C15.0541 8.33968 14.2718 8.91601 13.3481 9.33649V9.21031C13.3481 7.91632 12.7775 6.69977 11.7826 5.87237C11.6704 5.77907 11.504 5.7945 11.4109 5.90661C11.3177 6.01861 11.333 6.18498 11.4451 6.27824C12.3191 7.00494 12.8203 8.07369 12.8203 9.21031V9.6752C12.8203 9.68548 12.8222 9.69514 12.8233 9.70511C12.8183 9.7473 12.8222 9.79109 12.8389 9.83339C12.88 9.93689 12.9793 10 13.0843 10C13.1167 10 13.1496 9.994 13.1815 9.9813C14.38 9.5059 15.3674 8.80826 16.2002 7.84858C16.2556 7.78477 16.2738 7.70219 16.2589 7.62529C16.2845 7.55283 16.2798 7.47029 16.2367 7.39966Z" fill="white"/>
<path d="M14.1013 1.61076C14.23 1.58443 14.3623 1.57107 14.4948 1.57107C15.5709 1.57107 16.4462 2.44646 16.4462 3.52246C16.4462 4.5985 15.5709 5.47389 14.4948 5.47389C14.0877 5.47389 13.6978 5.34986 13.3671 5.11531C13.2483 5.03094 13.0836 5.05899 12.9992 5.1778C12.9149 5.29661 12.9429 5.46139 13.0617 5.54572C13.4821 5.84396 13.9777 6.00161 14.4948 6.00161C15.8619 6.00161 16.974 4.88945 16.974 3.52242C16.974 2.15543 15.8619 1.04327 14.4948 1.04327C14.3269 1.04327 14.1589 1.06022 13.9955 1.09372C13.8527 1.12294 13.7607 1.26239 13.7899 1.40516C13.8191 1.54797 13.9583 1.64021 14.1013 1.61076Z" fill="white"/>
<path d="M10.8378 5.39355C12.3124 5.39355 13.512 4.19391 13.512 2.71936C13.512 1.24481 12.3124 0.045166 10.8378 0.045166C9.3633 0.045166 8.16365 1.24481 8.16365 2.71936C8.16365 4.19391 9.3633 5.39355 10.8378 5.39355ZM10.8378 0.572923C12.0214 0.572923 12.9843 1.53584 12.9843 2.71936C12.9843 3.90288 12.0214 4.8658 10.8378 4.8658C9.65429 4.8658 8.69141 3.90288 8.69141 2.71936C8.69141 1.53584 9.65429 0.572923 10.8378 0.572923Z" fill="white"/>
<path d="M11.4382 9.92208C10.5618 10.0164 9.67477 9.89988 8.85536 9.58594V9.21023C8.85536 8.07361 9.35659 7.00489 10.2306 6.27815C10.3426 6.18489 10.358 6.01852 10.2647 5.90649C10.1717 5.79449 10.0052 5.77914 9.89315 5.87228C8.89821 6.69964 8.3276 7.91623 8.3276 9.21023V9.35327C7.42915 8.91861 6.65147 8.34921 6.01304 7.65594C6.21093 7.33581 6.45732 7.05124 6.74764 6.80977C6.85972 6.71655 6.87499 6.55013 6.78181 6.4381C6.68859 6.32611 6.52225 6.31084 6.41018 6.40394C6.04354 6.70887 5.73705 7.07283 5.49919 7.48574C5.44442 7.58075 5.45556 7.69559 5.5182 7.77767C5.51364 7.84662 5.53557 7.91721 5.58567 7.9724C6.34462 8.80895 7.28787 9.4794 8.38907 9.96524C9.16263 10.3065 10.0002 10.4817 10.8434 10.4817C11.0604 10.4817 11.2779 10.4701 11.4947 10.4467C11.6396 10.4311 11.7443 10.301 11.7288 10.1561C11.7132 10.0112 11.5828 9.90677 11.4382 9.92208Z" fill="white"/>
<path d="M7.29211 6.00165C7.80927 6.00165 8.30485 5.844 8.72521 5.54577C8.84406 5.46143 8.87207 5.29665 8.78773 5.17784C8.70336 5.05899 8.53869 5.03102 8.41977 5.11536C8.08916 5.3499 7.69918 5.47394 7.29207 5.47394C6.21603 5.47394 5.34068 4.59855 5.34068 3.52251C5.34068 2.4465 6.21603 1.57111 7.29207 1.57111C7.42451 1.57111 7.55692 1.58448 7.68559 1.61081C7.82863 1.64038 7.96785 1.54797 7.99703 1.40528C8.02625 1.26252 7.93424 1.12306 7.79147 1.09384C7.62805 1.06034 7.46 1.0434 7.29207 1.0434C5.92504 1.0434 4.81288 2.15555 4.81288 3.52254C4.81292 4.8895 5.92504 6.00165 7.29211 6.00165Z" fill="white"/>
</svg>
