<svg width="500" height="500" viewBox="0 0 500 500" fill="none" xmlns="http://www.w3.org/2000/svg">
<g filter="url(#filter0_d)">
<path d="M160.319 89.5778L339.076 89.5778C346.73 89.5778 353.694 94.039 356.796 100.929L421.771 245.253C424.868 252.133 424.766 259.968 421.491 266.71L356.831 399.829C353.684 406.308 347.022 410.422 339.675 410.422L160.549 410.422C153.087 410.422 146.261 406.179 143.05 399.545L74.4176 257.746C71.9331 252.613 71.9279 246.678 74.4036 241.586L143.167 100.165C146.316 93.6885 152.976 89.5778 160.319 89.5778Z" fill="white"/>
</g>
<g filter="url(#filter1_d)">
<path d="M388.199 60.961L388.742 60.961C392.005 60.961 394.975 62.8631 396.297 65.8007L396.361 65.9418C397.641 68.7858 397.599 72.0242 396.245 74.811C394.944 77.4895 392.191 79.1899 389.154 79.1899L388.394 79.1899C384.838 79.1899 381.572 77.1401 380.041 73.9783C378.846 71.509 378.833 68.6327 380.024 66.1834L380.147 65.9306C381.625 62.8906 384.752 60.961 388.199 60.961Z" fill="#33A8FF"/>
<path d="M388.199 60.961L388.742 60.961C392.005 60.961 394.975 62.8631 396.297 65.8007L396.361 65.9418C397.641 68.7858 397.599 72.0242 396.245 74.811C394.944 77.4895 392.191 79.1899 389.154 79.1899L388.394 79.1899C384.838 79.1899 381.572 77.1401 380.041 73.9783C378.846 71.509 378.833 68.6327 380.024 66.1834L380.147 65.9306C381.625 62.8906 384.752 60.961 388.199 60.961Z" fill="#BDDEF7"/>
</g>
<g clip-path="url(#clip0)">
<path opacity="0.1" d="M374.73 210.249C374.686 210.459 374.643 210.668 374.594 210.875C373.05 217.994 370.526 224.855 366.774 231.155C366.649 231.364 366.524 231.574 366.397 231.783C363.923 235.836 360.963 239.572 357.582 242.908C355.713 244.753 353.674 246.506 351.25 247.77C347.853 249.544 343.882 250.264 339.979 250.853C335.925 251.467 331.815 251.98 327.717 252.533C326.261 252.726 324.813 252.931 323.374 253.147C319.415 253.733 315.484 254.411 311.647 255.31C306.903 256.419 302.306 257.871 297.963 259.914C297.616 260.07 297.273 260.237 296.934 260.412C296.596 260.582 296.254 260.754 295.92 260.928C295.586 261.102 295.256 261.276 294.929 261.455C294.759 261.547 294.59 261.639 294.423 261.735C294.256 261.832 294.091 261.916 293.928 262.01C293.439 262.283 292.959 262.563 292.478 262.846L292.46 262.858C292.142 263.044 291.829 263.234 291.518 263.425C289.743 264.503 288.006 265.628 286.269 266.76L285.176 267.466L283.484 268.56C283.154 268.774 282.818 268.988 282.486 269.2C282.251 269.355 282.015 269.511 281.759 269.671C280.525 270.447 279.275 271.21 277.992 271.937C277.689 272.111 277.383 272.285 277.074 272.455C274.482 273.901 271.772 275.123 268.972 276.107L268.934 276.122C267.526 276.613 266.089 277.018 264.631 277.336C263.791 277.519 262.948 277.67 262.096 277.785C259.818 278.108 257.508 278.141 255.222 277.882C250.733 277.362 246.527 275.639 242.04 275.058C232.803 273.881 223.832 277.672 215.146 280.642C213.011 281.372 210.859 282.055 208.692 282.692C207.251 283.118 205.806 283.521 204.349 283.909C195.422 286.267 186.311 287.865 177.114 288.684C173.269 289.061 169.401 289.147 165.544 288.941C164.077 288.851 162.627 288.705 161.203 288.47C156.33 287.717 151.787 286.138 148.12 283.245C145.116 280.871 142.967 277.776 141.331 274.538C139.656 271.233 138.474 267.702 137.821 264.056C137.732 263.559 137.652 263.06 137.586 262.561C137.468 261.708 137.38 260.849 137.322 259.986C137.006 255.387 137.555 250.769 138.942 246.372C140.495 241.449 143.085 236.723 144.224 231.762C144.271 231.552 144.316 231.342 144.358 231.133C144.514 230.38 144.629 229.619 144.704 228.853C145.286 222.758 143.057 216.815 141.308 210.854C141.246 210.647 141.185 210.437 141.126 210.228C140.938 209.566 140.757 208.905 140.585 208.244C138.965 201.942 138.516 195.194 139.959 188.904C140.003 188.694 140.058 188.485 140.109 188.278C141.075 184.301 142.892 180.581 145.434 177.374C148.136 173.985 151.684 171.164 155.474 168.685C157.321 167.477 159.231 166.348 161.203 165.299C162.616 164.546 164.062 163.833 165.544 163.16C177.42 157.747 190.967 155.104 204.363 155.687C205.069 155.718 205.775 155.756 206.481 155.807C207.188 155.859 207.96 155.92 208.699 155.989C217.328 156.826 225.725 158.848 234.063 161.058C236.857 161.799 239.646 162.559 242.433 163.305C243.674 163.635 244.912 163.964 246.153 164.284C252.228 165.854 258.393 167.276 264.636 168.337C266.081 168.587 267.528 168.814 268.977 169.02C274.006 169.759 279.075 170.188 284.157 170.307C286.133 170.346 288.11 170.329 290.087 170.255C291.085 170.219 292.084 170.165 293.083 170.093C303.406 169.366 313.382 166.932 323.374 164.659C324.819 164.329 326.267 164.004 327.717 163.684C329.619 163.265 331.521 162.861 333.433 162.486C345.327 160.15 355.929 161.493 366.988 166.315C369.502 167.41 372.014 168.732 373.553 170.787C375.093 172.842 375.479 175.364 375.766 177.8C376.173 181.269 376.439 184.783 376.54 188.315C376.54 188.522 376.541 188.732 376.555 188.941C376.715 196.077 376.183 203.281 374.73 210.249Z" fill="#48D6FF"/>
<path opacity="0.1" d="M295.831 231.155H295.054V231.432V231.783H295.934L295.831 231.155ZM287.02 231.155C287.019 231.16 287.019 231.166 287.02 231.171C286.998 231.343 286.975 231.515 286.951 231.689V231.736V231.783H293.684V231.745L294.155 231.155H287.02ZM268.977 231.155V210.875H276.721C276.639 210.821 276.554 210.765 276.467 210.713L276.354 210.64L276.208 210.55C276.123 210.501 276.038 210.452 275.949 210.405C275.86 210.357 275.805 210.325 275.73 210.285L275.678 210.256H275.667H268.977V209.138L268.795 209.209L268.605 209.298H268.591L268.551 209.32L268.431 209.383L268.31 209.447C268.193 209.51 268.075 209.581 267.957 209.654L267.844 209.729L267.609 209.88C267.305 210.082 267.006 210.294 266.698 210.492C266.62 210.541 266.543 210.59 266.463 210.635C266.295 210.734 266.124 210.828 265.947 210.913C265.872 210.951 265.799 210.983 265.712 211.014L265.585 211.063L265.467 211.104C265.191 211.2 264.907 211.274 264.619 211.325V231.15H253.007C253.007 231.174 253.024 231.192 253.031 231.216C253.094 231.404 253.158 231.59 253.219 231.778H264.636V253.515C264.696 253.515 264.754 253.515 264.812 253.515L265.017 253.526L265.387 253.548L265.978 253.618L266.248 253.644L266.543 253.675H266.587L267.108 253.738L267.218 253.752L267.47 253.788L267.83 253.839L268.694 253.802L268.812 253.823C268.859 253.823 268.908 253.837 268.958 253.846V231.783H286.928V231.736V231.689C286.951 231.515 286.975 231.343 286.996 231.171C286.995 231.166 286.995 231.16 286.996 231.155H268.977ZM295.831 231.155H295.054V231.432V231.783H295.934L295.831 231.155ZM286.535 231.155C286.507 231.364 286.481 231.574 286.452 231.783H293.959L294.47 231.155H286.535ZM268.977 231.155V210.875H276.721C276.639 210.821 276.554 210.765 276.467 210.713L276.354 210.64L276.208 210.55C276.123 210.501 276.038 210.452 275.949 210.405C275.86 210.357 275.805 210.325 275.73 210.285L275.678 210.256H275.662H268.977V209.138L268.795 209.209L268.605 209.298H268.591L268.551 209.32L268.431 209.383L268.31 209.447C268.193 209.51 268.075 209.581 267.957 209.654L267.844 209.729L267.609 209.88C267.305 210.082 267.006 210.294 266.698 210.492C266.62 210.541 266.543 210.59 266.463 210.635C266.295 210.734 266.124 210.828 265.947 210.913C265.872 210.951 265.799 210.983 265.712 211.014L265.585 211.063L265.467 211.104C265.191 211.2 264.907 211.274 264.619 211.325V231.15H253.007C253.007 231.174 253.024 231.192 253.031 231.216C253.094 231.402 253.16 231.59 253.222 231.778H264.636V253.512H264.812L265.017 253.524L265.387 253.545L265.978 253.618L266.248 253.644L266.543 253.675H266.587L267.108 253.738L267.218 253.752L267.47 253.788L267.83 253.839L268.694 253.802L268.812 253.823C268.859 253.823 268.908 253.837 268.958 253.846V231.783H286.457C286.485 231.574 286.511 231.364 286.539 231.155H268.977ZM327.717 188.925H376.555C376.555 188.715 376.555 188.506 376.541 188.299H327.717V163.677C326.267 163.991 324.819 164.316 323.374 164.652V188.299H270.26L270.125 188.179L270.328 188L290.085 170.25C288.107 170.326 286.131 170.343 284.155 170.302L268.974 183.938V169.02C267.524 168.814 266.077 168.587 264.634 168.337V183.251L242.438 163.305C239.651 162.559 236.862 161.799 234.067 161.058L264.252 188.179L264.118 188.299H208.706V156.01C207.967 155.941 207.228 155.88 206.489 155.829C205.782 155.777 205.076 155.739 204.37 155.709V188.299H165.544V163.181C164.078 163.852 162.631 164.565 161.203 165.32V188.299H140.109C140.058 188.506 140.003 188.715 139.959 188.925H161.203V210.249H141.126C141.185 210.459 141.246 210.668 141.308 210.875H161.203V231.155H144.358C144.316 231.363 144.271 231.573 144.224 231.783H161.203V288.484C162.616 288.703 164.077 288.856 165.544 288.955V231.783H204.363V283.918C205.82 283.53 207.265 283.128 208.706 282.702V231.783H264.636V277.334C266.093 277.016 267.53 276.61 268.939 276.119L268.977 276.105V231.783H323.374V253.147C324.818 252.936 326.266 252.732 327.717 252.538V231.783H366.397C366.524 231.574 366.649 231.364 366.774 231.155H327.717V210.875H374.594C374.643 210.668 374.686 210.459 374.73 210.249H327.717V188.925ZM165.544 188.925H204.363V210.249H165.544V188.925ZM165.544 231.155V210.875H204.363V231.155H165.544ZM208.706 188.925H264.636V210.249H208.706V188.925ZM208.706 231.155V210.875H264.636V231.155H208.706ZM323.374 231.155H268.977V210.875H323.374V231.155ZM323.374 210.249H268.977V189.497L269.739 188.925H323.374V210.249ZM287.02 231.155C287.019 231.16 287.019 231.166 287.02 231.171C286.998 231.343 286.975 231.515 286.951 231.689V231.736V231.783H293.684V231.745L294.155 231.155H287.02ZM295.831 231.155H295.054V231.432V231.783H295.934L295.831 231.155ZM268.977 231.155V210.875H276.721C276.639 210.821 276.554 210.765 276.467 210.713L276.354 210.64L276.208 210.55C276.123 210.501 276.038 210.452 275.949 210.405C275.86 210.357 275.805 210.325 275.73 210.285L275.678 210.256H275.667H268.977V209.138L268.795 209.209L268.605 209.298H268.591L268.551 209.32L268.431 209.383L268.31 209.447C268.193 209.51 268.075 209.581 267.957 209.654L267.844 209.729L267.609 209.88C267.305 210.082 267.006 210.294 266.698 210.492C266.62 210.541 266.543 210.59 266.463 210.635C266.295 210.734 266.124 210.828 265.947 210.913C265.872 210.951 265.799 210.983 265.712 211.014L265.585 211.063L265.467 211.104C265.191 211.2 264.907 211.274 264.619 211.325V231.15H253.007C253.007 231.174 253.024 231.192 253.031 231.216C253.094 231.404 253.158 231.59 253.219 231.778H264.636V253.515C264.696 253.515 264.754 253.515 264.812 253.515L265.017 253.526L265.387 253.548L265.978 253.618L266.248 253.644L266.543 253.675H266.587L267.108 253.738L267.218 253.752L267.47 253.788L267.83 253.839L268.694 253.802L268.812 253.823C268.859 253.823 268.908 253.837 268.958 253.846V231.783H286.928V231.736V231.689C286.951 231.515 286.975 231.343 286.996 231.171C286.995 231.166 286.995 231.16 286.996 231.155H268.977Z" fill="#2EA5FC"/>
<path opacity="0.1" d="M184.208 174.244H184.545C184.434 174.197 184.337 174.122 184.265 174.025C184.193 173.929 184.147 173.815 184.133 173.696V173.696C184.133 173.263 184.78 172.91 185.571 172.91H195.637C196.428 172.91 197.073 173.263 197.073 173.696C197.073 174.127 196.428 174.482 195.637 174.482H195.3C195.411 174.528 195.508 174.603 195.58 174.699C195.653 174.795 195.698 174.908 195.712 175.028C195.712 175.397 195.241 175.708 194.613 175.79H197.511C198.299 175.79 198.946 176.143 198.946 176.576C198.946 177.009 198.299 177.362 197.511 177.362H187.443C186.654 177.362 186.007 177.007 186.007 176.576C186.007 176.207 186.478 175.899 187.106 175.814H184.208C183.417 175.814 182.772 175.461 182.772 175.028C182.772 174.595 183.417 174.244 184.208 174.244Z" fill="#33A8FF"/>
<path opacity="0.1" d="M293.3 181.721H293.637C293.526 181.674 293.43 181.598 293.358 181.502C293.286 181.406 293.241 181.292 293.227 181.173V181.173C293.227 180.74 293.872 180.387 294.663 180.387H304.729C305.519 180.387 306.167 180.74 306.167 181.173C306.167 181.603 305.519 181.956 304.729 181.956H304.394C304.505 182.004 304.601 182.079 304.673 182.175C304.745 182.272 304.79 182.385 304.804 182.505C304.804 182.874 304.333 183.185 303.705 183.267H306.602C307.393 183.267 308.038 183.62 308.038 184.053C308.038 184.486 307.393 184.839 306.602 184.839H296.537C295.746 184.839 295.098 184.484 295.098 184.053C295.098 183.684 295.569 183.373 296.198 183.291H293.3C292.511 183.291 291.864 182.938 291.864 182.505C291.864 182.072 292.511 181.721 293.3 181.721Z" fill="#33A8FF"/>
<path opacity="0.1" d="M168.759 213.718H169.094C168.983 213.671 168.887 213.596 168.815 213.499C168.743 213.403 168.698 213.289 168.684 213.17V213.17C168.684 212.739 169.331 212.384 170.12 212.384H180.188C180.976 212.384 181.624 212.739 181.624 213.17C181.624 213.603 180.976 213.956 180.188 213.956H179.851C179.962 214.002 180.058 214.077 180.13 214.173C180.202 214.269 180.247 214.383 180.261 214.502C180.261 214.871 179.79 215.182 179.162 215.264H182.059C182.85 215.264 183.498 215.62 183.498 216.05C183.498 216.481 182.85 216.836 182.059 216.836H172.003C171.212 216.836 170.567 216.483 170.567 216.05C170.567 215.683 171.038 215.373 171.667 215.288H168.759C167.969 215.288 167.321 214.935 167.321 214.502C167.321 214.069 167.978 213.718 168.759 213.718Z" fill="#33A8FF"/>
<path opacity="0.1" d="M358.288 297.583C359.979 289.311 339.277 278.095 312.049 272.532C284.82 266.969 261.376 269.165 259.685 277.437C257.995 285.71 278.697 296.925 305.925 302.489C333.154 308.052 356.598 305.856 358.288 297.583Z" fill="#004C62"/>
<path d="M303.302 244.579C303.302 244.579 305.978 231.444 316.197 232.661C316.197 232.661 323.259 233.146 324.711 237.768V247.984L303.302 244.579Z" fill="#3A3768"/>
<path d="M359.262 249.445L268.266 241.903L256.588 244.336L257.317 260.634L258.113 260.73L259.019 285.203L348.312 301.256L357.803 293.229V266.698L359.018 265.985L359.262 249.445Z" fill="#FFCEB4"/>
<path opacity="0.05" d="M359.385 249.445L359.14 265.985L349.286 270.607L349.164 253.336L359.385 249.445Z" fill="black"/>
<path opacity="0.05" d="M357.803 266.715L357.923 292.744L348.434 300.771L349.044 270.608L357.803 266.715Z" fill="black"/>
<path opacity="0.05" d="M258.235 261.704L349.117 272.791L349.164 270.687L258.167 260.876L258.235 261.704Z" fill="black"/>
<path opacity="0.05" d="M357.803 267.67V266.715L348.799 270.688V272.796L357.803 267.67Z" fill="black"/>
<path d="M256.465 244.336L268.143 241.903L359.14 249.445L348.922 253.336L256.465 244.336Z" fill="#FEA87B"/>
<path opacity="0.1" d="M349.447 249.914L353.912 250.206L346.511 252.42L342.742 252.15L349.447 249.914Z" fill="black"/>
<path d="M349.447 249.719L353.912 250.01L346.511 252.227L342.742 251.954L349.447 249.719Z" fill="white"/>
<path d="M348.912 250.22C349.089 250.144 349.275 250.288 349.463 250.323C349.571 250.344 349.682 250.323 349.79 250.344C350.009 250.373 350.226 250.519 350.435 250.446" fill="#D3DAE1"/>
<path d="M348.682 250.354C348.856 250.278 349.044 250.42 349.232 250.457C349.341 250.476 349.451 250.457 349.56 250.476C349.778 250.507 349.995 250.653 350.205 250.58" fill="#D3DAE1"/>
<path d="M348.15 250.622C348.326 250.547 348.514 250.688 348.703 250.723C348.809 250.745 348.922 250.723 349.028 250.745C349.249 250.775 349.465 250.921 349.673 250.846" fill="#D3DAE1"/>
<path opacity="0.1" d="M330.144 247.716L334.61 248.01L327.209 250.224L323.44 249.951L330.144 247.716Z" fill="black"/>
<path d="M330.144 247.523L334.61 247.815L327.209 250.029L323.44 249.758L330.144 247.523Z" fill="white"/>
<path d="M329.61 248.024C329.786 247.949 329.972 248.09 330.161 248.128C330.269 248.146 330.379 248.128 330.488 248.146C330.707 248.177 330.923 248.323 331.133 248.25" fill="#D3DAE1"/>
<path d="M329.379 248.158C329.553 248.083 329.742 248.224 329.93 248.259C330.038 248.281 330.149 248.259 330.257 248.281C330.476 248.311 330.693 248.457 330.902 248.382" fill="#D3DAE1"/>
<path d="M328.847 248.424C329.024 248.349 329.212 248.492 329.4 248.528C329.506 248.549 329.619 248.528 329.725 248.549C329.946 248.577 330.163 248.725 330.37 248.65" fill="#D3DAE1"/>
<path opacity="0.1" d="M339.402 248.815L343.87 249.107L336.469 251.323L332.698 251.05L339.402 248.815Z" fill="black"/>
<path d="M339.402 248.622L343.87 248.914L336.469 251.128L332.698 250.855L339.402 248.622Z" fill="white"/>
<path d="M338.868 249.123C339.044 249.048 339.233 249.189 339.421 249.224C339.527 249.245 339.638 249.224 339.746 249.245C339.965 249.274 340.184 249.422 340.391 249.347" fill="#D3DAE1"/>
<path d="M338.637 249.255C338.814 249.18 339.002 249.323 339.19 249.358C339.296 249.38 339.407 249.358 339.515 249.38C339.734 249.408 339.953 249.556 340.16 249.481" fill="#D3DAE1"/>
<path d="M338.108 249.523C338.282 249.448 338.47 249.589 338.658 249.627C338.767 249.645 338.877 249.627 338.986 249.645C339.205 249.676 339.421 249.822 339.631 249.749" fill="#D3DAE1"/>
<path opacity="0.1" d="M238.302 340.245C264.626 340.245 285.965 335.854 285.965 330.436C285.965 325.019 264.626 320.627 238.302 320.627C211.979 320.627 190.639 325.019 190.639 330.436C190.639 335.854 211.979 340.245 238.302 340.245Z" fill="#004C62"/>
<path d="M290.496 250.109C289.988 245.642 287.975 241.38 287.975 241.38L288.128 239.874C288.128 239.874 288.161 239.121 288.112 237.991C288.117 237.286 288.21 236.584 288.387 235.901C288.799 234.595 287.872 232.99 287.768 232.842C287.665 232.694 287.82 229.83 286.892 228.425C285.965 227.02 279.788 224.407 279.788 224.407C279.788 224.407 279.456 223.713 278.988 222.901L279.03 222.819C278.647 222.124 278.172 221.483 277.618 220.915C277.239 220.51 276.874 220.279 276.58 220.392C276.46 220.002 276.369 219.603 276.307 219.199C276.368 219.216 276.432 219.232 276.493 219.244C276.748 219.303 277.012 219.309 277.27 219.263C277.844 219.133 278.225 218.618 278.545 218.133C280.141 215.709 281.516 213.05 281.796 210.181C281.871 209.595 281.844 209.001 281.714 208.425C281.581 207.977 281.396 207.547 281.163 207.143C280.75 206.313 280.228 205.543 279.609 204.853C278.51 203.695 276.994 202.986 275.436 202.568C273.68 202.096 271.851 201.959 270.045 202.165C269.574 202.219 269.104 202.297 268.633 202.328C268.036 202.354 267.437 202.344 266.842 202.297L263.76 202.118L263.746 202.071L263.233 202.04C263.03 202.443 263.233 202.921 263.485 203.297C263.737 203.674 264.026 204.067 264.005 204.511C263.984 204.956 263.661 205.314 263.409 205.688C263.158 206.062 262.967 206.552 263.219 206.919C263.254 206.97 263.296 207.016 263.344 207.056C263.61 207.331 264.073 207.361 264.476 207.357H264.546C263.533 208.692 262.984 210.322 262.986 211.998C262.993 213.43 263.393 214.833 264.145 216.052C264.896 217.272 265.968 218.261 267.244 218.912C267.289 219.065 267.333 219.223 267.376 219.383C267.842 221.036 268.01 222.759 267.87 224.471L267.816 224.589L267.783 224.464C267.783 224.464 264.153 226.926 263.075 227.577C261.997 228.229 260.914 230.439 260.862 231.042C260.811 231.644 259.111 240.731 259.111 240.731C258.766 241.646 258.481 242.583 258.259 243.536L256.091 245.44C256.091 245.44 251.618 245.842 250.324 245.541L250.361 245.791C249.22 245.53 248.057 245.372 246.887 245.32C246.248 245.238 245.599 245.325 245.004 245.572L244.959 245.593L244.924 245.609C244.242 245.702 243.577 245.889 242.947 246.165C242.871 246.195 242.803 246.226 242.737 246.257L242.751 245.948L237.911 245.699L235.44 245.197C235.44 245.197 234.564 244.491 234.049 244.595C233.533 244.699 232.453 243.993 232.453 243.993C232.206 243.799 231.939 243.634 231.657 243.498C231.575 242.929 231.523 242.583 231.523 242.583C231.523 242.583 229.6 234.953 228.159 230.467C227.194 227.471 225.805 225.996 224.986 225.353C224.621 224.718 224.381 224.308 224.381 224.308C224.223 223.758 223.357 222.518 223.136 222.487C223.1 222.43 223.074 222.402 223.06 222.402C223.013 222.397 222.965 222.404 222.921 222.423C222.517 220.409 222.281 217.884 222.9 215.683C223.748 214.987 224.431 214.112 224.9 213.121C225.37 212.13 225.615 211.047 225.617 209.95C225.617 209.917 225.617 209.884 225.617 209.851C225.617 209.818 225.617 209.783 225.617 209.75C225.616 208.001 224.997 206.309 223.868 204.973L223.788 204.883C223.809 204.868 223.83 204.852 223.849 204.834C224.026 204.69 224.161 204.502 224.239 204.288C224.317 204.074 224.336 203.843 224.294 203.62C224.188 203.168 223.835 202.812 223.654 202.384C223.545 202.054 223.457 201.718 223.392 201.377C223.254 200.892 222.999 200.449 222.651 200.085L222.686 200.179C221.763 199.141 220.177 198.626 218.748 198.856C217.686 199.026 216.698 199.52 215.631 199.673C214.866 199.781 214.087 199.711 213.317 199.788C212.603 199.862 211.908 200.062 211.265 200.381C211.097 200.453 210.948 200.562 210.829 200.701C210.72 200.888 210.646 201.093 210.613 201.306C210.351 202.259 209.523 202.939 208.922 203.735C208.237 204.644 207.84 205.737 207.783 206.874C207.76 207.163 207.788 207.454 207.866 207.733C207.917 207.9 207.997 208.058 208.035 208.228C208.153 208.745 207.882 209.261 207.75 209.774C207.584 210.428 207.643 211.12 207.917 211.737C208.847 213.817 211.9 214.511 212.536 216.695C213.022 216.919 213.536 217.077 214.064 217.166C214.106 217.382 214.144 217.601 214.174 217.822C214.16 217.829 214.146 217.836 214.134 217.846C213.31 218.649 213.105 220.199 213.105 220.199L213.007 220.279C212.67 220.557 211.519 221.489 210.478 222.207C209.243 223.061 207.183 225.923 205.742 226.777C204.302 227.632 203.115 232.896 203.426 234.809C203.737 236.723 205.022 242.089 204.506 244.047C203.991 246.005 205.279 254.941 205.279 254.941C206.143 255.105 206.988 255.356 207.802 255.689L207.776 256.08L207.698 257.256C207.698 257.256 205.366 265.691 206.258 272.184C207.15 278.677 205.846 279.346 205.846 279.346C205.846 279.346 206.119 282.224 205.434 283.229C204.749 284.234 204.61 286.441 204.61 286.441C204.61 286.441 204.542 291.395 204.678 292.795C204.815 294.196 204.883 296.747 204.403 297.349C203.923 297.952 203.031 301.899 203.099 303.103C203.167 304.308 201.383 307.055 202.343 310.601C203.304 314.148 199.518 314.216 199.518 314.216C199.518 314.216 200.001 319.629 201.03 321.178L201.18 321.399C201.154 321.488 201.129 321.583 201.1 321.684C200.712 323.096 200.18 325.324 200.549 325.863C201.098 326.668 201.373 326.532 201.373 326.532L201.578 330.147C201.578 330.147 205.698 333.627 208.857 333.496C212.016 333.364 211.396 330.147 211.396 330.147L208.706 323.171L208.614 322.936L211.604 317.288C211.604 317.288 212.428 314.812 212.632 313.941C212.837 313.07 213.955 309.985 213.955 309.985C213.955 309.985 216.78 303.292 216.839 302.487C216.898 301.682 217.114 297.335 217.663 296.462C218.211 295.589 219.722 290.579 219.722 290.579L219.76 290.612C220.016 290.863 220.2 291.18 220.29 291.528C220.38 291.876 220.375 292.241 220.273 292.586C219.927 293.857 220.134 296.467 220.134 296.467C220.134 296.467 219.998 298.677 219.722 299.816C219.447 300.955 219.381 310.258 219.861 312.465C220.245 314.233 220.233 317.542 220.214 318.794C219.892 320.123 219.609 321.776 220.134 321.971C221.029 322.307 225.56 322.239 225.56 322.239C225.56 322.239 227.481 321.568 230.092 323.912C232.702 326.256 240.731 323.244 240.731 323.244C240.731 323.244 243.203 322.573 238.328 320.634C234.927 319.281 232.73 318.38 231.294 317.415C231.327 317.351 231.363 317.288 231.393 317.219C231.393 317.219 229.402 315.337 231.05 311.999C232.697 308.662 232.629 305.841 232.629 305.841L232.905 294.593L232.081 279.663L231.443 263.994L231.556 263.957C231.664 266.837 232.227 273.695 235.171 272.365C238.879 270.692 235.72 266.341 235.72 266.341L234.056 263.098L234.552 262.928L232.69 256.913C232.512 255.739 232.488 254.546 232.62 253.366C232.657 252.676 232.642 251.984 232.577 251.295C235.016 250.869 237.351 250.417 237.77 250.521C238.265 250.641 241.03 250.664 242.118 250.669C241.762 250.947 241.478 251.222 241.478 251.222L245.905 254.202C245.905 254.202 247.407 253.38 247.72 252.51C248.028 252.432 248.313 252.28 248.549 252.067C248.596 253.096 248.869 254.209 249.82 254.235C250.058 254.24 250.294 254.193 250.512 254.098L257.753 252.665L257.131 256.546L257.565 257.315C257.346 260.589 257.094 264.065 256.873 267.122L256.771 267.79L256.823 267.802C256.479 272.509 256.204 276.074 256.204 276.074C256.61 275.302 257.239 274.669 258.009 274.26L258.057 281.245C258.057 281.245 258.419 292.289 258.419 293.796C258.419 295.302 258.468 298.665 258.468 298.665C258.468 298.665 259.243 302.781 259.704 304.137C260.166 305.492 260.528 311.668 260.528 311.668C260.528 311.668 261.611 313.374 261.147 314.021C260.684 314.668 262.95 316.078 262.95 316.078C262.95 316.078 261.507 318.036 261.404 319.342C261.392 319.493 261.54 319.653 261.809 319.813C261.724 319.881 261.637 319.949 261.54 320.015C260.872 320.462 259.893 320.773 258.419 320.646C254.401 320.293 251.569 324.009 254.041 324.762C256.512 325.515 263.927 325.666 263.927 325.666C263.927 325.666 266.173 324.265 267.929 324.896C267.903 326.369 267.976 327.72 267.988 327.899L267.967 327.916C266.917 328.857 264.907 330.476 262.943 331.137C260.119 332.091 259.492 335.957 263.148 336.459C266.804 336.96 272.159 335.856 272.159 335.856C272.159 335.856 274.939 333.799 277.051 333.347C279.162 332.895 280.965 331.891 280.605 330.686C280.37 329.916 279.765 327.899 279.355 326.544C279.332 326.462 279.308 326.384 279.285 326.308C279.348 326.167 279.412 326.021 279.47 325.871C279.47 325.871 278.39 320.248 279.266 318.843C280.141 317.438 279.678 303.379 279.678 303.379C279.678 303.379 278.183 299.816 278.957 297.658C279.732 295.5 277.721 292.435 277.721 292.435C277.721 292.435 277.94 286.295 278.529 282.873C278.556 282.728 278.581 282.586 278.607 282.45C279.592 282.157 280.552 281.787 281.478 281.341C281.478 281.341 281.994 273.608 282.302 271.852C282.333 271.688 282.375 271.422 282.427 271.076L282.662 269.835L282.94 268.423L283.882 263.611L285.581 261.413L289.96 256.941C289.96 256.941 291.012 254.578 290.496 250.109ZM222.976 222.496L222.943 222.52C222.938 222.503 222.934 222.486 222.931 222.468C222.945 222.479 222.96 222.489 222.976 222.496V222.496ZM266.234 227.977L266.065 228.347L266.684 227.73L265.843 228.672L266.126 228.079L266.234 227.977ZM262.054 236.615C261.891 237.045 261.717 237.511 261.536 237.996L261.868 237.005L262.054 236.615Z" fill="url(#paint0_linear)"/>
<path d="M248.544 250.695C248.544 250.695 247.968 254.534 249.698 254.583C251.428 254.632 252.584 251.622 252.584 251.622L251.877 249.215L248.544 250.695Z" fill="#585B8A"/>
<path opacity="0.2" d="M248.544 250.695C248.544 250.695 247.968 254.534 249.698 254.583C251.428 254.632 252.584 251.622 252.584 251.622L251.877 249.215L248.544 250.695Z" fill="black"/>
<path d="M209.791 333.78C206.712 333.915 202.696 330.436 202.696 330.436L202.496 326.824C202.496 326.824 202.23 326.958 201.694 326.155C201.333 325.616 201.851 323.383 202.23 321.978C202.414 321.291 202.565 320.801 202.565 320.801L209.32 322.609L209.643 323.463L212.265 330.434C212.265 330.434 212.868 333.646 209.791 333.78Z" fill="#636992"/>
<path d="M240.833 323.548C240.833 323.548 233.006 326.558 230.475 324.216C227.945 321.874 226.059 322.543 226.059 322.543C226.059 322.543 221.643 322.611 220.772 322.275C220.259 322.079 220.537 320.406 220.857 319.074C221.074 318.154 221.309 317.394 221.309 317.394C221.309 317.394 229.002 314.784 230.207 316.389C230.569 316.86 231.002 317.273 231.49 317.612C232.883 318.62 235.061 319.533 238.505 320.938C243.241 322.877 240.833 323.548 240.833 323.548Z" fill="#636992"/>
<path d="M233.809 262.408L235.948 266.689C235.948 266.689 239.027 271.038 235.414 272.709C231.801 274.38 231.869 263.079 231.869 263.079L233.809 262.408Z" fill="#FFD6D6"/>
<path d="M224.842 225.285C224.842 225.285 227.184 226.356 228.59 230.837C229.995 235.318 231.869 242.945 231.869 242.945C231.869 242.945 233.14 251.573 232.938 253.715C232.809 254.894 232.832 256.085 233.006 257.259L234.811 263.279L231.198 264.55L225.645 243.279L224.842 225.285Z" fill="#DCE6F2"/>
<path opacity="0.05" d="M224.842 225.285C224.842 225.285 227.184 226.356 228.59 230.837C229.995 235.318 231.869 242.945 231.869 242.945C231.869 242.945 233.14 251.573 232.938 253.715C232.809 254.894 232.832 256.085 233.006 257.259L234.811 263.279L231.198 264.55L225.645 243.279L224.842 225.285Z" fill="black"/>
<path opacity="0.1" d="M209.32 322.611L209.643 323.465L209.247 324.221C207.708 324.889 203.894 324.355 203.894 324.355C203.894 324.355 203.188 323.458 202.223 321.983C202.407 321.295 202.557 320.806 202.557 320.806L209.32 322.611Z" fill="black"/>
<path opacity="0.1" d="M231.735 317.928C229.783 322.348 223.15 320.707 221.307 320.154C221.003 320.062 220.836 320.001 220.836 320.001C220.836 320.001 220.848 319.641 220.852 319.074C221.069 318.154 221.304 317.394 221.304 317.394C221.304 317.394 228.997 314.784 230.202 316.389C230.564 316.86 230.997 317.273 231.485 317.612C231.559 317.725 231.642 317.83 231.735 317.928V317.928Z" fill="black"/>
<path d="M231.398 312.31C229.793 315.652 231.735 317.528 231.735 317.528C229.783 321.945 223.15 320.307 221.307 319.752C221.003 319.662 220.836 319.601 220.836 319.601C220.836 319.601 220.97 314.984 220.502 312.776C220.033 310.569 220.099 301.272 220.367 300.136C220.636 298.999 220.768 296.789 220.768 296.789C220.768 296.789 220.568 294.182 220.902 292.911C221.002 292.567 221.009 292.203 220.921 291.857C220.834 291.51 220.655 291.193 220.403 290.939L220.367 290.903C220.367 290.903 218.896 295.921 218.36 296.787C217.823 297.653 217.625 302.004 217.557 302.807C217.489 303.609 214.746 310.3 214.746 310.3C214.746 310.3 213.678 313.376 213.477 314.245C213.277 315.113 212.472 317.591 212.472 317.591L209.247 323.814C207.708 324.482 203.895 323.948 203.895 323.948C203.895 323.948 203.16 323.006 202.155 321.472C201.15 319.937 200.684 314.518 200.684 314.518C200.684 314.518 204.363 314.449 203.426 310.905C202.489 307.361 204.229 304.617 204.163 303.412C204.097 302.207 204.966 298.262 205.434 297.66C205.902 297.058 205.834 294.516 205.7 293.111C205.566 291.706 205.634 286.757 205.634 286.757C205.634 286.757 205.768 284.549 206.437 283.546C207.105 282.544 206.839 279.666 206.839 279.666C206.839 279.666 208.108 278.997 207.239 272.509C206.371 266.021 208.652 257.593 208.652 257.593L208.73 256.416L208.852 254.51C208.852 254.51 227.987 253.305 229.527 254.776C229.929 255.184 230.259 255.658 230.504 256.176C231.03 257.308 231.402 258.506 231.61 259.737L232.413 280.005L233.215 294.921L232.947 306.158C232.947 306.158 233.006 308.963 231.398 312.31Z" fill="#565988"/>
<path opacity="0.1" d="M225.725 272.309L223.717 315.786L221.307 319.749C221.003 319.66 220.836 319.599 220.836 319.599C220.836 319.599 220.97 314.981 220.502 312.774C220.033 310.566 220.099 301.27 220.368 300.133C220.636 298.997 220.768 296.787 220.768 296.787C220.768 296.787 220.568 294.179 220.902 292.908C221.002 292.565 221.009 292.201 220.921 291.854C220.834 291.507 220.655 291.191 220.403 290.936L220.436 290.701L225.725 272.309Z" fill="black"/>
<path opacity="0.1" d="M204.102 318.999C204.102 318.999 209.32 316.925 210.123 317.586C210.926 318.248 203.97 319.257 203.97 319.257L204.102 318.999Z" fill="black"/>
<path opacity="0.1" d="M229.861 313.513C229.661 313.581 224.576 315.395 225.045 317.325C225.513 319.255 229.861 313.513 229.861 313.513Z" fill="black"/>
<path d="M213.972 214.551C213.972 214.551 215.676 218.665 214.774 220.774C213.873 222.882 224.508 226.493 224.508 226.493C224.508 226.493 221.398 218.465 224.409 213.949C227.42 209.433 213.972 214.551 213.972 214.551Z" fill="#FFD6D6"/>
<path d="M276.243 333.646C274.186 334.098 271.477 336.155 271.477 336.155C271.477 336.155 266.258 337.259 262.694 336.757C259.13 336.256 259.735 332.392 262.494 331.439C264.408 330.78 266.368 329.154 267.392 328.222C267.844 327.805 268.113 327.516 268.113 327.516L278.101 325.508C278.101 325.508 278.263 326.066 278.489 326.835C278.889 328.193 279.48 330.208 279.706 330.975C280.057 332.192 278.301 333.194 276.243 333.646Z" fill="#505484"/>
<path d="M273.685 325.92C273.685 325.92 269.469 326.372 267.713 325.369C265.957 324.367 263.447 325.972 263.447 325.972C263.447 325.972 256.221 325.821 253.812 325.068C251.404 324.315 254.163 320.596 258.078 320.954C259.504 321.084 260.469 320.771 261.121 320.323C261.803 319.857 262.277 319.145 262.447 318.337L270.921 318.838L272.098 321.841L273.685 325.92Z" fill="#505484"/>
<path opacity="0.1" d="M272.227 323.211C272.227 323.211 262.378 321.601 261.121 320.323C261.803 319.857 262.277 319.145 262.447 318.337L270.921 318.838L272.098 321.841L272.227 323.211Z" fill="black"/>
<path d="M257.626 266.875L257.727 281.572C257.727 281.572 258.078 292.61 258.078 294.116C258.078 295.622 258.127 298.98 258.127 298.98C258.127 298.98 258.881 303.094 259.332 304.45C259.784 305.805 260.135 311.981 260.135 311.981C260.135 311.981 261.19 313.687 260.738 314.334C260.286 314.981 262.494 316.391 262.494 316.391C262.494 316.391 261.081 318.349 260.99 319.653C260.898 320.957 272.227 322.809 272.227 322.809L267.814 277.559L264.299 266.223L257.626 266.875Z" fill="#575988"/>
<path opacity="0.1" d="M257.626 266.875L257.727 281.572C257.727 281.572 258.078 292.61 258.078 294.116C258.078 295.622 258.127 298.98 258.127 298.98C258.127 298.98 258.881 303.094 259.332 304.45C259.784 305.805 260.135 311.981 260.135 311.981C260.135 311.981 261.19 313.687 260.738 314.334C260.286 314.981 262.494 316.391 262.494 316.391C262.494 316.391 261.081 318.349 260.99 319.653C260.898 320.957 272.227 322.809 272.227 322.809L267.814 277.559L264.299 266.223L257.626 266.875Z" fill="black"/>
<path opacity="0.1" d="M278.489 326.847C275.21 334.663 267.411 328.631 267.411 328.631C267.411 328.631 267.411 328.48 267.392 328.222C267.844 327.805 268.113 327.516 268.113 327.516L278.101 325.508C278.101 325.508 278.263 326.078 278.489 326.847Z" fill="black"/>
<path d="M278.602 326.172C275.389 334.409 267.411 328.229 267.411 328.229C267.411 328.229 267.159 323.964 267.663 322.009C268.167 320.053 267.11 314.181 267.11 314.181C267.11 314.181 266.507 308.964 265.956 307.761C265.406 306.558 265.455 304.149 265.455 303.948C265.455 303.748 265.655 302.141 265.203 301.037C264.751 299.934 264.497 297.225 264.497 297.225C264.497 297.225 264.497 293.412 264.045 291.155L262.489 283.389L259.678 267.485L260.556 267.334L276.288 264.576C276.288 264.576 279.249 279.638 278.244 281.181C278.028 281.52 277.837 282.262 277.679 283.217C277.105 286.634 276.891 292.77 276.891 292.77C276.891 292.77 278.847 295.829 278.096 297.987C277.345 300.145 278.802 303.706 278.802 303.706C278.802 303.706 279.254 317.754 278.399 319.159C277.545 320.564 278.602 326.172 278.602 326.172Z" fill="#575988"/>
<path d="M277.095 223.48C277.095 223.48 262.845 233.513 266.055 228.495C267.786 225.794 267.468 222.353 266.79 219.755C266.447 218.433 265.974 217.149 265.377 215.921C265.377 215.921 277.486 210.772 275.881 215.387C275.505 216.462 275.345 217.601 275.41 218.738C275.506 220.447 276.091 222.093 277.095 223.48V223.48Z" fill="#D28690"/>
<path d="M251.437 246.457C251.437 246.457 245.416 244.717 244.413 246.424C243.41 248.13 244.714 251.874 246.532 252.477C248.349 253.079 252.52 250.436 252.52 250.436L251.437 246.457Z" fill="#D28690"/>
<path d="M258.33 243.498L255.82 245.807C255.82 245.807 251.454 246.207 250.199 245.906C250.199 245.906 251.355 253.632 249.698 254.585L259.834 252.528L258.33 243.498Z" fill="#585B8A"/>
<path opacity="0.1" d="M258.33 243.498L255.82 245.807C255.82 245.807 251.454 246.207 250.199 245.906C250.199 245.906 251.355 253.632 249.698 254.585L259.834 252.528L258.33 243.498Z" fill="black"/>
<path opacity="0.1" d="M226.113 210.336C226.113 212.334 225.32 214.249 223.907 215.661C222.495 217.074 220.579 217.867 218.581 217.867C214.716 216.01 211.048 214.499 211.048 210.336C211.008 209.323 211.173 208.312 211.533 207.364C211.893 206.416 212.441 205.551 213.144 204.82C213.847 204.089 214.69 203.507 215.624 203.11C216.557 202.712 217.561 202.508 218.575 202.508C219.589 202.508 220.593 202.712 221.526 203.11C222.459 203.507 223.303 204.089 224.006 204.82C224.708 205.551 225.256 206.416 225.617 207.364C225.977 208.312 226.142 209.323 226.102 210.336H226.113Z" fill="black"/>
<path d="M226.113 210.134C226.115 211.905 225.49 213.62 224.35 214.975C223.21 216.331 221.628 217.241 219.883 217.544C218.138 217.848 216.341 217.525 214.81 216.634C213.28 215.742 212.113 214.339 211.516 212.672C210.919 211.004 210.93 209.179 211.548 207.519C212.165 205.859 213.349 204.47 214.89 203.598C216.432 202.725 218.232 202.425 219.974 202.749C221.715 203.074 223.286 204.003 224.409 205.373C225.509 206.716 226.111 208.398 226.113 210.134V210.134Z" fill="#FFD6D6"/>
<path opacity="0.1" d="M230.504 256.183C229.758 256.646 228.978 257.05 228.171 257.393C228.171 257.393 224.357 256.84 223.807 257.492C223.256 258.144 218.393 258.395 218.393 258.395C218.393 258.395 210.966 258.045 209.862 257.092C209.52 256.815 209.141 256.59 208.734 256.423L208.857 254.517C208.857 254.517 227.992 253.312 229.531 254.783C229.932 255.192 230.261 255.665 230.504 256.183Z" fill="black"/>
<path d="M231.433 254.835C231.283 255.687 228.171 256.991 228.171 256.991C228.171 256.991 224.357 256.44 223.807 257.092C223.256 257.744 218.392 257.995 218.392 257.995C218.392 257.995 210.966 257.642 209.862 256.689C208.758 255.736 206.298 255.277 206.298 255.277C206.298 255.277 205.043 246.348 205.547 244.393C206.051 242.437 204.794 237.066 204.492 235.16C204.191 233.254 205.344 227.987 206.75 227.135C208.155 226.283 210.163 223.421 211.366 222.569C212.38 221.852 213.501 220.922 213.828 220.642L213.925 220.562C213.925 220.562 214.127 219.006 214.93 218.209C215.732 217.411 223.107 223.275 223.107 223.275C223.107 223.275 223.159 223.727 223.661 222.875C223.774 222.685 224.746 224.087 224.915 224.68C224.915 224.68 228.929 231.705 229.181 233.153C229.432 234.6 230.485 239.323 230.685 240.477C230.737 240.773 230.821 241.813 230.92 243.207C230.939 243.48 230.955 243.769 230.977 244.07C231.125 246.381 231.285 249.333 231.382 251.564C231.382 251.818 231.403 252.063 231.41 252.298C231.461 253.143 231.468 253.989 231.433 254.835V254.835Z" fill="#DCE6F2"/>
<path opacity="0.1" d="M205.952 236.723C205.952 236.723 208.711 240.083 209.615 240.083C210.519 240.083 205.952 236.723 205.952 236.723Z" fill="black"/>
<path opacity="0.1" d="M211.764 243.948C211.764 243.948 207.247 248.864 207.849 249.768C208.452 250.672 211.764 243.948 211.764 243.948Z" fill="black"/>
<path opacity="0.1" d="M208.452 253.731C208.452 253.731 213.63 248.062 213.866 246.106L208.452 253.731Z" fill="black"/>
<path opacity="0.1" d="M214.975 254.131C214.975 254.131 220.947 250.97 221.448 248.462C221.949 245.953 214.975 254.131 214.975 254.131Z" fill="black"/>
<path opacity="0.1" d="M222.552 223.631L221.723 225.636L223.103 226.288L224.459 230.077C224.459 230.077 228.197 237.551 228.046 241.439C227.895 245.327 228.724 251.171 228.724 251.171L230.88 250.771L229.863 239.335C229.705 237.565 229.261 235.831 228.55 234.202C226.827 230.258 223.621 222.977 223.418 222.977C223.143 222.977 223.336 223.078 223.336 223.078L222.552 223.631Z" fill="black"/>
<path d="M222.752 223.428L221.923 225.436L223.305 226.088L224.659 229.877C224.659 229.877 228.397 237.351 228.246 241.239C228.096 245.127 228.924 250.971 228.924 250.971L231.083 250.57L230.063 239.135C229.907 237.365 229.464 235.631 228.752 234.002C227.029 230.056 223.823 222.776 223.623 222.776C223.345 222.776 223.538 222.878 223.538 222.878L222.752 223.428Z" fill="#575989"/>
<path d="M247.188 252.912C246.139 252.832 243.62 251.559 242.619 251.029L242.196 250.794L242.247 246.908C242.495 246.763 242.751 246.633 243.015 246.52C244.352 245.937 247.094 245.143 248.469 247.697C250.324 251.121 248.518 253.002 247.188 252.912Z" fill="#FFD6D6"/>
<path opacity="0.1" d="M224.409 205.373C224.301 205.44 224.183 205.489 224.059 205.516C223.185 205.707 222.192 204.956 221.443 205.439C220.987 205.735 220.881 206.35 220.819 206.891C220.713 207.832 220.606 208.767 220.499 209.696C220.477 210.027 220.407 210.353 220.292 210.663C219.923 211.508 218.908 211.906 217.983 211.892C217.621 211.918 217.263 211.799 216.987 211.562C216.825 211.398 216.738 211.167 216.559 211.016C215.382 210.03 215.024 212.447 215.335 213.134C215.834 214.257 217.606 215.34 216.862 216.766C216.737 216.998 216.548 217.188 216.316 217.314C215.195 216.963 214.172 216.355 213.328 215.538C212.484 214.721 211.843 213.718 211.456 212.61C211.069 211.501 210.946 210.317 211.098 209.153C211.25 207.988 211.673 206.875 212.332 205.903C212.99 204.931 213.868 204.126 214.893 203.553C215.918 202.98 217.064 202.655 218.237 202.604C219.411 202.552 220.58 202.776 221.652 203.257C222.723 203.737 223.668 204.462 224.409 205.373Z" fill="black"/>
<path d="M216.359 211.007C216.535 211.155 216.625 211.386 216.787 211.551C217.063 211.787 217.42 211.906 217.783 211.88C218.708 211.894 219.722 211.499 220.09 210.649C220.207 210.34 220.277 210.015 220.299 209.684L220.619 206.879C220.681 206.338 220.784 205.724 221.243 205.427C221.992 204.956 222.985 205.695 223.858 205.505C224.173 205.425 224.446 205.228 224.621 204.954C224.795 204.681 224.86 204.351 224.8 204.031C224.699 203.582 224.355 203.227 224.178 202.798C224.071 202.469 223.986 202.133 223.922 201.793C223.435 199.967 221.29 198.941 219.426 199.247C218.39 199.419 217.427 199.913 216.389 200.064C215.645 200.172 214.885 200.101 214.134 200.181C213.437 200.253 212.758 200.453 212.133 200.772C211.969 200.845 211.824 200.954 211.71 201.092C211.603 201.278 211.531 201.482 211.498 201.694C211.246 202.636 210.436 203.33 209.85 204.123C209.18 205.036 208.792 206.125 208.734 207.256C208.711 207.544 208.738 207.835 208.814 208.115C208.864 208.279 208.941 208.439 208.979 208.609C209.094 209.124 208.831 209.64 208.701 210.153C208.54 210.807 208.598 211.497 208.866 212.115C209.77 214.193 212.748 214.888 213.367 217.069C213.917 217.333 214.51 217.492 215.118 217.54C215.725 217.552 216.38 217.291 216.662 216.752C217.404 215.34 215.634 214.243 215.135 213.123C214.822 212.433 215.172 210.019 216.359 211.007Z" fill="#353045"/>
<path opacity="0.1" d="M275.893 215.387C275.516 216.462 275.356 217.601 275.422 218.738C275.059 219.046 274.664 218.124 274.245 218.361C273.096 219.025 271.768 220.604 270.347 220.604C269.114 220.605 267.898 220.314 266.799 219.755C266.456 218.433 265.983 217.149 265.387 215.921C265.387 215.921 277.498 210.772 275.893 215.387Z" fill="black"/>
<path d="M278.166 212.377C278.166 213.925 277.707 215.438 276.847 216.725C275.987 218.013 274.764 219.016 273.333 219.608C271.903 220.201 270.329 220.356 268.81 220.054C267.291 219.752 265.896 219.006 264.801 217.912C263.706 216.817 262.96 215.422 262.658 213.904C262.356 212.385 262.511 210.812 263.104 209.381C263.696 207.951 264.7 206.728 265.987 205.868C267.275 205.008 268.789 204.549 270.337 204.549C271.365 204.549 272.384 204.751 273.334 205.144C274.284 205.538 275.147 206.114 275.874 206.841C276.601 207.568 277.178 208.431 277.571 209.381C277.964 210.331 278.167 211.349 278.166 212.377Z" fill="#D28690"/>
<path d="M277.832 225.219C277.832 225.219 276.359 226.824 276.159 226.956C275.958 227.088 271.686 245.078 271.611 245.287C271.535 245.496 266.524 261.74 266.524 261.74L258.495 265.686L259.165 245.819L265.05 229.434C265.05 229.434 266.992 227.227 267.593 226.424C268.193 225.622 275.688 220.804 275.688 220.804L276.968 223.443L277.832 225.219Z" fill="#F0F3F7"/>
<path opacity="0.1" d="M276.771 223.845L267.538 230.453L267.39 226.824C267.993 226.022 275.485 221.207 275.485 221.207L276.771 223.845Z" fill="black"/>
<path d="M276.971 223.443L267.738 230.051L267.595 226.424C268.197 225.619 275.69 220.804 275.69 220.804L276.971 223.443Z" fill="#F0F3F7"/>
<path d="M267.286 224.81L267.595 226.424L265.53 228.521L267.178 224.833C267.178 224.833 263.647 227.293 262.588 227.945C261.529 228.596 260.469 230.804 260.429 231.406C260.389 232.009 258.723 241.088 258.723 241.088C258.723 241.088 257.468 244.449 257.821 245.402C258.174 246.355 255.915 276.406 255.915 276.406C256.217 275.823 256.644 275.313 257.165 274.913C257.687 274.513 258.29 274.233 258.932 274.093L258.127 256.334C258.127 256.334 259.107 244.52 259.156 244.369C259.205 244.219 261.439 237.37 261.439 237.37L267.286 224.81Z" fill="#585B8A"/>
<path opacity="0.1" d="M267.797 226.624L267.637 229.919C267.637 229.919 265.403 236.968 264.652 238.121C263.902 239.274 261.616 246.148 261.616 246.148L260.328 258.09L258.12 259.094L257.033 257.092L258.841 245.56C258.841 245.56 262.251 235.829 262.755 234.824L265.272 229.524L267.797 226.624Z" fill="black"/>
<path d="M267.595 226.424L267.437 229.719C267.437 229.719 265.203 236.768 264.45 237.921C263.697 239.074 261.416 245.948 261.416 245.948L260.135 257.887L257.927 258.89L256.823 256.885L258.631 245.353C258.631 245.353 262.042 235.619 262.543 234.617L265.078 229.324L267.595 226.424Z" fill="#663D5C"/>
<path d="M241.57 251.573L245.884 254.559C245.884 254.559 248.928 252.853 247.156 251.749C245.383 250.646 243.811 250.479 243.241 250.479C242.671 250.479 241.57 251.573 241.57 251.573Z" fill="#D28690"/>
<path d="M244.792 246.052C244.696 246.112 244.616 246.195 244.562 246.295C244.507 246.394 244.478 246.506 244.479 246.619C244.479 247.534 244.583 249.958 245.35 248.864C246.292 247.525 246.12 246.322 247.558 247.191C248.452 247.747 249.234 248.466 249.865 249.309L249.465 246.433C249.465 246.433 246.508 244.974 244.792 246.052Z" fill="#D28690"/>
<path opacity="0.1" d="M278.249 281.172C278.032 281.511 277.841 282.252 277.684 283.208C268.885 285.846 262.447 280.268 262.447 280.268C261.668 277.629 261.031 274.95 260.54 272.243C260.382 271.316 260.418 269.518 260.563 267.324L276.295 264.566C276.295 264.566 279.254 279.616 278.249 281.172Z" fill="black"/>
<path d="M287.281 236.271C286.881 237.577 287.031 240.234 287.031 240.234L283.418 257.292C283.418 257.292 281.662 270.436 281.361 272.191C281.059 273.947 280.558 281.673 280.558 281.673C270.321 286.691 262.433 279.868 262.433 279.868C261.654 277.228 261.017 274.549 260.526 271.841C260.022 268.861 261.505 256.925 262.207 251.622C262.416 250.053 262.557 249.064 262.557 249.064L265.191 239.281C265.191 239.281 268.428 231.028 269.633 228.62C270.839 226.212 275.678 220.804 275.678 220.804C276.279 220.423 277.239 221.769 277.952 222.995C278.491 223.923 278.894 224.784 278.894 224.784C278.894 224.784 284.915 227.391 285.817 228.785C286.718 230.178 286.57 233.049 286.671 233.2C286.773 233.35 287.684 234.967 287.281 236.271Z" fill="#585B8A"/>
<path opacity="0.1" d="M273.082 230.201C273.082 230.201 273.534 232.861 272.376 233.663C271.258 234.44 262.934 250.803 262.416 251.825C262.626 250.253 262.767 249.264 262.767 249.264L265.401 239.483C265.401 239.483 268.64 231.23 269.843 228.82C271.046 226.41 275.89 221.004 275.89 221.004C276.49 220.623 277.448 221.969 278.162 223.195C277.086 225.429 274.843 229.651 273.082 230.201Z" fill="black"/>
<path d="M272.882 230.001C272.882 230.001 273.332 232.661 272.176 233.463C271.02 234.266 262.736 250.601 262.211 251.622C262.421 250.053 262.562 249.064 262.562 249.064L265.196 239.281C265.196 239.281 268.433 231.028 269.638 228.62C270.843 226.212 275.683 220.804 275.683 220.804C276.283 220.423 277.244 221.769 277.957 222.995C276.886 225.226 274.64 229.451 272.882 230.001Z" fill="#585B8A"/>
<path d="M284.823 254.032L281.992 268.762V268.765L281.721 270.174V270.177L281.111 273.347L278.51 272.796L277.298 272.54L260.521 268.986L259.288 268.725L256.472 268.129L257.023 264.472L257.252 262.952L259.283 249.467L284.823 254.032Z" fill="#7FCD63"/>
<path d="M269.167 266.072C269.167 266.072 262.494 268.48 263.949 271.339C265.403 274.199 274.737 269.132 274.737 269.132L269.167 266.072Z" fill="#D28690"/>
<path opacity="0.1" d="M273.934 286.59C273.934 286.79 274.186 289.35 275.189 290.251C276.192 291.153 273.934 286.59 273.934 286.59Z" fill="black"/>
<path opacity="0.1" d="M267.211 295.669C267.211 295.669 268.414 298.98 273.181 300.336C277.948 301.691 267.211 295.669 267.211 295.669Z" fill="black"/>
<path opacity="0.1" d="M278.167 212.377C278.167 213.753 277.804 215.104 277.115 216.296C276.426 217.487 275.435 218.475 274.242 219.162C273.793 218.91 273.394 218.577 273.065 218.18C272.724 217.766 272.458 217.201 272.663 216.707C272.828 216.309 273.263 216.057 273.369 215.646C273.419 215.394 273.406 215.133 273.331 214.888C273.244 214.499 273.162 214.111 273.077 213.725C273.004 213.396 272.875 213.007 272.548 212.927C272.22 212.847 271.947 213.12 271.691 213.323C271.062 213.819 269.857 214.156 269.101 213.749C268.346 213.342 268.558 211.979 268.435 211.242C268.434 211.178 268.418 211.115 268.39 211.058C268.361 211.001 268.321 210.95 268.27 210.91C268.161 210.874 268.043 210.866 267.929 210.887C267.522 210.887 267.195 210.522 267.077 210.132C266.994 209.733 266.948 209.327 266.941 208.92C266.896 208.512 266.747 208.082 266.399 207.872C266.121 207.743 265.812 207.692 265.507 207.726L264.031 207.743C265.01 206.419 266.382 205.438 267.951 204.939C269.519 204.44 271.206 204.447 272.77 204.961C274.334 205.475 275.697 206.469 276.663 207.802C277.63 209.134 278.152 210.738 278.155 212.384L278.167 212.377Z" fill="black"/>
<path d="M271.9 213.323C272.157 213.12 272.439 212.852 272.757 212.93C273.075 213.007 273.211 213.4 273.284 213.725L273.539 214.885C273.614 215.132 273.628 215.393 273.579 215.646C273.459 216.06 273.025 216.309 272.858 216.707C272.654 217.201 272.922 217.766 273.261 218.178C273.879 218.923 274.734 219.434 275.683 219.625C275.931 219.685 276.189 219.69 276.439 219.642C276.999 219.512 277.38 218.997 277.682 218.514C279.238 216.09 280.577 213.433 280.85 210.567C280.925 209.982 280.898 209.389 280.77 208.814C280.642 208.366 280.462 207.936 280.233 207.531C279.833 206.704 279.324 205.934 278.72 205.241C277.649 204.088 276.17 203.38 274.652 202.961C272.944 202.487 271.161 202.347 269.4 202.549C268.93 202.603 268.478 202.681 268.014 202.711C267.432 202.738 266.848 202.729 266.267 202.683L262.802 202.476C262.605 202.878 262.802 203.356 263.038 203.733C263.273 204.109 263.565 204.5 263.546 204.947C263.527 205.394 263.209 205.747 262.965 206.124C262.72 206.5 262.534 206.987 262.779 207.354C263.024 207.722 263.523 207.745 263.956 207.74L265.702 207.722C266.007 207.69 266.314 207.743 266.59 207.875C266.938 208.084 267.086 208.517 267.131 208.922C267.141 209.329 267.187 209.735 267.268 210.134C267.388 210.525 267.713 210.894 268.12 210.889C268.234 210.867 268.352 210.876 268.461 210.915C268.511 210.955 268.552 211.005 268.58 211.062C268.609 211.119 268.624 211.181 268.626 211.245C268.748 211.981 268.522 213.342 269.292 213.751C270.062 214.161 271.272 213.819 271.9 213.323Z" fill="#663D5C"/>
<path opacity="0.1" d="M281.85 228.782C280.985 228.691 280.114 228.896 279.38 229.364C278.647 229.832 278.094 230.536 277.813 231.359C276.872 234.04 275.302 238.876 275.695 240.787C276.248 243.496 276.9 248.012 276.9 248.012C276.9 248.012 279.76 249.66 278.312 251.321C276.865 252.983 276.455 255.336 276.455 255.336C276.455 255.336 274.598 256.139 274.198 257.845C273.797 259.551 271.086 261.907 271.086 261.907L267.023 265.971C267.023 265.971 273.746 272.796 275.102 273.144L279.266 268.278L284.183 261.756L288.448 257.285C288.448 257.285 289.451 254.931 288.95 250.46C288.448 245.988 286.49 241.731 286.49 241.731L286.641 240.225C286.641 240.225 287.102 229.434 281.85 228.782Z" fill="black"/>
<path d="M282.251 228.782C281.386 228.692 280.516 228.897 279.783 229.365C279.051 229.833 278.499 230.537 278.218 231.359C277.277 234.04 275.707 238.876 276.1 240.787C276.651 243.496 277.303 248.012 277.303 248.012C277.303 248.012 280.163 249.66 278.715 251.321C277.267 252.983 276.86 255.336 276.86 255.336C276.86 255.336 275.003 256.139 274.6 257.845C274.198 259.551 271.491 261.907 271.491 261.907L267.425 265.971C267.425 265.971 274.148 272.796 275.504 273.144L279.668 268.278L284.574 261.756L288.839 257.285C288.839 257.285 289.844 254.931 289.341 250.46C288.837 245.988 286.883 241.731 286.883 241.731L287.034 240.225C287.034 240.225 287.502 229.434 282.251 228.782Z" fill="#585B8A"/>
<path opacity="0.1" d="M278.049 244.049C278.049 244.049 282.314 249.264 284.122 248.111C285.93 246.958 278.049 244.049 278.049 244.049Z" fill="black"/>
<path opacity="0.1" d="M279.654 240.034C280.106 240.185 283.821 245.353 285.727 244.741C287.634 244.129 279.654 240.034 279.654 240.034Z" fill="black"/>
<path opacity="0.1" d="M280.709 248.911C280.709 248.911 280.961 251.872 284.021 251.469C287.081 251.067 280.709 248.911 280.709 248.911Z" fill="black"/>
<path opacity="0.1" d="M267.185 225.033L265.53 228.721L267.597 226.624L267.185 225.033Z" fill="black"/>
<path d="M267.185 224.833L265.53 228.521L267.597 226.424L267.185 224.833Z" fill="#F0F3F7"/>
<path opacity="0.3" d="M260.521 268.986L259.288 268.725L257.023 264.472L257.252 262.952L260.521 268.986Z" fill="black"/>
<path opacity="0.3" d="M281.992 268.765L281.721 270.174V270.177L278.51 272.796L277.298 272.54L281.992 268.765Z" fill="black"/>
<path opacity="0.1" d="M231.403 252.307C230.781 252.411 230.179 252.505 229.628 252.576C226.568 252.978 219.289 249.365 219.289 249.365C219.289 249.365 210.408 241.94 207.849 234.918C205.29 227.895 210.909 226.841 210.909 226.841C213.028 225.636 217.635 228.997 218.287 229.55C218.939 230.103 219.492 231.505 219.44 232.409C219.388 233.313 220.947 234.466 220.947 234.466C220.947 234.466 223.607 239.081 224.259 239.582C224.911 240.084 225.061 240.535 225.261 241.39C225.462 242.244 227.218 242.945 227.971 242.894C228.724 242.842 229.619 243.145 229.619 243.545C229.619 243.868 230.355 244.028 230.96 244.08C231.139 246.652 231.316 250.022 231.403 252.307Z" fill="black"/>
<path opacity="0.1" d="M231.375 251.573C230.904 251.648 230.452 251.716 230.028 251.773C226.968 252.175 219.692 248.563 219.692 248.563C219.692 248.563 210.81 241.138 208.252 234.115C205.693 227.093 211.312 226.038 211.312 226.038C213.43 224.833 218.035 228.194 218.687 228.747C219.339 229.3 219.892 230.703 219.843 231.606C219.793 232.51 221.347 233.663 221.347 233.663C221.347 233.663 224.007 238.278 224.659 238.78C225.311 239.281 225.461 239.733 225.664 240.587C225.866 241.441 227.62 242.14 228.373 242.091C229.127 242.042 230.021 242.343 230.021 242.743C230.021 242.978 230.44 243.136 230.906 243.214C230.925 243.487 230.941 243.776 230.963 244.077C231.118 246.391 231.278 249.342 231.375 251.573Z" fill="black"/>
<path opacity="0.1" d="M243.015 246.52L242.824 251.029H242.619L242.196 250.794L242.247 246.908C242.495 246.763 242.751 246.633 243.015 246.52V246.52Z" fill="black"/>
<path d="M210.909 226.438C210.909 226.438 205.29 227.493 207.849 234.515C210.408 241.538 219.289 248.965 219.289 248.965C219.289 248.965 226.566 252.576 229.628 252.176C232.69 251.775 237.354 250.721 237.956 250.872C238.559 251.022 242.624 251.022 242.624 251.022L242.824 246.315L238.116 246.064L235.708 245.562C235.708 245.562 234.854 244.856 234.352 244.96C233.851 245.063 232.799 244.357 232.799 244.357C232.799 244.357 231.994 243.706 231.386 243.706C230.779 243.706 229.63 243.555 229.63 243.155C229.63 242.755 228.726 242.449 227.983 242.503C227.239 242.557 225.461 241.851 225.254 240.987C225.047 240.124 224.904 239.684 224.252 239.182C223.6 238.681 220.94 234.064 220.94 234.064C220.94 234.064 219.384 232.91 219.433 232.009C219.482 231.108 218.932 229.7 218.28 229.147C217.628 228.594 213.014 225.236 210.909 226.438Z" fill="#DCE6F2"/>
<path opacity="0.1" d="M225.362 242.592C225.362 242.592 223.204 244.75 223.755 245.15L225.362 242.592Z" fill="black"/>
<path opacity="0.1" d="M227.669 244.299C227.669 244.299 224.859 246.457 225.612 246.607C226.365 246.758 227.669 244.299 227.669 244.299Z" fill="black"/>
<path opacity="0.1" d="M222.9 247.499C223.303 247.702 229.273 251.265 231.532 251.213L222.9 247.499Z" fill="black"/>
<path opacity="0.1" d="M223.305 223.68C223.305 223.68 222.251 227.142 221.848 227.142C221.533 227.142 216.236 222.854 214.026 221.051L214.122 220.971C214.122 220.971 214.322 219.416 215.125 218.618C215.928 217.82 223.305 223.68 223.305 223.68Z" fill="black"/>
<path d="M223.103 223.278C223.103 223.278 222.051 226.74 221.648 226.74C221.33 226.74 216.034 222.452 213.823 220.649L213.92 220.569C213.92 220.569 214.122 219.013 214.925 218.216C215.728 217.418 223.103 223.278 223.103 223.278Z" fill="#DCE6F2"/>
<g opacity="0.15">
<path opacity="0.15" d="M208.892 212.089C209.598 213.702 211.543 214.483 212.67 215.768C211.999 214.189 210.038 213.414 208.892 212.089Z" fill="black"/>
<path opacity="0.15" d="M216.088 215.803C215.808 216.342 215.146 216.603 214.544 216.592C214.008 216.553 213.483 216.419 212.995 216.196C213.172 216.457 213.307 216.745 213.395 217.048C213.945 217.312 214.538 217.472 215.146 217.519C215.756 217.533 216.41 217.272 216.691 216.73C217.14 215.871 216.672 215.137 216.123 214.443C216.225 214.656 216.276 214.891 216.269 215.127C216.263 215.364 216.201 215.595 216.088 215.803V215.803Z" fill="black"/>
<path opacity="0.15" d="M224.824 204.008C224.722 203.556 224.379 203.201 224.202 202.775C224.094 202.445 224.008 202.109 223.946 201.767C223.812 201.285 223.564 200.842 223.223 200.475C223.27 200.591 223.31 200.71 223.343 200.831C223.409 201.173 223.497 201.511 223.607 201.843C223.783 202.269 224.127 202.624 224.228 203.076C224.288 203.395 224.224 203.725 224.049 203.999C223.874 204.272 223.601 204.469 223.286 204.549C222.415 204.74 221.422 203.987 220.674 204.471C220.215 204.766 220.109 205.38 220.047 205.921C219.942 206.863 219.836 207.798 219.727 208.729C219.706 209.059 219.636 209.384 219.52 209.694C219.151 210.541 218.136 210.939 217.211 210.925C216.849 210.949 216.493 210.83 216.218 210.595C216.084 210.406 215.94 210.223 215.787 210.049C214.61 209.061 214.252 211.478 214.563 212.167C214.718 212.477 214.911 212.767 215.137 213.031C214.878 212.254 215.241 210.018 216.389 210.976C216.542 211.15 216.685 211.332 216.818 211.522C217.094 211.757 217.451 211.876 217.813 211.852C218.739 211.866 219.753 211.468 220.123 210.621C220.239 210.31 220.309 209.985 220.33 209.654C220.437 208.712 220.543 207.777 220.65 206.848C220.711 206.307 220.817 205.693 221.274 205.399C222.025 204.914 223.018 205.667 223.889 205.474C224.201 205.393 224.471 205.197 224.645 204.925C224.818 204.653 224.882 204.325 224.824 204.008V204.008Z" fill="black"/>
</g>
<path opacity="0.1" d="M276.94 219.042C276.69 219.088 276.432 219.082 276.184 219.023C275.236 218.831 274.383 218.321 273.765 217.578C273.423 217.164 273.155 216.599 273.362 216.105C273.527 215.707 273.96 215.457 274.068 215.043C274.117 214.79 274.103 214.529 274.028 214.283L273.774 213.123C273.701 212.793 273.574 212.405 273.247 212.327C272.919 212.25 272.646 212.518 272.39 212.72C271.761 213.217 270.554 213.556 269.801 213.146C269.047 212.737 269.257 211.376 269.134 210.64C269.132 210.576 269.117 210.514 269.088 210.457C269.06 210.4 269.019 210.35 268.97 210.31C268.859 210.272 268.741 210.263 268.626 210.285C268.219 210.285 267.894 209.92 267.774 209.529C267.692 209.13 267.647 208.724 267.64 208.317C267.593 207.912 267.447 207.479 267.096 207.27C266.819 207.14 266.513 207.087 266.208 207.117L264.462 207.136C264.031 207.136 263.52 207.107 263.285 206.75C263.049 206.392 263.224 205.884 263.471 205.519C263.718 205.154 264.031 204.792 264.052 204.342C264.073 203.893 263.781 203.504 263.544 203.128C263.407 202.922 263.307 202.694 263.247 202.455L262.746 202.424C262.55 202.824 262.746 203.302 262.981 203.681C263.217 204.06 263.511 204.448 263.49 204.893C263.468 205.338 263.155 205.695 262.908 206.07C262.661 206.444 262.48 206.933 262.725 207.3C262.969 207.668 263.466 207.693 263.902 207.689L265.648 207.668C265.953 207.638 266.259 207.692 266.536 207.823C266.886 208.032 267.035 208.465 267.079 208.87C267.087 209.277 267.132 209.683 267.216 210.082C267.334 210.47 267.661 210.842 268.068 210.835C268.182 210.815 268.3 210.824 268.409 210.861C268.459 210.901 268.5 210.952 268.528 211.009C268.557 211.066 268.572 211.129 268.574 211.193C268.697 211.927 268.471 213.29 269.24 213.699C270.01 214.109 271.211 213.77 271.83 213.273C272.086 213.071 272.371 212.803 272.689 212.878C273.007 212.953 273.143 213.349 273.214 213.673L273.47 214.836C273.545 215.083 273.558 215.344 273.508 215.596C273.39 216.008 272.955 216.26 272.79 216.655C272.585 217.149 272.851 217.717 273.193 218.128C273.815 218.875 274.675 219.386 275.629 219.573C275.877 219.633 276.134 219.639 276.385 219.592C276.789 219.469 277.136 219.205 277.364 218.849C277.235 218.938 277.092 219.003 276.94 219.042Z" fill="black"/>
<path opacity="0.1" d="M168.948 322.978C172.09 322.978 174.637 322.587 174.637 322.105C174.637 321.623 172.09 321.232 168.948 321.232C165.805 321.232 163.258 321.623 163.258 322.105C163.258 322.587 165.805 322.978 168.948 322.978Z" fill="#004C62"/>
<path opacity="0.1" d="M367.603 300.277C370.745 300.277 373.292 299.886 373.292 299.404C373.292 298.922 370.745 298.531 367.603 298.531C364.46 298.531 361.913 298.922 361.913 299.404C361.913 299.886 364.46 300.277 367.603 300.277Z" fill="#6C63FF"/>
<path opacity="0.1" d="M309.599 337.115C318.699 337.115 326.076 335.984 326.076 334.588C326.076 333.192 318.699 332.06 309.599 332.06C300.498 332.06 293.121 333.192 293.121 334.588C293.121 335.984 300.498 337.115 309.599 337.115Z" fill="#004C62"/>
<path opacity="0.1" d="M356.44 325.852C363.538 325.852 369.293 324.969 369.293 323.88C369.293 322.79 363.538 321.907 356.44 321.907C349.342 321.907 343.588 322.79 343.588 323.88C343.588 324.969 349.342 325.852 356.44 325.852Z" fill="#004C62"/>
<path opacity="0.1" d="M354.324 346.875C366.361 346.875 376.119 345.378 376.119 343.531C376.119 341.684 366.361 340.186 354.324 340.186C342.287 340.186 332.529 341.684 332.529 343.531C332.529 345.378 342.287 346.875 354.324 346.875Z" fill="#004C62"/>
<path opacity="0.1" d="M144.596 349C153.696 349 161.074 347.868 161.074 346.472C161.074 345.076 153.696 343.945 144.596 343.945C135.496 343.945 128.118 345.076 128.118 346.472C128.118 347.868 135.496 349 144.596 349Z" fill="#004C62"/>
<path d="M169.207 294.297C169.207 294.297 169.852 295.14 168.91 296.415C167.968 297.691 167.192 298.768 167.498 299.555C167.498 299.555 168.91 297.201 170.087 297.159C171.264 297.116 170.48 295.718 169.207 294.297Z" fill="#7FCD63"/>
<path opacity="0.1" d="M169.207 294.297C169.264 294.377 169.309 294.466 169.338 294.561C170.468 295.888 171.069 297.123 169.983 297.149C168.974 297.178 167.761 298.985 167.472 299.442C167.481 299.477 167.492 299.511 167.505 299.545C167.505 299.545 168.917 297.192 170.094 297.149C171.271 297.107 170.48 295.718 169.207 294.297Z" fill="black"/>
<path d="M170.407 295.37C170.407 295.667 170.372 295.907 170.332 295.907C170.292 295.907 170.256 295.671 170.256 295.37C170.256 295.069 170.299 295.215 170.339 295.215C170.379 295.215 170.407 295.074 170.407 295.37Z" fill="#FFD037"/>
<path d="M170.817 295.726C170.558 295.867 170.329 295.961 170.311 295.916C170.292 295.871 170.485 295.737 170.746 295.594C171.007 295.45 170.904 295.556 170.923 295.594C170.941 295.631 171.078 295.582 170.817 295.726Z" fill="#FFD037"/>
<path d="M165.803 294.297C165.803 294.297 165.158 295.14 166.099 296.415C167.041 297.691 167.82 298.768 167.512 299.555C167.512 299.555 166.099 297.201 164.934 297.159C163.769 297.116 164.522 295.718 165.803 294.297Z" fill="#7FCD63"/>
<path opacity="0.1" d="M165.803 294.297C165.747 294.378 165.702 294.467 165.671 294.561C164.541 295.888 163.941 297.123 165.026 297.149C166.036 297.178 167.248 298.985 167.54 299.442C167.53 299.477 167.519 299.511 167.505 299.545C167.505 299.545 166.092 297.192 164.927 297.149C163.762 297.107 164.522 295.718 165.803 294.297Z" fill="black"/>
<path d="M164.605 295.37C164.605 295.667 164.638 295.907 164.678 295.907C164.718 295.907 164.753 295.671 164.753 295.37C164.753 295.069 164.711 295.215 164.671 295.215C164.631 295.215 164.605 295.074 164.605 295.37Z" fill="#FFD037"/>
<path d="M164.193 295.726C164.454 295.867 164.68 295.961 164.701 295.916C164.722 295.871 164.525 295.737 164.263 295.594C164.002 295.45 164.106 295.556 164.087 295.594C164.068 295.631 163.931 295.582 164.193 295.726Z" fill="#FFD037"/>
<path opacity="0.1" d="M167.505 305.998C171.227 305.998 174.244 305.536 174.244 304.965C174.244 304.394 171.227 303.932 167.505 303.932C163.783 303.932 160.765 304.394 160.765 304.965C160.765 305.536 163.783 305.998 167.505 305.998Z" fill="#6C63FF"/>
<path d="M170.974 298.415L170.941 298.679L170.897 299.051L170.878 299.206L170.833 299.578L170.812 299.733L170.767 300.105L170.252 304.341C170.207 304.718 169.59 305.012 168.839 305.012H166.17C165.426 305.012 164.809 304.718 164.758 304.341L164.242 300.105L164.197 299.733L164.179 299.578L164.131 299.206L164.113 299.051L164.068 298.679L164.035 298.415C164.009 298.201 164.343 298.022 164.765 298.022H170.247C170.666 298.022 171 298.201 170.974 298.415Z" fill="#65617D"/>
<path d="M170.942 298.679L170.897 299.051H164.113L164.068 298.679H170.942Z" fill="#9D9CB5"/>
<path d="M170.878 299.206L170.833 299.578H164.179L164.131 299.206H170.878Z" fill="#9D9CB5"/>
<path d="M170.814 299.733L170.767 300.105H164.242L164.197 299.733H170.814Z" fill="#9D9CB5"/>
<path d="M363.118 291.037C363.118 291.037 362.313 294.784 365.894 295.227L366.115 294.81C366.115 294.81 363.34 292.2 363.118 291.037Z" fill="#408B25"/>
<path d="M367.254 294.779L366.421 294.956L366.339 294.975C366.339 294.975 364.116 293.172 364.145 289.148C364.442 289.741 364.797 290.303 365.206 290.826C366.087 291.991 367.087 293.544 367.254 294.779Z" fill="#AADE97"/>
<path d="M367.534 295.165C367.469 295.208 367.395 295.235 367.317 295.246C367.24 295.256 367.161 295.248 367.087 295.224C364.95 294.725 365.675 287.761 365.675 287.761C365.792 287.816 365.91 288.703 366.414 289.847C367.273 291.854 368.222 294.662 367.534 295.165Z" fill="#AADE97"/>
<path d="M372.275 291.037C372.275 291.037 372.414 294.784 368.834 295.227L368.61 294.803C368.61 294.803 372.054 292.2 372.275 291.037Z" fill="#AADE97"/>
<path d="M371.249 289.155C371.277 293.179 368.391 294.982 368.391 294.982L368.306 294.963L367.475 294.787C367.64 293.551 368.652 291.998 369.521 290.833C370.02 290.199 370.601 289.635 371.249 289.155V289.155Z" fill="#AADE97"/>
<path d="M368.295 294.803C368.168 294.959 368.007 295.084 367.824 295.168V295.168C367.767 295.193 367.708 295.213 367.647 295.227C367.122 295.349 366.941 294.97 366.969 294.325C367.019 293.179 367.739 291.191 368.382 289.701C368.691 288.97 369.148 288.311 369.724 287.764C369.724 287.764 369.691 293.184 368.295 294.803Z" fill="#AADE97"/>
<path d="M367.697 285.319C367.697 285.319 365.31 293.791 367.365 295.057C369.42 296.323 368.224 286.067 367.697 285.319Z" fill="#AADE97"/>
<path opacity="0.1" d="M367.254 294.779L366.421 294.956L366.339 294.975C366.339 294.975 364.116 293.172 364.145 289.148C364.442 289.741 364.797 290.303 365.206 290.826C366.087 291.991 367.087 293.544 367.254 294.779Z" fill="#408B25"/>
<path opacity="0.1" d="M367.534 295.165C367.469 295.208 367.395 295.235 367.317 295.246C367.24 295.256 367.161 295.248 367.087 295.224C364.95 294.725 365.675 287.761 365.675 287.761C365.792 287.816 365.91 288.703 366.414 289.847C367.273 291.854 368.222 294.662 367.534 295.165Z" fill="black"/>
<path opacity="0.1" d="M372.275 291.037C372.275 291.037 372.414 294.784 368.834 295.227L368.61 294.803C368.61 294.803 372.054 292.2 372.275 291.037Z" fill="black"/>
<path opacity="0.1" d="M371.249 289.155C371.277 293.179 368.391 294.982 368.391 294.982L368.306 294.963L367.475 294.787C367.64 293.551 368.652 291.998 369.521 290.833C370.02 290.199 370.601 289.635 371.249 289.155V289.155Z" fill="black"/>
<path opacity="0.1" d="M368.295 294.803C368.168 294.959 368.007 295.084 367.824 295.168V295.168C367.767 295.193 367.708 295.213 367.647 295.227C367.122 295.349 366.941 294.97 366.969 294.325C367.019 293.179 367.739 291.191 368.382 289.701C368.691 288.97 369.148 288.311 369.724 287.764C369.724 287.764 369.691 293.184 368.295 294.803Z" fill="black"/>
<path opacity="0.1" d="M367.697 285.319C367.697 285.319 365.31 293.791 367.365 295.057C369.42 296.323 368.224 286.067 367.697 285.319Z" fill="black"/>
<path d="M363.118 291.037C363.118 291.037 362.648 294.784 366.226 295.227L366.447 294.81C366.447 294.81 363.34 292.2 363.118 291.037Z" fill="#7FCD63"/>
<path d="M367.586 294.779L366.753 294.956L366.67 294.975C366.67 294.975 364.116 293.172 364.138 289.155C364.138 289.155 364.792 289.861 365.531 290.833C366.419 291.991 367.419 293.544 367.586 294.779Z" fill="#7FCD63"/>
<path opacity="0.1" d="M367.586 294.779L366.753 294.956C365.964 294.264 365.651 292.457 365.538 290.826C366.418 291.991 367.419 293.544 367.586 294.779Z" fill="black"/>
<path d="M367.869 295.165C367.803 295.208 367.728 295.235 367.65 295.246C367.573 295.256 367.494 295.248 367.419 295.224C365.282 294.725 365.672 287.761 365.672 287.761C365.79 287.816 366.251 288.703 366.743 289.847C367.607 291.854 368.554 294.662 367.869 295.165Z" fill="#7FCD63"/>
<path d="M372.275 291.037C372.275 291.037 372.746 294.784 369.168 295.227L368.947 294.81C368.947 294.81 372.054 292.2 372.275 291.037Z" fill="#7FCD63"/>
<path d="M371.249 289.155C371.277 293.179 368.723 294.982 368.723 294.982L368.641 294.963L367.807 294.787C367.972 293.551 368.984 291.998 369.855 290.833C370.594 289.861 371.249 289.155 371.249 289.155Z" fill="#7FCD63"/>
<path opacity="0.1" d="M369.855 290.826C369.747 292.346 369.469 294.019 368.794 294.801C368.748 294.857 368.696 294.909 368.641 294.956L367.807 294.779C367.972 293.544 368.975 291.991 369.855 290.826Z" fill="black"/>
<path d="M368.627 294.803C368.501 294.96 368.339 295.085 368.156 295.168V295.168C368.1 295.193 368.041 295.213 367.982 295.227C367.454 295.349 367.275 294.97 367.301 294.325C367.353 293.179 368.073 291.191 368.714 289.701C369.184 288.63 369.61 287.818 369.723 287.764C369.723 287.762 370.022 293.184 368.627 294.803Z" fill="#7FCD63"/>
<path opacity="0.1" d="M367.869 295.165C367.747 295.167 367.628 295.129 367.53 295.057C366.524 294.431 366.503 292.082 366.743 289.847C367.607 291.854 368.553 294.662 367.869 295.165Z" fill="black"/>
<path opacity="0.1" d="M368.627 294.803C368.511 295.055 368.356 295.187 368.156 295.168C368.053 295.155 367.956 295.118 367.871 295.06C367.609 294.88 367.41 294.623 367.301 294.325C367.353 293.179 368.073 291.191 368.714 289.701C368.944 291.765 369.022 293.953 368.627 294.803Z" fill="black"/>
<path d="M367.697 285.319C367.697 285.319 365.644 293.791 367.697 295.057C369.749 296.323 368.224 286.067 367.697 285.319Z" fill="#7FCD63"/>
<path d="M371.637 294.643H363.09V296.057H364.394L364.427 296.224L364.95 298.971H369.919L370.441 296.224L370.472 296.057H371.637V294.643Z" fill="#4B4770"/>
<path opacity="0.1" d="M371.637 294.643H363.09V296.057H364.394L364.427 296.224L364.95 298.971H369.919L370.441 296.224L370.472 296.057H371.637V294.643Z" fill="black"/>
<path d="M370.917 295.474L370.773 296.224L370.251 298.971H365.282L364.759 296.224L364.615 295.474H370.917Z" fill="#4B4770"/>
<path opacity="0.1" d="M370.917 295.474L370.773 296.224H364.759L364.615 295.474H370.917Z" fill="black"/>
<path d="M371.969 294.643H363.422V296.057H371.969V294.643Z" fill="#4B4770"/>
<path d="M153.812 318.846C153.587 319.156 153.406 319.497 153.275 319.858C153.242 319.945 153.209 320.046 153.176 320.142C153.117 320.114 153.054 320.092 152.99 320.076C152.716 320.007 152.432 319.983 152.15 320.006C152.15 319.895 152.164 319.77 152.166 319.66C152.202 318.42 152.056 316.692 150.872 317.424C149.737 318.13 150.547 319.307 151.279 320.06C151.343 320.126 151.406 320.187 151.467 320.246C150.799 320.716 150.672 321.83 150.561 322.985C150.45 324.141 149.469 325.405 148.817 326.122C148.751 326.195 148.692 326.261 148.633 326.322C148.37 326.112 148.064 325.96 147.738 325.876C147.411 325.792 147.071 325.778 146.738 325.835C146.712 325.734 146.682 325.628 146.651 325.517C146.124 323.614 145.029 320.316 143.633 319.594L143.817 319.359C144.41 318.584 145.079 317.431 144.092 317.137C143.106 316.843 143.017 318.135 143.071 319.104C143.08 319.227 143.09 319.342 143.099 319.45C142.902 319.459 142.709 319.509 142.531 319.595C142.354 319.682 142.196 319.804 142.068 319.954L141.915 319.773C141.115 318.831 139.648 317.332 139.203 318.464C138.789 319.519 140.081 320.888 140.99 321.681L141.046 321.731C140.437 324.204 143.099 326.221 144.533 327.104L144.719 327.217C142.741 329.547 141.519 333.915 141.519 333.915L147.056 334.903C147.056 334.903 150.728 331.735 150.257 328.761H150.295C153.965 328.026 154.798 324.115 154.226 321.792L154.292 321.766C154.961 321.493 155.546 321.05 155.992 320.481C157.018 319.057 154.871 317.448 153.812 318.846Z" fill="#7FCD63"/>
<path opacity="0.1" d="M153.812 318.846C153.587 319.156 153.406 319.497 153.275 319.858C153.242 319.945 153.209 320.046 153.176 320.142C153.117 320.114 153.054 320.092 152.99 320.076C152.716 320.007 152.432 319.983 152.15 320.006C152.15 319.895 152.164 319.77 152.166 319.66C152.202 318.42 152.056 316.692 150.872 317.424C149.737 318.13 150.547 319.307 151.279 320.06C151.343 320.126 151.406 320.187 151.467 320.246C150.799 320.716 150.672 321.83 150.561 322.985C150.45 324.141 149.469 325.405 148.817 326.122C148.751 326.195 148.692 326.261 148.633 326.322C148.37 326.112 148.064 325.96 147.738 325.876C147.411 325.792 147.071 325.778 146.738 325.835C146.712 325.734 146.682 325.628 146.651 325.517C146.124 323.614 145.029 320.316 143.633 319.594L143.817 319.359C144.41 318.584 145.079 317.431 144.092 317.137C143.106 316.843 143.017 318.135 143.071 319.104C143.08 319.227 143.09 319.342 143.099 319.45C142.902 319.459 142.709 319.509 142.531 319.595C142.354 319.682 142.196 319.804 142.068 319.954L141.915 319.773C141.115 318.831 139.648 317.332 139.203 318.464C138.789 319.519 140.081 320.888 140.99 321.681L141.046 321.731C140.437 324.204 143.099 326.221 144.533 327.104L144.719 327.217C142.741 329.547 141.519 333.915 141.519 333.915L147.056 334.903C147.056 334.903 150.728 331.735 150.257 328.761H150.295C153.965 328.026 154.798 324.115 154.226 321.792L154.292 321.766C154.961 321.493 155.546 321.05 155.992 320.481C157.018 319.057 154.871 317.448 153.812 318.846Z" fill="black"/>
<path d="M142.791 320.455L142.143 322.338C142.143 322.338 141.783 322.084 141.329 321.684C140.42 320.891 139.128 319.521 139.542 318.467C139.987 317.335 141.454 318.829 142.254 319.775C142.576 320.152 142.791 320.455 142.791 320.455Z" fill="#7FCD63"/>
<path d="M144.156 319.361C143.959 319.62 143.749 319.868 143.525 320.105C143.47 319.774 143.431 319.441 143.41 319.107C143.355 318.137 143.459 316.85 144.431 317.139C145.403 317.429 144.749 318.587 144.156 319.361Z" fill="#7FCD63"/>
<path d="M152.517 319.66C152.498 320.284 152.437 320.783 152.437 320.783C152.152 320.56 151.883 320.318 151.63 320.06C150.898 319.3 150.088 318.128 151.222 317.424C152.395 316.69 152.541 318.42 152.517 319.66Z" fill="#7FCD63"/>
<path d="M156.33 320.477C155.885 321.045 155.3 321.488 154.631 321.762C154.445 321.842 154.255 321.911 154.061 321.969L153.299 320.898C153.379 320.544 153.484 320.196 153.614 319.858C153.745 319.497 153.925 319.156 154.151 318.846C155.205 317.448 157.357 319.057 156.33 320.477Z" fill="#7FCD63"/>
<path opacity="0.1" d="M142.254 319.775C142.576 320.152 142.791 320.444 142.791 320.444L142.143 322.326C142.143 322.326 141.783 322.072 141.329 321.672C141.43 321.065 141.681 320.493 142.058 320.008C142.122 319.93 142.19 319.85 142.254 319.775Z" fill="black"/>
<path opacity="0.1" d="M144.156 319.361C143.959 319.62 143.749 319.868 143.525 320.105C143.47 319.774 143.431 319.441 143.41 319.107C143.679 319.112 143.939 319.201 144.156 319.361V319.361Z" fill="black"/>
<path d="M147.338 326.883L145.728 327.589C145.728 327.589 145.378 327.419 144.872 327.104C143.179 326.064 139.778 323.444 142.047 320.356C144.316 317.269 146.23 322.806 146.99 325.515C147.218 326.339 147.338 326.883 147.338 326.883Z" fill="#7FCD63"/>
<path opacity="0.1" d="M151.618 320.06C151.852 319.819 152.169 319.676 152.505 319.66C152.487 320.283 152.425 320.782 152.425 320.782C152.141 320.56 151.871 320.318 151.618 320.06V320.06Z" fill="black"/>
<path opacity="0.1" d="M154.636 321.761C154.45 321.842 154.26 321.911 154.066 321.969L153.303 320.898C153.383 320.544 153.489 320.196 153.619 319.858C154.106 320.145 154.469 320.86 154.636 321.761Z" fill="black"/>
<path d="M150.634 328.756C150.547 328.775 150.455 328.791 150.363 328.805C144.966 329.624 148.584 326.713 148.584 326.713C148.584 326.713 148.819 326.478 149.156 326.122C149.808 325.405 150.787 324.148 150.9 322.985C151.069 321.237 151.265 319.596 153.329 320.076C155.356 320.552 155.744 327.732 150.634 328.756Z" fill="#7FCD63"/>
<path d="M150.533 342.192H140.22V344.903H150.533V342.192Z" fill="#D4DFEC"/>
<path d="M152.056 333.38H138.582V342.841H152.056V333.38Z" fill="#D4DFEC"/>
<path opacity="0.1" d="M150.533 342.192H140.22V344.903H150.533V342.192Z" fill="black"/>
<path opacity="0.1" d="M152.056 333.38H138.582V342.841H152.056V333.38Z" fill="black"/>
<path d="M151.211 342.192H140.898V344.903H151.211V342.192Z" fill="#D4DFEC"/>
<path opacity="0.1" d="M146.99 325.518C147.225 326.327 147.338 326.883 147.338 326.883L145.728 327.589C145.728 327.589 145.378 327.419 144.871 327.104C145.502 326.306 146.213 325.703 146.99 325.518Z" fill="black"/>
<path opacity="0.1" d="M150.634 328.756C150.547 328.775 150.455 328.791 150.363 328.805C144.966 329.624 148.584 326.713 148.584 326.713C148.584 326.713 148.819 326.478 149.156 326.122C150.163 326.93 150.58 327.838 150.634 328.756Z" fill="black"/>
<path d="M141.858 333.917C141.858 333.917 144.881 323.091 149.12 326.431C153.36 329.77 147.395 334.903 147.395 334.903L141.858 333.917Z" fill="#7FCD63"/>
<path opacity="0.1" d="M143.384 322.392C143.571 322.392 143.723 322.24 143.723 322.053C143.723 321.866 143.571 321.714 143.384 321.714C143.197 321.714 143.045 321.866 143.045 322.053C143.045 322.24 143.197 322.392 143.384 322.392Z" fill="black"/>
<path opacity="0.1" d="M143.355 323.974C143.543 323.974 143.694 323.822 143.694 323.635C143.694 323.448 143.543 323.296 143.355 323.296C143.168 323.296 143.016 323.448 143.016 323.635C143.016 323.822 143.168 323.974 143.355 323.974Z" fill="black"/>
<path opacity="0.1" d="M153.188 322.703C153.375 322.703 153.527 322.551 153.527 322.364C153.527 322.177 153.375 322.025 153.188 322.025C153.001 322.025 152.849 322.177 152.849 322.364C152.849 322.551 153.001 322.703 153.188 322.703Z" fill="black"/>
<path opacity="0.1" d="M145.279 330.81C145.466 330.81 145.618 330.659 145.618 330.471C145.618 330.284 145.466 330.133 145.279 330.133C145.091 330.133 144.94 330.284 144.94 330.471C144.94 330.659 145.091 330.81 145.279 330.81Z" fill="black"/>
<path opacity="0.1" d="M152.482 325.329C152.669 325.329 152.821 325.178 152.821 324.99C152.821 324.803 152.669 324.651 152.482 324.651C152.295 324.651 152.143 324.803 152.143 324.99C152.143 325.178 152.295 325.329 152.482 325.329Z" fill="black"/>
<path opacity="0.1" d="M148.979 328.834C149.166 328.834 149.318 328.682 149.318 328.495C149.318 328.307 149.166 328.156 148.979 328.156C148.792 328.156 148.64 328.307 148.64 328.495C148.64 328.682 148.792 328.834 148.979 328.834Z" fill="black"/>
<path opacity="0.1" d="M144.542 323.07C144.729 323.07 144.881 322.918 144.881 322.731C144.881 322.544 144.729 322.392 144.542 322.392C144.355 322.392 144.203 322.544 144.203 322.731C144.203 322.918 144.355 323.07 144.542 323.07Z" fill="black"/>
<path opacity="0.1" d="M152.256 323.72C152.443 323.72 152.595 323.568 152.595 323.381C152.595 323.193 152.443 323.042 152.256 323.042C152.069 323.042 151.917 323.193 151.917 323.381C151.917 323.568 152.069 323.72 152.256 323.72Z" fill="black"/>
<path opacity="0.1" d="M151.098 326.346C151.285 326.346 151.437 326.194 151.437 326.007C151.437 325.82 151.285 325.668 151.098 325.668C150.91 325.668 150.759 325.82 150.759 326.007C150.759 326.194 150.91 326.346 151.098 326.346Z" fill="black"/>
<path opacity="0.1" d="M147.538 330.556C147.726 330.556 147.877 330.404 147.877 330.217C147.877 330.03 147.726 329.878 147.538 329.878C147.351 329.878 147.199 330.03 147.199 330.217C147.199 330.404 147.351 330.556 147.538 330.556Z" fill="black"/>
<path opacity="0.1" d="M146.804 328.89C146.991 328.89 147.143 328.738 147.143 328.551C147.143 328.364 146.991 328.212 146.804 328.212C146.617 328.212 146.465 328.364 146.465 328.551C146.465 328.738 146.617 328.89 146.804 328.89Z" fill="black"/>
<path opacity="0.1" d="M145.05 325.132C145.238 325.132 145.389 324.98 145.389 324.793C145.389 324.606 145.238 324.454 145.05 324.454C144.863 324.454 144.711 324.606 144.711 324.793C144.711 324.98 144.863 325.132 145.05 325.132Z" fill="black"/>
<path opacity="0.1" d="M151.211 342.192H140.898V343.182H151.211V342.192Z" fill="black"/>
<path d="M152.734 333.38H139.26V342.841H152.734V333.38Z" fill="#D4DFEC"/>
<path opacity="0.1" d="M147.99 332.081C148.178 332.081 148.329 331.93 148.329 331.742C148.329 331.555 148.178 331.403 147.99 331.403C147.803 331.403 147.651 331.555 147.651 331.742C147.651 331.93 147.803 332.081 147.99 332.081Z" fill="black"/>
<path opacity="0.1" d="M145.957 332.505C146.144 332.505 146.296 332.353 146.296 332.166C146.296 331.979 146.144 331.827 145.957 331.827C145.769 331.827 145.618 331.979 145.618 332.166C145.618 332.353 145.769 332.505 145.957 332.505Z" fill="black"/>
<g opacity="0.1">
<path d="M132.77 168.699C134.13 168.699 135.232 167.597 135.232 166.238C135.232 164.878 134.13 163.776 132.77 163.776C131.41 163.776 130.307 164.878 130.307 166.238C130.307 167.597 131.41 168.699 132.77 168.699Z" fill="#2EA5FC" style="mix-blend-mode:darken"/>
</g>
<path opacity="0.1" d="M369.241 246.981C371.061 246.981 372.536 245.506 372.536 243.687C372.536 241.867 371.061 240.392 369.241 240.392C367.421 240.392 365.945 241.867 365.945 243.687C365.945 245.506 367.421 246.981 369.241 246.981Z" fill="#FEA87B"/>
<path opacity="0.1" d="M375.594 239.032C376.923 239.032 378 237.955 378 236.626C378 235.298 376.923 234.221 375.594 234.221C374.266 234.221 373.188 235.298 373.188 236.626C373.188 237.955 374.266 239.032 375.594 239.032Z" fill="#FEA87B"/>
<g opacity="0.1">
<path d="M137.007 160.59C138.827 160.59 140.302 159.114 140.302 157.295C140.302 155.475 138.827 154 137.007 154C135.187 154 133.711 155.475 133.711 157.295C133.711 159.114 135.187 160.59 137.007 160.59Z" fill="#2EA5FC" style="mix-blend-mode:darken"/>
</g>
<g opacity="0.1">
<path d="M124.296 175.651C126.116 175.651 127.591 174.176 127.591 172.357C127.591 170.537 126.116 169.062 124.296 169.062C122.475 169.062 121 170.537 121 172.357C121 174.176 122.475 175.651 124.296 175.651Z" fill="#2EA5FC" style="mix-blend-mode:darken"/>
</g>
</g>
<g filter="url(#filter2_d)">
<path d="M408.569 88.3097L411.668 88.3097C419.322 88.3097 426.287 92.7709 429.388 99.6606L429.657 100.256C432.728 107.078 432.627 114.845 429.38 121.529C426.259 127.954 419.654 132.032 412.371 132.032L408.798 132.032C401.336 132.032 394.511 127.79 391.299 121.155L389.886 118.234C387.401 113.101 387.396 107.165 389.872 102.074L391.416 98.8966C394.565 92.4204 401.225 88.3097 408.569 88.3097Z" fill="#33A8FF"/>
<path d="M408.569 88.3097L411.668 88.3097C419.322 88.3097 426.287 92.7709 429.388 99.6606L429.657 100.256C432.728 107.078 432.627 114.845 429.38 121.529C426.259 127.954 419.654 132.032 412.371 132.032L408.798 132.032C401.336 132.032 394.511 127.79 391.299 121.155L389.886 118.234C387.401 113.101 387.396 107.165 389.872 102.074L391.416 98.8966C394.565 92.4204 401.225 88.3097 408.569 88.3097Z" fill="#33A8FF"/>
</g>
<defs>
<filter id="filter0_d" x="51.5505" y="72.5778" width="393.472" height="362.844" filterUnits="userSpaceOnUse" color-interpolation-filters="sRGB">
<feFlood flood-opacity="0" result="BackgroundImageFix"/>
<feColorMatrix in="SourceAlpha" type="matrix" values="0 0 0 0 0 0 0 0 0 0 0 0 0 0 0 0 0 0 127 0"/>
<feOffset dy="4"/>
<feGaussianBlur stdDeviation="10.5"/>
<feColorMatrix type="matrix" values="0 0 0 0 0.279167 0 0 0 0 0.272188 0 0 0 0 0.272188 0 0 0 0.06 0"/>
<feBlend mode="normal" in2="BackgroundImageFix" result="effect1_dropShadow"/>
<feBlend mode="normal" in="SourceGraphic" in2="effect1_dropShadow" result="shape"/>
</filter>
<filter id="filter1_d" x="358.138" y="43.961" width="60.1537" height="60.2289" filterUnits="userSpaceOnUse" color-interpolation-filters="sRGB">
<feFlood flood-opacity="0" result="BackgroundImageFix"/>
<feColorMatrix in="SourceAlpha" type="matrix" values="0 0 0 0 0 0 0 0 0 0 0 0 0 0 0 0 0 0 127 0"/>
<feOffset dy="4"/>
<feGaussianBlur stdDeviation="10.5"/>
<feColorMatrix type="matrix" values="0 0 0 0 0.279167 0 0 0 0 0.272188 0 0 0 0 0.272188 0 0 0 0.06 0"/>
<feBlend mode="normal" in2="BackgroundImageFix" result="effect1_dropShadow"/>
<feBlend mode="normal" in="SourceGraphic" in2="effect1_dropShadow" result="shape"/>
</filter>
<filter id="filter2_d" x="367.019" y="71.3098" width="85.8709" height="85.7226" filterUnits="userSpaceOnUse" color-interpolation-filters="sRGB">
<feFlood flood-opacity="0" result="BackgroundImageFix"/>
<feColorMatrix in="SourceAlpha" type="matrix" values="0 0 0 0 0 0 0 0 0 0 0 0 0 0 0 0 0 0 127 0"/>
<feOffset dy="4"/>
<feGaussianBlur stdDeviation="10.5"/>
<feColorMatrix type="matrix" values="0 0 0 0 0.279167 0 0 0 0 0.272188 0 0 0 0 0.272188 0 0 0 0.06 0"/>
<feBlend mode="normal" in2="BackgroundImageFix" result="effect1_dropShadow"/>
<feBlend mode="normal" in="SourceGraphic" in2="effect1_dropShadow" result="shape"/>
</filter>
<linearGradient id="paint0_linear" x1="245.084" y1="336.59" x2="245.084" y2="198.797" gradientUnits="userSpaceOnUse">
<stop stop-color="#808080" stop-opacity="0.25"/>
<stop offset="0.54" stop-color="#808080" stop-opacity="0.12"/>
<stop offset="1" stop-color="#808080" stop-opacity="0.1"/>
</linearGradient>
<clipPath id="clip0">
<rect width="257" height="195" fill="white" transform="translate(121 154)"/>
</clipPath>
</defs>
</svg>
