<svg width="464" height="338" viewBox="0 0 464 338" fill="none" xmlns="http://www.w3.org/2000/svg">
<path opacity="0.2" d="M65.5141 20.0298C62.0806 19.932 58.562 20.0298 55.3415 21.0168C46.579 23.7054 42.4257 32.5028 43.7761 40.1048C45.1264 47.7069 50.6813 54.3305 56.4449 60.3841C62.2084 66.4376 68.4534 72.4231 71.6142 79.6593C73.1903 83.271 73.9273 87.3167 72.3256 90.9241C69.8549 96.4842 62.4044 99.5897 55.2521 100.236C48.0998 100.883 40.9177 99.6237 33.7398 99.2026C30.7281 99.0282 27.6312 99.0069 24.7942 99.8194C21.6802 100.704 19.086 102.512 16.7004 104.397C7.37563 111.782 -0.08763 121.868 1.13069 132.448C2.49384 144.457 14.6515 153.948 27.9677 159.041C32.3767 160.742 37.0412 162.095 40.922 164.503C51.1456 170.854 53.4417 182.766 52.4236 193.277C51.4054 203.789 47.9379 214.314 49.8676 224.732C52.1381 236.852 62.1871 247.802 75.742 252.915C87.8187 257.471 102.933 257.169 113.655 250.742C118.881 247.602 122.835 243.242 126.272 238.732C131.377 232.073 135.594 224.78 138.818 217.036C140.313 213.425 141.719 209.541 145.207 207.031C147.337 205.487 150.098 204.623 152.828 203.951C161.058 201.926 169.727 201.373 178.034 199.569C186.34 197.765 194.677 194.4 199.192 188.389C205.582 179.881 202.6 168.982 202.63 158.977C202.681 136.149 219.29 115.717 225.42 93.4638C227.422 86.1936 228.168 78.1491 223.695 71.6616C220.658 67.2587 215.533 64.0809 210.149 61.6263C198.302 56.2278 184.837 53.8243 171.593 51.4845C153.186 48.2344 130.835 47.8132 116.568 37.2972C102.899 27.2235 84.168 20.0298 65.5141 20.0298Z" fill="#5EA400"/>
<g opacity="0.5">
<path opacity="0.5" d="M11.672 150.238C10.7588 151.587 10.0076 153.546 11.2026 155.829C13.5498 160.31 19.3538 159.388 22.1748 163.677C22.9285 164.866 23.3486 166.235 23.391 167.642C23.4977 170.07 22.7466 171.982 22.3583 174.12C21.8503 176.641 22.2462 179.261 23.4764 181.52C24.8612 183.878 26.9509 185.743 29.4511 186.85C31.6362 187.815 33.7188 188.062 35.81 188.532C38.4041 189.127 40.9309 189.985 43.3509 191.093C44.5012 191.575 45.583 192.206 46.5688 192.97C47.7711 194.025 48.8622 195.201 49.825 196.478L58.9023 207.685C60.0557 209.196 61.3411 210.601 62.7432 211.885C64.273 213.119 65.9538 214.153 67.7449 214.962C71.3682 216.767 75.1579 218.615 78.3031 218.406C81.4484 218.197 83.6335 215.162 82.144 210.92C80.7357 206.883 76.7668 203.482 74.9658 199.453C72.1278 193.103 75.845 188.357 73.4679 181.998C71.1889 175.887 64.8002 171.79 60.7203 166.208C57.7927 162.239 56.1625 157.621 53.5251 153.452C49.6842 147.477 43.9655 142.906 38.5882 140.593C33.8591 138.583 28.6806 137.866 23.5831 138.515C21.637 138.728 19.7209 139.091 18.3381 140.256C16.8701 141.494 17.0578 143.807 16.1019 145.45C15.0051 147.34 12.9139 148.412 11.672 150.238Z" fill="#5EA400"/>
<path opacity="0.5" d="M17.3694 141.643C17.3694 141.643 62.8115 184.128 81.1369 217.206" stroke="#535461" stroke-width="2" stroke-miterlimit="10"/>
<path opacity="0.5" d="M11.3776 156.089C11.3776 156.089 29.5365 152.56 42.1048 166.716" stroke="#535461" stroke-width="2" stroke-miterlimit="10"/>
<path opacity="0.5" d="M24.283 182.766C24.283 182.766 44.341 168.739 51.2802 176.898" stroke="#535461" stroke-width="2" stroke-miterlimit="10"/>
<path opacity="0.5" d="M38.5029 140.491C38.5029 140.491 36.3904 151.228 43.9911 168.768" stroke="#535461" stroke-width="2" stroke-miterlimit="10"/>
<path opacity="0.5" d="M73.4465 182.165C73.4465 182.165 71.6711 189.206 57.4 184.03" stroke="#535461" stroke-width="2" stroke-miterlimit="10"/>
<path opacity="0.5" d="M58.9579 206.798C58.9579 206.798 67.6682 196.73 63.7078 191.788" stroke="#535461" stroke-width="2" stroke-miterlimit="10"/>
</g>
<path d="M3.11612 101.4C0.987076 103.918 -1.0057 107.402 0.561268 110.84C3.57599 117.588 14.7364 114.286 18.7177 120.57C19.91 122.448 20.0718 124.744 19.795 126.793C19.2585 130.802 17.2742 134.205 15.9031 137.869C14.532 141.532 13.8209 145.962 15.7541 149.83C17.6149 153.575 21.5366 155.939 25.3348 156.88C29.133 157.822 32.9397 157.609 36.7336 157.732C41.2409 157.909 45.7161 158.569 50.0827 159.7C52.0018 160.135 53.839 160.874 55.5246 161.89C57.462 163.129 59.0289 164.948 60.5619 166.738L74.1877 182.622C75.9974 184.752 77.8454 186.882 80.0894 188.446C82.6783 190.247 85.6249 191.163 88.5247 192.045C94.7627 193.954 101.299 195.879 107.26 194.571C113.222 193.263 118.225 187.564 116.734 180.965C115.316 174.682 108.921 170.226 106.766 164.071C103.36 154.371 111.77 145.375 109.244 135.505C106.826 126.039 96.104 121.157 90.1427 113.145C85.8846 107.402 84.207 100.22 80.4854 94.1119C75.1117 85.294 65.7439 79.4538 56.4187 77.2344C47.0936 75.0151 37.713 76.0502 28.9669 78.2696C25.2624 79.211 21.5579 80.3995 18.6198 82.7509C15.4986 85.2514 15.1409 89.0469 12.8671 92.0629C10.2314 95.5687 5.98606 97.9925 3.11612 101.4Z" fill="#5EA400"/>
<path d="M16 85C16 85 88.5789 141.695 113 191" stroke="#535461" stroke-width="2" stroke-miterlimit="10"/>
<path d="M1 111.076C1 111.076 35.8752 100.334 55 119" stroke="#535461" stroke-width="2" stroke-miterlimit="10"/>
<path d="M17 151C17 151 58.5078 122.439 69 133.578" stroke="#535461" stroke-width="2" stroke-miterlimit="10"/>
<path d="M56.0874 76C56.0874 76 48.002 94.7483 58 122" stroke="#535461" stroke-width="2" stroke-miterlimit="10"/>
<path d="M109 135C109 135 103.655 147.424 79 143.078" stroke="#535461" stroke-width="2" stroke-miterlimit="10"/>
<path d="M75 181C75 181 94.9359 161.194 88.8416 154" stroke="#535461" stroke-width="2" stroke-miterlimit="10"/>
<path opacity="0.1" d="M263.5 330C373.129 330 462 306.271 462 277C462 247.729 373.129 224 263.5 224C153.871 224 65 247.729 65 277C65 306.271 153.871 330 263.5 330Z" fill="#5EA400"/>
<path d="M418.15 1C418.15 1 403.078 16.383 411.588 39.2107C420.097 62.0383 397 100 397 100C397 100 397.248 99.9614 397.707 99.8798C428.662 94.2985 444.044 58.1657 426.832 31.3195C420.434 21.3418 415.18 9.63819 418.15 1Z" fill="#5EA400"/>
<path d="M418.459 1C418.459 1 409.825 19.8563 418.459 35.2393C427.092 50.6224 419.94 93.7961 397 100" stroke="#535461" stroke-width="2" stroke-miterlimit="10"/>
<path d="M445 63.1903C445 63.1903 427.745 60.4225 426.176 76.0001C424.606 91.5777 393 93.7375 393 93.7375L393.591 94.1329C419.686 111.39 444.65 105.127 440.852 82.2286C439.472 73.6915 439.586 65.1205 445 63.1903Z" fill="#5EA400"/>
<path opacity="0.2" d="M445 63.1903C445 63.1903 427.745 60.4225 426.176 76.0001C424.606 91.5777 393 93.7375 393 93.7375L393.591 94.1329C419.686 111.39 444.65 105.127 440.852 82.2286C439.472 73.6915 439.586 65.1205 445 63.1903Z" fill="#F5F5F5"/>
<path d="M445 63C445 63 431.607 65.9938 432.708 78.3198C433.809 90.6457 412.82 105.457 393 93.7165" stroke="#535461" stroke-width="2" stroke-miterlimit="10"/>
<path d="M105.118 120C105.118 120 99.7376 100.894 106.128 86.823C108.843 80.9413 109.662 74.2966 108.461 67.8865C107.869 64.8488 107.012 61.8742 105.901 59" stroke="#535461" stroke-width="2" stroke-miterlimit="10"/>
<path d="M110 50.1257C110 52.403 106 59 106 59C106 59 102 52.3989 102 50.1257C102 49.0315 102.421 47.9821 103.172 47.2084C103.922 46.4347 104.939 46 106 46C107.061 46 108.078 46.4347 108.828 47.2084C109.579 47.9821 110 49.0315 110 50.1257Z" fill="#5EA400"/>
<path d="M117.151 63.6712C115.784 65.6247 108 69 108 69C108 69 108.141 61.0427 109.509 59.0892C109.819 58.597 110.235 58.1682 110.73 57.8288C111.225 57.4894 111.789 57.2464 112.388 57.1145C112.987 56.9825 113.609 56.9644 114.216 57.0613C114.823 57.1581 115.403 57.3678 115.92 57.6777C116.437 57.9877 116.881 58.3914 117.224 58.8646C117.568 59.3378 117.805 59.8705 117.92 60.4307C118.035 60.9909 118.026 61.5669 117.894 62.1238C117.762 62.6808 117.509 63.2072 117.151 63.6712V63.6712Z" fill="#5EA400"/>
<path d="M116.615 85.4082C114.615 86.4998 107 85.7471 107 85.7471C107 85.7471 110.97 78.6519 112.965 77.5603C113.443 77.2703 113.969 77.0883 114.513 77.025C115.057 76.9618 115.607 77.0187 116.131 77.1924C116.654 77.366 117.139 77.6528 117.558 78.0355C117.976 78.4182 118.319 78.8888 118.565 79.419C118.812 79.9492 118.957 80.5281 118.992 81.1208C119.027 81.7135 118.951 82.3077 118.768 82.8677C118.586 83.4277 118.301 83.9418 117.931 84.3792C117.561 84.8165 117.113 85.1681 116.615 85.4126V85.4082Z" fill="#5EA400"/>
<path d="M113.071 102.731C111.147 104.295 103 105 103 105C103 105 105.999 96.6399 107.923 95.0765C108.377 94.668 108.902 94.3652 109.466 94.1864C110.03 94.0077 110.621 93.9568 111.203 94.0367C111.786 94.1167 112.347 94.3259 112.854 94.6517C113.36 94.9774 113.801 95.4129 114.15 95.9318C114.499 96.4507 114.749 97.0421 114.884 97.6702C115.019 98.2983 115.036 98.95 114.935 99.5857C114.835 100.222 114.617 100.828 114.297 101.369C113.977 101.91 113.56 102.373 113.071 102.731V102.731Z" fill="#5EA400"/>
<path d="M99.4418 68.5974C101.149 70.2661 109 72 109 72C109 72 107.075 64.0431 105.384 62.3744C104.989 61.9454 104.513 61.6024 103.984 61.3662C103.455 61.13 102.885 61.0055 102.307 61.0002C101.73 60.9949 101.157 61.1089 100.624 61.3354C100.092 61.5619 99.6093 61.896 99.2069 62.3177C98.8045 62.7394 98.4903 63.2398 98.2834 63.7887C98.0765 64.3375 97.9811 64.9234 98.0031 65.5109C98.025 66.0984 98.1639 66.6752 98.4112 67.2064C98.6585 67.7377 99.0091 68.2124 99.4418 68.6017V68.5974Z" fill="#5EA400"/>
<path d="M95.1302 89.3968C97.1825 90.5094 105 89.7422 105 89.7422C105 89.7422 100.925 82.5105 98.8767 81.3979C97.8987 80.9217 96.7879 80.871 95.7761 81.2562C94.7642 81.6415 93.9295 82.433 93.4462 83.4656C92.9628 84.4981 92.8681 85.692 93.1819 86.798C93.4957 87.9039 94.1937 88.8366 95.1302 89.4013V89.3968Z" fill="#5EA400"/>
<path d="M93.6365 108.885C95.6165 110.342 104 111 104 111C104 111 100.914 103.205 98.9342 101.747C97.9815 101.114 96.8209 100.87 95.6927 101.066C94.5645 101.262 93.5554 101.884 92.8743 102.801C92.1932 103.719 91.8925 104.862 92.0344 105.995C92.1763 107.127 92.75 108.162 93.6365 108.885V108.885Z" fill="#5EA400"/>
<path d="M457.763 232.294H421.47C422.31 230.621 422.748 228.776 422.749 226.905V62.1084C422.747 58.8963 421.466 55.8165 419.187 53.5459C416.909 51.2754 413.819 50 410.598 50H129.66C126.438 50 123.347 51.2766 121.068 53.549C118.789 55.8213 117.509 58.9033 117.509 62.1169V226.905C117.51 228.776 117.948 230.621 118.788 232.294H81.2117C80.3599 232.294 79.543 232.631 78.9407 233.232C78.3384 233.832 78 234.647 78 235.496V238.078C78 242.831 79.8936 247.39 83.2644 250.751C86.6351 254.112 91.2067 256 95.9736 256H443.026C447.793 256 452.365 254.112 455.736 250.751C459.106 247.39 461 242.831 461 238.078V235.496C461 235.073 460.916 234.655 460.753 234.265C460.59 233.874 460.351 233.52 460.05 233.223C459.749 232.925 459.392 232.689 459 232.53C458.607 232.371 458.187 232.29 457.763 232.294ZM234.141 242.543L231.028 239.018H308.275L304.829 242.543H234.141Z" fill="url(#paint0_linear)"/>
<path d="M409.09 51H130.91C125.437 51 121 55.4591 121 60.9596V227.04C121 232.541 125.437 237 130.91 237H409.09C414.563 237 419 232.541 419 227.04V60.9596C419 55.4591 414.563 51 409.09 51Z" fill="#535461"/>
<path d="M412 79H127V230H412V79Z" fill="#F1F1F4"/>
<path d="M269.5 68C270.881 68 272 66.8807 272 65.5C272 64.1193 270.881 63 269.5 63C268.119 63 267 64.1193 267 65.5C267 66.8807 268.119 68 269.5 68Z" fill="white"/>
<path d="M313.305 230L303.504 240.379H234.466L225.619 230H85.1365C84.3047 230 83.5069 230.342 82.9187 230.95C82.3304 231.558 82 232.382 82 233.242V235.859C82 238.243 82.4546 240.604 83.3379 242.806C84.2211 245.009 85.5157 247.01 87.1476 248.694C88.7794 250.379 90.7165 251.715 92.8481 252.625C94.9798 253.536 97.2641 254.003 99.5705 254H438.451C443.105 254 447.569 252.089 450.86 248.687C454.151 245.285 456 240.67 456 235.859V233.242C456 232.382 455.67 231.558 455.081 230.95C454.493 230.342 453.695 230 452.863 230H313.305Z" fill="#535461"/>
<path d="M222 91H145V149H222V91Z" fill="white"/>
<path opacity="0.2" d="M178 95H152V110H178V95Z" fill="#5EA400"/>
<path d="M214 95H185V98H214V95Z" fill="#E6E8EC"/>
<path d="M206 101H185V105H206V101Z" fill="#E6E8EC"/>
<path d="M214 106H185V110H214V106Z" fill="#E6E8EC"/>
<path d="M214 113H152V116H214V113Z" fill="#E6E8EC"/>
<path d="M214 118H152V121H214V118Z" fill="#E6E8EC"/>
<path d="M214 124H152V127H214V124Z" fill="#E6E8EC"/>
<path d="M210 129H152V133H210V129Z" fill="#E6E8EC"/>
<path d="M214 135H152V138H214V135Z" fill="#E6E8EC"/>
<path d="M214 141H152V144H214V141Z" fill="#E6E8EC"/>
<path d="M308 91H230V149H308V91Z" fill="white"/>
<path opacity="0.2" d="M264 95H238V110H264V95Z" fill="#5EA400"/>
<path d="M301 95H270V98H301V95Z" fill="#E6E8EC"/>
<path d="M291 101H270V105H291V101Z" fill="#E6E8EC"/>
<path d="M301 106H270V110H301V106Z" fill="#E6E8EC"/>
<path d="M301 113H238V116H301V113Z" fill="#E6E8EC"/>
<path d="M301 118H238V121H301V118Z" fill="#E6E8EC"/>
<path d="M301 124H238V127H301V124Z" fill="#E6E8EC"/>
<path d="M295 129H238V133H295V129Z" fill="#E6E8EC"/>
<path d="M301 135H238V138H301V135Z" fill="#E6E8EC"/>
<path d="M301 141H238V144H301V141Z" fill="#E6E8EC"/>
<path d="M394 91H317V149H394V91Z" fill="white"/>
<path opacity="0.2" d="M350 95H324V110H350V95Z" fill="#5EA400"/>
<path d="M386 95H356V98H386V95Z" fill="#E6E8EC"/>
<path d="M378 101H356V105H378V101Z" fill="#E6E8EC"/>
<path d="M386 106H356V110H386V106Z" fill="#E6E8EC"/>
<path d="M386 113H324V116H386V113Z" fill="#E6E8EC"/>
<path d="M386 118H324V121H386V118Z" fill="#E6E8EC"/>
<path d="M386 124H324V127H386V124Z" fill="#E6E8EC"/>
<path d="M382 129H324V133H382V129Z" fill="#E6E8EC"/>
<path d="M386 135H324V138H386V135Z" fill="#E6E8EC"/>
<path d="M386 141H324V144H386V141Z" fill="#E6E8EC"/>
<path d="M222 157H145V215H222V157Z" fill="white"/>
<path opacity="0.2" d="M178 161H152V176H178V161Z" fill="#5EA400"/>
<path d="M214 161H185V165H214V161Z" fill="#E6E8EC"/>
<path d="M206 167H185V171H206V167Z" fill="#E6E8EC"/>
<path d="M214 173H185V176H214V173Z" fill="#E6E8EC"/>
<path d="M214 179H152V182H214V179Z" fill="#E6E8EC"/>
<path d="M214 184H152V187H214V184Z" fill="#E6E8EC"/>
<path d="M214 190H152V193H214V190Z" fill="#E6E8EC"/>
<path d="M210 195H152V199H210V195Z" fill="#E6E8EC"/>
<path d="M214 201H152V204H214V201Z" fill="#E6E8EC"/>
<path d="M214 207H152V210H214V207Z" fill="#E6E8EC"/>
<path d="M308 157H230V215H308V157Z" fill="white"/>
<path opacity="0.2" d="M264 161H238V176H264V161Z" fill="#5EA400"/>
<path d="M301 161H270V165H301V161Z" fill="#E6E8EC"/>
<path d="M291 167H270V171H291V167Z" fill="#E6E8EC"/>
<path d="M301 173H270V176H301V173Z" fill="#E6E8EC"/>
<path d="M301 179H238V182H301V179Z" fill="#E6E8EC"/>
<path d="M301 184H238V187H301V184Z" fill="#E6E8EC"/>
<path d="M301 190H238V193H301V190Z" fill="#E6E8EC"/>
<path d="M295 195H238V199H295V195Z" fill="#E6E8EC"/>
<path d="M301 201H238V204H301V201Z" fill="#E6E8EC"/>
<path d="M301 207H238V210H301V207Z" fill="#E6E8EC"/>
<path opacity="0.1" d="M394 157H317V215H394V157Z" fill="black"/>
<path d="M188.92 110H68.089C66.6341 109.997 65.193 110.28 63.848 110.834C62.5031 111.387 61.2806 112.199 60.2507 113.223C59.2208 114.248 58.4035 115.465 57.8457 116.805C57.288 118.145 57.0006 119.581 57 121.032V287.977C57.0017 289.426 57.2898 290.862 57.8478 292.2C58.4058 293.539 59.2229 294.755 60.2522 295.778C61.2816 296.802 62.5031 297.613 63.847 298.166C65.191 298.719 66.6309 299.002 68.0847 299H188.915C190.369 299.002 191.809 298.719 193.153 298.166C194.497 297.613 195.718 296.802 196.748 295.778C197.777 294.755 198.594 293.539 199.152 292.2C199.71 290.862 199.998 289.426 200 287.977V121.032C199.999 119.582 199.712 118.146 199.155 116.807C198.598 115.467 197.781 114.251 196.752 113.226C195.723 112.202 194.502 111.39 193.158 110.836C191.814 110.282 190.374 109.998 188.92 110V110Z" fill="url(#paint1_linear)"/>
<path d="M189.467 113H67.5328C62.8203 113 59 116.804 59 121.497V288.503C59 293.196 62.8203 297 67.5328 297H189.467C194.18 297 198 293.196 198 288.503V121.497C198 116.804 194.18 113 189.467 113Z" fill="#535461"/>
<path d="M191 130H66V280H191V130Z" fill="#F1F1F4"/>
<path d="M128 123C129.105 123 130 122.105 130 121C130 119.895 129.105 119 128 119C126.895 119 126 119.895 126 121C126 122.105 126.895 123 128 123Z" fill="white"/>
<path d="M128 293C130.761 293 133 290.761 133 288C133 285.239 130.761 283 128 283C125.239 283 123 285.239 123 288C123 290.761 125.239 293 128 293Z" fill="white"/>
<path d="M107 145H71V172H107V145Z" fill="white"/>
<path opacity="0.2" d="M86 147H75V154H86V147Z" fill="#5EA400"/>
<path d="M104 147H90V149H104V147Z" fill="#E6E8EC"/>
<path d="M100 150H90V152H100V150Z" fill="#E6E8EC"/>
<path d="M104 153H90V154H104V153Z" fill="#E6E8EC"/>
<path d="M104 155H75V157H104V155Z" fill="#E6E8EC"/>
<path d="M104 157H75V159H104V157Z" fill="#E6E8EC"/>
<path d="M104 160H75V162H104V160Z" fill="#E6E8EC"/>
<path d="M101 163H75V164H101V163Z" fill="#E6E8EC"/>
<path d="M104 165H75V167H104V165Z" fill="#E6E8EC"/>
<path d="M104 168H75V170H104V168Z" fill="#E6E8EC"/>
<path d="M146 145H111V172H146V145Z" fill="white"/>
<path opacity="0.2" d="M126 147H114V154H126V147Z" fill="#5EA400"/>
<path d="M143 147H129V149H143V147Z" fill="#E6E8EC"/>
<path d="M139 150H129V152H139V150Z" fill="#E6E8EC"/>
<path d="M143 153H129V154H143V153Z" fill="#E6E8EC"/>
<path d="M143 155H114V157H143V155Z" fill="#E6E8EC"/>
<path d="M143 157H114V159H143V157Z" fill="#E6E8EC"/>
<path d="M143 160H114V162H143V160Z" fill="#E6E8EC"/>
<path d="M141 163H114V164H141V163Z" fill="#E6E8EC"/>
<path d="M143 165H114V167H143V165Z" fill="#E6E8EC"/>
<path d="M143 168H114V170H143V168Z" fill="#E6E8EC"/>
<path d="M185 145H150V172H185V145Z" fill="white"/>
<path opacity="0.2" d="M165 147H153V154H165V147Z" fill="#5EA400"/>
<path d="M182 147H168V149H182V147Z" fill="#E6E8EC"/>
<path d="M178 150H168V152H178V150Z" fill="#E6E8EC"/>
<path d="M182 153H168V154H182V153Z" fill="#E6E8EC"/>
<path d="M182 155H153V157H182V155Z" fill="#E6E8EC"/>
<path d="M182 157H153V159H182V157Z" fill="#E6E8EC"/>
<path d="M182 160H153V162H182V160Z" fill="#E6E8EC"/>
<path d="M180 163H153V164H180V163Z" fill="#E6E8EC"/>
<path d="M182 165H153V167H182V165Z" fill="#E6E8EC"/>
<path d="M182 168H153V170H182V168Z" fill="#E6E8EC"/>
<path d="M107 175H71V202H107V175Z" fill="white"/>
<path opacity="0.2" d="M86 178H75V184H86V178Z" fill="#5EA400"/>
<path d="M104 178H90V179H104V178Z" fill="#E6E8EC"/>
<path d="M100 180H90V182H100V180Z" fill="#E6E8EC"/>
<path d="M104 182H90V184H104V182Z" fill="#E6E8EC"/>
<path d="M104 186H75V187H104V186Z" fill="#E6E8EC"/>
<path d="M104 188H75V190H104V188Z" fill="#E6E8EC"/>
<path d="M104 190H75V192H104V190Z" fill="#E6E8EC"/>
<path d="M101 193H75V194H101V193Z" fill="#E6E8EC"/>
<path d="M104 196H75V197H104V196Z" fill="#E6E8EC"/>
<path d="M104 198H75V200H104V198Z" fill="#E6E8EC"/>
<path d="M146 175H111V202H146V175Z" fill="white"/>
<path opacity="0.2" d="M126 178H114V184H126V178Z" fill="#5EA400"/>
<path d="M143 178H129V179H143V178Z" fill="#E6E8EC"/>
<path d="M139 180H129V182H139V180Z" fill="#E6E8EC"/>
<path d="M143 182H129V184H143V182Z" fill="#E6E8EC"/>
<path d="M143 186H114V187H143V186Z" fill="#E6E8EC"/>
<path d="M143 188H114V190H143V188Z" fill="#E6E8EC"/>
<path d="M143 190H114V192H143V190Z" fill="#E6E8EC"/>
<path d="M141 193H114V194H141V193Z" fill="#E6E8EC"/>
<path d="M143 196H114V197H143V196Z" fill="#E6E8EC"/>
<path d="M143 198H114V200H143V198Z" fill="#E6E8EC"/>
<path d="M185 175H150V202H185V175Z" fill="white"/>
<path opacity="0.2" d="M165 178H153V184H165V178Z" fill="#5EA400"/>
<path d="M182 178H168V179H182V178Z" fill="#E6E8EC"/>
<path d="M178 180H168V182H178V180Z" fill="#E6E8EC"/>
<path d="M182 182H168V184H182V182Z" fill="#E6E8EC"/>
<path d="M182 186H153V187H182V186Z" fill="#E6E8EC"/>
<path d="M182 188H153V190H182V188Z" fill="#E6E8EC"/>
<path d="M182 190H153V192H182V190Z" fill="#E6E8EC"/>
<path d="M180 193H153V194H180V193Z" fill="#E6E8EC"/>
<path d="M182 196H153V197H182V196Z" fill="#E6E8EC"/>
<path d="M182 198H153V200H182V198Z" fill="#E6E8EC"/>
<path d="M107 207H71V234H107V207Z" fill="white"/>
<path opacity="0.2" d="M86 209H75V215H86V209Z" fill="#5EA400"/>
<path d="M104 209H90V211H104V209Z" fill="#E6E8EC"/>
<path d="M100 212H90V213H100V212Z" fill="#E6E8EC"/>
<path d="M104 214H90V215H104V214Z" fill="#E6E8EC"/>
<path d="M104 217H75V219H104V217Z" fill="#E6E8EC"/>
<path d="M104 219H75V221H104V219Z" fill="#E6E8EC"/>
<path d="M104 222H75V223H104V222Z" fill="#E6E8EC"/>
<path d="M101 224H75V226H101V224Z" fill="#E6E8EC"/>
<path d="M104 227H75V229H104V227Z" fill="#E6E8EC"/>
<path d="M104 230H75V231H104V230Z" fill="#E6E8EC"/>
<path d="M146 207H111V234H146V207Z" fill="white"/>
<path opacity="0.2" d="M126 209H114V215H126V209Z" fill="#5EA400"/>
<path d="M143 209H129V211H143V209Z" fill="#E6E8EC"/>
<path d="M139 212H129V213H139V212Z" fill="#E6E8EC"/>
<path d="M143 214H129V215H143V214Z" fill="#E6E8EC"/>
<path d="M143 217H114V219H143V217Z" fill="#E6E8EC"/>
<path d="M143 219H114V221H143V219Z" fill="#E6E8EC"/>
<path d="M143 222H114V223H143V222Z" fill="#E6E8EC"/>
<path d="M141 224H114V226H141V224Z" fill="#E6E8EC"/>
<path d="M143 227H114V229H143V227Z" fill="#E6E8EC"/>
<path d="M143 230H114V231H143V230Z" fill="#E6E8EC"/>
<path d="M185 207H150V234H185V207Z" fill="white"/>
<path opacity="0.2" d="M165 209H153V215H165V209Z" fill="#5EA400"/>
<path d="M182 209H168V211H182V209Z" fill="#E6E8EC"/>
<path d="M178 212H168V213H178V212Z" fill="#E6E8EC"/>
<path d="M182 214H168V215H182V214Z" fill="#E6E8EC"/>
<path d="M182 217H153V219H182V217Z" fill="#E6E8EC"/>
<path d="M182 219H153V221H182V219Z" fill="#E6E8EC"/>
<path d="M182 222H153V223H182V222Z" fill="#E6E8EC"/>
<path d="M180 224H153V226H180V224Z" fill="#E6E8EC"/>
<path d="M182 227H153V229H182V227Z" fill="#E6E8EC"/>
<path d="M182 230H153V231H182V230Z" fill="#E6E8EC"/>
<path d="M107 237H71V263H107V237Z" fill="white"/>
<path opacity="0.2" d="M86 239H75V246H86V239Z" fill="#5EA400"/>
<path d="M104 239H90V241H104V239Z" fill="#E6E8EC"/>
<path d="M100 242H90V243H100V242Z" fill="#E6E8EC"/>
<path d="M104 245H90V246H104V245Z" fill="#E6E8EC"/>
<path d="M104 247H75V248H104V247Z" fill="#E6E8EC"/>
<path d="M104 249H75V251H104V249Z" fill="#E6E8EC"/>
<path d="M104 252H75V254H104V252Z" fill="#E6E8EC"/>
<path d="M101 255H75V256H101V255Z" fill="#E6E8EC"/>
<path d="M104 257H75V259H104V257Z" fill="#E6E8EC"/>
<path d="M104 260H75V261H104V260Z" fill="#E6E8EC"/>
<path d="M146 237H111V263H146V237Z" fill="white"/>
<path opacity="0.2" d="M126 239H114V246H126V239Z" fill="#5EA400"/>
<path d="M143 239H129V241H143V239Z" fill="#E6E8EC"/>
<path d="M139 242H129V243H139V242Z" fill="#E6E8EC"/>
<path d="M143 245H129V246H143V245Z" fill="#E6E8EC"/>
<path d="M143 247H114V248H143V247Z" fill="#E6E8EC"/>
<path d="M143 249H114V251H143V249Z" fill="#E6E8EC"/>
<path d="M143 252H114V254H143V252Z" fill="#E6E8EC"/>
<path d="M141 255H114V256H141V255Z" fill="#E6E8EC"/>
<path d="M143 257H114V259H143V257Z" fill="#E6E8EC"/>
<path d="M143 260H114V261H143V260Z" fill="#E6E8EC"/>
<path opacity="0.1" d="M185 237H150V263H185V237Z" fill="black"/>
<path d="M96.8795 167H35.1205C34.3184 166.998 33.5238 167.154 32.7822 167.459C32.0405 167.763 31.3663 168.21 30.7979 168.775C30.2296 169.339 29.7783 170.009 29.4698 170.748C29.1613 171.486 29.0017 172.277 29 173.077V307.923C29.0017 308.723 29.1613 309.514 29.4698 310.252C29.7783 310.991 30.2296 311.661 30.7979 312.225C31.3663 312.79 32.0405 313.237 32.7822 313.541C33.5238 313.846 34.3184 314.002 35.1205 314H96.8795C97.6816 314.002 98.4762 313.846 99.2178 313.541C99.9595 313.237 100.634 312.79 101.202 312.225C101.77 311.661 102.222 310.991 102.53 310.252C102.839 309.514 102.998 308.723 103 307.923V173.081C102.999 172.281 102.84 171.489 102.531 170.75C102.223 170.012 101.772 169.341 101.204 168.776C100.635 168.211 99.9607 167.764 99.2188 167.459C98.4769 167.154 97.682 166.998 96.8795 167V167Z" fill="url(#paint2_linear)"/>
<path d="M97.3644 168H34.6356C32.0754 168 30 170.104 30 172.7V309.3C30 311.896 32.0754 314 34.6356 314H97.3644C99.9246 314 102 311.896 102 309.3V172.7C102 170.104 99.9246 168 97.3644 168Z" fill="#535461"/>
<path d="M97 181H35V300H97V181Z" fill="#F1F1F4"/>
<path d="M58.5 175C58.7761 175 59 174.776 59 174.5C59 174.224 58.7761 174 58.5 174C58.2239 174 58 174.224 58 174.5C58 174.776 58.2239 175 58.5 175Z" fill="white"/>
<path d="M73.5539 174H61.4461C61.1997 174 61 174.169 61 174.377V174.623C61 174.831 61.1997 175 61.4461 175H73.5539C73.8003 175 74 174.831 74 174.623V174.377C74 174.169 73.8003 174 73.5539 174Z" fill="white"/>
<path d="M66 310C68.2091 310 70 308.209 70 306C70 303.791 68.2091 302 66 302C63.7909 302 62 303.791 62 306C62 308.209 63.7909 310 66 310Z" fill="white"/>
<path opacity="0.1" d="M87 188H45V220H87V188Z" fill="black"/>
<path d="M87 224H45V256H87V224Z" fill="white"/>
<path opacity="0.2" d="M63 227H49V235H63V227Z" fill="#5EA400"/>
<path d="M83 227H67V229H83V227Z" fill="#E6E8EC"/>
<path d="M79 230H67V232H79V230Z" fill="#E6E8EC"/>
<path d="M83 234H67V235H83V234Z" fill="#E6E8EC"/>
<path d="M83 236H49V238H83V236Z" fill="#E6E8EC"/>
<path d="M83 239H49V241H83V239Z" fill="#E6E8EC"/>
<path d="M83 242H49V245H83V242Z" fill="#E6E8EC"/>
<path d="M80 245H49V248H80V245Z" fill="#E6E8EC"/>
<path d="M83 248H49V250H83V248Z" fill="#E6E8EC"/>
<path d="M83 252H49V253H83V252Z" fill="#E6E8EC"/>
<path d="M87 260H45V292H87V260Z" fill="white"/>
<path opacity="0.2" d="M63 263H49V271H63V263Z" fill="#5EA400"/>
<path d="M83 263H67V265H83V263Z" fill="#E6E8EC"/>
<path d="M79 267H67V268H79V267Z" fill="#E6E8EC"/>
<path d="M83 269H67V271H83V269Z" fill="#E6E8EC"/>
<path d="M83 272H49V274H83V272Z" fill="#E6E8EC"/>
<path d="M83 275H49V278H83V275Z" fill="#E6E8EC"/>
<path d="M83 278H49V280H83V278Z" fill="#E6E8EC"/>
<path d="M80 281H49V283H80V281Z" fill="#E6E8EC"/>
<path d="M83 285H49V286H83V285Z" fill="#E6E8EC"/>
<path d="M83 288H49V289H83V288Z" fill="#E6E8EC"/>
<path d="M232 275.095C229.127 271.633 225.647 267.653 226.134 263.044C226.527 259.31 225.582 255.861 225.771 252.119C226.036 246.801 224.954 242.634 221.097 239.223C218.844 237.231 215.077 235.663 213.957 236.063C211.734 236.853 209.31 236.551 207.022 237.082C205.286 237.507 204.128 238.106 203.414 238.883C201.973 240.157 201.947 241.967 202.606 243.9C202.031 244.944 201.684 246.096 201.587 247.282C201.491 248.468 201.647 249.661 202.045 250.783C202.444 251.905 203.076 252.932 203.9 253.795C204.725 254.658 205.723 255.339 206.83 255.793C205.227 256.456 203.837 257.989 203.303 261.099C202.922 263.235 202.35 265.333 201.592 267.368C201.253 267.529 200.904 267.671 200.549 267.793C200.626 267.823 200.707 267.844 200.789 267.874C200.622 267.938 200.451 268.001 200.284 268.061C200.592 268.179 200.909 268.27 201.233 268.333C200.067 271.34 198.499 274.179 196.573 276.773C196.573 276.773 191.733 277.835 189.852 275.979C189.852 275.979 190.16 276.335 190.574 276.871C188.732 276.11 185.713 274.874 183.131 273.855C181.258 273.116 180.775 273.855 180.8 274.883C180.34 274.936 179.895 275.08 179.492 275.307C178.939 274.954 178.358 274.645 177.756 274.381C176.679 274.118 173.186 272.258 169.688 278.629C167.653 282.337 162.42 289.1 158.422 294.108C150.619 297.672 140.465 302.179 136.694 303.321H134.283C133.966 302.807 133.744 302.472 133.744 302.472L133.556 302.595L133.475 302.472C133.475 302.472 128.724 305.738 123.902 305.764C123.215 305.753 122.533 305.664 121.866 305.5C119.647 304.944 118.087 304.697 116.971 304.719C115.65 304.697 114.902 305.008 114.436 305.594C114.375 305.671 114.319 305.752 114.269 305.836V305.836C114.217 305.923 114.17 306.012 114.128 306.103V306.103C114.085 306.197 114.047 306.295 114.008 306.397C113.993 306.486 113.999 306.577 114.025 306.664C114.051 306.751 114.096 306.831 114.158 306.898C114.222 306.99 114.292 307.078 114.367 307.161L114.5 307.306C115.455 308.189 116.49 308.984 117.591 309.68C117.989 309.948 118.408 310.22 118.848 310.5L119.682 311.027L120.426 311.49L120.725 311.672L121.058 311.876L121.653 312.237L122.008 312.45L122.675 312.845L123.213 313.163C124.624 314.013 126.035 314.794 127.301 315.504L128.19 316.001L128.275 316.047L128.844 316.362L129.832 316.905L130.512 317.275L130.828 317.449L131.17 317.632L131.238 317.67L131.828 317.989C131.95 318.009 132.074 318.002 132.193 317.97C132.312 317.938 132.422 317.88 132.517 317.802C132.688 317.08 133.107 315.533 133.551 315.415C133.996 315.296 135.937 311.914 136.489 309.663H141.735C142.766 309.577 143.79 309.422 144.8 309.2C143.445 310.16 142.103 310.763 141.059 310.504C138.853 309.96 136.762 311.294 136.553 312.628L136.527 312.709C136.527 312.734 136.527 312.764 136.527 312.789C136.527 312.815 136.527 312.853 136.527 312.887C136.527 312.921 136.527 312.942 136.527 312.968C136.527 312.993 136.527 313.032 136.527 313.066C136.527 313.099 136.527 313.121 136.527 313.146C136.527 313.172 136.527 313.214 136.527 313.244C136.527 313.274 136.527 313.295 136.527 313.32C136.527 313.346 136.527 313.393 136.553 313.427C136.579 313.461 136.553 313.473 136.553 313.495C136.569 313.541 136.587 313.586 136.609 313.63V313.664C136.638 313.72 136.67 313.774 136.707 313.826L136.75 313.881L136.835 313.987L136.895 314.047L136.993 314.14L137.066 314.2L137.181 314.285L137.267 314.34L137.408 314.421L137.502 314.472L137.677 314.552L137.767 314.59C137.861 314.629 137.96 314.667 138.066 314.701C138.173 314.735 138.434 314.811 138.661 314.867L138.887 314.922L139.217 314.998L139.392 315.036L140.11 315.181L140.461 315.245L140.747 315.296L141.406 315.41L142.688 315.618L143.821 315.788L145.296 315.996L145.621 316.039L146.151 316.111L146.913 316.213L147.434 316.281L148.781 316.451L149.209 316.502L150.064 316.604C151.18 316.736 152.261 316.863 153.253 316.973L154.403 317.101L154.985 317.165L155.233 317.19L155.93 317.267L156.319 317.309L156.793 317.36L157.465 317.428H157.537L157.965 317.47C158.018 317.476 158.072 317.47 158.124 317.453C158.175 317.437 158.222 317.41 158.262 317.375C158.302 317.339 158.335 317.296 158.357 317.247C158.379 317.198 158.391 317.146 158.392 317.092V317.092C158.392 317.092 158.392 317.063 158.392 317.05C158.433 316.989 158.455 316.919 158.456 316.846C158.467 316.211 158.548 315.578 158.696 314.96C158.726 314.854 158.76 314.743 158.794 314.637L158.837 314.514C158.884 314.382 158.931 314.251 158.987 314.115C159.025 314.019 159.058 313.921 159.085 313.822L159.111 313.728C159.111 313.677 159.136 313.622 159.149 313.567C159.692 311.732 159.038 308.312 158.85 306.97C158.791 306.537 158.692 306.111 158.555 305.696C158.589 305.699 158.623 305.699 158.657 305.696C158.936 305.592 159.198 305.449 159.436 305.271C163.399 303.865 166.747 302.259 167.803 300.649C169.521 300.195 171.347 300.384 172.933 301.18C174.986 302.196 190.519 307.229 197.753 309.557C199.036 310.67 200.07 311.32 200.63 311.256C200.63 311.256 209.836 312.734 213.538 309.846C213.867 310.071 214.073 310.194 214.073 310.194C214.073 310.194 219.451 307.539 220.259 304.09C220.52 302.973 220.755 301.321 220.995 299.494C222.244 298.245 222.946 296.557 222.949 294.796C223.115 288.998 225.377 282.376 227.053 276.476C229.088 276.633 229.875 276.255 231.756 275.337L231.675 275.231L232 275.095ZM201.165 283.777L200.139 283.433C200.486 282.972 200.786 282.477 201.032 281.955L201.165 283.777ZM195.376 286.216L201.609 289.932L201.665 290.688C201.589 291.264 201.606 291.847 201.716 292.417C198.971 289.992 195.756 287.048 195.38 286.216H195.376ZM192.832 280.804C192.152 280.524 191.588 280.273 191.203 280.065L192.648 280.154C192.734 280.363 192.797 280.581 192.836 280.804H192.832ZM176.157 286.857C176.157 286.857 177.235 284.47 179.655 288.45C180.031 289.07 180.723 290.051 181.638 291.275L174.601 290.336C175.332 289.283 175.857 288.103 176.149 286.857H176.157Z" fill="url(#paint3_linear)"/>
<path d="M191.518 277.612C191.518 277.612 186.832 275.7 183.138 274.268C179.443 272.836 181.66 277.612 181.66 277.612C181.66 277.612 187.823 279.284 187.823 279.524C187.823 279.764 193 280 193 280L191.518 277.612Z" fill="#F7C4A7"/>
<path opacity="0.05" d="M191.518 277.612C191.518 277.612 186.832 275.7 183.138 274.268C179.443 272.836 181.66 277.612 181.66 277.612C181.66 277.612 187.823 279.284 187.823 279.524C187.823 279.764 193 280 193 280L191.518 277.612Z" fill="black"/>
<path d="M213 257.227C213 257.227 203.931 252.455 202.327 261.732C201.328 267.38 199.052 272.729 195.67 277.375C195.67 277.375 190.867 278.436 189 276.581C189 276.581 193.535 281.881 191.399 282.413C191.399 282.413 196.202 285.858 198.337 284.797C200.473 283.736 202.072 276.581 202.872 274.725C203.672 272.87 206.607 256.694 213 257.227Z" fill="#575988"/>
<path opacity="0.1" d="M213 257.227C213 257.227 203.931 252.455 202.327 261.732C201.328 267.38 199.052 272.729 195.67 277.375C195.67 277.375 190.867 278.436 189 276.581C189 276.581 193.535 281.881 191.399 282.413C191.399 282.413 196.202 285.858 198.337 284.797C200.473 283.736 202.072 276.581 202.872 274.725C203.672 272.87 206.607 256.694 213 257.227Z" fill="black"/>
<path d="M208 253.909C208 253.909 213.235 260.258 213.485 265.548C213.735 270.838 219.467 259.992 219.968 259.727C220.469 259.461 214.979 250.471 214.479 247.565C213.978 244.659 208 253.909 208 253.909Z" fill="#F7C4A7"/>
<path d="M211.419 256L208 259.542L209.612 267L214 262.276L213.485 257.552L211.419 256Z" fill="#F7C4A7"/>
<path d="M139.934 303H134L136.321 308L142 306.637L139.934 303Z" fill="#F7C4A7"/>
<path opacity="0.1" d="M135.13 302C135.13 302 128.851 306.237 123.473 304.916C118.094 303.595 116.642 304.074 116.016 305.795C115.437 307.361 131.021 315.646 133.504 316.954C133.543 316.979 133.588 316.995 133.635 316.999C133.681 317.003 133.729 316.996 133.772 316.978C133.815 316.96 133.853 316.932 133.882 316.896C133.911 316.86 133.93 316.818 133.939 316.773C134.108 316.079 134.517 314.59 134.952 314.476C135.521 314.329 138.126 309.629 137.995 307.773C137.865 305.917 135.13 302 135.13 302Z" fill="black"/>
<path d="M135.13 302C135.13 302 128.851 306.237 123.473 304.916C118.094 303.595 116.642 304.074 116.016 305.795C115.437 307.361 131.021 315.646 133.504 316.954C133.543 316.979 133.588 316.995 133.635 316.999C133.681 317.003 133.729 316.996 133.772 316.978C133.815 316.96 133.853 316.932 133.882 316.896C133.911 316.86 133.93 316.818 133.938 316.773C134.108 316.079 134.517 314.59 134.952 314.476C135.521 314.329 138.126 309.629 137.995 307.773C137.865 305.917 135.13 302 135.13 302Z" fill="#F3B5B7"/>
<path d="M185.6 291.359L168.371 289C168.371 289 140.342 302.639 137 302.902L137.771 308.95H142.912C144.971 308.95 165.025 304.492 167.854 300.034C169.491 299.589 171.231 299.775 172.742 300.556C175.312 301.852 200 310 200 310L185.6 291.359Z" fill="#575988"/>
<path opacity="0.1" d="M185.6 291.359L168.371 289C168.371 289 140.342 302.639 137 302.902L137.771 308.95H142.912C144.971 308.95 165.025 304.492 167.854 300.034C169.491 299.589 171.231 299.775 172.742 300.556C175.312 301.852 200 310 200 310L185.6 291.359Z" fill="black"/>
<path d="M154.851 300L152 303.501L154.851 305L159 302.002L154.851 300Z" fill="#F7C4A7"/>
<path d="M205.018 295.533C205.018 295.533 195.603 287.514 194.944 286.056C194.284 284.598 178.847 274.709 177.8 274.447C176.752 274.185 173.351 272.363 169.95 278.611C166.549 284.859 154 299.959 154 299.959C154 299.959 157.927 305.426 159.233 305.165C160.539 304.903 175.183 292.668 176.244 286.678C176.244 286.678 177.291 284.336 179.645 288.239C181.999 292.141 197.181 310.89 200.061 310.628C200.061 310.628 211.316 312.451 213.67 308.025C216.024 303.6 205.018 295.533 205.018 295.533Z" fill="#575988"/>
<path d="M202 254H163V283H202V254Z" fill="url(#paint4_linear)"/>
<path d="M200 255H165V281H200V255Z" fill="white"/>
<path opacity="0.2" d="M180 257H168V264H180V257Z" fill="#5EA400"/>
<path d="M197 257H183V259H197V257Z" fill="#E6E8EC"/>
<path d="M193 259H183V261H193V259Z" fill="#E6E8EC"/>
<path d="M197 263H183V264H197V263Z" fill="#E6E8EC"/>
<path d="M197 265H168V267H197V265Z" fill="#E6E8EC"/>
<path d="M197 267H168V269H197V267Z" fill="#E6E8EC"/>
<path d="M197 270H168V271H197V270Z" fill="#E6E8EC"/>
<path d="M195 273H168V274H195V273Z" fill="#E6E8EC"/>
<path d="M197 275H168V277H197V275Z" fill="#E6E8EC"/>
<path d="M197 278H168V279H197V278Z" fill="#E6E8EC"/>
<path d="M209.693 257.41C209.693 257.41 206.379 258.853 206.113 264.884C205.846 270.915 200 281.146 200 281.146L200.528 293.212C200.528 293.212 206.89 299.506 207.422 303.442C207.955 307.378 212.465 310 212.465 310C212.465 310 217.766 307.378 218.578 303.952C219.39 300.526 219.888 292.149 221.228 289C222.568 285.85 221.756 266.18 221.756 266.18L217.779 259.359L215.657 257L210.09 263.295C210.09 263.295 207.043 259.242 209.693 257.41Z" fill="#F3B5B7"/>
<path opacity="0.1" d="M202.333 289.163C202.333 289.163 201.557 279.646 203.886 277.535L208.548 264.04C208.548 264.04 210.233 257.566 209.973 257.035C209.712 256.504 203.886 262.189 203.886 262.189L200 276.199L201.037 291L202.333 289.163Z" fill="black"/>
<path d="M202.304 289.17C202.304 289.17 201.538 279.689 203.837 277.586L208.441 264.142C208.441 264.142 210.232 257.558 209.975 257.034C209.718 256.509 203.837 262.299 203.837 262.299L200 276.255L201.024 291L202.304 289.17Z" fill="#575988"/>
<path d="M204 284.985C204 284.985 191.059 280.813 190.292 279.769C189.526 278.725 181.241 271.945 178.395 276.637C175.55 281.329 188.998 282.652 188.998 282.652L202.705 291L204 284.985Z" fill="#F7C4A7"/>
<path opacity="0.1" d="M155.738 303.652L151.9 303C151.9 303 145.623 310.585 142.357 309.816C139.09 309.048 136.08 312.367 139.534 313.438C142.655 314.399 156.126 315.747 158.702 315.997C158.754 316.004 158.808 316 158.859 315.986C158.91 315.971 158.957 315.947 158.998 315.914C159.038 315.882 159.07 315.841 159.093 315.796C159.115 315.75 159.128 315.701 159.128 315.651C159.14 314.708 159.334 313.776 159.7 312.898C160.39 311.289 159.7 307.861 159.508 306.557C159.401 305.788 159.145 305.045 158.753 304.364L155.738 303.652Z" fill="black"/>
<path d="M155.752 303.702L151.915 303C151.915 303 145.647 311.173 142.36 310.341C139.073 309.509 136.084 313.088 139.538 314.24C142.659 315.276 156.127 316.728 158.702 316.996C158.755 317.004 158.808 317 158.859 316.984C158.91 316.969 158.958 316.943 158.998 316.908C159.038 316.873 159.071 316.829 159.093 316.78C159.116 316.731 159.128 316.678 159.128 316.624C159.141 315.609 159.334 314.604 159.7 313.66C160.39 311.927 159.7 308.235 159.508 306.831C159.401 306.003 159.145 305.202 158.753 304.469L155.752 303.702Z" fill="#F3B5B7"/>
<path opacity="0.1" d="M209.5 257C214.194 257 218 253.418 218 249C218 244.582 214.194 241 209.5 241C204.806 241 201 244.582 201 249C201 253.418 204.806 257 209.5 257Z" fill="black"/>
<path d="M209 257C213.971 257 218 253.418 218 249C218 244.582 213.971 241 209 241C204.029 241 200 244.582 200 249C200 253.418 204.029 257 209 257Z" fill="#F7C4A7"/>
<path d="M217.217 257C217.217 257 227 260.337 227 267.273C227 274.209 221.593 285.248 221.334 294.235C221.076 303.222 206.916 301.936 206.916 301.936C206.916 301.936 204.855 271.638 206.916 269.324C208.977 267.011 218.247 258.028 217.217 257Z" fill="#575988"/>
<path opacity="0.1" d="M215.269 270.871C215.269 270.871 211.719 287.106 203.349 284.242C203.349 284.242 199.039 290.789 202.096 293.67C202.096 293.67 209.451 295.503 214.267 290.526C219.083 285.548 222.624 283.707 223.385 277.668C224.145 271.63 224.638 263.266 222.132 264.051C219.625 264.836 215.269 270.871 215.269 270.871Z" fill="black"/>
<path d="M215.877 270.851C215.877 270.851 212.176 287.1 203.449 284.233C203.449 284.233 198.955 290.786 202.143 293.67C202.143 293.67 209.811 295.505 214.832 290.523C219.853 285.541 223.541 283.706 224.351 277.68C225.161 271.654 225.657 263.266 223.045 264.051C220.432 264.837 215.877 270.851 215.877 270.851Z" fill="#575988"/>
<path d="M160 312C160 312.036 160 312.071 159.943 312.101C159.534 312.714 159.218 313.35 159 314C159.132 313.716 159.292 313.408 159.481 313.142C159.723 312.775 159.897 312.392 160 312V312Z" fill="#DDDBE2"/>
<path d="M139.705 312.837C138.645 312.417 138.2 311.726 138.183 311C137.759 312.023 138.021 313.149 139.518 313.742C142.622 314.965 156.019 316.679 158.576 316.996C158.629 317.005 158.682 317 158.733 316.981C158.784 316.963 158.832 316.932 158.872 316.889C158.912 316.847 158.944 316.795 158.966 316.737C158.988 316.678 159 316.615 159 316.551V316.551C159.002 316.437 158.968 316.328 158.906 316.242C158.844 316.157 158.758 316.103 158.665 316.09C155.846 315.722 142.766 314.039 139.705 312.837Z" fill="#DDDBE2"/>
<path d="M116.382 305.534C116.45 305.349 116.536 305.17 116.639 305C116.353 305.275 116.14 305.609 116.016 305.977C115.436 307.517 131.066 315.666 133.556 316.958C133.595 316.981 133.64 316.996 133.687 316.999C133.734 317.003 133.78 316.995 133.823 316.978C133.866 316.96 133.904 316.933 133.934 316.899C133.963 316.864 133.983 316.823 133.992 316.78V316.78C134.007 316.722 134.001 316.661 133.976 316.606C133.951 316.552 133.907 316.506 133.853 316.477C131.088 315.045 115.806 307.058 116.382 305.534Z" fill="#DDDBE2"/>
<path opacity="0.1" d="M208.215 256.046C207.497 257.682 207.346 259.519 206.818 261.255C206.303 262.936 205.42 264.472 204.237 265.741C203.054 267.011 201.604 267.981 200 268.575C202.647 269.669 205.769 268.332 207.816 266.118C209.863 263.904 211.059 260.956 212.209 258.091C215.179 260.157 214.818 264.907 215.813 268.606C216.241 270.214 216.999 271.709 218.034 272.989C219.069 274.269 220.357 275.305 221.812 276.025C223.262 276.699 224.838 277.031 226.427 276.998C228.016 276.965 229.578 276.567 231 275.834C228.277 272.396 224.401 267.681 224.862 263.105C225.235 259.397 222.664 256.567 222.844 252.85C223.096 247.571 221.166 244.901 217.495 241.515C215.359 239.535 218.72 236.739 215.968 237.56C214.885 237.881 213.744 236.692 212.683 237.078C210.585 237.86 208.282 237.564 206.117 238.09C194.861 240.816 209.255 253.654 208.215 256.046Z" fill="black"/>
<path d="M208.215 255.61C207.497 257.203 207.346 258.99 206.818 260.68C206.303 262.315 205.42 263.809 204.237 265.045C203.054 266.28 201.604 267.224 200 267.802C202.647 268.867 205.769 267.566 207.816 265.411C209.863 263.257 211.059 260.388 212.209 257.6C215.179 259.611 214.818 264.233 215.813 267.832C216.241 269.397 216.999 270.852 218.034 272.098C219.069 273.343 220.357 274.35 221.812 275.051C223.262 275.707 224.838 276.03 226.427 275.998C228.016 275.966 229.578 275.579 231 274.865C228.277 271.52 224.657 267.684 225.126 263.248C225.5 259.641 224.942 255.936 225.126 252.32C225.378 247.183 222.882 242.236 219.228 238.941C217.092 237.014 213.774 236.769 212.695 237.154C210.598 237.914 208.294 237.627 206.13 238.138C194.861 240.795 209.264 253.283 208.215 255.61Z" fill="#B96B6B"/>
<path d="M69.5736 334.612C84.5515 330.018 93.3927 330.397 93.3927 330.397L92.1645 323.457C92.5482 323.201 92.8964 322.896 93.2001 322.549C93.2001 322.549 91.6638 314.124 93.2001 312.017C94.7364 309.91 98.9644 290.766 98.9644 290.766V284.253C106.667 281.574 115.675 266.065 115.675 266.065L127.011 295.16C127.011 295.16 138.343 317.562 139.88 318.326C141.108 318.936 141.72 323.948 141.921 325.94L141.827 325.97C141.874 326.452 141.895 326.75 141.895 326.75L141.985 326.691V326.75C142.175 326.618 142.376 326.501 142.584 326.4C140.372 328.934 137.059 332.577 134.304 334.983C132.784 336.309 135.51 337.333 136.786 337.312C137.511 337.288 138.235 337.391 138.925 337.615C145.383 339.837 156 331.724 156 331.724L153.343 324.336C154.036 324.281 154.464 324.255 154.464 324.255C154.464 324.255 145.819 294.004 141.784 291.129C140.508 290.202 139.358 289.115 138.36 287.896C136.441 285.571 135.474 282.609 135.652 279.603L137.068 254.782C139.345 254.45 140.812 254.172 140.812 254.172C140.812 254.172 141.343 247.39 141.326 242.186C141.326 239.478 141.215 237.102 140.812 236.172C140.337 235.071 140.188 232.87 140.179 230.661C140.179 227.675 140.427 224.877 140.427 224.877C140.427 224.877 143.5 220.854 147.728 211.654C149.589 207.606 150.073 204.402 150.03 202.107C150.059 201.038 149.956 199.969 149.722 198.925C149.602 198.409 149.381 197.922 149.07 197.492C148.759 197.062 148.365 196.698 147.912 196.421C145.481 194.937 139.948 191.273 138.318 187.724C136.246 183.22 133.255 182.58 133.135 182.554L132.951 181.761C134.098 180.815 134.936 179.55 135.356 178.127C135.981 176.207 136.109 174.16 136.64 172.21C136.897 171.272 137.252 170.363 137.496 169.425C137.74 168.481 137.856 167.508 137.843 166.533C137.889 165.113 137.596 163.702 136.987 162.417C135.994 160.382 134.017 158.782 131.766 158.518C130.525 158.373 129.151 158.586 128.133 157.865C127.431 157.366 127.063 156.517 126.421 155.925C125.201 154.773 123.25 154.833 121.662 155.37C119.524 156.101 117.693 157.523 116.459 159.41C115.718 160.544 115.2 161.845 114.25 162.822C113.45 163.637 112.402 164.157 111.52 164.882C110.868 165.39 110.337 166.036 109.967 166.774C109.597 167.512 109.396 168.323 109.38 169.148C109.38 169.148 109.38 169.19 109.38 169.212C109.38 169.318 109.38 169.425 109.38 169.532C109.423 171.178 110.574 172.816 112.192 173.149C112.616 173.226 113.049 173.238 113.476 173.183C113.111 174.527 113.022 175.93 113.215 177.308C113.407 178.687 113.877 180.013 114.596 181.206C115.315 182.4 116.268 183.436 117.398 184.253C118.529 185.07 119.813 185.652 121.174 185.962C121.149 186.099 121.119 186.235 121.089 186.389H121.179C120.993 187.053 120.762 187.703 120.485 188.334H120.361L120.674 187.78L116.266 187.477C114.983 187.38 113.696 187.62 112.534 188.172C111.015 188.906 109.355 190.305 109.149 192.949C108.764 197.906 99.3496 205.371 99.3496 205.371C96.0844 210.54 74.7602 211.496 74.7602 211.496C74.7602 211.496 74.8544 211.615 74.8972 211.679L74.4693 211.598L72.8559 211.304C72.8559 211.304 67.8619 196.562 63.0604 199.241C58.259 201.92 71.3196 216.474 71.3196 216.474L75.094 216.725L75.4749 216.751C75.3364 217.705 75.1377 218.65 74.8801 219.579V219.579C74.8287 219.767 74.7902 219.886 74.7816 219.916C74.7816 219.916 84.7098 218.773 93.1445 218.956H93.9062L94.4454 218.931C94.8733 223.55 101.481 232.939 101.481 232.939L105.559 233.792L105.867 233.856C104.553 236.565 102.884 239.088 100.903 241.359L99.5593 248.828L99.6662 248.802L99.5593 249.404C99.7896 249.348 100.003 249.236 100.18 249.079C97.5479 256.041 93.183 266.875 90.1489 270.654C85.54 276.4 86.1134 285.584 86.1134 285.584C86.1134 285.584 81.5046 309.709 81.6971 314.112C81.7194 316.236 81.1426 318.325 80.0324 320.139C79.1284 321.173 78.3339 322.298 77.6617 323.496C74.2039 329.433 68.6322 329.041 68.6322 329.041C63.8307 332.121 69.5736 334.612 69.5736 334.612ZM99.2426 217.826L99.739 217.63L99.8545 217.583L100.33 217.378L100.411 217.34L100.839 217.143L100.933 217.101L101.387 216.875L101.494 216.819L101.921 216.593H101.956L102.384 216.346L102.486 216.286L102.914 216.039L102.983 215.996L103.355 215.77L103.441 215.719L103.839 215.467L103.929 215.407L104.297 215.164L104.331 215.143L104.707 214.883L104.793 214.823L105.152 214.567L105.208 214.529L105.525 214.298L105.593 214.247L105.923 213.995L105.991 213.944L106.291 213.71H106.316L106.62 213.466L106.684 213.415L106.971 213.181L106.997 213.159L107.254 212.942L107.296 212.903L107.549 212.686L107.587 212.652L107.818 212.443L108.041 212.242L108.071 212.212L108.499 211.786L109.124 211.735C109.654 212.421 109.864 213.637 109.885 215.032C109.825 218.611 108.739 223.03 108.739 223.03C108.646 225.223 108.263 227.394 107.6 229.488C107.132 229.462 106.672 229.351 106.244 229.159C106.244 229.159 106.218 229.296 106.179 229.526L105.811 229.432L103.941 228.967C103.941 228.967 102.388 221.085 99.2426 217.826Z" fill="url(#paint5_linear)"/>
<path d="M151.539 320L155 329.881C155 329.881 145.523 337.331 139.366 335.79C138.439 335.554 137.494 335.397 136.541 335.322C135.266 335.224 133.072 334.274 134.426 333.061C138.797 329.145 144.622 321.869 144.622 321.869L151.539 320Z" fill="#4F4D59"/>
<path d="M92.3177 319.287L94 328.868C94 328.868 85.3919 328.49 70.7975 333C70.7975 333 65.1826 330.557 69.8624 327.552C69.8624 327.552 75.2894 327.929 78.6583 322.103C82.0273 316.277 84.0853 317.032 84.0853 317.032L92.3177 319.287Z" fill="#4F4D59"/>
<path d="M136.324 249.809L134.674 278.835C134.497 281.929 135.525 284.971 137.543 287.325C138.455 288.406 139.494 289.374 140.637 290.207C144.57 293.011 153 322.567 153 322.567C153 322.567 143.446 323.126 140.826 325C140.826 325 140.266 317.517 138.765 316.77C137.265 316.023 126.214 294.147 126.214 294.147L115.156 265.709C115.156 265.709 106.35 280.863 98.8562 283.479V289.84C98.8562 289.84 94.7353 308.545 93.2349 310.602C91.7344 312.659 93.2349 320.889 93.2349 320.889C93.2349 320.889 88.9259 326.315 79 320.514C79 320.514 82.1847 316.958 81.9923 312.655C81.8 308.352 86.3098 284.79 86.3098 284.79C86.3098 284.79 85.7498 275.826 90.2426 270.2C94.7353 264.574 102.212 243.077 102.212 243.077L107.367 232L136.324 249.809Z" fill="#787C9C"/>
<g opacity="0.1">
<path opacity="0.1" d="M151.741 322.417C151.741 322.417 143.325 292.868 139.399 290.064C138.192 289.181 137.101 288.151 136.151 286.996C134.23 284.673 133.264 281.707 133.45 278.699L135.097 249.679L107.515 232.677L107.891 231.87L136.779 249.675L135.131 278.695C134.946 281.703 135.912 284.669 137.833 286.991C138.782 288.146 139.874 289.177 141.081 290.06C145.007 292.864 153.423 322.413 153.423 322.413C153.423 322.413 143.884 322.972 141.268 324.845C141.268 324.845 141.247 324.555 141.2 324.082C144.879 322.823 151.741 322.417 151.741 322.417Z" fill="black"/>
<path opacity="0.1" d="M92.0835 320.744C92.0835 320.744 90.5855 312.516 92.0835 310.459C93.5814 308.402 97.6955 289.701 97.6955 289.701V283.342C105.177 280.722 113.968 265.576 113.968 265.576L114.621 267.262C112.086 271.282 105.322 281.264 99.3812 283.342V289.701C99.3812 289.701 95.2672 308.402 93.7692 310.459C92.2713 312.516 93.7692 320.744 93.7692 320.744C93.7692 320.744 91.6823 323.369 87.0732 323.015C90.5087 322.72 92.0835 320.744 92.0835 320.744Z" fill="black"/>
</g>
<path d="M72.6573 217.619L76.1554 217.869L78 218V213.183L75.5623 212.71L74.063 212.417C74.063 212.417 69.4354 197.642 64.9825 200.326C60.5295 203.01 72.6573 217.619 72.6573 217.619Z" fill="#F7C4A7"/>
<path d="M130.874 179C130.874 179 133.249 188.322 133.978 194.104C134.707 199.886 117 195.223 117 195.223C117 195.223 123.754 186.833 119.916 182.357L130.874 179Z" fill="#EDB18F"/>
<path d="M112.264 217.48L111.902 221L117.494 220.628L123.086 215.629L128.679 199.515L132.294 193.78L135 190.26L133.917 186C133.917 186 133.423 186.423 132.587 187.099C129.84 189.258 123.391 193.742 118.68 192.504C118.462 192.448 118.248 192.379 118.038 192.297L111 204.704L112.264 217.48Z" fill="#E6E6F0"/>
<path opacity="0.1" d="M132.614 185C132.614 185 135.588 185.559 137.641 190.045C139.218 193.495 144.534 197.052 146.909 198.515C147.362 198.793 147.755 199.159 148.065 199.592C148.374 200.025 148.594 200.516 148.711 201.035C149.192 203.168 149.374 207.134 146.765 212.848C142.668 221.804 139.689 225.745 139.689 225.745C139.689 225.745 138.946 234.701 140.063 237.332C141.181 239.963 140.063 254.34 140.063 254.34C140.063 254.34 120.515 258.075 113.992 254.34C107.469 250.604 108.403 236.176 108.403 236.176C108.403 236.176 102.259 249.269 100.036 249.644L101.311 242.356C101.311 242.356 108.573 234.505 108.96 224.414C108.96 224.414 111.196 215.258 109.334 212.827C109.334 212.827 77.8613 215.446 76 213.202C76 213.202 96.6702 212.268 99.8362 207.232C99.8362 207.232 108.96 199.943 109.334 195.086C109.389 194.175 109.674 193.293 110.162 192.523C110.651 191.753 111.327 191.12 112.126 190.685C113.393 189.962 114.847 189.637 116.299 189.751L120.506 190.041C120.506 190.041 113.248 202.912 113.635 204.618C114.022 206.323 113.261 219.941 113.261 219.941C113.261 219.941 121.641 201.811 125.364 199.756C129.086 197.7 133.357 189.265 133.357 189.265L132.614 185Z" fill="black"/>
<path opacity="0.1" d="M112.264 217.48L111.902 221L117.494 220.628L123.086 215.629L128.679 199.515L132.294 193.78L135 190.26L133.917 186C133.917 186 133.423 186.423 132.587 187.099L132.834 188.561C132.834 188.561 128.683 196.924 125.075 198.961C121.468 200.998 113.347 218.963 113.347 218.963C113.347 218.963 114.068 205.44 113.71 203.779C113.463 202.646 116.625 196.405 118.68 192.504C118.462 192.448 118.248 192.379 118.038 192.297L111 204.704L112.264 217.48Z" fill="black"/>
<path opacity="0.1" d="M75.73 217.851L78 218V212.536L75 212C76.055 213.391 76.02 215.805 75.73 217.851Z" fill="black"/>
<path d="M132.614 184C132.614 184 135.588 184.559 137.641 189.045C139.218 192.495 144.534 196.052 146.909 197.515C147.362 197.793 147.755 198.159 148.065 198.592C148.374 199.025 148.594 199.516 148.711 200.035C149.192 202.168 149.374 206.134 146.765 211.848C142.668 220.804 139.689 224.745 139.689 224.745C139.689 224.745 138.946 233.701 140.063 236.332C141.181 238.963 140.063 253.34 140.063 253.34C140.063 253.34 120.515 257.075 113.992 253.34C107.469 249.604 108.403 235.21 108.403 235.21C108.403 235.21 102.259 248.29 100.036 248.661L101.311 241.373C101.311 241.373 108.573 233.522 108.96 223.431C108.96 223.431 111.196 214.275 109.334 211.844C109.334 211.844 102.072 219.695 93.8782 219.521C85.6849 219.346 76 220.455 76 220.455C76 220.455 77.8613 214.484 76 212.232C76 212.232 96.6702 211.298 99.8362 206.262C99.8362 206.262 108.96 198.973 109.334 194.116C109.386 193.201 109.671 192.315 110.16 191.542C110.649 190.769 111.328 190.134 112.13 189.698C113.397 188.975 114.851 188.65 116.304 188.764L120.511 189.054C120.511 189.054 113.248 201.942 113.635 203.622C114.022 205.302 113.261 218.945 113.261 218.945C113.261 218.945 121.641 200.816 125.364 198.76C129.086 196.705 133.37 188.265 133.37 188.265L132.626 184" fill="#67647E"/>
<path opacity="0.1" d="M136.753 204C136.753 204 132.25 219.104 129.626 220.968C127.002 222.832 111.059 232.341 106.368 230.103C106.368 230.103 105.242 235.698 106.929 237C106.929 237 124.417 236.319 124.558 236.255C124.558 236.255 135.999 234.762 137.874 229.171C139.749 223.58 142 214.067 142 214.067L136.753 204Z" fill="black"/>
<path d="M113 221C113.552 221 114 220.552 114 220C114 219.448 113.552 219 113 219C112.448 219 112 219.448 112 220C112 220.552 112.448 221 113 221Z" fill="#BA7855"/>
<path d="M111.5 227C111.776 227 112 226.776 112 226.5C112 226.224 111.776 226 111.5 226C111.224 226 111 226.224 111 226.5C111 226.776 111.224 227 111.5 227Z" fill="#BA7855"/>
<g opacity="0.1">
<path opacity="0.1" d="M138.93 253.221C138.93 253.221 140.052 238.822 138.93 236.202C137.807 233.581 138.554 224.606 138.554 224.606C138.554 224.606 141.541 220.68 145.66 211.701C148.28 205.982 148.092 202.013 147.614 199.88C147.496 199.359 147.275 198.868 146.963 198.435C146.651 198.002 146.256 197.635 145.801 197.357C143.415 195.894 138.076 192.334 136.497 188.882C135.336 186.351 133.881 185.067 132.827 184.431L132.754 184.004C132.754 184.004 135.742 184.563 137.803 189.053C139.386 192.505 144.725 196.064 147.107 197.528C147.562 197.806 147.957 198.172 148.269 198.605C148.58 199.039 148.802 199.53 148.92 200.05C149.403 202.184 149.586 206.153 146.966 211.872C142.852 220.834 139.86 224.777 139.86 224.777C139.86 224.777 139.113 233.739 140.236 236.372C141.358 239.006 140.236 253.392 140.236 253.392C140.236 253.392 126.208 256.064 117.911 254.634C126.293 255.628 138.93 253.221 138.93 253.221Z" fill="black"/>
<path opacity="0.1" d="M113.699 203.661C113.955 204.813 113.699 211.59 113.49 215.738C112.585 217.586 112.018 218.807 112.018 218.807C112.018 218.807 112.765 205.15 112.393 203.473C112.039 201.873 118.607 190.137 119.26 188.963L120.621 189.057C120.621 189.057 113.311 201.979 113.699 203.661Z" fill="black"/>
<path opacity="0.1" d="M92.5486 219.37C100.777 219.558 108.07 211.688 108.07 211.688C108.291 211.994 108.451 212.339 108.544 212.704C106.41 214.714 100.435 219.694 93.8587 219.532C85.6307 219.344 75.9047 220.467 75.9047 220.467C75.9047 220.467 75.9431 220.343 76.0028 220.13C81.4997 219.57 87.0235 219.316 92.5486 219.37Z" fill="black"/>
<path opacity="0.1" d="M107.135 235.079C107.135 235.079 107.059 236.249 107.101 238.003C105.155 241.844 101.613 248.467 100.03 248.732L100.307 247.195C103.03 243.777 107.135 235.079 107.135 235.079Z" fill="black"/>
</g>
<path d="M109 188H64V222H109V188Z" fill="url(#paint6_linear)"/>
<path d="M108 189H66V221H108V189Z" fill="white"/>
<path opacity="0.2" d="M84 192H70V200H84V192Z" fill="#5EA400"/>
<path d="M104 192H87V193H104V192Z" fill="#E6E8EC"/>
<path d="M99 194H87V197H99V194Z" fill="#E6E8EC"/>
<path d="M104 197H87V200H104V197Z" fill="#E6E8EC"/>
<path d="M104 201H70V203H104V201Z" fill="#E6E8EC"/>
<path d="M104 204H70V206H104V204Z" fill="#E6E8EC"/>
<path d="M104 207H70V208H104V207Z" fill="#E6E8EC"/>
<path d="M101 210H70V212H101V210Z" fill="#E6E8EC"/>
<path d="M104 213H70V215H104V213Z" fill="#E6E8EC"/>
<path d="M104 216H70V218H104V216Z" fill="#E6E8EC"/>
<path d="M101.881 233.471L105.861 234.342L109 235L107.315 230.207L106.144 229.907L104.318 229.445C104.318 229.445 101.697 216.091 96.4502 217.049C91.2036 218.008 101.881 233.471 101.881 233.471Z" fill="#F7C4A7"/>
<path opacity="0.1" d="M106.023 234.337L109 235L107.402 230.295L106.291 230C106.042 231.43 105.953 232.885 106.023 234.337V234.337Z" fill="black"/>
<path d="M136.753 204C136.753 204 132.25 219.104 129.626 220.968C127.002 222.832 111.059 232.341 106.368 230.103C106.368 230.103 105.242 235.698 106.929 237C106.929 237 124.417 236.319 124.558 236.255C124.558 236.255 135.999 234.762 137.874 229.171C139.749 223.58 142 214.067 142 214.067L136.753 204Z" fill="#67647E"/>
<path opacity="0.1" d="M131.121 179C131.121 179 131.497 180.47 132 182.608C130.972 184.576 129.333 186.145 127.337 187.075C125.341 188.004 123.098 188.241 120.956 187.75C121.4 185.822 121.302 183.894 120 182.364L131.121 179Z" fill="#F7C4A7"/>
<path d="M123.5 188C129.299 188 134 183.523 134 178C134 172.477 129.299 168 123.5 168C117.701 168 113 172.477 113 178C113 183.523 117.701 188 123.5 188Z" fill="#F7C4A7"/>
<path opacity="0.1" d="M114.864 174.549C114.149 174.756 113.4 174.804 112.667 174.688C111.132 174.357 110.037 172.725 110 171.085C110.015 170.263 110.206 169.455 110.557 168.72C110.908 167.984 111.411 167.34 112.03 166.833C112.862 166.107 113.861 165.589 114.622 164.78C115.525 163.818 116.016 162.521 116.703 161.39C117.876 159.511 119.615 158.095 121.645 157.369C123.156 156.834 125.003 156.773 126.164 157.922C126.759 158.509 127.108 159.358 127.774 159.854C128.739 160.572 130.045 160.358 131.223 160.502C132.29 160.674 133.3 161.118 134.165 161.794C135.029 162.471 135.72 163.361 136.178 164.384C137.072 166.456 137.243 168.79 136.661 170.98C136.432 171.916 136.099 172.825 135.853 173.757C135.342 175.697 135.221 177.734 134.63 179.649C134.039 181.563 132.82 183.434 130.977 184C131.123 181.854 130.718 179.705 129.804 177.777C129.653 177.357 129.356 177.012 128.972 176.811C128.643 176.723 128.298 176.723 127.969 176.811C125.661 177.169 123.306 176.671 121.312 175.401C120.613 174.966 119.523 173.439 118.775 173.287C117.83 173.108 115.862 174.314 114.864 174.549Z" fill="black"/>
<path d="M114.864 173.899C114.149 174.099 113.4 174.144 112.667 174.033C111.132 173.714 110.037 172.143 110 170.563C110.015 169.772 110.206 168.994 110.557 168.286C110.908 167.577 111.411 166.957 112.03 166.469C112.862 165.769 113.861 165.271 114.622 164.491C115.525 163.565 116.016 162.317 116.703 161.227C117.876 159.418 119.615 158.055 121.645 157.355C123.156 156.84 125.003 156.781 126.164 157.887C126.759 158.453 127.108 159.27 127.774 159.748C128.739 160.439 130.045 160.234 131.223 160.372C132.29 160.538 133.3 160.965 134.165 161.617C135.029 162.269 135.72 163.125 136.178 164.11C137.072 166.105 137.243 168.353 136.661 170.463C136.432 171.363 136.099 172.239 135.853 173.136C135.342 175.005 135.221 176.966 134.63 178.81C134.039 180.653 132.82 182.455 130.977 183C131.123 180.933 130.718 178.864 129.804 177.008C129.653 176.603 129.356 176.271 128.972 176.078C128.643 175.993 128.298 175.993 127.969 176.078C125.661 176.422 123.306 175.942 121.312 174.72C120.613 174.301 119.523 172.83 118.775 172.683C117.83 172.512 115.862 173.677 114.864 173.899Z" fill="#503F43"/>
<path d="M36.3654 326.218C37.1223 325.555 37.6739 324.66 37.9471 323.653C38.1536 322.633 37.7489 321.412 36.8403 321.04C35.8243 320.622 34.7381 321.377 33.9163 322.144C33.0944 322.912 32.1486 323.782 31.0707 323.618C31.6247 323.078 32.0392 322.393 32.2737 321.631C32.5082 320.868 32.5548 320.053 32.4088 319.265C32.3622 318.938 32.2337 318.631 32.0371 318.377C31.4713 317.729 30.4512 318.009 29.7739 318.519C27.6263 320.143 27.0274 323.276 27.015 326.098C26.8003 325.082 26.982 324.021 26.9737 322.992C26.9655 321.963 26.7012 320.773 25.8834 320.232C25.3763 319.939 24.8069 319.794 24.2314 319.81C23.265 319.77 22.1912 319.877 21.5304 320.636C20.7044 321.576 20.9233 323.161 21.6378 324.186C22.3523 325.211 23.4343 325.872 24.4338 326.591C25.2348 327.102 25.9181 327.801 26.4327 328.636C26.4932 328.752 26.543 328.874 26.5814 329H32.6236C33.9821 328.259 35.2408 327.323 36.3654 326.218V326.218Z" fill="#5EA400"/>
<path d="M407.365 266.471C408.122 265.868 408.674 265.055 408.947 264.139C409.154 263.211 408.749 262.102 407.84 261.763C406.824 261.384 405.738 262.07 404.916 262.768C404.094 263.466 403.149 264.256 402.071 264.107C402.625 263.616 403.039 262.994 403.274 262.301C403.508 261.607 403.555 260.866 403.409 260.15C403.362 259.853 403.234 259.574 403.037 259.343C402.471 258.754 401.451 259.008 400.774 259.472C398.626 260.948 398.027 263.796 398.015 266.362C397.8 265.438 397.982 264.474 397.974 263.538C397.965 262.602 397.701 261.521 396.883 261.029C396.376 260.763 395.807 260.631 395.231 260.646C394.265 260.61 393.191 260.706 392.53 261.396C391.704 262.251 391.923 263.691 392.638 264.623C393.352 265.555 394.434 266.156 395.434 266.81C396.235 267.275 396.918 267.91 397.433 268.669C397.493 268.774 397.543 268.885 397.581 269H403.632C404.987 268.325 406.243 267.474 407.365 266.471V266.471Z" fill="#5EA400"/>
<path d="M462.404 138.025C461.526 135.436 460.258 132.154 459.258 131.381C459.197 131.331 459.13 131.29 459.058 131.257H458.935V128.057L456.57 128.437C456.194 127.281 455.91 126.096 455.722 124.895C455.949 125.125 456.24 125.282 456.556 125.345C456.872 125.409 457.2 125.377 457.498 125.254C457.46 125.19 457.426 125.121 457.392 125.053L457.498 125.006C457.125 124.344 456.928 123.596 456.926 122.835C456.945 122.14 457.054 121.451 457.252 120.784C457.676 119.31 458.393 117.935 458.791 116.452C459.046 115.498 459.166 114.513 459.147 113.525C459.161 111.851 458.783 110.197 458.045 108.697C457.858 108.264 457.567 107.885 457.197 107.595C456.864 107.408 456.522 107.24 456.171 107.09C455.583 106.691 455.076 106.182 454.679 105.591C452.998 103.528 450.748 102.014 448.213 101.241C447.552 100.992 446.835 100.935 446.144 101.074C444.554 101.502 443.977 103.489 442.688 104.531C441.552 105.45 439.991 105.544 438.563 105.851C437.134 106.159 435.696 106.77 434.721 107.881C434.049 108.655 433.683 109.651 433.691 110.68C433.652 111.16 433.736 111.643 433.935 112.081C434.134 112.519 434.441 112.899 434.827 113.183C435.267 113.474 435.766 113.663 436.287 113.737C436.808 113.811 437.339 113.768 437.842 113.611C437.449 114.978 437.341 116.413 437.524 117.825C437.707 119.236 438.178 120.595 438.907 121.814C439.636 123.034 440.607 124.089 441.76 124.912C442.913 125.736 444.222 126.31 445.605 126.6L445.881 127.099C446.733 128.698 447.38 130.399 447.806 132.163C445.626 133.406 443.248 134.572 441.81 134.684C441.752 135.25 441.648 135.81 441.497 136.358C441.16 137.734 440.515 139.013 439.61 140.097C437.655 142.31 428.866 159.042 428.866 159.042C428.866 159.042 428.59 159.709 428.137 160.845C422.68 161.52 413.772 162.495 411.287 161.995L401.535 152.646C401.535 152.646 398.381 155.073 398.656 158.021L396.897 156.338C396.897 156.338 387.62 163.473 402.269 168.147L424.558 170.754C422.438 177.21 420.454 184.725 421.069 188.814H421.251C421.677 188.814 422.102 188.781 422.523 188.716L422.485 189.442L420.339 228.179C420.339 228.179 419.852 235.314 426.445 238.51C426.445 238.51 434.501 262.373 431.329 265.082C431.329 265.082 431.707 265.283 432.343 265.561L425.716 271.478C425.716 271.478 420.831 272.709 418.147 272.461C417.676 272.396 417.197 272.508 416.802 272.776C416.407 273.044 416.124 273.449 416.006 273.914C416.006 273.965 416.006 274.016 415.981 274.067V274.132C415.981 274.183 415.981 274.234 415.981 274.29C415.981 274.345 415.981 274.328 415.981 274.349C415.981 274.371 415.981 274.439 415.981 274.486C415.981 274.533 415.981 274.525 415.981 274.542C415.981 274.559 415.981 274.649 416.01 274.7V274.76C416.025 274.817 416.043 274.874 416.066 274.931L416.087 274.982C416.108 275.037 416.133 275.093 416.163 275.148V275.187C416.193 275.242 416.227 275.294 416.261 275.349L416.29 275.396C416.33 275.453 416.374 275.51 416.422 275.567L416.46 275.61C416.511 275.67 416.566 275.725 416.621 275.781L416.646 275.802L416.829 275.96L416.867 275.99C416.935 276.046 417.011 276.097 417.087 276.148L417.138 276.182C417.219 276.234 417.304 276.285 417.393 276.332H417.431L417.706 276.469H417.745L418.067 276.597L418.135 276.623L418.487 276.738H418.546L418.932 276.84H418.961L419.385 276.926H419.47L419.928 276.994H420.017L420.534 277.046C421.539 277.122 422.892 277.152 424.456 277.144C424.456 277.144 424.456 277.182 424.456 277.204C424.456 277.225 424.456 277.293 424.456 277.34V277.396C424.456 277.447 424.456 277.503 424.486 277.554V277.614C424.5 277.671 424.519 277.728 424.541 277.785L424.562 277.836C424.584 277.892 424.609 277.947 424.639 278.003V278.041C424.668 278.097 424.702 278.148 424.736 278.203L424.766 278.25C424.805 278.307 424.849 278.364 424.897 278.421L424.935 278.464C424.986 278.524 425.041 278.579 425.097 278.635L425.122 278.656L425.304 278.814L425.342 278.844C425.41 278.9 425.487 278.951 425.563 279.002L425.618 279.037C425.699 279.088 425.783 279.139 425.872 279.186H425.911L426.186 279.323H426.224L426.547 279.451L426.614 279.477L426.966 279.592H427.026L427.412 279.695H427.441L427.865 279.78H427.95L428.408 279.848H428.497L429.014 279.9C435.374 280.391 455.624 278.917 455.624 278.917V278.861V278.789C455.823 277.836 456.798 272.299 453.339 268.205C453.44 268.099 453.542 267.983 453.636 267.864C453.636 267.864 450.952 263.189 452.414 261.711C453.877 260.232 445.092 234.648 445.092 234.648C445.092 234.648 440.454 227.269 443.137 218.903C445.821 210.537 442.892 201.436 442.892 201.436C442.892 201.436 449.294 199.517 449.425 191.575C449.425 191.335 449.425 191.087 449.425 190.835C449.566 190.856 449.707 190.864 449.849 190.861C449.94 190.867 450.03 190.867 450.121 190.861C450.121 190.861 448.9 186.434 450.367 183.234C451.834 180.034 455.005 182.986 457.935 169.95C460.055 160.516 461.92 149.664 462.79 144.383C463.167 142.263 463.035 140.082 462.404 138.025V138.025ZM406.687 165.699L404.461 163.563C405.199 163.87 406.017 164.174 406.933 164.464L415.328 165.447C411.58 165.797 408.099 165.985 406.687 165.703V165.699Z" fill="url(#paint7_linear)"/>
<path d="M428.32 164.101C428.32 164.101 411.046 166.398 407.445 165.725L397.847 157C397.847 157 388.729 163.659 403.128 168.017L430 171L428.32 164.101Z" fill="#FDC2CC"/>
<path opacity="0.05" d="M428.32 164.101C428.32 164.101 411.046 166.398 407.445 165.725L397.847 157C397.847 157 388.729 163.659 403.128 168.017L430 171L428.32 164.101Z" fill="black"/>
<path d="M434.559 263L425.892 270.408C425.892 270.408 420.942 271.603 418.215 271.362C415.487 271.122 414.253 275.425 420.692 275.903C427.131 276.38 447.682 274.948 447.682 274.948C447.682 274.948 449.665 267.304 443.721 263H434.559Z" fill="#47465A"/>
<path opacity="0.05" d="M434.559 263L425.892 270.408C425.892 270.408 420.942 271.603 418.215 271.362C415.487 271.122 414.253 275.425 420.692 275.903C427.131 276.38 447.682 274.948 447.682 274.948C447.682 274.948 449.665 267.304 443.721 263H434.559Z" fill="black"/>
<path opacity="0.3" d="M447.994 271C447.979 271.999 447.875 272.994 447.683 273.97C447.683 273.97 427.108 275.612 420.69 275.065C417.595 274.803 416.277 273.524 416.041 272.298C415.761 273.703 416.881 275.564 420.69 275.888C427.129 276.436 447.683 274.793 447.683 274.793C447.924 273.547 448.028 272.274 447.994 271V271Z" fill="white"/>
<path d="M445 125.528C445 125.528 450.114 132.757 448.253 137.653C446.392 142.549 458 132.522 458 132.522C458 132.522 454.283 125.994 456.139 119L445 125.528Z" fill="#EDB18F"/>
<path d="M442.979 265L434.583 272.408C434.583 272.408 429.787 273.603 427.145 273.362C424.504 273.122 423.308 277.425 429.545 277.903C435.783 278.38 455.692 276.948 455.692 276.948C455.692 276.948 457.613 269.304 451.855 265H442.979Z" fill="#47465A"/>
<path d="M445 263.726C443.773 265.294 442.043 265.88 440.234 265.988C436.121 266.191 431.592 263.726 431.592 263.726C434.649 261.046 426.888 237.4 426.888 237.4C420.538 234.233 421.008 227.162 421.008 227.162L423.087 188.784L423.607 179.145L430.195 175L435.389 179.128L440.313 183.044C440.633 184.29 440.839 185.564 440.929 186.849C441.498 195.807 434.665 197.914 434.665 197.914C434.665 197.914 437.489 206.932 434.902 215.218C432.316 223.504 436.786 230.816 436.786 230.816C436.786 230.816 445.258 256.164 443.856 257.629C442.455 259.094 445 263.726 445 263.726Z" fill="#565171"/>
<path opacity="0.05" d="M445 263.726C443.773 265.294 442.043 265.88 440.234 265.988C436.121 266.191 431.592 263.726 431.592 263.726C434.649 261.046 426.888 237.4 426.888 237.4C420.538 234.233 421.008 227.162 421.008 227.162L423.087 188.784L423.607 179.145L430.195 175L435.389 179.128L440.313 183.044C440.633 184.29 440.839 185.564 440.929 186.849C441.498 195.807 434.665 197.914 434.665 197.914C434.665 197.914 437.489 206.932 434.902 215.218C432.316 223.504 436.786 230.816 436.786 230.816C436.786 230.816 445.258 256.164 443.856 257.629C442.455 259.094 445 263.726 445 263.726Z" fill="black"/>
<path d="M454 266.75C449.965 271.813 440.478 266.75 440.478 266.75C440.671 266.572 440.816 266.346 440.898 266.094C442.638 261.287 435.026 238.304 435.026 238.304C428.621 235.172 427.896 227.697 427.896 227.697L426.218 189.066L426 184.063L435.982 180.189L439.048 179L449.252 186.956C449.694 188.599 449.914 190.295 449.907 191.998C449.777 199.784 443.557 201.663 443.557 201.663C443.557 201.663 446.404 210.582 443.796 218.777C441.187 226.972 445.696 234.204 445.696 234.204C445.696 234.204 454.239 259.275 452.826 260.724C451.412 262.173 454 266.75 454 266.75Z" fill="#565171"/>
<path opacity="0.1" d="M450 192C447.897 191.681 443.639 188.992 441.45 187.532C440.616 186.975 440.082 186.619 440.082 186.619C440.082 186.619 437.893 180.166 432.053 185.072C430.154 186.709 428.01 187.995 425.709 188.878C424.83 189.209 423.923 189.45 423 189.599L423.538 179.39L430.35 175L435.721 179.372L438.865 178.099L449.329 186.619C449.78 188.373 450.006 190.183 450 192V192Z" fill="black"/>
<path d="M462.829 145.237C461.987 150.435 460.159 161.115 458.092 170.405C455.232 183.248 452.137 180.332 450.705 183.483C449.273 186.634 450.465 190.992 450.465 190.992C448.082 191.236 440.219 185.906 440.219 185.906C440.219 185.906 438.076 179.853 432.357 184.455C426.638 189.057 422.111 188.813 422.111 188.813C420.919 180.82 429.733 159.51 429.733 159.51C429.733 159.51 438.311 143.041 440.215 140.862C441.098 139.795 441.728 138.535 442.055 137.181C442.201 136.641 442.303 136.09 442.358 135.533C445.454 135.289 453.08 129.967 453.08 129.967L459.035 129V132.146C459.104 132.178 459.169 132.218 459.229 132.266C460.21 133.028 461.444 136.26 462.299 138.808C462.993 140.874 463.176 143.082 462.829 145.237V145.237Z" fill="#F68080"/>
<path opacity="0.1" d="M458.416 135.727C458.416 135.727 451.877 130.738 442.07 146.895C432.263 163.052 430 160.436 430 160.436C430 160.436 432.014 167.576 431.005 168.991C431.005 168.991 437.793 168.516 440.309 168.991C442.825 169.466 458.416 150.944 458.416 150.944C458.416 150.944 466.48 140.478 458.416 135.727Z" fill="black"/>
<path opacity="0.1" d="M457.535 134.727C457.535 134.727 451.198 129.738 441.695 145.895C432.193 162.052 430 159.436 430 159.436C430 159.436 437.556 167.512 439.99 167.991C442.423 168.47 457.535 149.931 457.535 149.931C457.535 149.931 465.332 139.482 457.535 134.727Z" fill="black"/>
<path opacity="0.1" d="M430.941 167.591C431.036 165.619 430.379 162.151 430 160.353C431.432 160.141 432.335 160 432.335 160L434 168L430.941 167.591Z" fill="black"/>
<path opacity="0.1" d="M456 120L445 125.894C445.463 126.515 445.89 127.159 446.28 127.821C446.915 127.94 447.561 128 448.209 128C451.146 128 452.516 125.168 454.286 123.263C454.161 121.734 455.51 121.693 456 120Z" fill="black"/>
<path d="M448 128C453.523 128 458 123.523 458 118C458 112.477 453.523 108 448 108C442.477 108 438 112.477 438 118C438 123.523 442.477 128 448 128Z" fill="#F7C4A7"/>
<path d="M432 129H350V191H432V129Z" fill="url(#paint8_linear)"/>
<path d="M430 131H353V190H430V131Z" fill="white"/>
<path opacity="0.2" d="M386 136H360V150H386V136Z" fill="#5EA400"/>
<path d="M423 136H392V139H423V136Z" fill="#E6E8EC"/>
<path d="M414 142H392V145H414V142Z" fill="#E6E8EC"/>
<path d="M423 147H392V150H423V147Z" fill="#E6E8EC"/>
<path d="M423 153H360V157H423V153Z" fill="#E6E8EC"/>
<path d="M423 158H360V162H423V158Z" fill="#E6E8EC"/>
<path d="M423 164H360V168H423V164Z" fill="#E6E8EC"/>
<path d="M418 170H360V173H418V170Z" fill="#E6E8EC"/>
<path d="M423 175H360V179H423V175Z" fill="#E6E8EC"/>
<path d="M423 181H360V185H423V181Z" fill="#E6E8EC"/>
<path opacity="0.1" d="M435.053 109.819C436.111 108.757 437.485 108.05 438.978 107.801C440.433 107.494 442.029 107.399 443.193 106.505C444.516 105.472 445.098 103.511 446.721 103.074C447.427 102.935 448.158 102.992 448.833 103.238C451.426 104.005 453.728 105.509 455.447 107.559C455.852 108.147 456.369 108.653 456.968 109.05C457.327 109.199 457.677 109.366 458.018 109.551C458.391 109.84 458.685 110.216 458.873 110.644C460.043 112.958 460.313 115.611 459.632 118.106C459.226 119.579 458.494 120.945 458.062 122.427C457.63 123.909 457.52 125.555 458.313 126.864C457.546 127.249 456.576 126.765 456.109 126.065C455.641 125.365 455.482 124.501 455.227 123.693C454.728 122.103 453.793 120.679 452.524 119.575C451.739 118.892 450.319 118.434 449.785 119.316C449.574 119.657 449.587 120.089 449.406 120.444C449.049 121.135 448.017 121.273 447.334 120.876C446.675 120.43 446.212 119.757 446.037 118.992C445.01 115.587 443.259 113.444 439.542 114.9C438.158 115.444 436.526 115.812 435.195 114.878C433.457 113.647 433.797 111.21 435.053 109.819Z" fill="black"/>
<path d="M435.053 109.103C436.111 107.996 437.485 107.261 438.978 107.001C440.433 106.682 442.029 106.583 443.193 105.651C444.516 104.575 445.098 102.532 446.721 102.077C447.427 101.933 448.158 101.992 448.833 102.248C451.426 103.047 453.728 104.613 455.447 106.749C455.852 107.361 456.369 107.888 456.968 108.302C457.327 108.457 457.677 108.631 458.018 108.824C458.391 109.125 458.685 109.516 458.873 109.963C460.043 112.373 460.313 115.137 459.632 117.735C459.226 119.27 458.494 120.692 458.062 122.236C457.63 123.78 457.52 125.495 458.313 126.858C457.546 127.259 456.576 126.755 456.109 126.026C455.641 125.297 455.482 124.397 455.227 123.555C454.728 121.899 453.793 120.416 452.524 119.266C451.739 118.555 450.319 118.078 449.785 118.996C449.574 119.351 449.587 119.801 449.406 120.17C449.049 120.89 448.017 121.035 447.334 120.62C446.675 120.156 446.212 119.455 446.037 118.658C445.01 115.112 443.259 112.879 439.542 114.396C438.158 114.963 436.526 115.346 435.195 114.373C433.457 113.091 433.797 110.557 435.053 109.103Z" fill="#B96B6B"/>
<path opacity="0.05" d="M460 132.589H454.643C454.643 132.589 444.102 137.915 443.841 137.651C443.664 137.473 442.034 137.779 441 138C441.162 137.406 441.274 136.8 441.335 136.187C444.759 135.918 453.195 130.064 453.195 130.064L459.781 129V132.462C459.859 132.495 459.933 132.537 460 132.589Z" fill="black"/>
<path opacity="0.3" d="M455.994 274C455.98 274.799 455.879 275.595 455.693 276.376C455.693 276.376 435.76 277.69 429.543 277.252C426.545 277.042 425.269 276.019 425.04 275.039C424.768 276.163 425.854 277.651 429.543 277.911C435.782 278.349 455.693 277.035 455.693 277.035C455.926 276.038 456.027 275.019 455.994 274V274Z" fill="white"/>
<g opacity="0.05">
<path opacity="0.05" d="M429.746 184.179C426.489 186.739 423.609 187.811 421.718 188.237C421.718 188.417 421.752 188.596 421.778 188.767C421.778 188.767 426.366 189.01 432.161 184.422C433.059 183.653 434.12 183.098 435.264 182.8C434 182.216 432.195 182.254 429.746 184.179Z" fill="black"/>
<path opacity="0.05" d="M462.513 138.942C461.659 136.381 460.379 133.18 459.402 132.421C459.342 132.373 459.276 132.333 459.205 132.301C459.205 132.301 457.208 132.369 457.272 132.421C458.267 133.18 459.231 136.159 460.097 138.698C460.796 140.757 460.976 142.955 460.622 145.1C459.769 150.281 457.917 160.929 455.821 170.189C452.923 182.992 449.787 180.086 448.336 183.227C447.149 185.788 447.742 189.176 447.999 190.316C449.031 190.743 449.927 191.011 450.508 190.952C450.508 190.952 449.3 186.607 450.751 183.466C452.202 180.325 455.339 183.223 458.237 170.428C460.332 161.172 462.176 150.52 463.038 145.339C463.391 143.196 463.21 140.999 462.513 138.942Z" fill="black"/>
</g>
<path d="M434 168L430.986 167.631L407.899 164.801C393.906 160.128 402.766 153 402.766 153L412.096 162.345C414.788 162.915 425.342 161.589 430.071 160.95C431.489 160.754 432.384 160.624 432.384 160.624L434 168Z" fill="#F1BFA3"/>
<path d="M458.416 135.727C458.416 135.727 451.877 130.738 442.07 146.895C432.263 163.052 430 160.436 430 160.436C430 160.436 432.014 167.576 431.005 168.991C431.005 168.991 437.793 168.516 440.309 168.991C442.825 169.466 458.416 150.931 458.416 150.931C458.416 150.931 466.48 140.478 458.416 135.727Z" fill="#F68080"/>
<defs>
<linearGradient id="paint0_linear" x1="269.487" y1="256" x2="269.487" y2="49.9915" gradientUnits="userSpaceOnUse">
<stop stop-color="#808080" stop-opacity="0.25"/>
<stop offset="0.54" stop-color="#808080" stop-opacity="0.12"/>
<stop offset="1" stop-color="#808080" stop-opacity="0.1"/>
</linearGradient>
<linearGradient id="paint1_linear" x1="51202.4" y1="142338" x2="51202.4" y2="58734" gradientUnits="userSpaceOnUse">
<stop stop-color="#808080" stop-opacity="0.25"/>
<stop offset="0.54" stop-color="#808080" stop-opacity="0.12"/>
<stop offset="1" stop-color="#808080" stop-opacity="0.1"/>
</linearGradient>
<linearGradient id="paint2_linear" x1="15665.9" y1="116046" x2="15665.9" y2="65232.1" gradientUnits="userSpaceOnUse">
<stop stop-color="#808080" stop-opacity="0.25"/>
<stop offset="0.54" stop-color="#808080" stop-opacity="0.12"/>
<stop offset="1" stop-color="#808080" stop-opacity="0.1"/>
</linearGradient>
<linearGradient id="paint3_linear" x1="54658.3" y1="65740.1" x2="54658.3" y2="49900.9" gradientUnits="userSpaceOnUse">
<stop stop-color="#808080" stop-opacity="0.25"/>
<stop offset="0.54" stop-color="#808080" stop-opacity="0.12"/>
<stop offset="1" stop-color="#808080" stop-opacity="0.1"/>
</linearGradient>
<linearGradient id="paint4_linear" x1="15083.2" y1="18402.5" x2="18628.7" y2="18402.5" gradientUnits="userSpaceOnUse">
<stop stop-color="#808080" stop-opacity="0.25"/>
<stop offset="0.54" stop-color="#808080" stop-opacity="0.12"/>
<stop offset="1" stop-color="#808080" stop-opacity="0.1"/>
</linearGradient>
<linearGradient id="paint5_linear" x1="-48019.5" y1="154693" x2="-48019.5" y2="76191.5" gradientUnits="userSpaceOnUse">
<stop stop-color="#808080" stop-opacity="0.25"/>
<stop offset="0.54" stop-color="#808080" stop-opacity="0.12"/>
<stop offset="1" stop-color="#808080" stop-opacity="0.1"/>
</linearGradient>
<linearGradient id="paint6_linear" x1="9231.4" y1="17749" x2="9231.4" y2="15065" gradientUnits="userSpaceOnUse">
<stop stop-color="#808080" stop-opacity="0.25"/>
<stop offset="0.54" stop-color="#808080" stop-opacity="0.12"/>
<stop offset="1" stop-color="#808080" stop-opacity="0.1"/>
</linearGradient>
<linearGradient id="paint7_linear" x1="73667.9" y1="126937" x2="73667.9" y2="51858.9" gradientUnits="userSpaceOnUse">
<stop stop-color="#808080" stop-opacity="0.25"/>
<stop offset="0.54" stop-color="#808080" stop-opacity="0.12"/>
<stop offset="1" stop-color="#808080" stop-opacity="0.1"/>
</linearGradient>
<linearGradient id="paint8_linear" x1="75568.6" y1="27696.1" x2="75568.6" y2="18755.7" gradientUnits="userSpaceOnUse">
<stop stop-color="#808080" stop-opacity="0.25"/>
<stop offset="0.54" stop-color="#808080" stop-opacity="0.12"/>
<stop offset="1" stop-color="#808080" stop-opacity="0.1"/>
</linearGradient>
</defs>
</svg>
