<svg width="18" height="14" viewBox="0 0 18 14" fill="none" xmlns="http://www.w3.org/2000/svg">
<path d="M9.00629 0.374695C7.05714 0.374695 5.47162 1.96109 5.47162 3.91052C5.47162 4.6988 5.73399 5.42517 6.17167 6.01356C5.30962 6.61641 4.78979 7.51519 4.78979 8.47849V13.5029H5.77333V8.4782C5.77333 7.79232 6.18874 7.14203 6.87374 6.72287C7.46734 7.17443 8.2047 7.44548 9.00629 7.44548C9.818 7.44548 10.564 7.16806 11.1617 6.7058C11.8638 7.12496 12.289 7.78162 12.289 8.4782V13.5026H13.2725V8.4782C13.2725 7.49957 12.7406 6.59327 11.858 5.991C12.2858 5.40637 12.5415 4.6881 12.5415 3.91023C12.5418 1.96109 10.9557 0.374695 9.00629 0.374695ZM9.00629 6.46252C7.59954 6.46252 6.45545 5.31727 6.45545 3.91052C6.45545 2.50319 7.59954 1.35852 9.00629 1.35852C10.4133 1.35852 11.5583 2.50319 11.5583 3.91052C11.5583 5.31727 10.4133 6.46252 9.00629 6.46252Z" fill="white"/>
<path d="M1.11599 7.68266C1.11599 7.38094 1.28839 7.0934 1.57275 6.88194C1.93724 7.12436 2.37347 7.26668 2.84297 7.26668C4.11405 7.26668 5.14821 6.23338 5.14821 4.96259C5.14821 3.69122 4.11405 2.65735 2.84297 2.65735C1.57217 2.65735 0.53888 3.69122 0.53888 4.96259C0.53888 5.4049 0.669922 5.81393 0.88659 6.16483C0.411598 6.55795 0.132446 7.10266 0.132446 7.68237V10.5994H1.11599V7.68266ZM2.84268 3.64147C3.57165 3.64147 4.16409 4.23419 4.16409 4.96288C4.16409 5.6907 3.57136 6.28314 2.84268 6.28314C2.11428 6.28314 1.52213 5.69041 1.52213 4.96288C1.52213 4.23419 2.11457 3.64147 2.84268 3.64147Z" fill="white"/>
<path d="M17.1552 6.14893C17.3661 5.80151 17.4942 5.39797 17.4942 4.9629C17.4942 3.69153 16.4603 2.65765 15.1898 2.65765C13.9187 2.65765 12.8846 3.69153 12.8846 4.9629C12.8846 6.23369 13.9187 7.26698 15.1898 7.26698C15.666 7.26698 16.1091 7.12177 16.4765 6.87328C16.7687 7.08445 16.9454 7.37604 16.9454 7.68296V10.6H17.929V7.68268C17.9293 7.09284 17.6423 6.54148 17.1552 6.14893ZM15.1898 6.28344C14.4608 6.28344 13.8681 5.69072 13.8681 4.96319C13.8681 4.23421 14.4611 3.64177 15.1898 3.64177C15.9182 3.64177 16.5104 4.2345 16.5104 4.96319C16.5104 5.69072 15.9182 6.28344 15.1898 6.28344Z" fill="white"/>
</svg>
