<svg width="18" height="9" viewBox="0 0 18 9" fill="none" xmlns="http://www.w3.org/2000/svg">
<path d="M17.4419 7.12976C17.0238 5.11039 17.0238 3.02677 17.4419 1.0074C17.5035 0.706106 17.3921 0.395588 17.1529 0.202266C16.905 -0.000724819 16.5645 -0.0483878 16.2703 0.0787194L10.4547 2.56465C10.2836 1.97533 9.74379 1.56992 9.13014 1.56992C8.5165 1.56992 7.97665 1.97533 7.80556 2.56465L1.99026 0.078997C1.69602 -0.0481589 1.35542 -0.000496206 1.10738 0.202544C0.868213 0.395866 0.756748 0.706384 0.818368 1.00768C1.23648 3.02696 1.23648 5.11049 0.818368 7.12976C0.754226 7.43118 0.866032 7.74294 1.10711 7.9349C1.35513 8.13789 1.6956 8.18574 1.98998 8.059L7.80583 5.57252C7.9769 6.1617 8.51663 6.56701 9.13014 6.56701C9.74365 6.56701 10.2834 6.1617 10.4545 5.57252L16.2703 8.05845C16.5647 8.18519 16.9052 8.13733 17.1532 7.93434C17.3941 7.74253 17.5059 7.431 17.4419 7.12976ZM1.77287 7.5476C1.66858 7.59381 1.54714 7.57716 1.45914 7.50457C1.37998 7.44215 1.3428 7.3404 1.36308 7.24165C1.79647 5.14838 1.79647 2.98851 1.36308 0.895238C1.34278 0.796564 1.37997 0.694887 1.45914 0.632597C1.51277 0.588151 1.58023 0.563801 1.64988 0.563744C1.6922 0.56396 1.73404 0.572743 1.77287 0.589564L7.74198 3.14129V3.45224L6.68697 3.24124C6.53934 3.21696 6.39903 3.31403 6.36968 3.46074C6.34034 3.60745 6.43253 3.75102 6.57814 3.7854L7.7442 4.01861V4.13966L5.16582 4.91314C5.0342 4.95253 4.95117 5.08227 4.97055 5.21829C4.98994 5.35431 5.10589 5.45569 5.24328 5.45675C5.27026 5.45667 5.29709 5.45274 5.32296 5.44509L7.74198 4.71935V4.99699L1.77287 7.5476ZM9.13014 6.01201C8.67015 6.01201 8.29724 5.63911 8.29724 5.17911V2.95805C8.29724 2.49805 8.67015 2.12515 9.13014 2.12515C9.59014 2.12515 9.96304 2.49805 9.96304 2.95805V5.17911C9.96304 5.63911 9.59014 6.01201 9.13014 6.01201ZM16.898 7.24193C16.9183 7.3406 16.8811 7.44224 16.802 7.50457C16.7141 7.57747 16.5925 7.59415 16.4883 7.5476L10.5183 4.99588V4.71824L12.9373 5.44398C12.9631 5.452 12.99 5.45631 13.017 5.45675C13.1548 5.45678 13.2718 5.35573 13.2918 5.21938C13.3118 5.08303 13.2287 4.95266 13.0967 4.91314L10.5183 4.13966V4.01861L11.6844 3.7854C11.83 3.75102 11.9222 3.60745 11.8928 3.46074C11.8635 3.31403 11.7232 3.21696 11.5755 3.24124L10.5205 3.45224V3.14129L16.4896 0.589564C16.5939 0.543467 16.7152 0.560121 16.8031 0.632597C16.8823 0.694887 16.9195 0.796564 16.8991 0.895238C16.4654 2.98853 16.465 5.14848 16.898 7.24193Z" fill="white"/>
<path fill-rule="evenodd" clip-rule="evenodd" d="M5.52092 3.42087C5.65718 3.42097 5.77337 3.32217 5.79518 3.18767C5.81699 3.05317 5.73796 2.92272 5.60866 2.87976L5.05339 2.69458C4.90772 2.64613 4.75036 2.72494 4.70191 2.8706C4.65345 3.01627 4.73226 3.17363 4.87793 3.22208L5.43319 3.40699C5.4615 3.41629 5.49112 3.42098 5.52092 3.42087Z" fill="white"/>
<path fill-rule="evenodd" clip-rule="evenodd" d="M13.2069 2.69455L12.6516 2.87973C12.506 2.92818 12.4272 3.08555 12.4756 3.23121C12.5241 3.37688 12.6814 3.45569 12.8271 3.40723L13.3824 3.22233C13.528 3.17388 13.6068 3.01651 13.5584 2.87085C13.5099 2.72518 13.3526 2.64637 13.2069 2.69483V2.69455Z" fill="white"/>
</svg>
