<svg width="20" height="14" viewBox="0 0 20 14" fill="none" xmlns="http://www.w3.org/2000/svg">
<path fill-rule="evenodd" clip-rule="evenodd" d="M8.80684 2.17104L8.65745 2.03204L1.92441 9.28562L2.07381 9.42477L8.80684 2.17104Z" fill="white"/>
<path fill-rule="evenodd" clip-rule="evenodd" d="M2.52213 10.3713L2.47427 10.5692L8.47698 12.0169L8.52492 11.819L2.52213 10.3713Z" fill="white"/>
<path fill-rule="evenodd" clip-rule="evenodd" d="M17.5931 5.18209L17.3943 5.13733L16.6273 8.50477L16.826 8.54946L17.5931 5.18209Z" fill="white"/>
<path fill-rule="evenodd" clip-rule="evenodd" d="M11.1701 11.8081L11.2475 11.9963L15.6519 10.0051L15.5746 9.81696L11.1701 11.8081Z" fill="white"/>
<path fill-rule="evenodd" clip-rule="evenodd" d="M9.17716 11.0318L9.35554 10.9318L7.94458 8.42761L7.7662 8.5276L9.17716 11.0318Z" fill="white"/>
<path fill-rule="evenodd" clip-rule="evenodd" d="M8.21704 7.2348L8.28894 7.42571L16.4768 4.32942L16.4049 4.13843L8.21704 7.2348Z" fill="white"/>
<path fill-rule="evenodd" clip-rule="evenodd" d="M10.3212 1.41016L10.2661 1.60682L16.3684 3.33449L16.4235 3.13783L10.3212 1.41016Z" fill="white"/>
<path fill-rule="evenodd" clip-rule="evenodd" d="M10.0182 1.99097L9.86237 2.12282L15.5523 8.85622L15.7081 8.7243L10.0182 1.99097Z" fill="white"/>
<path fill-rule="evenodd" clip-rule="evenodd" d="M16.8168 4.79577L16.6691 4.65515L10.5884 11.036L10.7363 11.1766L16.8168 4.79577Z" fill="white"/>
<path fill-rule="evenodd" clip-rule="evenodd" d="M9.65486 2.25659H9.44986V10.8894H9.65486V2.25659Z" fill="white"/>
<path fill-rule="evenodd" clip-rule="evenodd" d="M8.87601 2.14837L8.67683 2.10199L7.56232 6.809L7.76149 6.85539L8.87601 2.14837Z" fill="white"/>
<path fill-rule="evenodd" clip-rule="evenodd" d="M2.2858 9.47872L2.35769 9.66963L6.61083 8.06135L6.53886 7.87036L2.2858 9.47872Z" fill="white"/>
<path d="M17.9168 1.9845C18.3816 1.9845 18.8024 2.17298 19.1069 2.47745C19.4115 2.78208 19.5999 3.20291 19.5999 3.66755C19.5999 4.13227 19.4115 4.55311 19.1069 4.85758C18.8024 5.1622 18.3816 5.35068 17.9168 5.35068C17.4521 5.35068 17.0314 5.1622 16.7268 4.85758C16.4223 4.55311 16.2339 4.13227 16.2339 3.66755C16.2339 3.20291 16.4223 2.78208 16.7268 2.47745C17.0314 2.17298 17.4521 1.9845 17.9168 1.9845Z" fill="white"/>
<path d="M16.361 8.35144C16.6562 8.35144 16.9235 8.47112 17.117 8.66454C17.3103 8.85796 17.43 9.12527 17.43 9.42046C17.43 9.71549 17.3103 9.9828 17.117 10.1762C16.9235 10.3697 16.6562 10.4893 16.361 10.4893C16.0659 10.4893 15.7987 10.3697 15.6053 10.1762C15.4119 9.9828 15.2922 9.71549 15.2922 9.42046C15.2922 9.12527 15.4119 8.85796 15.6053 8.66454C15.7987 8.47112 16.0659 8.35144 16.361 8.35144Z" fill="white"/>
<path d="M9.85815 10.7477C10.2721 10.7477 10.6466 10.9154 10.9178 11.1867C11.189 11.4579 11.3568 11.8325 11.3568 12.2464C11.3568 12.6601 11.189 13.0348 10.9178 13.306C10.6466 13.5772 10.2721 13.7449 9.85815 13.7449C9.44439 13.7449 9.06971 13.5772 8.79857 13.306C8.52735 13.0348 8.35959 12.6601 8.35959 12.2464C8.35959 11.8325 8.52735 11.4579 8.79857 11.1867C9.06971 10.9154 9.44439 10.7477 9.85815 10.7477Z" fill="white"/>
<path d="M1.69138 9.18781C1.95883 9.18781 2.20115 9.29635 2.37643 9.47163C2.55178 9.64699 2.66033 9.8893 2.66033 10.1568C2.66033 10.4243 2.55186 10.6666 2.37643 10.8419C2.20115 11.0172 1.95891 11.1258 1.69138 11.1258C1.42385 11.1258 1.18153 11.0172 1.00618 10.8419C0.830897 10.6666 0.722351 10.4243 0.722351 10.1568C0.722351 9.8893 0.830897 9.64699 1.00618 9.47163C1.18153 9.29635 1.42385 9.18781 1.69138 9.18781Z" fill="white"/>
<path d="M9.35215 0.221313C9.64733 0.221313 9.91449 0.340995 10.1079 0.534343C10.3014 0.727764 10.421 0.995074 10.421 1.29026C10.421 1.58537 10.3014 1.8526 10.1079 2.04603C9.91449 2.23945 9.64733 2.35913 9.35215 2.35913C9.05696 2.35913 8.78973 2.23945 8.59631 2.04603C8.40288 1.8526 8.2832 1.58537 8.2832 1.29026C8.2832 0.995074 8.40288 0.727764 8.59631 0.534343C8.78973 0.340995 9.05696 0.221313 9.35215 0.221313Z" fill="white"/>
<path d="M7.40664 6.66156C7.68767 6.66156 7.94215 6.77549 8.12635 6.95969C8.31056 7.1439 8.42456 7.39845 8.42456 7.67955C8.42456 7.96065 8.31056 8.2152 8.12635 8.39941C7.94215 8.58361 7.68767 8.69761 7.40664 8.69761C7.12547 8.69761 6.87099 8.58361 6.68679 8.39941C6.50258 8.2152 6.38858 7.96065 6.38858 7.67955C6.38858 7.39845 6.50258 7.1439 6.68679 6.95969C6.87099 6.77549 7.12547 6.66156 7.40664 6.66156Z" fill="white"/>
</svg>
