<svg width="48" height="34" viewBox="0 0 48 34" fill="none" xmlns="http://www.w3.org/2000/svg">
<path d="M33 34H5C3.346 34 2 32.654 2 31V13C2 11.346 3.346 10 5 10H33C34.654 10 36 11.346 36 13V31C36 32.654 34.654 34 33 34ZM5 12C4.448 12 4 12.449 4 13V31C4 31.551 4.448 32 5 32H33C33.552 32 34 31.551 34 31V13C34 12.449 33.552 12 33 12H5Z" fill="white"/>
<path d="M12 27C9.794 27 8 25.206 8 23C8 20.794 9.794 19 12 19C14.206 19 16 20.794 16 23C16 25.206 14.206 27 12 27ZM12 21C10.897 21 10 21.897 10 23C10 24.103 10.897 25 12 25C13.103 25 14 24.103 14 23C14 21.897 13.103 21 12 21Z" fill="white"/>
<path d="M26 27C23.794 27 22 25.206 22 23C22 20.794 23.794 19 26 19C28.206 19 30 20.794 30 23C30 25.206 28.206 27 26 27ZM26 21C24.897 21 24 21.897 24 23C24 24.103 24.897 25 26 25C27.103 25 28 24.103 28 23C28 21.897 27.103 21 26 21Z" fill="white"/>
<path d="M26 21H12C11.447 21 11 20.552 11 20C11 19.448 11.447 19 12 19H26C26.553 19 27 19.448 27 20C27 20.552 26.553 21 26 21Z" fill="white"/>
<path d="M23 12C22.447 12 22 11.552 22 11V7C22 6.449 21.552 6 21 6H1C0.447 6 0 5.552 0 5C0 4.448 0.447 4 1 4H21C22.654 4 24 5.346 24 7V11C24 11.552 23.553 12 23 12Z" fill="white"/>
<path d="M31 12C30.447 12 30 11.552 30 11V5C30 3.346 31.346 2 33 2H37C37.553 2 38 2.448 38 3C38 3.552 37.553 4 37 4H33C32.448 4 32 4.449 32 5V11C32 11.552 31.553 12 31 12Z" fill="white"/>
<path d="M45 6H39C37.346 6 36 4.654 36 3C36 1.346 37.346 0 39 0H45C46.654 0 48 1.346 48 3C48 4.654 46.654 6 45 6ZM39 2C38.448 2 38 2.449 38 3C38 3.551 38.448 4 39 4H45C45.552 4 46 3.551 46 3C46 2.449 45.552 2 45 2H39Z" fill="white"/>
<path d="M45.923 31.462C45.653 31.462 45.382 31.409 45.125 31.302L34.615 26.923C34.105 26.711 33.864 26.125 34.077 25.615C34.29 25.105 34.878 24.865 35.385 25.077L45.894 29.456L46 29.385V16.615L45.509 15.621L45.894 16.544L35.385 20.923C34.877 21.137 34.29 20.895 34.077 20.385C33.864 19.875 34.105 19.29 34.615 19.077L45.124 14.698C45.765 14.429 46.496 14.5 47.075 14.887C47.654 15.274 48 15.92 48 16.615V29.385C48 30.08 47.654 30.726 47.076 31.113C46.729 31.344 46.327 31.462 45.923 31.462Z" fill="white"/>
</svg>
