<svg width="436" height="436" viewBox="0 0 436 436" fill="none" xmlns="http://www.w3.org/2000/svg">
<path d="M402.286 279.035L378.014 270.942C408.199 264.874 425.173 252.415 426.094 251.719L434.454 245.44L425.489 240.061C405.914 228.319 393.75 206.831 393.75 184.001V161.719V105.469C393.75 47.3133 346.437 0 288.281 0C257.709 0 230.217 13.1555 210.938 34.0031V21.0938C210.938 9.46406 201.473 0 189.844 0H21.0938C9.46406 0 0 9.46406 0 21.0938V105.469C0 117.098 9.46406 126.562 21.0938 126.562H60.9398L126.562 175.781V126.562H182.812V161.719V184.001C182.812 197.571 178.432 210.614 170.838 221.47L149.266 199.905L131.217 210.607C130.873 210.459 130.528 210.319 130.191 210.178L124.995 189.844H71.8805L66.6914 210.185C66.3469 210.326 66.0023 210.466 65.6648 210.614L47.6156 199.912L10.0617 237.459L20.7703 255.509C20.6227 255.853 20.482 256.198 20.3414 256.535L0 261.731V314.838L20.3414 320.034C20.482 320.379 20.6227 320.723 20.7703 321.061L10.0547 339.11L47.6086 376.657L65.6578 365.955C66.0023 366.103 66.3469 366.244 66.6844 366.384L71.8805 386.719H124.995L130.184 366.377C130.528 366.237 130.873 366.096 131.21 365.948L140.625 371.538V435.938H435.938V325.716C435.938 304.502 422.416 285.736 402.286 279.035ZM344.531 288.281C344.531 303.792 331.917 316.406 316.406 316.406C309.192 316.406 302.435 313.657 297.253 308.742L326.13 268.467L339.961 273.08C342.907 277.615 344.531 282.811 344.531 288.281ZM288.281 297.12L260.156 257.899V247.76C268.889 251.177 278.353 253.125 288.281 253.125C298.209 253.125 307.673 251.177 316.406 247.753V257.892L288.281 297.12ZM236.595 273.08L250.432 268.467L279.309 308.742C274.127 313.657 267.37 316.406 260.156 316.406C244.645 316.406 232.031 303.792 232.031 288.281C232.031 282.811 233.655 277.615 236.595 273.08ZM225 133.594H237.354C256.205 133.594 274.043 127.041 288.281 115.01C302.512 127.041 320.358 133.594 339.209 133.594H351.562V175.781C351.562 210.677 323.17 239.062 288.281 239.062C253.392 239.062 225 210.677 225 175.781V133.594ZM408.959 245.58C397.687 251.346 375.813 259.924 345.565 260.121L330.469 255.087V240.518C346.008 230.358 357.638 214.763 362.735 196.453C369.204 195.68 375.089 193.205 379.997 189.408C381.516 211.31 392.062 231.764 408.959 245.58ZM365.33 181.61C365.477 179.677 365.625 177.75 365.625 175.781V141.919C373.788 144.83 379.688 152.564 379.688 161.719C379.688 170.979 373.648 178.784 365.33 181.61ZM288.281 14.0625C338.681 14.0625 379.688 55.0687 379.688 105.469V133.777C375.581 130.669 370.849 128.341 365.625 127.28V105.469H351.562V119.531H339.209C321.848 119.531 305.529 112.774 293.252 100.498L288.281 95.5266L283.31 100.498C271.034 112.774 254.714 119.531 237.354 119.531H225V105.469H210.938V127.273C205.713 128.341 200.981 130.662 196.875 133.77V105.469C196.875 55.0687 237.881 14.0625 288.281 14.0625ZM112.5 112.5V147.656L65.6227 112.5H21.0938C17.2195 112.5 14.0625 109.35 14.0625 105.469V21.0938C14.0625 17.2125 17.2195 14.0625 21.0938 14.0625H189.844C193.718 14.0625 196.875 17.2125 196.875 21.0938V53.0719C187.98 68.5266 182.812 86.3859 182.812 105.469V112.5H112.5ZM210.938 141.919V175.781C210.938 177.75 211.085 179.677 211.233 181.61C202.915 178.784 196.875 170.979 196.875 161.719C196.875 152.564 202.774 144.83 210.938 141.919ZM196.566 189.408C201.473 193.212 207.359 195.68 213.827 196.453C218.918 214.77 230.555 230.358 246.094 240.518V255.087L231.005 260.121C200.756 259.924 178.875 251.346 167.604 245.58C184.5 231.764 195.047 211.31 196.566 189.408ZM132.019 350.079L128.63 351.696C126.457 352.73 124.228 353.665 121.936 354.473L118.392 355.725L114.068 372.656H82.807L78.4898 355.725L74.9461 354.473C72.6539 353.672 70.425 352.737 68.2523 351.696L64.8633 350.079L49.8305 359.002L27.7242 336.888L36.6398 321.863L35.0227 318.48C33.982 316.294 33.0539 314.058 32.2383 311.766L30.9867 308.236L14.0625 303.919V272.651L30.9797 268.334L32.2313 264.797C33.0469 262.505 33.975 260.269 35.0156 258.089L36.6328 254.707L27.7172 239.681L49.8234 217.568L64.8562 226.491L68.2453 224.873C70.418 223.84 72.6469 222.905 74.9391 222.096L78.4828 220.845L82.807 203.906H114.068L118.385 220.838L121.929 222.089C124.221 222.891 126.45 223.826 128.623 224.866L132.012 226.484L147.045 217.561L161.536 232.052C158.316 235.02 154.884 237.769 151.066 240.061L142.102 245.44L150.469 251.719C151.397 252.415 168.37 264.867 198.555 270.942L174.284 279.035C166.598 281.595 159.905 285.926 154.526 291.466C154.589 290.405 154.688 289.357 154.688 288.281C154.688 257.266 129.452 232.031 98.4375 232.031C67.4227 232.031 42.1875 257.266 42.1875 288.281C42.1875 319.296 67.4227 344.531 98.4375 344.531C115.256 344.531 130.338 337.071 140.653 325.329C140.653 325.463 140.625 325.589 140.625 325.716V355.184L132.019 350.079ZM140.625 288.281C140.625 311.548 121.704 330.469 98.4375 330.469C75.1711 330.469 56.25 311.548 56.25 288.281C56.25 265.015 75.1711 246.094 98.4375 246.094C121.704 246.094 140.625 265.015 140.625 288.281ZM421.875 421.875H379.688V410.611C388.779 400.5 393.75 387.57 393.75 373.859V371.44C393.75 357.736 388.779 344.798 379.688 334.687V316.406H365.625V340.411L367.685 342.471C375.427 350.213 379.688 360.499 379.688 371.447V373.866C379.688 384.813 375.427 395.107 367.685 402.841L365.625 404.902V421.875H210.938V404.902L208.877 402.841C201.136 395.1 196.875 384.813 196.875 373.866V371.447C196.875 360.499 201.136 350.205 208.877 342.471L210.938 340.411V316.406H196.875V334.702C187.784 344.813 182.812 357.743 182.812 371.454V373.873C182.812 387.577 187.784 400.514 196.875 410.625V421.875H154.688V325.716C154.688 310.563 164.348 297.155 178.727 292.366L219.143 278.895C218.447 281.953 217.969 285.075 217.969 288.281C217.969 311.548 236.89 330.469 260.156 330.469C270.731 330.469 280.596 326.524 288.281 319.521C295.966 326.524 305.831 330.469 316.406 330.469C339.673 330.469 358.594 311.548 358.594 288.281C358.594 285.075 358.116 281.953 357.42 278.895L397.842 292.366C412.214 297.162 421.875 310.563 421.875 325.716V421.875Z" fill="url(#paint0_linear)"/>
<path d="M253.125 161.719C257.008 161.719 260.156 158.571 260.156 154.688C260.156 150.804 257.008 147.656 253.125 147.656C249.242 147.656 246.094 150.804 246.094 154.688C246.094 158.571 249.242 161.719 253.125 161.719Z" fill="url(#paint1_linear)"/>
<path d="M323.438 161.719C327.321 161.719 330.469 158.571 330.469 154.688C330.469 150.804 327.321 147.656 323.438 147.656C319.554 147.656 316.406 150.804 316.406 154.688C316.406 158.571 319.554 161.719 323.438 161.719Z" fill="url(#paint2_linear)"/>
<path d="M288.281 217.969C303.792 217.969 316.406 205.355 316.406 189.844H302.344C302.344 197.599 296.037 203.906 288.281 203.906C280.526 203.906 274.219 197.599 274.219 189.844H260.156C260.156 205.355 272.77 217.969 288.281 217.969Z" fill="url(#paint3_linear)"/>
<path d="M168.75 28.125H28.125V42.1875H168.75V28.125Z" fill="url(#paint4_linear)"/>
<path d="M168.75 56.25H28.125V70.3125H168.75V56.25Z" fill="url(#paint5_linear)"/>
<path d="M119.531 84.375H105.469V98.4375H119.531V84.375Z" fill="url(#paint6_linear)"/>
<path d="M161.719 84.375H147.656V98.4375H161.719V84.375Z" fill="url(#paint7_linear)"/>
<path d="M77.3438 84.375H63.2812V98.4375H77.3438V84.375Z" fill="url(#paint8_linear)"/>
<defs>
<linearGradient id="paint0_linear" x1="217.969" y1="0" x2="217.969" y2="435.938" gradientUnits="userSpaceOnUse">
<stop stop-color="#6C63FF"/>
<stop offset="1" stop-color="#2EA5FC"/>
</linearGradient>
<linearGradient id="paint1_linear" x1="253.125" y1="147.656" x2="253.125" y2="161.719" gradientUnits="userSpaceOnUse">
<stop stop-color="#6C63FF"/>
<stop offset="1" stop-color="#2EA5FC"/>
</linearGradient>
<linearGradient id="paint2_linear" x1="323.438" y1="147.656" x2="323.438" y2="161.719" gradientUnits="userSpaceOnUse">
<stop stop-color="#6C63FF"/>
<stop offset="1" stop-color="#2EA5FC"/>
</linearGradient>
<linearGradient id="paint3_linear" x1="288.281" y1="189.844" x2="288.281" y2="217.969" gradientUnits="userSpaceOnUse">
<stop stop-color="#6C63FF"/>
<stop offset="1" stop-color="#2EA5FC"/>
</linearGradient>
<linearGradient id="paint4_linear" x1="98.4375" y1="28.125" x2="98.4375" y2="42.1875" gradientUnits="userSpaceOnUse">
<stop stop-color="#6C63FF"/>
<stop offset="1" stop-color="#2EA5FC"/>
</linearGradient>
<linearGradient id="paint5_linear" x1="98.4375" y1="56.25" x2="98.4375" y2="70.3125" gradientUnits="userSpaceOnUse">
<stop stop-color="#6C63FF"/>
<stop offset="1" stop-color="#2EA5FC"/>
</linearGradient>
<linearGradient id="paint6_linear" x1="112.5" y1="84.375" x2="112.5" y2="98.4375" gradientUnits="userSpaceOnUse">
<stop stop-color="#6C63FF"/>
<stop offset="1" stop-color="#2EA5FC"/>
</linearGradient>
<linearGradient id="paint7_linear" x1="154.688" y1="84.375" x2="154.688" y2="98.4375" gradientUnits="userSpaceOnUse">
<stop stop-color="#6C63FF"/>
<stop offset="1" stop-color="#2EA5FC"/>
</linearGradient>
<linearGradient id="paint8_linear" x1="70.3125" y1="84.375" x2="70.3125" y2="98.4375" gradientUnits="userSpaceOnUse">
<stop stop-color="#6C63FF"/>
<stop offset="1" stop-color="#2EA5FC"/>
</linearGradient>
</defs>
</svg>
