<?xml version="1.0" ?><svg id="Layer_1_1_" style="enable-background:new 0 0 64 64;" version="1.1" viewBox="0 0 64 64" xml:space="preserve" xmlns="http://www.w3.org/2000/svg" xmlns:xlink="http://www.w3.org/1999/xlink"><g><path d="M58.214,40.685l-3.452-1.151c4.293-0.863,6.707-2.635,6.838-2.734l1.189-0.893l-1.275-0.765   C58.73,33.472,57,30.416,57,27.169V24v-8c0-8.271-6.729-15-15-15c-4.348,0-8.258,1.871-11,4.836V4c0-1.654-1.346-3-3-3H4   C2.346,1,1,2.346,1,4v12c0,1.654,1.346,3,3,3h5.667L19,26v-7h8v5v3.169c0,1.93-0.623,3.785-1.703,5.329l-3.068-3.067l-2.567,1.522   c-0.049-0.021-0.098-0.041-0.146-0.061L18.777,28h-7.554l-0.738,2.893c-0.049,0.02-0.098,0.04-0.146,0.061l-2.567-1.522   l-5.341,5.34l1.523,2.567c-0.021,0.049-0.041,0.098-0.061,0.146L1,38.224v7.553l2.893,0.739c0.02,0.049,0.04,0.098,0.061,0.146   L2.43,49.229l5.341,5.34l2.567-1.522c0.049,0.021,0.098,0.041,0.146,0.061L11.223,56h7.554l0.738-2.893   c0.049-0.02,0.098-0.04,0.146-0.061L21,53.841V63h42V47.324C63,44.307,61.077,41.638,58.214,40.685z M50,42c0,2.206-1.794,4-4,4   c-1.026,0-1.987-0.391-2.724-1.09l4.107-5.728l1.967,0.656C49.769,40.483,50,41.222,50,42z M42,43.257l-4-5.578v-1.442   C39.242,36.723,40.588,37,42,37s2.758-0.277,4-0.764v1.442L42,43.257z M34.649,39.838l1.968-0.656l4.107,5.728   C39.987,45.609,39.026,46,38,46c-2.206,0-4-1.794-4-4C34,41.222,34.231,40.483,34.649,39.838z M33,20h1.757   c2.681,0,5.218-0.932,7.243-2.643C44.024,19.068,46.562,20,49.243,20H51v6c0,4.963-4.038,9-9,9s-9-4.037-9-9V20z M59.163,35.927   c-1.603,0.82-4.714,2.04-9.016,2.068L48,37.279v-2.072c2.21-1.445,3.864-3.663,4.589-6.267c0.92-0.11,1.757-0.462,2.455-1.002   C55.26,31.053,56.76,33.962,59.163,35.927z M52.958,26.829C52.979,26.554,53,26.28,53,26v-4.816c1.161,0.414,2,1.514,2,2.816   C55,25.317,54.141,26.427,52.958,26.829z M42,3c7.168,0,13,5.832,13,13v4.026c-0.584-0.442-1.257-0.773-2-0.924V16h-2v2h-1.757   c-2.469,0-4.79-0.961-6.536-2.707L42,14.586l-0.707,0.707C39.547,17.039,37.226,18,34.757,18H33v-2h-2v3.101   c-0.743,0.152-1.416,0.482-2,0.924V16C29,8.832,34.832,3,42,3z M17,17v5l-6.667-5H4c-0.551,0-1-0.448-1-1V4c0-0.552,0.449-1,1-1h24   c0.551,0,1,0.448,1,1v4.548c-1.265,2.198-2,4.738-2,7.452v1H17z M31,21.184V26c0,0.28,0.021,0.554,0.042,0.829   C29.859,26.427,29,25.317,29,24C29,22.698,29.839,21.598,31,21.184z M28.956,27.938c0.698,0.541,1.535,0.892,2.455,1.002   c0.724,2.605,2.379,4.822,4.589,6.267v2.072l-2.146,0.716c-4.302-0.028-7.414-1.248-9.017-2.068   C27.24,33.962,28.74,31.053,28.956,27.938z M19.776,50.789l-0.482,0.23c-0.309,0.147-0.626,0.28-0.952,0.395l-0.504,0.178   L17.223,54h-4.446l-0.614-2.408l-0.504-0.178c-0.326-0.114-0.643-0.247-0.952-0.395l-0.482-0.23l-2.138,1.269l-3.144-3.145   l1.268-2.137l-0.23-0.481c-0.148-0.311-0.28-0.629-0.396-0.955l-0.178-0.502L3,44.224v-4.447l2.406-0.614l0.178-0.503   c0.116-0.326,0.248-0.644,0.396-0.954l0.23-0.481l-1.268-2.137l3.144-3.145l2.138,1.269l0.482-0.23   c0.309-0.147,0.626-0.28,0.952-0.395l0.504-0.178L12.777,30h4.446l0.614,2.408l0.504,0.178c0.326,0.114,0.643,0.247,0.952,0.395   l0.482,0.23l2.138-1.269l2.061,2.061c-0.458,0.422-0.946,0.813-1.489,1.139l-1.275,0.765L22.4,36.8   c0.132,0.099,2.546,1.87,6.839,2.734l-3.452,1.151c-1.093,0.364-2.045,0.98-2.81,1.768C22.986,42.302,23,42.153,23,42   c0-4.411-3.589-8-8-8s-8,3.589-8,8s3.589,8,8,8c2.392,0,4.537-1.061,6.004-2.731c0,0.019-0.004,0.037-0.004,0.055v4.191   L19.776,50.789z M21,42c0,3.309-2.691,6-6,6s-6-2.691-6-6s2.691-6,6-6S21,38.691,21,42z M61,61h-6v-1.602   c1.293-1.438,2-3.277,2-5.227v-0.344c0-1.949-0.707-3.789-2-5.227V46h-2v3.414l0.293,0.293C54.394,50.808,55,52.271,55,53.828   v0.344c0,1.557-0.606,3.021-1.707,4.121L53,58.586V61H31v-2.414l-0.293-0.293C29.606,57.192,29,55.729,29,54.172v-0.344   c0-1.557,0.606-3.021,1.707-4.121L31,49.414V46h-2v2.602c-1.293,1.438-2,3.277-2,5.227v0.344c0,1.949,0.707,3.789,2,5.227V61h-6   V47.324c0-2.155,1.374-4.062,3.419-4.743l5.748-1.916C32.068,41.1,32,41.544,32,42c0,3.309,2.691,6,6,6   c1.504,0,2.907-0.561,4-1.557C43.093,47.439,44.496,48,46,48c3.309,0,6-2.691,6-6c0-0.456-0.068-0.9-0.167-1.335l5.749,1.916   C59.626,43.263,61,45.169,61,47.324V61z"/><circle cx="37" cy="23" r="1"/><circle cx="47" cy="23" r="1"/><path d="M42,32c2.206,0,4-1.794,4-4h-2c0,1.103-0.897,2-2,2s-2-0.897-2-2h-2C38,30.206,39.794,32,42,32z"/><rect height="2" width="20" x="5" y="5"/><rect height="2" width="20" x="5" y="9"/><rect height="2" width="2" x="16" y="13"/><rect height="2" width="2" x="22" y="13"/><rect height="2" width="2" x="10" y="13"/></g></svg>