<svg width="326" height="326" viewBox="0 0 326 326" fill="none" xmlns="http://www.w3.org/2000/svg">
<path d="M100.03 138.792L143.845 177.46L150.807 169.573L106.986 130.905C102.622 127.056 100.114 121.503 100.114 115.677H89.5975C89.5975 124.521 93.4044 132.945 100.03 138.792Z" fill="url(#paint0_linear)"/>
<path d="M86.1167 154.566L163.216 222.595L240.162 154.471C251.209 144.686 257.577 130.616 257.64 115.888L257.645 115.199C257.708 101.297 252.345 88.2198 242.539 78.3715C240.683 76.5101 238.685 74.8591 236.613 73.3237V53.7585L221.401 49.8727C221.296 49.6151 221.191 49.3575 221.081 49.1051L229.089 35.6076L201.011 7.51903L187.513 15.5271C187.256 15.4166 186.998 15.3115 186.746 15.2063L182.855 0H143.14L139.255 15.2116C138.997 15.3167 138.739 15.4219 138.487 15.5323L124.99 7.51903L96.9063 35.6024L104.914 49.0998C104.804 49.3575 104.699 49.6151 104.594 49.8675L89.3872 53.7585V73.513C76.7731 82.9828 68.5653 98.0156 68.5653 114.962V115.677C68.5653 130.552 74.9644 144.723 86.1167 154.566ZM99.9034 61.919L112.56 58.6905L113.501 56.0405C114.1 54.3263 114.799 52.6543 115.578 51.0295L116.787 48.5004L110.12 37.2639L126.651 20.7325L137.888 27.3998L140.417 26.1904C142.047 25.4175 143.714 24.7182 145.428 24.1135L148.078 23.1723L151.306 10.5161H174.689L177.917 23.1723L180.567 24.1135C182.281 24.7129 183.954 25.4122 185.578 26.1904L188.107 27.3998L199.344 20.7325L215.875 37.2639L209.208 48.5004L210.417 51.0295C211.19 52.6595 211.89 54.3263 212.494 56.0405L213.435 58.6905L226.097 61.919V67.2296C219.756 64.5322 212.883 63.0968 205.78 63.0968C205.091 63.0968 204.407 63.1546 203.724 63.1862C199.034 44.846 182.355 31.5484 163 31.5484C143.661 31.5484 126.972 44.846 122.282 63.1756C121.661 63.1546 121.051 63.0968 120.431 63.0968C113.138 63.0968 106.203 64.6269 99.9034 67.3506V61.919ZM152.552 74.2176C152.537 74.0125 152.484 73.818 152.484 73.6129C152.484 67.8133 157.2 63.0968 163 63.0968C168.8 63.0968 173.516 67.8133 173.516 73.6129C173.516 73.8863 173.443 74.1545 173.422 74.4279L163.079 82.6568L153.015 74.5594C152.863 74.4384 152.7 74.3333 152.552 74.2176ZM183.265 68.2917C180.893 59.2794 172.749 52.5806 163 52.5806C153.294 52.5806 145.186 59.2216 142.772 68.1761C139.586 66.6617 136.258 65.4682 132.824 64.6269C136.736 51.487 148.909 42.0645 163 42.0645C177.118 42.0645 189.296 51.508 193.197 64.6689C189.769 65.5313 186.451 66.7616 183.265 68.2917ZM79.0814 114.962C79.0814 92.1634 97.6319 73.6129 120.494 73.6129C129.895 73.6129 139.102 76.8571 146.421 82.7514L163.037 96.1174L180.042 82.5989C187.324 76.8045 196.462 73.6129 205.78 73.6129C216.858 73.6129 227.269 77.935 235.088 85.7906C242.902 93.6409 247.182 104.073 247.129 115.131L247.124 115.83C247.071 127.582 241.992 138.797 233.19 146.6L163.205 208.561L93.0731 146.679C84.1818 138.834 79.0814 127.534 79.0814 115.677V114.962Z" fill="url(#paint1_linear)"/>
<path d="M309.59 173.516C305.267 173.516 301.04 175.267 297.985 178.322L265.984 210.323H248.191L254.89 200.274C256.688 197.567 257.645 194.422 257.645 191.167V189.927C257.645 180.877 250.284 173.516 241.235 173.516C236.913 173.516 232.685 175.267 229.63 178.322L179.042 228.91C172.091 235.861 168.258 245.105 168.258 254.937V283.935H157.742V254.937C157.742 245.105 153.909 235.861 146.958 228.91L96.3698 178.322C93.3149 175.267 89.0874 173.516 84.7653 173.516C75.7161 173.516 68.3548 180.877 68.3548 189.927V191.167C68.3548 194.417 69.3118 197.567 71.1101 200.269L77.8088 210.323H60.0155L28.015 178.322C24.96 175.267 20.7325 173.516 16.4104 173.516C7.36129 173.516 0 180.877 0 189.927V191.167C0 194.417 0.956968 197.567 2.75523 200.269L33.578 246.509C40.424 256.778 51.8761 262.903 64.2062 262.903H94.6452C97.5476 262.903 99.9032 265.259 99.9032 268.161V283.935H89.3871V326H157.742H168.258H236.613V283.935H226.097V268.161C226.097 265.259 228.452 262.903 231.355 262.903H261.794C274.124 262.903 285.571 256.778 292.417 246.514L323.24 200.274C325.043 197.567 326 194.422 326 191.167V189.927C326 180.877 318.639 173.516 309.59 173.516ZM94.6452 252.387H64.2062C55.399 252.387 47.2227 248.012 42.3327 240.677L11.5099 194.438C10.8579 193.47 10.5161 192.335 10.5161 191.167V189.927C10.5161 186.677 13.1609 184.032 16.4104 184.032C17.9615 184.032 19.4811 184.658 20.5801 185.757L55.6619 220.839H84.8231L90.2705 229.015L99.0199 223.184L79.8595 194.443C79.2127 193.47 78.871 192.335 78.871 191.167V189.927C78.871 186.677 81.5158 184.032 84.7653 184.032C86.3164 184.032 87.836 184.658 88.9349 185.757L139.523 236.345C144.486 241.308 147.226 247.912 147.226 254.937V283.935H110.419V268.161C110.419 259.464 103.342 252.387 94.6452 252.387ZM157.742 315.484H99.9032V294.452H157.742V315.484ZM226.097 315.484H168.258V294.452H226.097V315.484ZM315.484 191.167C315.484 192.335 315.142 193.47 314.495 194.438L283.673 240.677C278.783 248.012 270.601 252.387 261.794 252.387H231.355C222.658 252.387 215.581 259.464 215.581 268.161V283.935H178.774V254.937C178.774 247.912 181.514 241.308 186.477 236.345L237.065 185.757C238.164 184.658 239.684 184.032 241.235 184.032C244.484 184.032 247.129 186.677 247.129 189.927V191.167C247.129 192.335 246.787 193.47 246.141 194.438L226.98 223.179L235.73 229.01L241.177 220.839H270.338L305.42 185.757C306.519 184.658 308.038 184.032 309.59 184.032C312.839 184.032 315.484 186.677 315.484 189.927V191.167Z" fill="url(#paint2_linear)"/>
<defs>
<linearGradient id="paint0_linear" x1="120.202" y1="115.677" x2="120.202" y2="177.46" gradientUnits="userSpaceOnUse">
<stop stop-color="#6C63FF"/>
<stop offset="1" stop-color="#2EA5FC"/>
</linearGradient>
<linearGradient id="paint1_linear" x1="163.106" y1="0" x2="163.106" y2="222.595" gradientUnits="userSpaceOnUse">
<stop stop-color="#6C63FF"/>
<stop offset="1" stop-color="#2EA5FC"/>
</linearGradient>
<linearGradient id="paint2_linear" x1="163" y1="173.516" x2="163" y2="326" gradientUnits="userSpaceOnUse">
<stop stop-color="#6C63FF"/>
<stop offset="1" stop-color="#2EA5FC"/>
</linearGradient>
</defs>
</svg>
