<svg width="257" height="298" viewBox="0 0 257 298" fill="none" xmlns="http://www.w3.org/2000/svg">
<path d="M201.812 23.9393V0H55.1875V23.84H0V91.486C0.00520568 100.992 2.05012 110.387 5.99711 119.038C9.9441 127.689 15.7016 135.395 22.882 141.638C30.0624 147.881 38.4991 152.516 47.6242 155.231C56.7493 157.946 66.3512 158.678 75.7833 157.377C85.2687 172.078 97.4736 182.84 111.204 187.806V240.784H89.8455V260.651H72.5331L53.7614 298H203.006L184.467 260.75H167.154V240.883H145.796V187.906C159.526 182.939 171.731 172.178 181.217 157.476C190.649 158.777 200.251 158.045 209.376 155.33C218.501 152.615 226.938 147.98 234.118 141.737C241.298 135.494 247.056 127.788 251.003 119.137C254.95 110.486 256.995 101.091 257 91.5853V23.9393H201.812ZM201.812 51.8851H229.041V91.2542C228.941 100.812 225.346 110.005 218.933 117.103C212.52 124.2 203.731 128.714 194.218 129.796C199.322 114.077 201.885 97.6463 201.812 81.1222V51.8851ZM62.7824 129.796C53.2694 128.714 44.4798 124.2 38.0667 117.103C31.6536 110.005 28.0588 100.812 27.9586 91.2542V51.8851H55.1875V81.1222C55.1147 97.6463 57.6785 114.077 62.7824 129.796V129.796ZM67.0276 148.669C51.7983 148.609 37.2051 142.565 26.4053 131.845C15.6055 121.125 9.4676 106.59 9.31953 91.3867V33.1111H55.1875V42.4153H18.7054V91.3205C18.7989 103.951 23.8367 116.044 32.7422 125.015C41.6477 133.986 53.7146 139.124 66.3643 139.332C67.6909 142.51 69.1281 145.579 70.6758 148.536C69.4819 148.603 68.3211 148.669 67.0276 148.669ZM178.696 270.054L188.016 288.696H68.9844L78.3039 270.087H178.696V270.054ZM157.835 260.75H99.1651V250.088H157.835V260.75ZM136.476 240.883H120.524V190.256C125.805 191.135 131.195 191.135 136.476 190.256V240.883ZM128.517 181.581C112.166 181.581 96.5118 171.648 84.4395 153.569C71.6045 134.332 64.5402 108.604 64.5402 81.0891V9.40356H192.493V81.1222C192.493 108.638 185.429 134.365 172.594 153.602C160.521 171.648 144.867 181.581 128.517 181.581ZM247.68 90.592V91.4198C247.523 106.658 241.349 121.218 230.501 131.938C219.652 142.657 205.004 148.67 189.74 148.669C188.546 148.669 187.385 148.669 186.192 148.669C187.717 145.711 189.154 142.643 190.503 139.464C203.159 139.265 215.234 134.131 224.146 125.159C233.059 116.187 238.101 104.089 238.195 91.4529V42.5809H201.713V33.1111H247.68V90.592Z" fill="url(#paint0_linear)"/>
<defs>
<linearGradient id="paint0_linear" x1="128.5" y1="0" x2="128.5" y2="298" gradientUnits="userSpaceOnUse">
<stop stop-color="#6C63FF"/>
<stop offset="1" stop-color="#2EA5FC"/>
</linearGradient>
</defs>
</svg>
